<?xml version="1.0" encoding="utf-8" standalone="no"?>
<!DOCTYPE svg PUBLIC "-//W3C//DTD SVG 1.1//EN"
  "http://www.w3.org/Graphics/SVG/1.1/DTD/svg11.dtd">
<svg xmlns:xlink="http://www.w3.org/1999/xlink" width="460.8pt" height="345.6pt" viewBox="0 0 460.8 345.6" xmlns="http://www.w3.org/2000/svg" version="1.1">
 <metadata>
  <rdf:RDF xmlns:dc="http://purl.org/dc/elements/1.1/" xmlns:cc="http://creativecommons.org/ns#" xmlns:rdf="http://www.w3.org/1999/02/22-rdf-syntax-ns#">
   <cc:Work>
    <dc:type rdf:resource="http://purl.org/dc/dcmitype/StillImage"/>
    <dc:date>2024-06-23T23:02:47.442578</dc:date>
    <dc:format>image/svg+xml</dc:format>
    <dc:creator>
     <cc:Agent>
      <dc:title>Matplotlib v3.8.2, https://matplotlib.org/</dc:title>
     </cc:Agent>
    </dc:creator>
   </cc:Work>
  </rdf:RDF>
 </metadata>
 <defs>
  <style type="text/css">*{stroke-linejoin: round; stroke-linecap: butt}</style>
 </defs>
 <g id="figure_1">
  <g id="patch_1">
   <path d="M 0 345.6 
L 460.8 345.6 
L 460.8 0 
L 0 0 
z
" style="fill: #ffffff"/>
  </g>
  <g id="axes_1">
   <g id="patch_2">
    <path d="M 57.6 307.584 
L 414.72 307.584 
L 414.72 41.472 
L 57.6 41.472 
z
" style="fill: #ffffff"/>
   </g>
   <g id="matplotlib.axis_1">
    <g id="xtick_1">
     <g id="line2d_1">
      <defs>
       <path id="m4d75b87f8d" d="M 0 0 
L 0 3.5 
" style="stroke: #000000; stroke-width: 0.8"/>
      </defs>
      <g>
       <use xlink:href="#m4d75b87f8d" x="73.832727" y="307.584" style="stroke: #000000; stroke-width: 0.8"/>
      </g>
     </g>
     <g id="text_1">
      <!-- 0 -->
      <g transform="translate(70.651477 322.182437) scale(0.1 -0.1)">
       <defs>
        <path id="DejaVuSans-30" d="M 2034 4250 
Q 1547 4250 1301 3770 
Q 1056 3291 1056 2328 
Q 1056 1369 1301 889 
Q 1547 409 2034 409 
Q 2525 409 2770 889 
Q 3016 1369 3016 2328 
Q 3016 3291 2770 3770 
Q 2525 4250 2034 4250 
z
M 2034 4750 
Q 2819 4750 3233 4129 
Q 3647 3509 3647 2328 
Q 3647 1150 3233 529 
Q 2819 -91 2034 -91 
Q 1250 -91 836 529 
Q 422 1150 422 2328 
Q 422 3509 836 4129 
Q 1250 4750 2034 4750 
z
" transform="scale(0.015625)"/>
       </defs>
       <use xlink:href="#DejaVuSans-30"/>
      </g>
     </g>
    </g>
    <g id="xtick_2">
     <g id="line2d_2">
      <g>
       <use xlink:href="#m4d75b87f8d" x="116.833329" y="307.584" style="stroke: #000000; stroke-width: 0.8"/>
      </g>
     </g>
     <g id="text_2">
      <!-- 200 -->
      <g transform="translate(107.289579 322.182437) scale(0.1 -0.1)">
       <defs>
        <path id="DejaVuSans-32" d="M 1228 531 
L 3431 531 
L 3431 0 
L 469 0 
L 469 531 
Q 828 903 1448 1529 
Q 2069 2156 2228 2338 
Q 2531 2678 2651 2914 
Q 2772 3150 2772 3378 
Q 2772 3750 2511 3984 
Q 2250 4219 1831 4219 
Q 1534 4219 1204 4116 
Q 875 4013 500 3803 
L 500 4441 
Q 881 4594 1212 4672 
Q 1544 4750 1819 4750 
Q 2544 4750 2975 4387 
Q 3406 4025 3406 3419 
Q 3406 3131 3298 2873 
Q 3191 2616 2906 2266 
Q 2828 2175 2409 1742 
Q 1991 1309 1228 531 
z
" transform="scale(0.015625)"/>
       </defs>
       <use xlink:href="#DejaVuSans-32"/>
       <use xlink:href="#DejaVuSans-30" x="63.623047"/>
       <use xlink:href="#DejaVuSans-30" x="127.246094"/>
      </g>
     </g>
    </g>
    <g id="xtick_3">
     <g id="line2d_3">
      <g>
       <use xlink:href="#m4d75b87f8d" x="159.833931" y="307.584" style="stroke: #000000; stroke-width: 0.8"/>
      </g>
     </g>
     <g id="text_3">
      <!-- 400 -->
      <g transform="translate(150.290181 322.182437) scale(0.1 -0.1)">
       <defs>
        <path id="DejaVuSans-34" d="M 2419 4116 
L 825 1625 
L 2419 1625 
L 2419 4116 
z
M 2253 4666 
L 3047 4666 
L 3047 1625 
L 3713 1625 
L 3713 1100 
L 3047 1100 
L 3047 0 
L 2419 0 
L 2419 1100 
L 313 1100 
L 313 1709 
L 2253 4666 
z
" transform="scale(0.015625)"/>
       </defs>
       <use xlink:href="#DejaVuSans-34"/>
       <use xlink:href="#DejaVuSans-30" x="63.623047"/>
       <use xlink:href="#DejaVuSans-30" x="127.246094"/>
      </g>
     </g>
    </g>
    <g id="xtick_4">
     <g id="line2d_4">
      <g>
       <use xlink:href="#m4d75b87f8d" x="202.834533" y="307.584" style="stroke: #000000; stroke-width: 0.8"/>
      </g>
     </g>
     <g id="text_4">
      <!-- 600 -->
      <g transform="translate(193.290783 322.182437) scale(0.1 -0.1)">
       <defs>
        <path id="DejaVuSans-36" d="M 2113 2584 
Q 1688 2584 1439 2293 
Q 1191 2003 1191 1497 
Q 1191 994 1439 701 
Q 1688 409 2113 409 
Q 2538 409 2786 701 
Q 3034 994 3034 1497 
Q 3034 2003 2786 2293 
Q 2538 2584 2113 2584 
z
M 3366 4563 
L 3366 3988 
Q 3128 4100 2886 4159 
Q 2644 4219 2406 4219 
Q 1781 4219 1451 3797 
Q 1122 3375 1075 2522 
Q 1259 2794 1537 2939 
Q 1816 3084 2150 3084 
Q 2853 3084 3261 2657 
Q 3669 2231 3669 1497 
Q 3669 778 3244 343 
Q 2819 -91 2113 -91 
Q 1303 -91 875 529 
Q 447 1150 447 2328 
Q 447 3434 972 4092 
Q 1497 4750 2381 4750 
Q 2619 4750 2861 4703 
Q 3103 4656 3366 4563 
z
" transform="scale(0.015625)"/>
       </defs>
       <use xlink:href="#DejaVuSans-36"/>
       <use xlink:href="#DejaVuSans-30" x="63.623047"/>
       <use xlink:href="#DejaVuSans-30" x="127.246094"/>
      </g>
     </g>
    </g>
    <g id="xtick_5">
     <g id="line2d_5">
      <g>
       <use xlink:href="#m4d75b87f8d" x="245.835135" y="307.584" style="stroke: #000000; stroke-width: 0.8"/>
      </g>
     </g>
     <g id="text_5">
      <!-- 800 -->
      <g transform="translate(236.291385 322.182437) scale(0.1 -0.1)">
       <defs>
        <path id="DejaVuSans-38" d="M 2034 2216 
Q 1584 2216 1326 1975 
Q 1069 1734 1069 1313 
Q 1069 891 1326 650 
Q 1584 409 2034 409 
Q 2484 409 2743 651 
Q 3003 894 3003 1313 
Q 3003 1734 2745 1975 
Q 2488 2216 2034 2216 
z
M 1403 2484 
Q 997 2584 770 2862 
Q 544 3141 544 3541 
Q 544 4100 942 4425 
Q 1341 4750 2034 4750 
Q 2731 4750 3128 4425 
Q 3525 4100 3525 3541 
Q 3525 3141 3298 2862 
Q 3072 2584 2669 2484 
Q 3125 2378 3379 2068 
Q 3634 1759 3634 1313 
Q 3634 634 3220 271 
Q 2806 -91 2034 -91 
Q 1263 -91 848 271 
Q 434 634 434 1313 
Q 434 1759 690 2068 
Q 947 2378 1403 2484 
z
M 1172 3481 
Q 1172 3119 1398 2916 
Q 1625 2713 2034 2713 
Q 2441 2713 2670 2916 
Q 2900 3119 2900 3481 
Q 2900 3844 2670 4047 
Q 2441 4250 2034 4250 
Q 1625 4250 1398 4047 
Q 1172 3844 1172 3481 
z
" transform="scale(0.015625)"/>
       </defs>
       <use xlink:href="#DejaVuSans-38"/>
       <use xlink:href="#DejaVuSans-30" x="63.623047"/>
       <use xlink:href="#DejaVuSans-30" x="127.246094"/>
      </g>
     </g>
    </g>
    <g id="xtick_6">
     <g id="line2d_6">
      <g>
       <use xlink:href="#m4d75b87f8d" x="288.835738" y="307.584" style="stroke: #000000; stroke-width: 0.8"/>
      </g>
     </g>
     <g id="text_6">
      <!-- 1000 -->
      <g transform="translate(276.110738 322.182437) scale(0.1 -0.1)">
       <defs>
        <path id="DejaVuSans-31" d="M 794 531 
L 1825 531 
L 1825 4091 
L 703 3866 
L 703 4441 
L 1819 4666 
L 2450 4666 
L 2450 531 
L 3481 531 
L 3481 0 
L 794 0 
L 794 531 
z
" transform="scale(0.015625)"/>
       </defs>
       <use xlink:href="#DejaVuSans-31"/>
       <use xlink:href="#DejaVuSans-30" x="63.623047"/>
       <use xlink:href="#DejaVuSans-30" x="127.246094"/>
       <use xlink:href="#DejaVuSans-30" x="190.869141"/>
      </g>
     </g>
    </g>
    <g id="xtick_7">
     <g id="line2d_7">
      <g>
       <use xlink:href="#m4d75b87f8d" x="331.83634" y="307.584" style="stroke: #000000; stroke-width: 0.8"/>
      </g>
     </g>
     <g id="text_7">
      <!-- 1200 -->
      <g transform="translate(319.11134 322.182437) scale(0.1 -0.1)">
       <use xlink:href="#DejaVuSans-31"/>
       <use xlink:href="#DejaVuSans-32" x="63.623047"/>
       <use xlink:href="#DejaVuSans-30" x="127.246094"/>
       <use xlink:href="#DejaVuSans-30" x="190.869141"/>
      </g>
     </g>
    </g>
    <g id="xtick_8">
     <g id="line2d_8">
      <g>
       <use xlink:href="#m4d75b87f8d" x="374.836942" y="307.584" style="stroke: #000000; stroke-width: 0.8"/>
      </g>
     </g>
     <g id="text_8">
      <!-- 1400 -->
      <g transform="translate(362.111942 322.182437) scale(0.1 -0.1)">
       <use xlink:href="#DejaVuSans-31"/>
       <use xlink:href="#DejaVuSans-34" x="63.623047"/>
       <use xlink:href="#DejaVuSans-30" x="127.246094"/>
       <use xlink:href="#DejaVuSans-30" x="190.869141"/>
      </g>
     </g>
    </g>
    <g id="text_9">
     <!-- Iterations -->
     <g transform="translate(212.346719 335.860562) scale(0.1 -0.1)">
      <defs>
       <path id="DejaVuSans-49" d="M 628 4666 
L 1259 4666 
L 1259 0 
L 628 0 
L 628 4666 
z
" transform="scale(0.015625)"/>
       <path id="DejaVuSans-74" d="M 1172 4494 
L 1172 3500 
L 2356 3500 
L 2356 3053 
L 1172 3053 
L 1172 1153 
Q 1172 725 1289 603 
Q 1406 481 1766 481 
L 2356 481 
L 2356 0 
L 1766 0 
Q 1100 0 847 248 
Q 594 497 594 1153 
L 594 3053 
L 172 3053 
L 172 3500 
L 594 3500 
L 594 4494 
L 1172 4494 
z
" transform="scale(0.015625)"/>
       <path id="DejaVuSans-65" d="M 3597 1894 
L 3597 1613 
L 953 1613 
Q 991 1019 1311 708 
Q 1631 397 2203 397 
Q 2534 397 2845 478 
Q 3156 559 3463 722 
L 3463 178 
Q 3153 47 2828 -22 
Q 2503 -91 2169 -91 
Q 1331 -91 842 396 
Q 353 884 353 1716 
Q 353 2575 817 3079 
Q 1281 3584 2069 3584 
Q 2775 3584 3186 3129 
Q 3597 2675 3597 1894 
z
M 3022 2063 
Q 3016 2534 2758 2815 
Q 2500 3097 2075 3097 
Q 1594 3097 1305 2825 
Q 1016 2553 972 2059 
L 3022 2063 
z
" transform="scale(0.015625)"/>
       <path id="DejaVuSans-72" d="M 2631 2963 
Q 2534 3019 2420 3045 
Q 2306 3072 2169 3072 
Q 1681 3072 1420 2755 
Q 1159 2438 1159 1844 
L 1159 0 
L 581 0 
L 581 3500 
L 1159 3500 
L 1159 2956 
Q 1341 3275 1631 3429 
Q 1922 3584 2338 3584 
Q 2397 3584 2469 3576 
Q 2541 3569 2628 3553 
L 2631 2963 
z
" transform="scale(0.015625)"/>
       <path id="DejaVuSans-61" d="M 2194 1759 
Q 1497 1759 1228 1600 
Q 959 1441 959 1056 
Q 959 750 1161 570 
Q 1363 391 1709 391 
Q 2188 391 2477 730 
Q 2766 1069 2766 1631 
L 2766 1759 
L 2194 1759 
z
M 3341 1997 
L 3341 0 
L 2766 0 
L 2766 531 
Q 2569 213 2275 61 
Q 1981 -91 1556 -91 
Q 1019 -91 701 211 
Q 384 513 384 1019 
Q 384 1609 779 1909 
Q 1175 2209 1959 2209 
L 2766 2209 
L 2766 2266 
Q 2766 2663 2505 2880 
Q 2244 3097 1772 3097 
Q 1472 3097 1187 3025 
Q 903 2953 641 2809 
L 641 3341 
Q 956 3463 1253 3523 
Q 1550 3584 1831 3584 
Q 2591 3584 2966 3190 
Q 3341 2797 3341 1997 
z
" transform="scale(0.015625)"/>
       <path id="DejaVuSans-69" d="M 603 3500 
L 1178 3500 
L 1178 0 
L 603 0 
L 603 3500 
z
M 603 4863 
L 1178 4863 
L 1178 4134 
L 603 4134 
L 603 4863 
z
" transform="scale(0.015625)"/>
       <path id="DejaVuSans-6f" d="M 1959 3097 
Q 1497 3097 1228 2736 
Q 959 2375 959 1747 
Q 959 1119 1226 758 
Q 1494 397 1959 397 
Q 2419 397 2687 759 
Q 2956 1122 2956 1747 
Q 2956 2369 2687 2733 
Q 2419 3097 1959 3097 
z
M 1959 3584 
Q 2709 3584 3137 3096 
Q 3566 2609 3566 1747 
Q 3566 888 3137 398 
Q 2709 -91 1959 -91 
Q 1206 -91 779 398 
Q 353 888 353 1747 
Q 353 2609 779 3096 
Q 1206 3584 1959 3584 
z
" transform="scale(0.015625)"/>
       <path id="DejaVuSans-6e" d="M 3513 2113 
L 3513 0 
L 2938 0 
L 2938 2094 
Q 2938 2591 2744 2837 
Q 2550 3084 2163 3084 
Q 1697 3084 1428 2787 
Q 1159 2491 1159 1978 
L 1159 0 
L 581 0 
L 581 3500 
L 1159 3500 
L 1159 2956 
Q 1366 3272 1645 3428 
Q 1925 3584 2291 3584 
Q 2894 3584 3203 3211 
Q 3513 2838 3513 2113 
z
" transform="scale(0.015625)"/>
       <path id="DejaVuSans-73" d="M 2834 3397 
L 2834 2853 
Q 2591 2978 2328 3040 
Q 2066 3103 1784 3103 
Q 1356 3103 1142 2972 
Q 928 2841 928 2578 
Q 928 2378 1081 2264 
Q 1234 2150 1697 2047 
L 1894 2003 
Q 2506 1872 2764 1633 
Q 3022 1394 3022 966 
Q 3022 478 2636 193 
Q 2250 -91 1575 -91 
Q 1294 -91 989 -36 
Q 684 19 347 128 
L 347 722 
Q 666 556 975 473 
Q 1284 391 1588 391 
Q 1994 391 2212 530 
Q 2431 669 2431 922 
Q 2431 1156 2273 1281 
Q 2116 1406 1581 1522 
L 1381 1569 
Q 847 1681 609 1914 
Q 372 2147 372 2553 
Q 372 3047 722 3315 
Q 1072 3584 1716 3584 
Q 2034 3584 2315 3537 
Q 2597 3491 2834 3397 
z
" transform="scale(0.015625)"/>
      </defs>
      <use xlink:href="#DejaVuSans-49"/>
      <use xlink:href="#DejaVuSans-74" x="29.492188"/>
      <use xlink:href="#DejaVuSans-65" x="68.701172"/>
      <use xlink:href="#DejaVuSans-72" x="130.224609"/>
      <use xlink:href="#DejaVuSans-61" x="171.337891"/>
      <use xlink:href="#DejaVuSans-74" x="232.617188"/>
      <use xlink:href="#DejaVuSans-69" x="271.826172"/>
      <use xlink:href="#DejaVuSans-6f" x="299.609375"/>
      <use xlink:href="#DejaVuSans-6e" x="360.791016"/>
      <use xlink:href="#DejaVuSans-73" x="424.169922"/>
     </g>
    </g>
   </g>
   <g id="matplotlib.axis_2">
    <g id="ytick_1">
     <g id="line2d_9">
      <defs>
       <path id="med2318c661" d="M 0 0 
L -3.5 0 
" style="stroke: #000000; stroke-width: 0.8"/>
      </defs>
      <g>
       <use xlink:href="#med2318c661" x="57.6" y="286.796122" style="stroke: #000000; stroke-width: 0.8"/>
      </g>
     </g>
     <g id="text_10">
      <!-- $\mathdefault{10^{2}}$ -->
      <g transform="translate(33 290.595341) scale(0.1 -0.1)">
       <use xlink:href="#DejaVuSans-31" transform="translate(0 0.765625)"/>
       <use xlink:href="#DejaVuSans-30" transform="translate(63.623047 0.765625)"/>
       <use xlink:href="#DejaVuSans-32" transform="translate(128.203125 39.046875) scale(0.7)"/>
      </g>
     </g>
    </g>
    <g id="ytick_2">
     <g id="line2d_10">
      <g>
       <use xlink:href="#med2318c661" x="57.6" y="145.679718" style="stroke: #000000; stroke-width: 0.8"/>
      </g>
     </g>
     <g id="text_11">
      <!-- $\mathdefault{10^{3}}$ -->
      <g transform="translate(33 149.478937) scale(0.1 -0.1)">
       <defs>
        <path id="DejaVuSans-33" d="M 2597 2516 
Q 3050 2419 3304 2112 
Q 3559 1806 3559 1356 
Q 3559 666 3084 287 
Q 2609 -91 1734 -91 
Q 1441 -91 1130 -33 
Q 819 25 488 141 
L 488 750 
Q 750 597 1062 519 
Q 1375 441 1716 441 
Q 2309 441 2620 675 
Q 2931 909 2931 1356 
Q 2931 1769 2642 2001 
Q 2353 2234 1838 2234 
L 1294 2234 
L 1294 2753 
L 1863 2753 
Q 2328 2753 2575 2939 
Q 2822 3125 2822 3475 
Q 2822 3834 2567 4026 
Q 2313 4219 1838 4219 
Q 1578 4219 1281 4162 
Q 984 4106 628 3988 
L 628 4550 
Q 988 4650 1302 4700 
Q 1616 4750 1894 4750 
Q 2613 4750 3031 4423 
Q 3450 4097 3450 3541 
Q 3450 3153 3228 2886 
Q 3006 2619 2597 2516 
z
" transform="scale(0.015625)"/>
       </defs>
       <use xlink:href="#DejaVuSans-31" transform="translate(0 0.765625)"/>
       <use xlink:href="#DejaVuSans-30" transform="translate(63.623047 0.765625)"/>
       <use xlink:href="#DejaVuSans-33" transform="translate(128.203125 39.046875) scale(0.7)"/>
      </g>
     </g>
    </g>
    <g id="ytick_3">
     <g id="line2d_11">
      <defs>
       <path id="m0796516d2b" d="M 0 0 
L -2 0 
" style="stroke: #000000; stroke-width: 0.6"/>
      </defs>
      <g>
       <use xlink:href="#m0796516d2b" x="57.6" y="300.471714" style="stroke: #000000; stroke-width: 0.6"/>
      </g>
     </g>
    </g>
    <g id="ytick_4">
     <g id="line2d_12">
      <g>
       <use xlink:href="#m0796516d2b" x="57.6" y="293.253254" style="stroke: #000000; stroke-width: 0.6"/>
      </g>
     </g>
    </g>
    <g id="ytick_5">
     <g id="line2d_13">
      <g>
       <use xlink:href="#m0796516d2b" x="57.6" y="244.315852" style="stroke: #000000; stroke-width: 0.6"/>
      </g>
     </g>
    </g>
    <g id="ytick_6">
     <g id="line2d_14">
      <g>
       <use xlink:href="#m0796516d2b" x="57.6" y="219.466486" style="stroke: #000000; stroke-width: 0.6"/>
      </g>
     </g>
    </g>
    <g id="ytick_7">
     <g id="line2d_15">
      <g>
       <use xlink:href="#m0796516d2b" x="57.6" y="201.835581" style="stroke: #000000; stroke-width: 0.6"/>
      </g>
     </g>
    </g>
    <g id="ytick_8">
     <g id="line2d_16">
      <g>
       <use xlink:href="#m0796516d2b" x="57.6" y="188.159989" style="stroke: #000000; stroke-width: 0.6"/>
      </g>
     </g>
    </g>
    <g id="ytick_9">
     <g id="line2d_17">
      <g>
       <use xlink:href="#m0796516d2b" x="57.6" y="176.986216" style="stroke: #000000; stroke-width: 0.6"/>
      </g>
     </g>
    </g>
    <g id="ytick_10">
     <g id="line2d_18">
      <g>
       <use xlink:href="#m0796516d2b" x="57.6" y="167.538926" style="stroke: #000000; stroke-width: 0.6"/>
      </g>
     </g>
    </g>
    <g id="ytick_11">
     <g id="line2d_19">
      <g>
       <use xlink:href="#m0796516d2b" x="57.6" y="159.355311" style="stroke: #000000; stroke-width: 0.6"/>
      </g>
     </g>
    </g>
    <g id="ytick_12">
     <g id="line2d_20">
      <g>
       <use xlink:href="#m0796516d2b" x="57.6" y="152.136851" style="stroke: #000000; stroke-width: 0.6"/>
      </g>
     </g>
    </g>
    <g id="ytick_13">
     <g id="line2d_21">
      <g>
       <use xlink:href="#m0796516d2b" x="57.6" y="103.199448" style="stroke: #000000; stroke-width: 0.6"/>
      </g>
     </g>
    </g>
    <g id="ytick_14">
     <g id="line2d_22">
      <g>
       <use xlink:href="#m0796516d2b" x="57.6" y="78.350083" style="stroke: #000000; stroke-width: 0.6"/>
      </g>
     </g>
    </g>
    <g id="ytick_15">
     <g id="line2d_23">
      <g>
       <use xlink:href="#m0796516d2b" x="57.6" y="60.719178" style="stroke: #000000; stroke-width: 0.6"/>
      </g>
     </g>
    </g>
    <g id="ytick_16">
     <g id="line2d_24">
      <g>
       <use xlink:href="#m0796516d2b" x="57.6" y="47.043585" style="stroke: #000000; stroke-width: 0.6"/>
      </g>
     </g>
    </g>
    <g id="text_12">
     <!-- Loss (log scale) -->
     <g transform="translate(26.920312 213.081125) rotate(-90) scale(0.1 -0.1)">
      <defs>
       <path id="DejaVuSans-4c" d="M 628 4666 
L 1259 4666 
L 1259 531 
L 3531 531 
L 3531 0 
L 628 0 
L 628 4666 
z
" transform="scale(0.015625)"/>
       <path id="DejaVuSans-20" transform="scale(0.015625)"/>
       <path id="DejaVuSans-28" d="M 1984 4856 
Q 1566 4138 1362 3434 
Q 1159 2731 1159 2009 
Q 1159 1288 1364 580 
Q 1569 -128 1984 -844 
L 1484 -844 
Q 1016 -109 783 600 
Q 550 1309 550 2009 
Q 550 2706 781 3412 
Q 1013 4119 1484 4856 
L 1984 4856 
z
" transform="scale(0.015625)"/>
       <path id="DejaVuSans-6c" d="M 603 4863 
L 1178 4863 
L 1178 0 
L 603 0 
L 603 4863 
z
" transform="scale(0.015625)"/>
       <path id="DejaVuSans-67" d="M 2906 1791 
Q 2906 2416 2648 2759 
Q 2391 3103 1925 3103 
Q 1463 3103 1205 2759 
Q 947 2416 947 1791 
Q 947 1169 1205 825 
Q 1463 481 1925 481 
Q 2391 481 2648 825 
Q 2906 1169 2906 1791 
z
M 3481 434 
Q 3481 -459 3084 -895 
Q 2688 -1331 1869 -1331 
Q 1566 -1331 1297 -1286 
Q 1028 -1241 775 -1147 
L 775 -588 
Q 1028 -725 1275 -790 
Q 1522 -856 1778 -856 
Q 2344 -856 2625 -561 
Q 2906 -266 2906 331 
L 2906 616 
Q 2728 306 2450 153 
Q 2172 0 1784 0 
Q 1141 0 747 490 
Q 353 981 353 1791 
Q 353 2603 747 3093 
Q 1141 3584 1784 3584 
Q 2172 3584 2450 3431 
Q 2728 3278 2906 2969 
L 2906 3500 
L 3481 3500 
L 3481 434 
z
" transform="scale(0.015625)"/>
       <path id="DejaVuSans-63" d="M 3122 3366 
L 3122 2828 
Q 2878 2963 2633 3030 
Q 2388 3097 2138 3097 
Q 1578 3097 1268 2742 
Q 959 2388 959 1747 
Q 959 1106 1268 751 
Q 1578 397 2138 397 
Q 2388 397 2633 464 
Q 2878 531 3122 666 
L 3122 134 
Q 2881 22 2623 -34 
Q 2366 -91 2075 -91 
Q 1284 -91 818 406 
Q 353 903 353 1747 
Q 353 2603 823 3093 
Q 1294 3584 2113 3584 
Q 2378 3584 2631 3529 
Q 2884 3475 3122 3366 
z
" transform="scale(0.015625)"/>
       <path id="DejaVuSans-29" d="M 513 4856 
L 1013 4856 
Q 1481 4119 1714 3412 
Q 1947 2706 1947 2009 
Q 1947 1309 1714 600 
Q 1481 -109 1013 -844 
L 513 -844 
Q 928 -128 1133 580 
Q 1338 1288 1338 2009 
Q 1338 2731 1133 3434 
Q 928 4138 513 4856 
z
" transform="scale(0.015625)"/>
      </defs>
      <use xlink:href="#DejaVuSans-4c"/>
      <use xlink:href="#DejaVuSans-6f" x="53.962891"/>
      <use xlink:href="#DejaVuSans-73" x="115.144531"/>
      <use xlink:href="#DejaVuSans-73" x="167.244141"/>
      <use xlink:href="#DejaVuSans-20" x="219.34375"/>
      <use xlink:href="#DejaVuSans-28" x="251.130859"/>
      <use xlink:href="#DejaVuSans-6c" x="290.144531"/>
      <use xlink:href="#DejaVuSans-6f" x="317.927734"/>
      <use xlink:href="#DejaVuSans-67" x="379.109375"/>
      <use xlink:href="#DejaVuSans-20" x="442.585938"/>
      <use xlink:href="#DejaVuSans-73" x="474.373047"/>
      <use xlink:href="#DejaVuSans-63" x="526.472656"/>
      <use xlink:href="#DejaVuSans-61" x="581.453125"/>
      <use xlink:href="#DejaVuSans-6c" x="642.732422"/>
      <use xlink:href="#DejaVuSans-65" x="670.515625"/>
      <use xlink:href="#DejaVuSans-29" x="732.039062"/>
     </g>
    </g>
   </g>
   <g id="line2d_25">
    <path d="M 73.832727 53.568841 
L 74.262733 58.109118 
L 74.692739 60.744367 
L 75.337748 63.719448 
L 75.767754 67.200065 
L 76.19776 72.49317 
L 77.057772 86.980064 
L 77.917784 100.883433 
L 78.562793 107.985722 
L 79.207803 112.446104 
L 79.852812 115.170817 
L 80.497821 116.88212 
L 81.14283 118.026106 
L 82.002842 119.044057 
L 83.077857 119.894508 
L 84.582878 120.75125 
L 86.087899 121.379761 
L 88.237929 122.006136 
L 91.89298 122.755815 
L 95.548031 123.287954 
L 100.063095 123.771314 
L 106.083179 124.230316 
L 113.823287 124.610089 
L 124.788441 124.933203 
L 142.848694 125.219132 
L 168.219049 125.407282 
L 212.294666 125.527691 
L 212.294666 125.527691 
" clip-path="url(#pfcd8b29e23)" style="fill: none; stroke: #f77189; stroke-width: 1.5; stroke-linecap: square"/>
   </g>
   <g id="line2d_26">
    <path d="M 73.832727 53.568 
L 74.262733 58.120396 
L 74.907742 62.173457 
L 75.337748 65.25219 
L 75.767754 69.956389 
L 76.412763 80.037891 
L 77.702781 101.4654 
L 78.34779 108.284628 
L 78.9928 112.573026 
L 79.637809 115.219257 
L 80.282818 116.908945 
L 80.927827 118.031022 
L 81.787839 119.0082 
L 82.862854 119.821778 
L 84.582878 120.800318 
L 86.087899 121.409624 
L 88.237929 122.005585 
L 91.462974 122.690835 
L 96.408043 123.403102 
L 101.568116 123.922124 
L 108.448212 124.386995 
L 118.33835 124.788129 
L 131.88354 125.081572 
L 156.823889 125.350062 
L 191.224371 125.494658 
L 200.039494 125.512751 
L 200.039494 125.512751 
" clip-path="url(#pfcd8b29e23)" style="fill: none; stroke: #f77189; stroke-width: 1.5; stroke-linecap: square"/>
   </g>
   <g id="line2d_27">
    <path d="M 73.832727 53.568745 
L 74.262733 58.113882 
L 74.692739 60.76411 
L 75.337748 63.712749 
L 75.767754 67.041978 
L 76.19776 72.093195 
L 77.057772 86.049295 
L 77.917784 99.788848 
L 78.562793 106.98308 
L 79.207803 111.595988 
L 79.852812 114.497303 
L 80.497821 116.344895 
L 81.14283 117.590382 
L 82.002842 118.731569 
L 83.077857 119.703539 
L 84.152872 120.373895 
L 85.872896 121.157559 
L 87.59292 121.736248 
L 89.527947 122.198389 
L 93.182998 122.889957 
L 98.558073 123.574615 
L 104.363155 124.077574 
L 112.103263 124.509752 
L 122.423408 124.861843 
L 137.258615 125.137869 
L 162.62897 125.37573 
L 206.059579 125.517478 
L 216.16472 125.533661 
L 216.16472 125.533661 
" clip-path="url(#pfcd8b29e23)" style="fill: none; stroke: #f77189; stroke-width: 1.5; stroke-linecap: square"/>
   </g>
   <g id="line2d_28">
    <path d="M 73.832727 53.568815 
L 74.262733 58.121169 
L 74.907742 62.172907 
L 75.337748 65.223498 
L 75.767754 69.875613 
L 76.412763 79.856572 
L 77.702781 101.179191 
L 78.34779 108.029261 
L 78.9928 112.364555 
L 79.637809 115.053816 
L 80.282818 116.770501 
L 80.927827 117.921951 
L 81.787839 118.924433 
L 82.862854 119.756187 
L 84.582878 120.746342 
L 86.087899 121.373294 
L 88.237929 121.981668 
L 91.462974 122.672516 
L 95.548031 123.281422 
L 101.568116 123.912861 
L 108.663215 124.391482 
L 117.048332 124.742202 
L 128.873498 125.029846 
L 151.233811 125.309279 
L 175.099145 125.443279 
L 175.099145 125.443279 
" clip-path="url(#pfcd8b29e23)" style="fill: none; stroke: #f77189; stroke-width: 1.5; stroke-linecap: square"/>
   </g>
   <g id="line2d_29">
    <path d="M 73.832727 53.568714 
L 74.262733 58.113268 
L 74.692739 60.772342 
L 75.337748 63.969254 
L 75.767754 67.689681 
L 76.412763 76.606547 
L 78.132787 104.383205 
L 78.777797 110.297996 
L 79.422806 113.903034 
L 80.067815 116.110893 
L 80.712824 117.531499 
L 81.357833 118.490275 
L 82.217845 119.354323 
L 83.507863 120.247546 
L 85.227887 121.117861 
L 86.947911 121.708463 
L 89.312944 122.291541 
L 92.537989 122.892521 
L 97.913064 123.58746 
L 104.363155 124.130196 
L 112.748272 124.576606 
L 123.498423 124.91161 
L 138.548633 125.167658 
L 167.57404 125.405282 
L 205.629573 125.518763 
L 205.629573 125.518763 
" clip-path="url(#pfcd8b29e23)" style="fill: none; stroke: #f77189; stroke-width: 1.5; stroke-linecap: square"/>
   </g>
   <g id="line2d_30">
    <path d="M 73.832727 53.568724 
L 74.262733 58.118434 
L 74.907742 62.008988 
L 75.337748 64.821961 
L 75.767754 69.246944 
L 76.412763 79.245383 
L 77.702781 102.102975 
L 78.34779 109.696041 
L 79.207803 116.560666 
L 81.572836 131.966289 
L 82.432848 135.97519 
L 83.077857 138.122176 
L 83.937869 140.144231 
L 84.797881 141.548022 
L 85.657893 142.571173 
L 86.947911 143.75231 
L 89.097941 145.32844 
L 90.817965 146.35808 
L 93.828007 147.818753 
L 97.053052 149.120913 
L 100.063095 150.159512 
L 104.578158 151.472949 
L 112.963275 153.489096 
L 121.563396 155.319319 
L 128.013486 156.486658 
L 140.48366 158.471638 
L 142.203685 158.654422 
L 152.953835 159.275673 
L 162.198964 159.443836 
L 186.709308 159.566674 
L 192.729392 159.577846 
L 192.729392 159.577846 
" clip-path="url(#pfcd8b29e23)" style="fill: none; stroke: #d58c32; stroke-width: 1.5; stroke-linecap: square"/>
   </g>
   <g id="line2d_31">
    <path d="M 73.832727 53.568382 
L 74.262733 58.125313 
L 75.552751 68.151584 
L 76.19776 77.844613 
L 77.702781 103.501389 
L 78.34779 109.881164 
L 78.9928 113.987225 
L 81.357833 126.267334 
L 82.647851 134.134048 
L 83.29286 136.951259 
L 83.937869 138.964628 
L 84.582878 140.397072 
L 85.44289 141.724632 
L 86.517905 142.878657 
L 88.237929 144.309825 
L 90.172956 145.609602 
L 92.537989 146.848702 
L 95.333028 148.101188 
L 98.558073 149.304667 
L 106.728188 151.708785 
L 117.478338 154.109736 
L 124.358435 155.489587 
L 139.408645 157.969367 
L 145.643733 158.628396 
L 154.243853 159.14638 
L 165.209007 159.370496 
L 186.494305 159.490971 
L 207.779603 159.53054 
L 207.779603 159.53054 
" clip-path="url(#pfcd8b29e23)" style="fill: none; stroke: #d58c32; stroke-width: 1.5; stroke-linecap: square"/>
   </g>
   <g id="line2d_32">
    <path d="M 73.832727 53.568736 
L 74.262733 58.115259 
L 74.692739 60.829651 
L 75.337748 64.066696 
L 75.767754 67.504075 
L 76.412763 75.45037 
L 78.34779 103.815628 
L 78.9928 109.383266 
L 79.637809 113.034966 
L 80.282818 115.527018 
L 81.572836 119.284655 
L 82.647851 122.713494 
L 85.012884 130.83483 
L 85.872896 132.780051 
L 86.947911 134.551838 
L 88.237929 136.232155 
L 90.387959 138.43763 
L 94.258013 141.795522 
L 97.698061 144.366454 
L 100.493101 146.115387 
L 102.643131 147.234298 
L 105.653173 148.40056 
L 108.448212 149.225889 
L 111.673257 150.01374 
L 120.918387 151.715224 
L 125.003444 152.326513 
L 131.023528 153.054496 
L 143.063697 153.897278 
L 154.888862 154.216621 
L 169.509067 154.414024 
L 193.589404 154.518454 
L 201.114509 154.531078 
L 201.114509 154.531078 
" clip-path="url(#pfcd8b29e23)" style="fill: none; stroke: #d58c32; stroke-width: 1.5; stroke-linecap: square"/>
   </g>
   <g id="line2d_33">
    <path d="M 73.832727 53.568619 
L 74.262733 58.115224 
L 74.692739 60.819239 
L 75.337748 64.301 
L 75.767754 68.299701 
L 76.412763 77.741092 
L 77.917784 103.685468 
L 78.562793 110.599464 
L 79.422806 116.978248 
L 82.002842 133.606369 
L 82.647851 136.375217 
L 83.29286 138.413722 
L 84.152872 140.342187 
L 85.012884 141.675412 
L 86.087899 142.86909 
L 87.59292 144.13076 
L 89.527947 145.448643 
L 91.032968 146.294368 
L 94.04301 147.71653 
L 98.988079 149.560761 
L 103.28814 150.899178 
L 107.803203 152.047431 
L 114.683299 153.619028 
L 132.528549 157.025334 
L 142.848694 158.583798 
L 146.718748 158.914287 
L 153.598844 159.252394 
L 163.918989 159.44258 
L 185.204287 159.558994 
L 209.499627 159.592682 
L 209.499627 159.592682 
" clip-path="url(#pfcd8b29e23)" style="fill: none; stroke: #d58c32; stroke-width: 1.5; stroke-linecap: square"/>
   </g>
   <g id="line2d_34">
    <path d="M 73.832727 53.568933 
L 74.262733 58.111484 
L 74.692739 60.712748 
L 75.337748 63.396027 
L 75.767754 66.530488 
L 76.19776 71.559584 
L 76.842769 82.50675 
L 78.34779 110.232269 
L 79.207803 120.588116 
L 79.852812 126.112574 
L 80.497821 130.183172 
L 81.14283 133.172508 
L 82.002842 136.042339 
L 82.862854 138.10664 
L 83.722866 139.64287 
L 84.582878 140.75617 
L 86.087899 142.28906 
L 87.59292 143.51932 
L 90.172956 145.226922 
L 92.537989 146.493541 
L 96.408043 148.16224 
L 103.503143 150.723115 
L 108.018206 152.086081 
L 113.823287 153.60399 
L 120.48838 155.116527 
L 135.538591 158.213418 
L 139.193642 158.677796 
L 143.063697 158.97867 
L 148.008766 159.216737 
L 156.17888 159.390461 
L 188.644335 159.534133 
L 195.094425 159.540368 
L 195.094425 159.540368 
" clip-path="url(#pfcd8b29e23)" style="fill: none; stroke: #d58c32; stroke-width: 1.5; stroke-linecap: square"/>
   </g>
   <g id="line2d_35">
    <path d="M 73.832727 53.568838 
L 74.262733 58.111297 
L 74.692739 60.737323 
L 75.337748 63.426001 
L 75.767754 66.402882 
L 76.19776 71.067593 
L 76.842769 80.953238 
L 78.34779 105.739272 
L 79.207803 115.136625 
L 80.067815 121.908022 
L 80.927827 127.149156 
L 85.012884 148.257418 
L 85.872896 151.660014 
L 86.947911 154.908977 
L 88.237929 158.053077 
L 89.527947 160.604402 
L 91.247971 163.282005 
L 92.752992 165.36331 
L 94.473016 167.35284 
L 98.558073 171.436304 
L 100.278098 172.908462 
L 105.653173 177.101741 
L 113.393281 182.326865 
L 116.833329 184.309068 
L 120.058374 185.924827 
L 123.928429 187.653308 
L 130.593522 189.794556 
L 137.258615 191.244948 
L 141.343672 191.896 
L 148.438772 192.590265 
L 157.253895 193.087282 
L 170.154076 193.415098 
L 184.559278 193.554989 
L 226.054859 193.691605 
L 226.914871 193.69225 
L 226.914871 193.69225 
" clip-path="url(#pfcd8b29e23)" style="fill: none; stroke: #a4a031; stroke-width: 1.5; stroke-linecap: square"/>
   </g>
   <g id="line2d_36">
    <path d="M 73.832727 53.569157 
L 74.262733 58.113892 
L 74.692739 60.773737 
L 75.337748 63.620929 
L 75.767754 66.680942 
L 76.19776 71.360964 
L 76.842769 81.104026 
L 78.132787 101.633505 
L 78.777797 108.344388 
L 79.422806 112.636582 
L 80.067815 115.342739 
L 80.712824 117.137863 
L 81.572836 118.828881 
L 83.507863 122.181251 
L 84.152872 123.79467 
L 84.797881 126.0795 
L 85.657893 130.324728 
L 87.59292 140.697264 
L 88.452932 143.919945 
L 89.74295 147.716165 
L 93.398001 157.539389 
L 95.118025 161.661963 
L 96.623046 164.75135 
L 98.558073 168.266372 
L 99.633089 169.850353 
L 101.13811 172.041916 
L 102.213125 173.477586 
L 103.933149 175.491767 
L 106.728188 178.132149 
L 109.953233 180.64614 
L 115.973317 184.764787 
L 120.703384 187.17519 
L 125.218447 188.91476 
L 132.743552 191.161855 
L 135.323588 191.790505 
L 142.203685 193.095051 
L 150.588802 194.267037 
L 155.748874 194.772026 
L 163.058977 195.31232 
L 172.734112 195.948106 
L 194.449416 196.412471 
L 212.509669 196.546957 
L 235.944997 196.616821 
L 235.944997 196.616821 
" clip-path="url(#pfcd8b29e23)" style="fill: none; stroke: #a4a031; stroke-width: 1.5; stroke-linecap: square"/>
   </g>
   <g id="line2d_37">
    <path d="M 73.832727 53.568778 
L 74.262733 58.119509 
L 74.907742 62.025158 
L 75.337748 64.804263 
L 75.767754 69.114892 
L 76.412763 78.982807 
L 77.917784 105.205953 
L 78.562793 111.948223 
L 79.637809 120.042255 
L 81.572836 133.281127 
L 82.432848 137.232643 
L 83.29286 139.990549 
L 84.367875 142.498135 
L 86.087899 145.719941 
L 88.452932 149.687874 
L 89.74295 151.532442 
L 91.032968 153.003643 
L 92.967995 154.812795 
L 96.623046 157.767492 
L 101.13811 160.721161 
L 105.653173 163.184825 
L 110.813245 165.592281 
L 114.683299 167.1823 
L 129.303504 172.214293 
L 134.248573 173.542277 
L 138.763636 174.322924 
L 145.213727 174.963347 
L 150.588802 175.2074 
L 160.47894 175.404693 
L 182.194244 175.549395 
L 220.249777 175.616306 
L 220.249777 175.616306 
" clip-path="url(#pfcd8b29e23)" style="fill: none; stroke: #a4a031; stroke-width: 1.5; stroke-linecap: square"/>
   </g>
   <g id="line2d_38">
    <path d="M 73.832727 53.568637 
L 74.262733 58.118131 
L 74.907742 61.994495 
L 75.337748 64.741947 
L 75.767754 69.041782 
L 76.412763 78.607528 
L 77.917784 103.225478 
L 78.562793 109.91449 
L 79.207803 114.375238 
L 79.852812 117.445684 
L 80.712824 120.492103 
L 82.647851 126.815665 
L 83.29286 129.823072 
L 83.937869 134.042859 
L 86.302902 152.022679 
L 87.162914 155.55589 
L 88.022926 158.08556 
L 89.097941 160.406141 
L 90.817965 163.360855 
L 92.322986 165.472723 
L 94.04301 167.505698 
L 95.978037 169.457998 
L 98.34307 171.535568 
L 101.13811 173.551922 
L 104.578158 175.817242 
L 110.383239 179.213465 
L 113.823287 180.924772 
L 124.143432 185.79023 
L 126.723468 186.786744 
L 131.668537 188.443998 
L 137.258615 190.005538 
L 141.343672 190.904464 
L 146.288742 191.819268 
L 152.093823 192.60024 
L 156.823889 192.97008 
L 173.164118 193.880364 
L 180.689223 194.178836 
L 182.409247 194.324482 
L 195.524431 194.573151 
L 212.079663 194.848569 
L 213.369681 194.968633 
L 224.119831 195.097956 
L 224.119831 195.097956 
" clip-path="url(#pfcd8b29e23)" style="fill: none; stroke: #a4a031; stroke-width: 1.5; stroke-linecap: square"/>
   </g>
   <g id="line2d_39">
    <path d="M 73.832727 53.568803 
L 74.262733 58.116072 
L 74.692739 60.813326 
L 75.337748 63.995695 
L 75.767754 67.472545 
L 76.412763 75.738834 
L 78.562793 109.10868 
L 79.637809 119.505295 
L 81.14283 131.901042 
L 82.002842 137.097642 
L 83.077857 141.878401 
L 84.152872 145.856208 
L 85.012884 148.360589 
L 86.302902 151.289776 
L 89.097941 156.963894 
L 91.462974 161.074055 
L 92.967995 163.293894 
L 94.473016 165.266385 
L 97.053052 168.18854 
L 99.633089 170.783566 
L 102.643131 173.524118 
L 105.223167 175.569561 
L 107.803203 177.439048 
L 110.383239 179.145524 
L 115.758314 182.39507 
L 118.983359 183.989952 
L 126.293462 187.270526 
L 128.013486 187.936784 
L 130.593522 188.801537 
L 132.743552 189.414809 
L 137.258615 190.555861 
L 140.698663 191.270065 
L 143.923709 191.978009 
L 145.643733 192.535655 
L 154.243853 193.792445 
L 158.758916 194.215337 
L 175.099145 195.039163 
L 180.259217 195.286817 
L 181.549235 195.439694 
L 185.634293 195.542765 
L 210.359639 195.837271 
L 215.304708 195.858172 
L 215.304708 195.858172 
" clip-path="url(#pfcd8b29e23)" style="fill: none; stroke: #a4a031; stroke-width: 1.5; stroke-linecap: square"/>
   </g>
   <g id="line2d_40">
    <path d="M 73.832727 53.568694 
L 74.262733 58.11428 
L 74.692739 60.806912 
L 75.337748 64.167029 
L 75.767754 68.027803 
L 76.412763 77.215166 
L 78.132787 106.091186 
L 78.9928 115.285434 
L 80.497821 128.284054 
L 81.357833 134.457854 
L 82.217845 139.109843 
L 85.872896 155.793998 
L 86.947911 159.685879 
L 89.957953 169.032938 
L 91.247971 172.518431 
L 92.967995 176.617397 
L 94.473016 179.46156 
L 96.19304 182.357404 
L 97.913064 184.923508 
L 99.633089 187.125286 
L 103.28814 191.546869 
L 108.233209 196.800628 
L 115.328308 203.386846 
L 118.983359 206.476515 
L 123.28342 209.675331 
L 126.723468 211.902372 
L 129.303504 213.345479 
L 135.323588 216.064659 
L 137.688621 216.908942 
L 145.858736 219.230784 
L 148.438772 219.678336 
L 152.523829 220.235848 
L 156.608886 220.609656 
L 159.403925 220.891575 
L 160.263937 221.200699 
L 161.123949 221.504908 
L 163.488983 221.808901 
L 165.854016 221.989127 
L 171.8741 222.317062 
L 178.109187 222.561878 
L 187.56932 222.971843 
L 193.159398 223.119745 
L 230.139916 223.465145 
L 230.569922 223.466368 
L 230.569922 223.466368 
" clip-path="url(#pfcd8b29e23)" style="fill: none; stroke: #50b131; stroke-width: 1.5; stroke-linecap: square"/>
   </g>
   <g id="line2d_41">
    <path d="M 73.832727 53.56857 
L 74.262733 58.121021 
L 74.907742 62.16609 
L 75.337748 65.258114 
L 75.767754 70.036912 
L 76.412763 80.384099 
L 77.702781 102.242121 
L 78.34779 109.090173 
L 78.9928 113.5832 
L 80.927827 124.281255 
L 81.572836 129.873838 
L 83.722866 150.212701 
L 84.367875 154.070086 
L 85.012884 156.819976 
L 85.872896 159.411433 
L 87.162914 162.43154 
L 90.817965 170.878751 
L 92.322986 174.703104 
L 93.828007 177.883188 
L 95.333028 180.378703 
L 97.268055 183.260601 
L 99.848092 186.675468 
L 105.653173 193.09096 
L 114.253293 201.142394 
L 117.048332 203.56315 
L 118.553353 204.805332 
L 125.863456 210.549976 
L 128.228489 212.140559 
L 130.808525 213.59187 
L 136.1836 216.101233 
L 140.48366 217.552831 
L 143.923709 218.473621 
L 150.588802 219.756543 
L 157.253895 220.718447 
L 157.898904 221.073723 
L 158.758916 221.633796 
L 158.973919 221.647912 
L 159.618928 221.89983 
L 162.843974 222.401156 
L 167.144034 222.845651 
L 171.8741 223.177962 
L 184.774281 223.757928 
L 201.329512 224.125131 
L 225.624852 224.353509 
L 225.624852 224.353509 
" clip-path="url(#pfcd8b29e23)" style="fill: none; stroke: #50b131; stroke-width: 1.5; stroke-linecap: square"/>
   </g>
   <g id="line2d_42">
    <path d="M 73.832727 53.56873 
L 74.262733 58.115803 
L 74.692739 60.838373 
L 75.337748 64.459564 
L 75.767754 68.638201 
L 76.412763 78.314939 
L 77.917784 103.82381 
L 78.562793 110.487784 
L 79.207803 115.004046 
L 80.927827 125.725682 
L 82.432848 136.030491 
L 83.507863 141.453019 
L 85.44289 150.834666 
L 87.162914 159.424195 
L 88.452932 164.673042 
L 89.74295 168.951189 
L 91.032968 172.451302 
L 92.537989 176.021946 
L 93.828007 178.607042 
L 95.118025 180.769768 
L 97.268055 183.884819 
L 100.493101 188.063111 
L 102.858134 190.814367 
L 105.43817 193.518489 
L 111.458254 199.389155 
L 117.908344 204.887369 
L 125.648453 210.278581 
L 129.73351 212.538821 
L 132.313546 213.746801 
L 139.623648 216.305915 
L 141.558675 216.750166 
L 143.923709 217.254547 
L 146.933751 217.807757 
L 151.233811 218.355987 
L 155.748874 218.858918 
L 158.758916 219.201851 
L 160.47894 219.416623 
L 161.338952 219.47896 
L 164.563998 219.69832 
L 178.969199 220.385729 
L 199.609488 220.750567 
L 244.975123 221.115804 
L 247.770163 221.126278 
L 247.770163 221.126278 
" clip-path="url(#pfcd8b29e23)" style="fill: none; stroke: #50b131; stroke-width: 1.5; stroke-linecap: square"/>
   </g>
   <g id="line2d_43">
    <path d="M 73.832727 53.568695 
L 74.262733 58.117503 
L 74.907742 61.99525 
L 75.337748 64.831084 
L 75.767754 69.341899 
L 76.412763 79.460842 
L 77.702781 102.024161 
L 78.34779 109.507548 
L 79.207803 116.24711 
L 80.712824 126.850132 
L 82.862854 142.913374 
L 85.227887 159.191302 
L 86.087899 163.117305 
L 87.162914 166.851637 
L 88.667935 171.328094 
L 89.957953 174.575592 
L 91.677977 178.205258 
L 93.182998 180.986737 
L 95.548031 184.761672 
L 96.838049 186.649475 
L 103.073137 194.774718 
L 105.43817 197.469712 
L 114.898302 207.456231 
L 118.983359 211.526679 
L 122.208405 214.39663 
L 125.003444 216.394475 
L 128.228489 218.238277 
L 129.518507 218.867001 
L 132.098543 219.91973 
L 135.323588 220.963734 
L 139.408645 221.971067 
L 144.138712 222.760034 
L 148.868778 223.366396 
L 158.113907 224.237488 
L 166.499025 224.682873 
L 183.054256 225.194529 
L 204.339554 225.581622 
L 212.079663 225.67114 
L 247.985166 225.868522 
L 254.865262 225.893402 
L 254.865262 225.893402 
" clip-path="url(#pfcd8b29e23)" style="fill: none; stroke: #50b131; stroke-width: 1.5; stroke-linecap: square"/>
   </g>
   <g id="line2d_44">
    <path d="M 73.832727 53.568725 
L 74.262733 58.113715 
L 74.692739 60.805599 
L 75.337748 64.061038 
L 75.767754 67.70686 
L 76.412763 76.24984 
L 78.34779 105.931044 
L 78.9928 111.473186 
L 79.637809 115.192063 
L 81.14283 122.932766 
L 81.787839 128.044443 
L 82.862854 139.22457 
L 83.937869 149.580896 
L 84.582878 154.052216 
L 85.227887 157.348266 
L 86.087899 160.513501 
L 87.162914 163.600144 
L 88.452932 166.646614 
L 90.602962 170.953152 
L 92.537989 174.405749 
L 95.118025 178.379509 
L 97.268055 181.361252 
L 99.418085 183.973838 
L 103.073137 187.970147 
L 106.298182 191.044395 
L 109.953233 194.213964 
L 112.748272 196.3809 
L 114.683299 197.7964 
L 121.348393 202.300182 
L 128.013486 206.468951 
L 128.658495 206.886044 
L 129.73351 207.431845 
L 130.808525 208.040345 
L 137.688621 211.39603 
L 139.838651 212.168036 
L 144.998724 213.922756 
L 148.868778 214.947523 
L 155.318868 216.045325 
L 163.488983 216.900088 
L 167.789043 217.241889 
L 169.294064 217.368494 
L 174.454136 217.649375 
L 189.074341 218.402328 
L 197.889464 218.709857 
L 224.76484 219.058263 
L 239.600048 219.139418 
L 239.600048 219.139418 
" clip-path="url(#pfcd8b29e23)" style="fill: none; stroke: #50b131; stroke-width: 1.5; stroke-linecap: square"/>
   </g>
   <g id="line2d_45">
    <path d="M 73.832727 53.568544 
L 74.262733 58.120763 
L 74.907742 62.039578 
L 75.337748 64.845475 
L 75.767754 69.259287 
L 76.412763 79.251716 
L 77.702781 101.889135 
L 78.34779 109.188699 
L 78.9928 114.074942 
L 80.712824 125.386644 
L 81.787839 135.377006 
L 83.077857 147.494195 
L 83.937869 153.546091 
L 84.797881 157.720476 
L 85.872896 161.553489 
L 86.947911 165.411081 
L 87.807923 169.315588 
L 91.032968 185.452066 
L 92.537989 190.85802 
L 93.828007 194.670191 
L 95.548031 198.729069 
L 96.623046 200.822226 
L 100.278098 206.979257 
L 102.858134 210.642043 
L 105.008164 213.404105 
L 106.943191 215.710761 
L 111.673257 220.902509 
L 118.768356 227.508069 
L 121.993402 230.119924 
L 126.293462 233.195488 
L 128.873498 234.841101 
L 131.668537 236.347139 
L 138.33363 239.523919 
L 140.913666 240.409598 
L 148.223769 242.298267 
L 152.308826 243.036377 
L 156.393883 243.600479 
L 161.768958 244.203154 
L 171.229091 244.855482 
L 178.754196 245.174581 
L 210.359639 245.78738 
L 254.865262 246.064104 
L 269.70047 246.104671 
L 269.70047 246.104671 
" clip-path="url(#pfcd8b29e23)" style="fill: none; stroke: #34ae91; stroke-width: 1.5; stroke-linecap: square"/>
   </g>
   <g id="line2d_46">
    <path d="M 73.832727 53.568853 
L 74.262733 58.117565 
L 74.692739 60.854956 
L 75.337748 64.538815 
L 75.767754 68.754359 
L 76.412763 78.577473 
L 77.917784 105.186834 
L 78.562793 112.406777 
L 79.422806 119.102113 
L 81.572836 132.884004 
L 82.432848 137.15762 
L 83.077857 139.463856 
L 85.012884 145.479021 
L 85.657893 149.354869 
L 86.302902 155.029156 
L 88.022926 172.113743 
L 88.667935 175.812543 
L 89.527947 179.021872 
L 90.602962 181.96815 
L 91.89298 184.669699 
L 93.398001 187.444534 
L 95.763034 191.152804 
L 97.913064 194.114126 
L 102.428128 199.920102 
L 108.448212 206.943062 
L 116.18832 215.020973 
L 121.348393 220.207826 
L 123.068417 221.701287 
L 124.573438 223.168495 
L 125.863456 224.2881 
L 128.658495 226.420362 
L 129.518507 226.984081 
L 130.593522 227.638346 
L 131.668537 228.432495 
L 132.743552 229.21048 
L 137.473618 231.782671 
L 138.978639 232.503792 
L 140.268657 233.174693 
L 145.42873 235.704678 
L 148.438772 236.752345 
L 150.373799 237.551272 
L 152.953835 238.310493 
L 154.02885 238.623642 
L 164.994004 240.975859 
L 168.649055 241.510359 
L 172.304106 242.113198 
L 175.099145 242.464401 
L 178.539193 242.918191 
L 181.979241 243.441307 
L 183.699266 243.591244 
L 188.429332 244.004995 
L 201.329512 244.857294 
L 204.769561 245.074508 
L 228.204889 245.7435 
L 239.815051 246.028455 
L 239.815051 246.028455 
" clip-path="url(#pfcd8b29e23)" style="fill: none; stroke: #34ae91; stroke-width: 1.5; stroke-linecap: square"/>
   </g>
   <g id="line2d_47">
    <path d="M 73.832727 53.569006 
L 74.262733 58.121175 
L 74.907742 62.154381 
L 75.337748 65.186217 
L 75.767754 69.833511 
L 76.412763 79.788559 
L 77.702781 100.965175 
L 78.34779 107.86781 
L 78.9928 112.409355 
L 79.852812 116.554802 
L 80.712824 120.739469 
L 81.357833 125.023942 
L 82.432848 134.161553 
L 84.582878 152.41931 
L 85.44289 158.271997 
L 86.302902 162.717906 
L 88.022926 170.039306 
L 90.172956 178.295696 
L 91.677977 183.416687 
L 93.182998 187.85454 
L 94.688019 191.474041 
L 96.623046 195.284155 
L 98.988079 199.395058 
L 101.13811 202.584942 
L 103.503143 205.771705 
L 106.943191 209.959465 
L 111.243251 214.412088 
L 116.403323 219.022505 
L 119.628368 221.56494 
L 124.573438 225.151114 
L 126.078459 226.184283 
L 128.443492 227.739232 
L 130.808525 229.104041 
L 137.258615 232.263734 
L 142.418688 234.141228 
L 144.568718 234.809902 
L 148.223769 235.795046 
L 157.468898 237.718372 
L 165.209007 238.874124 
L 175.099145 239.856309 
L 189.289344 240.872547 
L 190.364359 241.147138 
L 192.729392 241.319931 
L 200.039494 241.644856 
L 207.994606 241.935701 
L 231.644937 242.441376 
L 231.644937 242.441376 
" clip-path="url(#pfcd8b29e23)" style="fill: none; stroke: #34ae91; stroke-width: 1.5; stroke-linecap: square"/>
   </g>
   <g id="line2d_48">
    <path d="M 73.832727 53.568787 
L 74.262733 58.118996 
L 74.907742 62.034056 
L 75.337748 64.851261 
L 75.767754 69.271271 
L 76.412763 79.202888 
L 77.702781 101.717748 
L 78.34779 108.962993 
L 78.9928 113.511563 
L 79.637809 116.512866 
L 80.927827 121.715918 
L 81.572836 125.540956 
L 82.432848 132.662941 
L 84.797881 153.877145 
L 85.657893 159.463873 
L 86.302902 162.377258 
L 87.162914 165.146401 
L 88.452932 168.337372 
L 90.172956 171.98267 
L 92.967995 177.184207 
L 95.333028 181.038175 
L 99.418085 187.440987 
L 101.353113 190.069169 
L 106.083179 196.060525 
L 110.383239 200.823238 
L 113.178278 203.348081 
L 117.048332 206.350507 
L 120.918387 209.003352 
L 123.713426 210.690448 
L 127.368477 212.564145 
L 131.88354 214.454715 
L 138.118627 216.415425 
L 144.783721 218.2238 
L 152.738832 219.67135 
L 160.263937 220.597502 
L 166.499025 221.137985 
L 173.809127 221.608557 
L 205.629573 222.640389 
L 227.774883 222.953849 
L 257.660301 223.172764 
L 257.660301 223.172764 
" clip-path="url(#pfcd8b29e23)" style="fill: none; stroke: #34ae91; stroke-width: 1.5; stroke-linecap: square"/>
   </g>
   <g id="line2d_49">
    <path d="M 73.832727 53.568838 
L 74.262733 58.121292 
L 75.552751 67.581172 
L 76.19776 76.758481 
L 77.702781 101.65247 
L 78.34779 108.396068 
L 78.9928 112.762654 
L 79.637809 115.702951 
L 81.14283 121.801838 
L 82.002842 126.790526 
L 84.797881 145.458576 
L 85.657893 153.697718 
L 87.162914 168.779995 
L 88.022926 175.011858 
L 88.882938 179.63803 
L 89.957953 184.270482 
L 91.032968 187.761629 
L 91.89298 189.899464 
L 93.398001 192.802796 
L 95.118025 195.613626 
L 96.623046 197.654839 
L 98.34307 199.707519 
L 100.708104 202.031293 
L 104.793161 205.445749 
L 106.943191 206.970479 
L 109.093221 208.402942 
L 115.758314 212.410777 
L 122.423408 215.930958 
L 124.143432 216.717069 
L 130.378519 219.687634 
L 134.463576 221.437947 
L 138.33363 222.958278 
L 143.493703 224.599674 
L 150.373799 226.584775 
L 152.523829 227.150087 
L 155.318868 227.699729 
L 161.553955 228.669275 
L 168.649055 229.545521 
L 172.734112 229.875548 
L 182.839253 230.525492 
L 206.274582 231.570551 
L 219.604768 231.978318 
L 223.044816 232.053018 
L 258.090307 232.465857 
L 277.870584 232.559687 
L 295.285828 232.620187 
L 295.285828 232.620187 
" clip-path="url(#pfcd8b29e23)" style="fill: none; stroke: #34ae91; stroke-width: 1.5; stroke-linecap: square"/>
   </g>
   <g id="line2d_50">
    <path d="M 73.832727 53.568801 
L 74.262733 58.113769 
L 74.692739 60.753386 
L 75.337748 63.568428 
L 75.767754 66.695314 
L 76.19776 71.55535 
L 76.842769 81.716839 
L 78.132787 102.706613 
L 78.777797 109.394992 
L 79.422806 113.810036 
L 81.572836 125.726556 
L 83.507863 139.61474 
L 84.797881 147.609246 
L 87.377917 166.195492 
L 88.667935 172.142673 
L 90.387959 179.081192 
L 91.677977 183.275842 
L 93.398001 188.122363 
L 95.118025 192.213306 
L 98.34307 198.796981 
L 99.633089 201.046727 
L 102.213125 205.036722 
L 107.803203 212.31399 
L 112.748272 217.740025 
L 115.543311 220.323155 
L 121.993402 225.75389 
L 130.593522 231.462875 
L 132.958555 232.865388 
L 135.538591 234.280479 
L 138.978639 236.075149 
L 144.353715 238.433149 
L 146.503745 239.180315 
L 150.803805 240.503974 
L 163.27398 243.552728 
L 166.499025 244.189201 
L 181.334232 246.233037 
L 194.01941 247.30629 
L 201.329512 247.723335 
L 212.079663 248.210872 
L 233.149958 248.9223 
L 259.165322 249.731167 
L 286.255701 250.599432 
L 320.656183 251.328158 
L 361.936761 251.742062 
L 370.536881 251.78503 
L 370.536881 251.78503 
" clip-path="url(#pfcd8b29e23)" style="fill: none; stroke: #37abb5; stroke-width: 1.5; stroke-linecap: square"/>
   </g>
   <g id="line2d_51">
    <path d="M 73.832727 53.568916 
L 74.262733 58.11644 
L 74.692739 60.852001 
L 75.337748 64.458822 
L 75.767754 68.56362 
L 76.412763 78.028066 
L 77.917784 103.079153 
L 78.562793 109.729709 
L 79.207803 114.154507 
L 81.357833 126.388742 
L 82.432848 135.6819 
L 84.797881 156.36972 
L 85.657893 162.102256 
L 87.377917 171.027614 
L 90.387959 186.395328 
L 91.677977 191.387438 
L 93.182998 196.240223 
L 94.688019 200.322111 
L 97.268055 206.795629 
L 99.203082 210.915733 
L 101.783119 215.652012 
L 103.503143 218.390779 
L 105.868176 221.895494 
L 108.233209 225.193474 
L 111.673257 229.451413 
L 116.18832 234.061038 
L 117.693341 235.382584 
L 121.13339 238.018738 
L 125.003444 240.790806 
L 128.013486 242.57664 
L 134.678579 246.138502 
L 136.613606 246.976033 
L 144.353715 249.947513 
L 149.083781 251.427158 
L 152.738832 252.369689 
L 156.17888 253.131863 
L 158.32891 253.591372 
L 163.918989 254.620619 
L 166.929031 255.121821 
L 177.249175 256.38793 
L 185.204287 257.109596 
L 195.094425 257.701824 
L 204.339554 258.250705 
L 207.134594 258.417572 
L 211.219651 258.763306 
L 214.229693 258.92424 
L 223.474822 259.222088 
L 226.484865 259.301842 
L 249.275184 259.712783 
L 261.100349 259.861522 
L 261.100349 259.861522 
" clip-path="url(#pfcd8b29e23)" style="fill: none; stroke: #37abb5; stroke-width: 1.5; stroke-linecap: square"/>
   </g>
   <g id="line2d_52">
    <path d="M 73.832727 53.568836 
L 74.262733 58.117947 
L 74.692739 60.869337 
L 75.337748 64.632576 
L 75.767754 68.921386 
L 76.412763 78.672995 
L 77.917784 104.12782 
L 78.562793 111.188386 
L 79.637809 119.759152 
L 82.217845 138.316024 
L 83.722866 147.098333 
L 84.582878 153.787403 
L 86.087899 165.917832 
L 86.947911 171.176561 
L 88.022926 176.177629 
L 89.74295 183.785325 
L 90.602962 188.523477 
L 92.322986 198.350474 
L 93.398001 202.844203 
L 94.903022 207.956688 
L 96.408043 212.443116 
L 97.913064 216.214411 
L 99.203082 218.964057 
L 101.13811 222.524867 
L 103.073137 225.523105 
L 105.43817 228.789927 
L 108.018206 231.831562 
L 109.953233 233.967664 
L 111.673257 235.675452 
L 113.823287 237.58501 
L 116.18832 239.517691 
L 120.918387 242.788806 
L 123.068417 244.119515 
L 127.58348 246.388939 
L 132.743552 248.494008 
L 136.613606 249.699846 
L 144.998724 251.768727 
L 151.233811 252.991804 
L 160.693943 254.379571 
L 170.154076 255.408319 
L 179.184202 256.098828 
L 191.009368 256.796251 
L 202.834533 257.191459 
L 224.76484 257.63771 
L 257.015292 258.000301 
L 291.200771 258.325076 
L 291.630777 258.36297 
L 291.84578 258.201267 
L 293.565804 258.386636 
L 296.575846 258.48557 
L 308.186008 258.553378 
L 312.271066 258.570532 
L 312.271066 258.570532 
" clip-path="url(#pfcd8b29e23)" style="fill: none; stroke: #37abb5; stroke-width: 1.5; stroke-linecap: square"/>
   </g>
   <g id="line2d_53">
    <path d="M 73.832727 53.568485 
L 74.262733 58.11653 
L 74.692739 60.833043 
L 75.337748 64.409068 
L 75.767754 68.521916 
L 76.412763 78.050095 
L 77.917784 103.638171 
L 78.562793 110.611026 
L 79.207803 115.406176 
L 80.712824 125.174482 
L 81.357833 131.198496 
L 83.29286 151.216248 
L 84.152872 156.908634 
L 85.012884 161.198651 
L 86.517905 167.34698 
L 91.247971 185.177296 
L 93.398001 191.916182 
L 95.333028 197.387712 
L 97.698061 203.399256 
L 100.708104 210.133006 
L 103.073137 215.161106 
L 106.083179 220.761366 
L 108.233209 224.246034 
L 109.73823 226.515098 
L 114.683299 233.004185 
L 117.478338 236.005775 
L 119.198362 237.648129 
L 123.28342 241.044166 
L 126.078459 242.983015 
L 129.088501 244.908705 
L 133.173558 247.213887 
L 136.1836 248.638622 
L 139.623648 249.987569 
L 145.213727 251.953705 
L 148.653775 252.903238 
L 158.543913 255.038717 
L 164.563998 256.01528 
L 174.239133 257.25205 
L 187.56932 258.711401 
L 192.944395 259.160724 
L 199.179482 259.535107 
L 206.059579 259.837299 
L 212.724672 260.096135 
L 212.724672 260.096135 
" clip-path="url(#pfcd8b29e23)" style="fill: none; stroke: #37abb5; stroke-width: 1.5; stroke-linecap: square"/>
   </g>
   <g id="line2d_54">
    <path d="M 73.832727 53.568623 
L 74.262733 58.120798 
L 74.907742 62.113797 
L 75.337748 65.061546 
L 75.767754 69.622646 
L 76.412763 79.82831 
L 77.702781 102.721983 
L 78.34779 110.152318 
L 79.207803 116.895542 
L 80.927827 129.248441 
L 82.217845 138.313989 
L 83.29286 144.334081 
L 84.582878 150.291334 
L 85.44289 154.38307 
L 86.087899 158.37328 
L 86.947911 165.360796 
L 88.237929 175.995633 
L 88.882938 179.573837 
L 89.957953 184.056921 
L 91.462974 189.18627 
L 93.182998 194.390354 
L 94.903022 198.816088 
L 96.19304 201.516709 
L 98.558073 206.025124 
L 100.493101 209.260282 
L 103.073137 212.960197 
L 107.158194 218.300205 
L 108.878218 220.27298 
L 110.598242 222.096953 
L 118.553353 229.771405 
L 124.788441 234.769046 
L 130.808525 239.025181 
L 135.538591 241.79842 
L 137.473618 242.784482 
L 141.343672 244.569331 
L 147.148754 246.864706 
L 149.513787 247.542353 
L 152.953835 248.308149 
L 156.393883 248.911585 
L 162.198964 249.789924 
L 165.854016 250.255541 
L 171.444094 250.81746 
L 181.119229 251.474967 
L 195.524431 252.030447 
L 212.079663 252.416002 
L 240.245057 252.746833 
L 253.790247 252.841827 
L 253.790247 252.841827 
" clip-path="url(#pfcd8b29e23)" style="fill: none; stroke: #37abb5; stroke-width: 1.5; stroke-linecap: square"/>
   </g>
   <g id="line2d_55">
    <path d="M 73.832727 53.568833 
L 74.262733 58.116735 
L 74.692739 60.864517 
L 75.337748 64.583861 
L 75.767754 68.792556 
L 76.412763 78.271795 
L 77.917784 102.775268 
L 78.562793 109.507515 
L 79.422806 115.880805 
L 80.497821 123.717666 
L 84.152872 153.4059 
L 85.012884 158.702987 
L 86.302902 164.982506 
L 89.957953 181.643014 
L 91.89298 191.015799 
L 93.182998 195.962234 
L 95.118025 202.24222 
L 97.698061 209.896278 
L 101.568116 219.846375 
L 105.868176 229.498731 
L 107.803203 233.003455 
L 111.458254 238.868782 
L 113.393281 241.587446 
L 117.908344 247.039936 
L 119.843371 248.928933 
L 121.348393 250.227092 
L 123.28342 251.77008 
L 126.508465 254.060289 
L 128.658495 255.304875 
L 130.593522 256.244711 
L 133.603564 257.555934 
L 136.828609 258.836158 
L 143.2787 260.909921 
L 156.823889 263.936646 
L 162.62897 264.858896 
L 177.679181 266.707523 
L 191.86938 267.694908 
L 202.404527 268.179146 
L 229.924913 269.302876 
L 230.999928 269.490121 
L 241.105069 269.863853 
L 261.100349 270.314733 
L 301.735918 271.008812 
L 304.74596 271.117156 
L 307.971005 271.254684 
L 310.551042 271.617752 
L 318.29115 271.73953 
L 324.74124 271.816927 
L 327.536279 271.849558 
L 327.536279 271.849558 
" clip-path="url(#pfcd8b29e23)" style="fill: none; stroke: #3ba3ec; stroke-width: 1.5; stroke-linecap: square"/>
   </g>
   <g id="line2d_56">
    <path d="M 73.832727 53.568815 
L 74.262733 58.122215 
L 74.907742 62.139403 
L 75.337748 65.09062 
L 75.767754 69.622989 
L 76.412763 79.81802 
L 77.702781 102.988716 
L 78.34779 110.472529 
L 79.207803 117.265969 
L 82.217845 137.507013 
L 86.947911 161.337778 
L 87.59292 166.191892 
L 88.452932 174.68231 
L 89.527947 185.184865 
L 90.172956 189.4028 
L 90.817965 192.271472 
L 91.677977 195.048237 
L 94.04301 201.591165 
L 95.333028 204.594659 
L 97.053052 208.146084 
L 99.848092 213.052409 
L 102.643131 217.61591 
L 104.363155 220.103825 
L 110.813245 228.695018 
L 113.393281 231.601572 
L 115.758314 234.154388 
L 119.628368 238.173942 
L 124.788441 242.70813 
L 126.938471 244.264911 
L 129.948513 246.181189 
L 132.313546 247.481377 
L 135.538591 249.12709 
L 140.913666 251.229384 
L 147.793763 253.360633 
L 153.598844 254.743364 
L 160.263937 255.99323 
L 164.563998 256.604167 
L 171.659097 257.420875 
L 176.604166 257.847629 
L 187.139314 258.455104 
L 203.909548 259.063351 
L 248.630175 259.912976 
L 248.630175 259.912976 
" clip-path="url(#pfcd8b29e23)" style="fill: none; stroke: #3ba3ec; stroke-width: 1.5; stroke-linecap: square"/>
   </g>
   <g id="line2d_57">
    <path d="M 73.832727 53.568738 
L 74.262733 58.116426 
L 74.692739 60.851675 
L 75.337748 64.453577 
L 75.767754 68.565468 
L 76.412763 78.129311 
L 77.917784 103.82644 
L 78.562793 110.71704 
L 79.207803 115.473498 
L 83.507863 141.153437 
L 84.367875 144.228598 
L 86.087899 149.758273 
L 86.732908 152.503537 
L 87.377917 156.096096 
L 88.237929 162.615888 
L 91.032968 186.736508 
L 92.107983 193.439322 
L 93.182998 198.878896 
L 94.473016 204.332377 
L 95.763034 208.677376 
L 97.053052 212.303831 
L 98.988079 216.993629 
L 100.278098 219.757464 
L 102.643131 223.956834 
L 104.578158 227.084996 
L 107.373197 231.06301 
L 108.663215 232.673849 
L 113.178278 237.581415 
L 115.973317 240.102943 
L 118.123347 242.021301 
L 124.358435 246.555259 
L 126.938471 248.07768 
L 134.03357 251.775352 
L 138.978639 253.700744 
L 149.513787 256.729637 
L 153.598844 257.572293 
L 158.113907 258.424234 
L 166.499025 259.667252 
L 174.02413 260.49614 
L 182.62425 261.242164 
L 192.944395 261.865661 
L 214.229693 262.816973 
L 258.950319 264.181434 
L 259.595328 264.571578 
L 260.240337 264.831433 
L 262.175364 264.981664 
L 269.055461 265.216559 
L 313.561084 266.057644 
L 314.421096 266.26685 
L 315.496111 266.310914 
L 317.646141 266.434285 
L 326.246261 266.60829 
L 369.676869 267.079769 
L 369.676869 267.079769 
" clip-path="url(#pfcd8b29e23)" style="fill: none; stroke: #3ba3ec; stroke-width: 1.5; stroke-linecap: square"/>
   </g>
   <g id="line2d_58">
    <path d="M 73.832727 53.568791 
L 74.262733 58.116596 
L 74.692739 60.847698 
L 75.337748 64.425242 
L 75.767754 68.471252 
L 76.412763 77.71247 
L 77.917784 102.268381 
L 78.562793 109.068651 
L 79.207803 113.698369 
L 81.14283 125.330615 
L 82.002842 133.106726 
L 84.152872 153.994291 
L 85.44289 163.950306 
L 89.097941 189.548196 
L 90.602962 197.894586 
L 92.537989 207.207877 
L 93.613004 211.60404 
L 95.333028 217.544906 
L 97.053052 222.75167 
L 99.418085 228.839473 
L 101.13811 232.667119 
L 102.858134 235.968781 
L 105.868176 241.19719 
L 108.018206 244.412412 
L 111.673257 249.233071 
L 113.393281 251.111567 
L 115.758314 253.479867 
L 119.843371 257.096005 
L 126.078459 261.464791 
L 128.228489 262.637225 
L 129.73351 263.331963 
L 133.603564 265.094061 
L 136.1836 266.087672 
L 138.763636 266.893211 
L 145.42873 268.708303 
L 149.298784 269.599637 
L 154.458856 270.681413 
L 159.188922 271.486377 
L 163.488983 272.182123 
L 167.57404 272.672726 
L 175.959157 273.539956 
L 179.614208 273.820244 
L 188.429332 274.448309 
L 199.609488 275.031391 
L 214.874702 275.653526 
L 231.85994 276.130047 
L 247.340157 276.427688 
L 284.75068 276.82702 
L 308.831017 276.983937 
L 308.831017 276.983937 
" clip-path="url(#pfcd8b29e23)" style="fill: none; stroke: #3ba3ec; stroke-width: 1.5; stroke-linecap: square"/>
   </g>
   <g id="line2d_59">
    <path d="M 73.832727 53.568936 
L 74.262733 58.117787 
L 74.692739 60.885589 
L 75.337748 64.574747 
L 75.767754 68.573985 
L 76.412763 77.4458 
L 77.917784 101.016018 
L 78.562793 107.737364 
L 79.207803 112.171421 
L 79.852812 115.098853 
L 81.787839 122.283747 
L 82.217845 125.133964 
L 82.862854 131.330515 
L 85.012884 155.53685 
L 85.657893 159.660341 
L 86.732908 164.867747 
L 88.452932 173.133534 
L 90.172956 181.436807 
L 91.462974 186.60822 
L 92.752992 190.852108 
L 95.118025 197.737106 
L 97.698061 204.061726 
L 100.923107 211.018057 
L 103.073137 215.039598 
L 105.008164 218.225397 
L 108.448212 223.199915 
L 110.598242 225.915991 
L 113.608284 229.269248 
L 117.048332 232.720305 
L 125.648453 240.296301 
L 127.368477 241.531805 
L 133.818567 245.888213 
L 138.118627 248.211644 
L 138.978639 248.588394 
L 140.053654 249.165809 
L 142.633691 250.175131 
L 145.858736 251.42074 
L 147.793763 252.111461 
L 153.813847 253.834379 
L 155.533871 254.267862 
L 160.693943 255.53126 
L 164.563998 256.938327 
L 165.209007 257.06841 
L 168.004046 257.58101 
L 175.099145 258.876932 
L 178.969199 259.303742 
L 192.729392 261.033417 
L 193.589404 261.175645 
L 202.834533 261.889194 
L 221.539795 262.781957 
L 234.869982 263.334275 
L 236.375003 263.452822 
L 238.095027 263.745626 
L 243.685105 263.956567 
L 251.85522 264.257398 
L 255.725274 264.63654 
L 263.250379 264.817544 
L 270.990488 264.997436 
L 272.925515 265.022943 
L 281.310632 265.176228 
L 286.255701 265.253089 
L 286.255701 265.253089 
" clip-path="url(#pfcd8b29e23)" style="fill: none; stroke: #3ba3ec; stroke-width: 1.5; stroke-linecap: square"/>
   </g>
   <g id="line2d_60">
    <path d="M 73.832727 53.568774 
L 74.262733 58.117649 
L 74.907742 61.994827 
L 75.337748 64.72693 
L 75.767754 68.981904 
L 76.412763 78.375648 
L 77.917784 102.270404 
L 78.562793 108.69229 
L 79.207803 112.92569 
L 80.067815 116.859116 
L 80.927827 121.077888 
L 81.572836 125.596414 
L 82.647851 135.441178 
L 84.367875 150.760876 
L 85.227887 157.19873 
L 86.087899 161.968493 
L 87.59292 168.4196 
L 89.74295 177.799926 
L 92.537989 190.946502 
L 94.473016 197.545419 
L 96.623046 203.798354 
L 98.773076 209.354614 
L 100.278098 212.763718 
L 101.998122 216.341092 
L 107.5882 226.921161 
L 109.73823 230.884434 
L 111.243251 233.704561 
L 116.618326 242.773731 
L 120.703384 248.718677 
L 123.068417 252.3103 
L 125.003444 254.666684 
L 128.658495 258.417103 
L 131.453534 261.175573 
L 132.743552 262.300349 
L 136.1836 265.057185 
L 137.473618 265.904502 
L 140.48366 267.724585 
L 143.063697 269.19476 
L 150.588802 272.432511 
L 153.813847 273.498224 
L 161.768958 275.642419 
L 172.304106 277.738754 
L 175.744154 278.377513 
L 177.894184 278.754297 
L 185.41929 279.777716 
L 194.879422 280.728445 
L 215.734714 282.247284 
L 229.064901 282.807838 
L 234.654979 282.988195 
L 246.265141 283.409882 
L 249.490187 283.521433 
L 253.360241 283.660733 
L 255.510271 283.719022 
L 260.885346 283.85315 
L 302.810933 284.470845 
L 309.04602 284.550318 
L 309.04602 284.550318 
" clip-path="url(#pfcd8b29e23)" style="fill: none; stroke: #bb83f4; stroke-width: 1.5; stroke-linecap: square"/>
   </g>
   <g id="line2d_61">
    <path d="M 73.832727 53.56885 
L 74.262733 58.115329 
L 74.692739 60.824243 
L 75.337748 64.338417 
L 75.767754 68.401149 
L 76.412763 77.888396 
L 77.917784 103.748087 
L 78.562793 111.252487 
L 79.422806 118.62972 
L 81.357833 132.44435 
L 83.29286 146.773491 
L 85.227887 162.897862 
L 86.517905 172.636841 
L 89.312944 191.302953 
L 91.032968 200.589387 
L 92.322986 206.293566 
L 93.613004 210.877598 
L 95.118025 215.243322 
L 96.838049 219.196517 
L 99.203082 224.042814 
L 100.708104 226.619978 
L 102.428128 229.185359 
L 105.653173 233.736905 
L 108.018206 236.88334 
L 109.953233 239.850269 
L 110.813245 241.283833 
L 112.318266 244.235015 
L 114.898302 249.609722 
L 116.833329 253.288992 
L 117.693341 254.83597 
L 120.058374 258.404567 
L 121.778399 260.426157 
L 125.218447 263.622047 
L 127.798483 265.582619 
L 130.163516 267.109131 
L 132.528549 268.41364 
L 139.408645 271.809268 
L 141.343672 272.52962 
L 147.148754 274.513105 
L 150.373799 275.473107 
L 156.17888 276.930745 
L 160.263937 277.764971 
L 166.069019 278.850998 
L 169.509067 279.333312 
L 175.099145 280.098257 
L 176.819169 280.318994 
L 181.334232 280.822697 
L 185.204287 281.213032 
L 195.094425 281.998948 
L 216.16472 283.309625 
L 241.535075 284.121508 
L 267.980446 284.548312 
L 297.650861 284.844046 
L 316.356123 284.978139 
L 316.356123 284.978139 
" clip-path="url(#pfcd8b29e23)" style="fill: none; stroke: #bb83f4; stroke-width: 1.5; stroke-linecap: square"/>
   </g>
   <g id="line2d_62">
    <path d="M 73.832727 53.568802 
L 74.262733 58.113488 
L 74.692739 60.766951 
L 75.337748 63.708837 
L 75.767754 66.960554 
L 76.19776 71.871888 
L 77.057772 85.4694 
L 78.132787 101.966106 
L 78.777797 108.625053 
L 79.422806 113.198053 
L 81.14283 123.736961 
L 82.217845 132.994908 
L 84.797881 155.753099 
L 85.657893 161.213335 
L 86.947911 167.556983 
L 90.602962 183.979479 
L 92.322986 190.975374 
L 94.473016 198.527938 
L 95.978037 203.153795 
L 98.128067 208.525969 
L 100.708104 214.255413 
L 105.223167 222.636543 
L 109.093221 228.636407 
L 111.673257 231.931718 
L 117.048332 237.993552 
L 118.33835 239.399638 
L 121.778399 242.844532 
L 130.808525 250.73774 
L 132.958555 252.260534 
L 134.463576 253.273923 
L 136.1836 254.301023 
L 137.043612 254.790873 
L 141.988682 256.768823 
L 143.2787 257.267776 
L 147.148754 258.745174 
L 150.158796 259.686335 
L 152.308826 260.143708 
L 162.413967 262.214192 
L 164.348995 262.510558 
L 167.57404 262.918897 
L 171.8741 263.506598 
L 181.119229 264.747126 
L 189.504347 265.498361 
L 191.009368 265.623119 
L 193.159398 265.801765 
L 194.664419 265.875455 
L 196.814449 266.058174 
L 198.534473 266.222247 
L 200.4695 266.450818 
L 201.544515 266.560664 
L 202.834533 266.707409 
L 204.984564 266.852241 
L 216.16472 267.532597 
L 220.034774 267.670677 
L 252.500229 268.62745 
L 275.505551 269.10424 
L 288.405731 269.297559 
L 288.405731 269.297559 
" clip-path="url(#pfcd8b29e23)" style="fill: none; stroke: #bb83f4; stroke-width: 1.5; stroke-linecap: square"/>
   </g>
   <g id="line2d_63">
    <path d="M 73.832727 53.568786 
L 74.262733 58.115946 
L 74.692739 60.828502 
L 75.337748 64.262174 
L 75.767754 68.16241 
L 76.412763 77.280293 
L 77.917784 102.161909 
L 78.562793 108.932745 
L 79.207803 113.361722 
L 80.282818 118.501257 
L 80.927827 121.940437 
L 81.572836 126.457183 
L 84.797881 152.965159 
L 87.162914 175.419513 
L 88.452932 183.167672 
L 90.387959 193.890423 
L 92.967995 206.147592 
L 94.903022 214.387626 
L 96.838049 221.503825 
L 98.128067 225.389623 
L 100.063095 230.507612 
L 101.353113 233.487948 
L 104.148152 238.928005 
L 106.513185 243.002571 
L 109.093221 246.692373 
L 112.533269 250.799331 
L 114.898302 253.351993 
L 118.33835 256.475667 
L 120.703384 258.310134 
L 123.713426 260.411406 
L 125.863456 261.80747 
L 132.528549 265.221342 
L 136.1836 266.5684 
L 143.493703 268.866415 
L 151.87882 270.968754 
L 158.973919 272.351232 
L 161.983961 272.817238 
L 173.809127 274.49634 
L 186.494305 275.950526 
L 199.179482 277.13897 
L 204.984564 277.570981 
L 216.809729 278.612083 
L 217.669741 278.910248 
L 218.529753 279.159108 
L 220.034774 279.363205 
L 224.76484 279.655928 
L 255.295268 281.188233 
L 277.655581 281.987587 
L 281.740638 282.224367 
L 288.405731 282.518828 
L 288.405731 282.518828 
" clip-path="url(#pfcd8b29e23)" style="fill: none; stroke: #bb83f4; stroke-width: 1.5; stroke-linecap: square"/>
   </g>
   <g id="line2d_64">
    <path d="M 73.832727 53.568753 
L 74.262733 58.117952 
L 74.907742 61.979579 
L 75.337748 64.745445 
L 75.767754 69.159765 
L 76.412763 79.24322 
L 77.702781 102.303106 
L 78.34779 109.995022 
L 79.207803 117.201492 
L 82.002842 137.655747 
L 84.367875 150.380061 
L 85.44289 159.006079 
L 86.302902 165.576619 
L 86.947911 169.104171 
L 88.022926 173.461333 
L 90.602962 183.98188 
L 94.903022 201.120388 
L 96.408043 206.629363 
L 98.773076 214.060212 
L 101.783119 222.698879 
L 103.718146 227.744611 
L 105.868176 232.392953 
L 107.803203 235.901791 
L 110.383239 239.848919 
L 111.88826 241.916316 
L 113.823287 244.424354 
L 118.123347 249.196184 
L 120.48838 251.459237 
L 123.498423 254.038807 
L 126.723468 256.471177 
L 129.088501 258.00392 
L 132.743552 260.245543 
L 144.568718 266.326499 
L 147.57876 267.637031 
L 155.963877 270.682056 
L 159.188922 271.604754 
L 163.27398 272.647742 
L 168.864058 273.943206 
L 172.089103 274.549204 
L 179.184202 275.796603 
L 185.849296 276.71096 
L 197.889464 277.961842 
L 207.994606 278.773911 
L 215.734714 279.315076 
L 222.829813 279.713365 
L 253.790247 280.913361 
L 274.00053 281.293809 
L 291.200771 281.504567 
L 291.200771 281.504567 
" clip-path="url(#pfcd8b29e23)" style="fill: none; stroke: #bb83f4; stroke-width: 1.5; stroke-linecap: square"/>
   </g>
   <g id="line2d_65">
    <path d="M 73.832727 53.568974 
L 74.262733 58.113528 
L 74.692739 60.731777 
L 75.552751 64.575155 
L 75.982757 68.180984 
L 76.627766 76.636991 
L 78.34779 103.596986 
L 78.9928 109.847846 
L 79.637809 113.964209 
L 81.572836 123.653053 
L 82.217845 129.043725 
L 83.29286 140.869005 
L 85.227887 162.564079 
L 85.872896 167.790409 
L 86.732908 172.737693 
L 88.022926 178.369334 
L 91.462974 191.772347 
L 93.613004 199.28633 
L 95.118025 203.806006 
L 96.623046 207.513243 
L 98.34307 211.102742 
L 100.923107 215.739836 
L 103.28814 219.602891 
L 106.298182 224.005138 
L 108.663215 227.341818 
L 110.813245 230.098959 
L 114.03829 234.018144 
L 115.758314 236.072187 
L 120.48838 241.313532 
L 122.853414 243.559534 
L 126.938471 247.110252 
L 131.453534 250.45409 
L 133.388561 251.706398 
L 136.613606 253.697501 
L 142.848694 256.837585 
L 145.643733 258.038685 
L 148.008766 258.926166 
L 149.943793 259.514449 
L 152.523829 260.31457 
L 155.318868 261.221807 
L 161.983961 262.864757 
L 165.42401 263.556222 
L 173.164118 264.979465 
L 186.494305 266.881312 
L 194.449416 267.75353 
L 200.899506 268.324195 
L 220.679783 269.666257 
L 242.825093 270.557677 
L 266.475424 271.190208 
L 282.385647 271.512692 
L 331.621337 272.084591 
L 335.061385 272.126022 
L 335.061385 272.126022 
" clip-path="url(#pfcd8b29e23)" style="fill: none; stroke: #f564d4; stroke-width: 1.5; stroke-linecap: square"/>
   </g>
   <g id="line2d_66">
    <path d="M 73.832727 53.568717 
L 74.262733 58.118482 
L 74.907742 62.007055 
L 75.337748 64.79552 
L 75.767754 69.194167 
L 76.412763 79.236624 
L 77.917784 105.36982 
L 78.562793 112.342587 
L 79.852812 122.947779 
L 81.572836 136.305057 
L 84.582878 155.683339 
L 86.087899 166.761297 
L 87.377917 173.985735 
L 89.74295 185.893124 
L 91.032968 191.120194 
L 92.537989 196.071048 
L 94.258013 200.680351 
L 98.558073 212.3052 
L 101.783119 221.723194 
L 103.718146 226.83128 
L 105.653173 231.36131 
L 107.373197 234.686574 
L 109.523227 238.399826 
L 112.318266 242.618448 
L 113.608284 244.365332 
L 118.768356 250.37908 
L 120.273377 251.818539 
L 121.778399 253.193224 
L 125.003444 255.810218 
L 128.873498 258.452068 
L 135.323588 261.950976 
L 142.848694 265.399113 
L 145.42873 266.401279 
L 149.72879 267.93171 
L 156.393883 269.974564 
L 163.058977 271.603143 
L 169.939073 272.774564 
L 173.164118 273.248209 
L 185.849296 274.686492 
L 202.834533 276.093107 
L 236.805009 277.726804 
L 276.795569 278.571467 
L 341.296472 279.211935 
L 398.487273 279.561569 
L 398.487273 279.561569 
" clip-path="url(#pfcd8b29e23)" style="fill: none; stroke: #f564d4; stroke-width: 1.5; stroke-linecap: square"/>
   </g>
   <g id="line2d_67">
    <path d="M 73.832727 53.568672 
L 74.262733 58.119041 
L 74.907742 62.051877 
L 75.337748 64.968463 
L 75.767754 69.56066 
L 76.412763 79.723635 
L 77.702781 101.861084 
L 78.34779 109.010047 
L 78.9928 113.892304 
L 80.712824 125.108712 
L 81.787839 135.021495 
L 83.29286 148.987306 
L 84.152872 155.239261 
L 85.012884 159.98682 
L 86.947911 169.785758 
L 89.74295 184.397982 
L 91.247971 191.557838 
L 92.752992 197.42583 
L 94.473016 203.210509 
L 97.053052 211.375127 
L 102.428128 226.262609 
L 105.223167 233.606067 
L 108.448212 241.08519 
L 111.458254 247.288887 
L 114.683299 252.911314 
L 116.18832 255.032597 
L 119.628368 259.215771 
L 123.28342 263.040289 
L 126.723468 266.161396 
L 130.593522 269.112105 
L 135.323588 272.053627 
L 137.473618 273.302988 
L 138.763636 273.989339 
L 141.988682 275.627066 
L 152.093823 280.006496 
L 158.543913 282.44837 
L 164.779001 284.274963 
L 169.939073 285.634948 
L 173.809127 286.510894 
L 190.794365 289.583074 
L 196.16944 290.296233 
L 198.534473 290.642161 
L 205.41457 291.495413 
L 221.539795 292.766955 
L 236.16 293.652513 
L 242.825093 293.917198 
L 254.435256 294.331728 
L 276.15056 294.879966 
L 302.165924 295.306324 
L 308.831017 295.435523 
L 312.701072 295.488 
L 312.701072 295.488 
" clip-path="url(#pfcd8b29e23)" style="fill: none; stroke: #f564d4; stroke-width: 1.5; stroke-linecap: square"/>
   </g>
   <g id="line2d_68">
    <path d="M 73.832727 53.568779 
L 74.262733 58.115934 
L 74.692739 60.821219 
L 75.337748 64.179096 
L 75.767754 67.962232 
L 76.412763 76.893397 
L 78.132787 104.981107 
L 78.777797 111.182284 
L 79.422806 115.31694 
L 80.927827 123.425072 
L 81.572836 128.440367 
L 82.432848 137.102441 
L 84.152872 155.244519 
L 85.227887 163.866098 
L 87.59292 181.168846 
L 89.097941 192.022354 
L 90.172956 198.255779 
L 91.462974 204.58581 
L 93.613004 213.667046 
L 95.978037 222.76322 
L 97.483058 227.690703 
L 99.203082 232.491353 
L 101.353113 237.672735 
L 103.28814 241.787438 
L 105.223167 245.339143 
L 107.5882 249.181229 
L 109.953233 252.606207 
L 112.748272 256.200756 
L 115.113305 258.989932 
L 117.263335 261.265562 
L 118.983359 262.844722 
L 122.638411 266.086064 
L 127.58348 270.090095 
L 133.173558 273.65224 
L 136.398603 275.372044 
L 138.118627 276.138776 
L 141.558675 277.484136 
L 143.493703 278.325653 
L 145.643733 279.386898 
L 150.588802 281.082278 
L 157.468898 283.191882 
L 161.768958 284.301478 
L 174.884142 287.154172 
L 178.754196 287.77213 
L 181.764238 288.199475 
L 198.104467 289.981482 
L 203.049536 290.398819 
L 218.744756 291.550428 
L 247.770163 293.077064 
L 260.240337 293.548035 
L 260.240337 293.548035 
" clip-path="url(#pfcd8b29e23)" style="fill: none; stroke: #f564d4; stroke-width: 1.5; stroke-linecap: square"/>
   </g>
   <g id="line2d_69">
    <path d="M 73.832727 53.568409 
L 74.262733 58.121679 
L 74.907742 62.175548 
L 75.337748 65.254475 
L 75.767754 69.999512 
L 76.412763 80.45637 
L 77.702781 103.019581 
L 78.34779 109.963859 
L 78.9928 114.628665 
L 80.712824 125.61094 
L 81.787839 135.123266 
L 84.367875 159.272008 
L 85.872896 170.348733 
L 90.387959 199.41592 
L 91.89298 207.285758 
L 92.967995 212.081131 
L 94.473016 217.626258 
L 95.548031 220.962169 
L 97.483058 226.186674 
L 99.203082 229.938642 
L 101.353113 234.041731 
L 103.718146 238.017714 
L 105.653173 240.792494 
L 108.878218 244.791255 
L 111.673257 247.95064 
L 115.113305 251.315213 
L 122.423408 257.376827 
L 124.788441 259.059306 
L 130.593522 262.732392 
L 137.258615 266.245584 
L 139.408645 267.300113 
L 143.063697 268.921104 
L 148.868778 271.147184 
L 158.113907 274.164891 
L 166.499025 276.20165 
L 173.594124 277.585503 
L 185.849296 279.443881 
L 193.804407 280.35532 
L 203.694545 281.141561 
L 208.854618 281.42296 
L 227.344877 282.255079 
L 238.31003 282.629461 
L 271.635497 283.403713 
L 279.375605 283.536243 
L 290.340759 283.709588 
L 316.356123 284.002688 
L 316.356123 284.002688 
" clip-path="url(#pfcd8b29e23)" style="fill: none; stroke: #f564d4; stroke-width: 1.5; stroke-linecap: square"/>
   </g>
   <g id="patch_3">
    <path d="M 57.6 307.584 
L 57.6 41.472 
" style="fill: none; stroke: #000000; stroke-width: 0.8; stroke-linejoin: miter; stroke-linecap: square"/>
   </g>
   <g id="patch_4">
    <path d="M 414.72 307.584 
L 414.72 41.472 
" style="fill: none; stroke: #000000; stroke-width: 0.8; stroke-linejoin: miter; stroke-linecap: square"/>
   </g>
   <g id="patch_5">
    <path d="M 57.6 307.584 
L 414.72 307.584 
" style="fill: none; stroke: #000000; stroke-width: 0.8; stroke-linejoin: miter; stroke-linecap: square"/>
   </g>
   <g id="patch_6">
    <path d="M 57.6 41.472 
L 414.72 41.472 
" style="fill: none; stroke: #000000; stroke-width: 0.8; stroke-linejoin: miter; stroke-linecap: square"/>
   </g>
   <g id="text_13">
    <g id="patch_7">
     <path d="M 223.860884 131.586908 
L 253.160884 131.586908 
L 253.160884 113.908783 
L 223.860884 113.908783 
z
" style="fill: #ffffff; opacity: 0.7; stroke: #000000; stroke-linejoin: miter"/>
    </g>
    <!-- K=2 -->
    <g style="fill: #f77189" transform="translate(227.860884 125.50722) scale(0.1 -0.1)">
     <defs>
      <path id="DejaVuSans-4b" d="M 628 4666 
L 1259 4666 
L 1259 2694 
L 3353 4666 
L 4166 4666 
L 1850 2491 
L 4331 0 
L 3500 0 
L 1259 2247 
L 1259 0 
L 628 0 
L 628 4666 
z
" transform="scale(0.015625)"/>
      <path id="DejaVuSans-3d" d="M 678 2906 
L 4684 2906 
L 4684 2381 
L 678 2381 
L 678 2906 
z
M 678 1631 
L 4684 1631 
L 4684 1100 
L 678 1100 
L 678 1631 
z
" transform="scale(0.015625)"/>
     </defs>
     <use xlink:href="#DejaVuSans-4b"/>
     <use xlink:href="#DejaVuSans-3d" x="65.576172"/>
     <use xlink:href="#DejaVuSans-32" x="149.365234"/>
    </g>
   </g>
   <g id="text_14">
    <g id="patch_8">
     <path d="M 223.258875 164.600626 
L 252.558875 164.600626 
L 252.558875 146.922501 
L 223.258875 146.922501 
z
" style="fill: #ffffff; opacity: 0.7; stroke: #000000; stroke-linejoin: miter"/>
    </g>
    <!-- K=3 -->
    <g style="fill: #d58c32" transform="translate(227.258875 158.520939) scale(0.1 -0.1)">
     <use xlink:href="#DejaVuSans-4b"/>
     <use xlink:href="#DejaVuSans-3d" x="65.576172"/>
     <use xlink:href="#DejaVuSans-33" x="149.365234"/>
    </g>
   </g>
   <g id="text_15">
    <g id="patch_9">
     <path d="M 246.522201 196.909718 
L 275.822201 196.909718 
L 275.822201 179.231593 
L 246.522201 179.231593 
z
" style="fill: #ffffff; opacity: 0.7; stroke: #000000; stroke-linejoin: miter"/>
    </g>
    <!-- K=4 -->
    <g style="fill: #a4a031" transform="translate(250.522201 190.83003) scale(0.1 -0.1)">
     <use xlink:href="#DejaVuSans-4b"/>
     <use xlink:href="#DejaVuSans-3d" x="65.576172"/>
     <use xlink:href="#DejaVuSans-34" x="149.365234"/>
    </g>
   </g>
   <g id="text_16">
    <g id="patch_10">
     <path d="M 261.701414 228.828603 
L 291.001414 228.828603 
L 291.001414 211.150478 
L 261.701414 211.150478 
z
" style="fill: #ffffff; opacity: 0.7; stroke: #000000; stroke-linejoin: miter"/>
    </g>
    <!-- K=5 -->
    <g style="fill: #50b131" transform="translate(265.701414 222.748916) scale(0.1 -0.1)">
     <defs>
      <path id="DejaVuSans-35" d="M 691 4666 
L 3169 4666 
L 3169 4134 
L 1269 4134 
L 1269 2991 
Q 1406 3038 1543 3061 
Q 1681 3084 1819 3084 
Q 2600 3084 3056 2656 
Q 3513 2228 3513 1497 
Q 3513 744 3044 326 
Q 2575 -91 1722 -91 
Q 1428 -91 1123 -41 
Q 819 9 494 109 
L 494 744 
Q 775 591 1075 516 
Q 1375 441 1709 441 
Q 2250 441 2565 725 
Q 2881 1009 2881 1497 
Q 2881 1984 2565 2268 
Q 2250 2553 1709 2553 
Q 1456 2553 1204 2497 
Q 953 2441 691 2322 
L 691 4666 
z
" transform="scale(0.015625)"/>
     </defs>
     <use xlink:href="#DejaVuSans-4b"/>
     <use xlink:href="#DejaVuSans-3d" x="65.576172"/>
     <use xlink:href="#DejaVuSans-35" x="149.365234"/>
    </g>
   </g>
   <g id="text_17">
    <g id="patch_11">
     <path d="M 280.836682 243.483207 
L 310.136682 243.483207 
L 310.136682 225.805082 
L 280.836682 225.805082 
z
" style="fill: #ffffff; opacity: 0.7; stroke: #000000; stroke-linejoin: miter"/>
    </g>
    <!-- K=6 -->
    <g style="fill: #34ae91" transform="translate(284.836682 237.40352) scale(0.1 -0.1)">
     <use xlink:href="#DejaVuSans-4b"/>
     <use xlink:href="#DejaVuSans-3d" x="65.576172"/>
     <use xlink:href="#DejaVuSans-36" x="149.365234"/>
    </g>
   </g>
   <g id="text_18">
    <g id="patch_12">
     <path d="M 304.100007 262.605486 
L 333.400007 262.605486 
L 333.400007 244.927361 
L 304.100007 244.927361 
z
" style="fill: #ffffff; opacity: 0.7; stroke: #000000; stroke-linejoin: miter"/>
    </g>
    <!-- K=7 -->
    <g style="fill: #37abb5" transform="translate(308.100007 256.525798) scale(0.1 -0.1)">
     <defs>
      <path id="DejaVuSans-37" d="M 525 4666 
L 3525 4666 
L 3525 4397 
L 1831 0 
L 1172 0 
L 2766 4134 
L 525 4134 
L 525 4666 
z
" transform="scale(0.015625)"/>
     </defs>
     <use xlink:href="#DejaVuSans-4b"/>
     <use xlink:href="#DejaVuSans-3d" x="65.576172"/>
     <use xlink:href="#DejaVuSans-37" x="149.365234"/>
    </g>
   </g>
   <g id="text_19">
    <g id="patch_13">
     <path d="M 330.201373 274.020958 
L 359.501373 274.020958 
L 359.501373 256.342833 
L 330.201373 256.342833 
z
" style="fill: #ffffff; opacity: 0.7; stroke: #000000; stroke-linejoin: miter"/>
    </g>
    <!-- K=8 -->
    <g style="fill: #3ba3ec" transform="translate(334.201373 267.94127) scale(0.1 -0.1)">
     <use xlink:href="#DejaVuSans-4b"/>
     <use xlink:href="#DejaVuSans-3d" x="65.576172"/>
     <use xlink:href="#DejaVuSans-38" x="149.365234"/>
    </g>
   </g>
   <g id="text_20">
    <g id="patch_14">
     <path d="M 320.69824 286.365765 
L 349.99824 286.365765 
L 349.99824 268.68764 
L 320.69824 268.68764 
z
" style="fill: #ffffff; opacity: 0.7; stroke: #000000; stroke-linejoin: miter"/>
    </g>
    <!-- K=9 -->
    <g style="fill: #bb83f4" transform="translate(324.69824 280.286077) scale(0.1 -0.1)">
     <defs>
      <path id="DejaVuSans-39" d="M 703 97 
L 703 672 
Q 941 559 1184 500 
Q 1428 441 1663 441 
Q 2288 441 2617 861 
Q 2947 1281 2994 2138 
Q 2813 1869 2534 1725 
Q 2256 1581 1919 1581 
Q 1219 1581 811 2004 
Q 403 2428 403 3163 
Q 403 3881 828 4315 
Q 1253 4750 1959 4750 
Q 2769 4750 3195 4129 
Q 3622 3509 3622 2328 
Q 3622 1225 3098 567 
Q 2575 -91 1691 -91 
Q 1453 -91 1209 -44 
Q 966 3 703 97 
z
M 1959 2075 
Q 2384 2075 2632 2365 
Q 2881 2656 2881 3163 
Q 2881 3666 2632 3958 
Q 2384 4250 1959 4250 
Q 1534 4250 1286 3958 
Q 1038 3666 1038 3163 
Q 1038 2656 1286 2365 
Q 1534 2075 1959 2075 
z
" transform="scale(0.015625)"/>
     </defs>
     <use xlink:href="#DejaVuSans-4b"/>
     <use xlink:href="#DejaVuSans-3d" x="65.576172"/>
     <use xlink:href="#DejaVuSans-39" x="149.365234"/>
    </g>
   </g>
   <g id="text_21">
    <g id="patch_15">
     <path d="M 346.584602 290.403396 
L 382.247102 290.403396 
L 382.247102 272.725271 
L 346.584602 272.725271 
z
" style="fill: #ffffff; opacity: 0.7; stroke: #000000; stroke-linejoin: miter"/>
    </g>
    <!-- K=10 -->
    <g style="fill: #f564d4" transform="translate(350.584602 284.323708) scale(0.1 -0.1)">
     <use xlink:href="#DejaVuSans-4b"/>
     <use xlink:href="#DejaVuSans-3d" x="65.576172"/>
     <use xlink:href="#DejaVuSans-31" x="149.365234"/>
     <use xlink:href="#DejaVuSans-30" x="212.988281"/>
    </g>
   </g>
   <g id="text_22">
    <!-- Loss curve over 5 runs with SSE loss for different K -->
    <g transform="translate(83.241563 35.472) scale(0.12 -0.12)">
     <defs>
      <path id="DejaVuSans-75" d="M 544 1381 
L 544 3500 
L 1119 3500 
L 1119 1403 
Q 1119 906 1312 657 
Q 1506 409 1894 409 
Q 2359 409 2629 706 
Q 2900 1003 2900 1516 
L 2900 3500 
L 3475 3500 
L 3475 0 
L 2900 0 
L 2900 538 
Q 2691 219 2414 64 
Q 2138 -91 1772 -91 
Q 1169 -91 856 284 
Q 544 659 544 1381 
z
M 1991 3584 
L 1991 3584 
z
" transform="scale(0.015625)"/>
      <path id="DejaVuSans-76" d="M 191 3500 
L 800 3500 
L 1894 563 
L 2988 3500 
L 3597 3500 
L 2284 0 
L 1503 0 
L 191 3500 
z
" transform="scale(0.015625)"/>
      <path id="DejaVuSans-77" d="M 269 3500 
L 844 3500 
L 1563 769 
L 2278 3500 
L 2956 3500 
L 3675 769 
L 4391 3500 
L 4966 3500 
L 4050 0 
L 3372 0 
L 2619 2869 
L 1863 0 
L 1184 0 
L 269 3500 
z
" transform="scale(0.015625)"/>
      <path id="DejaVuSans-68" d="M 3513 2113 
L 3513 0 
L 2938 0 
L 2938 2094 
Q 2938 2591 2744 2837 
Q 2550 3084 2163 3084 
Q 1697 3084 1428 2787 
Q 1159 2491 1159 1978 
L 1159 0 
L 581 0 
L 581 4863 
L 1159 4863 
L 1159 2956 
Q 1366 3272 1645 3428 
Q 1925 3584 2291 3584 
Q 2894 3584 3203 3211 
Q 3513 2838 3513 2113 
z
" transform="scale(0.015625)"/>
      <path id="DejaVuSans-53" d="M 3425 4513 
L 3425 3897 
Q 3066 4069 2747 4153 
Q 2428 4238 2131 4238 
Q 1616 4238 1336 4038 
Q 1056 3838 1056 3469 
Q 1056 3159 1242 3001 
Q 1428 2844 1947 2747 
L 2328 2669 
Q 3034 2534 3370 2195 
Q 3706 1856 3706 1288 
Q 3706 609 3251 259 
Q 2797 -91 1919 -91 
Q 1588 -91 1214 -16 
Q 841 59 441 206 
L 441 856 
Q 825 641 1194 531 
Q 1563 422 1919 422 
Q 2459 422 2753 634 
Q 3047 847 3047 1241 
Q 3047 1584 2836 1778 
Q 2625 1972 2144 2069 
L 1759 2144 
Q 1053 2284 737 2584 
Q 422 2884 422 3419 
Q 422 4038 858 4394 
Q 1294 4750 2059 4750 
Q 2388 4750 2728 4690 
Q 3069 4631 3425 4513 
z
" transform="scale(0.015625)"/>
      <path id="DejaVuSans-45" d="M 628 4666 
L 3578 4666 
L 3578 4134 
L 1259 4134 
L 1259 2753 
L 3481 2753 
L 3481 2222 
L 1259 2222 
L 1259 531 
L 3634 531 
L 3634 0 
L 628 0 
L 628 4666 
z
" transform="scale(0.015625)"/>
      <path id="DejaVuSans-66" d="M 2375 4863 
L 2375 4384 
L 1825 4384 
Q 1516 4384 1395 4259 
Q 1275 4134 1275 3809 
L 1275 3500 
L 2222 3500 
L 2222 3053 
L 1275 3053 
L 1275 0 
L 697 0 
L 697 3053 
L 147 3053 
L 147 3500 
L 697 3500 
L 697 3744 
Q 697 4328 969 4595 
Q 1241 4863 1831 4863 
L 2375 4863 
z
" transform="scale(0.015625)"/>
      <path id="DejaVuSans-64" d="M 2906 2969 
L 2906 4863 
L 3481 4863 
L 3481 0 
L 2906 0 
L 2906 525 
Q 2725 213 2448 61 
Q 2172 -91 1784 -91 
Q 1150 -91 751 415 
Q 353 922 353 1747 
Q 353 2572 751 3078 
Q 1150 3584 1784 3584 
Q 2172 3584 2448 3432 
Q 2725 3281 2906 2969 
z
M 947 1747 
Q 947 1113 1208 752 
Q 1469 391 1925 391 
Q 2381 391 2643 752 
Q 2906 1113 2906 1747 
Q 2906 2381 2643 2742 
Q 2381 3103 1925 3103 
Q 1469 3103 1208 2742 
Q 947 2381 947 1747 
z
" transform="scale(0.015625)"/>
     </defs>
     <use xlink:href="#DejaVuSans-4c"/>
     <use xlink:href="#DejaVuSans-6f" x="53.962891"/>
     <use xlink:href="#DejaVuSans-73" x="115.144531"/>
     <use xlink:href="#DejaVuSans-73" x="167.244141"/>
     <use xlink:href="#DejaVuSans-20" x="219.34375"/>
     <use xlink:href="#DejaVuSans-63" x="251.130859"/>
     <use xlink:href="#DejaVuSans-75" x="306.111328"/>
     <use xlink:href="#DejaVuSans-72" x="369.490234"/>
     <use xlink:href="#DejaVuSans-76" x="410.603516"/>
     <use xlink:href="#DejaVuSans-65" x="469.783203"/>
     <use xlink:href="#DejaVuSans-20" x="531.306641"/>
     <use xlink:href="#DejaVuSans-6f" x="563.09375"/>
     <use xlink:href="#DejaVuSans-76" x="624.275391"/>
     <use xlink:href="#DejaVuSans-65" x="683.455078"/>
     <use xlink:href="#DejaVuSans-72" x="744.978516"/>
     <use xlink:href="#DejaVuSans-20" x="786.091797"/>
     <use xlink:href="#DejaVuSans-35" x="817.878906"/>
     <use xlink:href="#DejaVuSans-20" x="881.501953"/>
     <use xlink:href="#DejaVuSans-72" x="913.289062"/>
     <use xlink:href="#DejaVuSans-75" x="954.402344"/>
     <use xlink:href="#DejaVuSans-6e" x="1017.78125"/>
     <use xlink:href="#DejaVuSans-73" x="1081.160156"/>
     <use xlink:href="#DejaVuSans-20" x="1133.259766"/>
     <use xlink:href="#DejaVuSans-77" x="1165.046875"/>
     <use xlink:href="#DejaVuSans-69" x="1246.833984"/>
     <use xlink:href="#DejaVuSans-74" x="1274.617188"/>
     <use xlink:href="#DejaVuSans-68" x="1313.826172"/>
     <use xlink:href="#DejaVuSans-20" x="1377.205078"/>
     <use xlink:href="#DejaVuSans-53" x="1408.992188"/>
     <use xlink:href="#DejaVuSans-53" x="1472.46875"/>
     <use xlink:href="#DejaVuSans-45" x="1535.945312"/>
     <use xlink:href="#DejaVuSans-20" x="1599.128906"/>
     <use xlink:href="#DejaVuSans-6c" x="1630.916016"/>
     <use xlink:href="#DejaVuSans-6f" x="1658.699219"/>
     <use xlink:href="#DejaVuSans-73" x="1719.880859"/>
     <use xlink:href="#DejaVuSans-73" x="1771.980469"/>
     <use xlink:href="#DejaVuSans-20" x="1824.080078"/>
     <use xlink:href="#DejaVuSans-66" x="1855.867188"/>
     <use xlink:href="#DejaVuSans-6f" x="1891.072266"/>
     <use xlink:href="#DejaVuSans-72" x="1952.253906"/>
     <use xlink:href="#DejaVuSans-20" x="1993.367188"/>
     <use xlink:href="#DejaVuSans-64" x="2025.154297"/>
     <use xlink:href="#DejaVuSans-69" x="2088.630859"/>
     <use xlink:href="#DejaVuSans-66" x="2116.414062"/>
     <use xlink:href="#DejaVuSans-66" x="2151.619141"/>
     <use xlink:href="#DejaVuSans-65" x="2186.824219"/>
     <use xlink:href="#DejaVuSans-72" x="2248.347656"/>
     <use xlink:href="#DejaVuSans-65" x="2287.210938"/>
     <use xlink:href="#DejaVuSans-6e" x="2348.734375"/>
     <use xlink:href="#DejaVuSans-74" x="2412.113281"/>
     <use xlink:href="#DejaVuSans-20" x="2451.322266"/>
     <use xlink:href="#DejaVuSans-4b" x="2483.109375"/>
    </g>
   </g>
   <g id="legend_1">
    <g id="patch_16">
     <path d="M 348.0575 181.575125 
L 407.72 181.575125 
Q 409.72 181.575125 409.72 179.575125 
L 409.72 48.472 
Q 409.72 46.472 407.72 46.472 
L 348.0575 46.472 
Q 346.0575 46.472 346.0575 48.472 
L 346.0575 179.575125 
Q 346.0575 181.575125 348.0575 181.575125 
z
" style="fill: #ffffff; opacity: 0.8; stroke: #cccccc; stroke-linejoin: miter"/>
    </g>
    <g id="line2d_70">
     <path d="M 350.0575 54.570438 
L 360.0575 54.570438 
L 370.0575 54.570438 
" style="fill: none; stroke: #f77189; stroke-width: 1.5; stroke-linecap: square"/>
    </g>
    <g id="text_23">
     <!-- K=2 -->
     <g transform="translate(378.0575 58.070438) scale(0.1 -0.1)">
      <use xlink:href="#DejaVuSans-4b"/>
      <use xlink:href="#DejaVuSans-3d" x="65.576172"/>
      <use xlink:href="#DejaVuSans-32" x="149.365234"/>
     </g>
    </g>
    <g id="line2d_71">
     <path d="M 350.0575 69.248563 
L 360.0575 69.248563 
L 370.0575 69.248563 
" style="fill: none; stroke: #d58c32; stroke-width: 1.5; stroke-linecap: square"/>
    </g>
    <g id="text_24">
     <!-- K=3 -->
     <g transform="translate(378.0575 72.748563) scale(0.1 -0.1)">
      <use xlink:href="#DejaVuSans-4b"/>
      <use xlink:href="#DejaVuSans-3d" x="65.576172"/>
      <use xlink:href="#DejaVuSans-33" x="149.365234"/>
     </g>
    </g>
    <g id="line2d_72">
     <path d="M 350.0575 83.926688 
L 360.0575 83.926688 
L 370.0575 83.926688 
" style="fill: none; stroke: #a4a031; stroke-width: 1.5; stroke-linecap: square"/>
    </g>
    <g id="text_25">
     <!-- K=4 -->
     <g transform="translate(378.0575 87.426688) scale(0.1 -0.1)">
      <use xlink:href="#DejaVuSans-4b"/>
      <use xlink:href="#DejaVuSans-3d" x="65.576172"/>
      <use xlink:href="#DejaVuSans-34" x="149.365234"/>
     </g>
    </g>
    <g id="line2d_73">
     <path d="M 350.0575 98.604813 
L 360.0575 98.604813 
L 370.0575 98.604813 
" style="fill: none; stroke: #50b131; stroke-width: 1.5; stroke-linecap: square"/>
    </g>
    <g id="text_26">
     <!-- K=5 -->
     <g transform="translate(378.0575 102.104813) scale(0.1 -0.1)">
      <use xlink:href="#DejaVuSans-4b"/>
      <use xlink:href="#DejaVuSans-3d" x="65.576172"/>
      <use xlink:href="#DejaVuSans-35" x="149.365234"/>
     </g>
    </g>
    <g id="line2d_74">
     <path d="M 350.0575 113.282938 
L 360.0575 113.282938 
L 370.0575 113.282938 
" style="fill: none; stroke: #34ae91; stroke-width: 1.5; stroke-linecap: square"/>
    </g>
    <g id="text_27">
     <!-- K=6 -->
     <g transform="translate(378.0575 116.782938) scale(0.1 -0.1)">
      <use xlink:href="#DejaVuSans-4b"/>
      <use xlink:href="#DejaVuSans-3d" x="65.576172"/>
      <use xlink:href="#DejaVuSans-36" x="149.365234"/>
     </g>
    </g>
    <g id="line2d_75">
     <path d="M 350.0575 127.961063 
L 360.0575 127.961063 
L 370.0575 127.961063 
" style="fill: none; stroke: #37abb5; stroke-width: 1.5; stroke-linecap: square"/>
    </g>
    <g id="text_28">
     <!-- K=7 -->
     <g transform="translate(378.0575 131.461063) scale(0.1 -0.1)">
      <use xlink:href="#DejaVuSans-4b"/>
      <use xlink:href="#DejaVuSans-3d" x="65.576172"/>
      <use xlink:href="#DejaVuSans-37" x="149.365234"/>
     </g>
    </g>
    <g id="line2d_76">
     <path d="M 350.0575 142.639188 
L 360.0575 142.639188 
L 370.0575 142.639188 
" style="fill: none; stroke: #3ba3ec; stroke-width: 1.5; stroke-linecap: square"/>
    </g>
    <g id="text_29">
     <!-- K=8 -->
     <g transform="translate(378.0575 146.139188) scale(0.1 -0.1)">
      <use xlink:href="#DejaVuSans-4b"/>
      <use xlink:href="#DejaVuSans-3d" x="65.576172"/>
      <use xlink:href="#DejaVuSans-38" x="149.365234"/>
     </g>
    </g>
    <g id="line2d_77">
     <path d="M 350.0575 157.317313 
L 360.0575 157.317313 
L 370.0575 157.317313 
" style="fill: none; stroke: #bb83f4; stroke-width: 1.5; stroke-linecap: square"/>
    </g>
    <g id="text_30">
     <!-- K=9 -->
     <g transform="translate(378.0575 160.817313) scale(0.1 -0.1)">
      <use xlink:href="#DejaVuSans-4b"/>
      <use xlink:href="#DejaVuSans-3d" x="65.576172"/>
      <use xlink:href="#DejaVuSans-39" x="149.365234"/>
     </g>
    </g>
    <g id="line2d_78">
     <path d="M 350.0575 171.995438 
L 360.0575 171.995438 
L 370.0575 171.995438 
" style="fill: none; stroke: #f564d4; stroke-width: 1.5; stroke-linecap: square"/>
    </g>
    <g id="text_31">
     <!-- K=10 -->
     <g transform="translate(378.0575 175.495438) scale(0.1 -0.1)">
      <use xlink:href="#DejaVuSans-4b"/>
      <use xlink:href="#DejaVuSans-3d" x="65.576172"/>
      <use xlink:href="#DejaVuSans-31" x="149.365234"/>
      <use xlink:href="#DejaVuSans-30" x="212.988281"/>
     </g>
    </g>
   </g>
  </g>
 </g>
 <defs>
  <clipPath id="pfcd8b29e23">
   <rect x="57.6" y="41.472" width="357.12" height="266.112"/>
  </clipPath>
 </defs>
</svg>
