<?xml version="1.0" encoding="utf-8" standalone="no"?>
<!DOCTYPE svg PUBLIC "-//W3C//DTD SVG 1.1//EN"
  "http://www.w3.org/Graphics/SVG/1.1/DTD/svg11.dtd">
<svg xmlns:xlink="http://www.w3.org/1999/xlink" width="432pt" height="360pt" viewBox="0 0 432 360" xmlns="http://www.w3.org/2000/svg" version="1.1">
 <metadata>
  <rdf:RDF xmlns:dc="http://purl.org/dc/elements/1.1/" xmlns:cc="http://creativecommons.org/ns#" xmlns:rdf="http://www.w3.org/1999/02/22-rdf-syntax-ns#">
   <cc:Work>
    <dc:type rdf:resource="http://purl.org/dc/dcmitype/StillImage"/>
    <dc:date>2024-06-24T01:07:05.035414</dc:date>
    <dc:format>image/svg+xml</dc:format>
    <dc:creator>
     <cc:Agent>
      <dc:title>Matplotlib v3.8.2, https://matplotlib.org/</dc:title>
     </cc:Agent>
    </dc:creator>
   </cc:Work>
  </rdf:RDF>
 </metadata>
 <defs>
  <style type="text/css">*{stroke-linejoin: round; stroke-linecap: butt}</style>
 </defs>
 <g id="figure_1">
  <g id="patch_1">
   <path d="M 0 360 
L 432 360 
L 432 0 
L 0 0 
z
" style="fill: #ffffff"/>
  </g>
  <g id="axes_1">
   <g id="patch_2">
    <path d="M 54 320.4 
L 388.8 320.4 
L 388.8 43.2 
L 54 43.2 
z
" style="fill: #ffffff"/>
   </g>
   <g id="matplotlib.axis_1">
    <g id="xtick_1">
     <g id="line2d_1">
      <defs>
       <path id="mb79863c28a" d="M 0 0 
L 0 3.5 
" style="stroke: #000000; stroke-width: 0.8"/>
      </defs>
      <g>
       <use xlink:href="#mb79863c28a" x="69.218182" y="320.4" style="stroke: #000000; stroke-width: 0.8"/>
      </g>
     </g>
     <g id="text_1">
      <!-- 0 -->
      <g transform="translate(66.036932 334.998438) scale(0.1 -0.1)">
       <defs>
        <path id="DejaVuSans-30" d="M 2034 4250 
Q 1547 4250 1301 3770 
Q 1056 3291 1056 2328 
Q 1056 1369 1301 889 
Q 1547 409 2034 409 
Q 2525 409 2770 889 
Q 3016 1369 3016 2328 
Q 3016 3291 2770 3770 
Q 2525 4250 2034 4250 
z
M 2034 4750 
Q 2819 4750 3233 4129 
Q 3647 3509 3647 2328 
Q 3647 1150 3233 529 
Q 2819 -91 2034 -91 
Q 1250 -91 836 529 
Q 422 1150 422 2328 
Q 422 3509 836 4129 
Q 1250 4750 2034 4750 
z
" transform="scale(0.015625)"/>
       </defs>
       <use xlink:href="#DejaVuSans-30"/>
      </g>
     </g>
    </g>
    <g id="xtick_2">
     <g id="line2d_2">
      <g>
       <use xlink:href="#mb79863c28a" x="113.611944" y="320.4" style="stroke: #000000; stroke-width: 0.8"/>
      </g>
     </g>
     <g id="text_2">
      <!-- 250 -->
      <g transform="translate(104.068194 334.998438) scale(0.1 -0.1)">
       <defs>
        <path id="DejaVuSans-32" d="M 1228 531 
L 3431 531 
L 3431 0 
L 469 0 
L 469 531 
Q 828 903 1448 1529 
Q 2069 2156 2228 2338 
Q 2531 2678 2651 2914 
Q 2772 3150 2772 3378 
Q 2772 3750 2511 3984 
Q 2250 4219 1831 4219 
Q 1534 4219 1204 4116 
Q 875 4013 500 3803 
L 500 4441 
Q 881 4594 1212 4672 
Q 1544 4750 1819 4750 
Q 2544 4750 2975 4387 
Q 3406 4025 3406 3419 
Q 3406 3131 3298 2873 
Q 3191 2616 2906 2266 
Q 2828 2175 2409 1742 
Q 1991 1309 1228 531 
z
" transform="scale(0.015625)"/>
        <path id="DejaVuSans-35" d="M 691 4666 
L 3169 4666 
L 3169 4134 
L 1269 4134 
L 1269 2991 
Q 1406 3038 1543 3061 
Q 1681 3084 1819 3084 
Q 2600 3084 3056 2656 
Q 3513 2228 3513 1497 
Q 3513 744 3044 326 
Q 2575 -91 1722 -91 
Q 1428 -91 1123 -41 
Q 819 9 494 109 
L 494 744 
Q 775 591 1075 516 
Q 1375 441 1709 441 
Q 2250 441 2565 725 
Q 2881 1009 2881 1497 
Q 2881 1984 2565 2268 
Q 2250 2553 1709 2553 
Q 1456 2553 1204 2497 
Q 953 2441 691 2322 
L 691 4666 
z
" transform="scale(0.015625)"/>
       </defs>
       <use xlink:href="#DejaVuSans-32"/>
       <use xlink:href="#DejaVuSans-35" x="63.623047"/>
       <use xlink:href="#DejaVuSans-30" x="127.246094"/>
      </g>
     </g>
    </g>
    <g id="xtick_3">
     <g id="line2d_3">
      <g>
       <use xlink:href="#mb79863c28a" x="158.005707" y="320.4" style="stroke: #000000; stroke-width: 0.8"/>
      </g>
     </g>
     <g id="text_3">
      <!-- 500 -->
      <g transform="translate(148.461957 334.998438) scale(0.1 -0.1)">
       <use xlink:href="#DejaVuSans-35"/>
       <use xlink:href="#DejaVuSans-30" x="63.623047"/>
       <use xlink:href="#DejaVuSans-30" x="127.246094"/>
      </g>
     </g>
    </g>
    <g id="xtick_4">
     <g id="line2d_4">
      <g>
       <use xlink:href="#mb79863c28a" x="202.39947" y="320.4" style="stroke: #000000; stroke-width: 0.8"/>
      </g>
     </g>
     <g id="text_4">
      <!-- 750 -->
      <g transform="translate(192.85572 334.998438) scale(0.1 -0.1)">
       <defs>
        <path id="DejaVuSans-37" d="M 525 4666 
L 3525 4666 
L 3525 4397 
L 1831 0 
L 1172 0 
L 2766 4134 
L 525 4134 
L 525 4666 
z
" transform="scale(0.015625)"/>
       </defs>
       <use xlink:href="#DejaVuSans-37"/>
       <use xlink:href="#DejaVuSans-35" x="63.623047"/>
       <use xlink:href="#DejaVuSans-30" x="127.246094"/>
      </g>
     </g>
    </g>
    <g id="xtick_5">
     <g id="line2d_5">
      <g>
       <use xlink:href="#mb79863c28a" x="246.793232" y="320.4" style="stroke: #000000; stroke-width: 0.8"/>
      </g>
     </g>
     <g id="text_5">
      <!-- 1000 -->
      <g transform="translate(234.068232 334.998438) scale(0.1 -0.1)">
       <defs>
        <path id="DejaVuSans-31" d="M 794 531 
L 1825 531 
L 1825 4091 
L 703 3866 
L 703 4441 
L 1819 4666 
L 2450 4666 
L 2450 531 
L 3481 531 
L 3481 0 
L 794 0 
L 794 531 
z
" transform="scale(0.015625)"/>
       </defs>
       <use xlink:href="#DejaVuSans-31"/>
       <use xlink:href="#DejaVuSans-30" x="63.623047"/>
       <use xlink:href="#DejaVuSans-30" x="127.246094"/>
       <use xlink:href="#DejaVuSans-30" x="190.869141"/>
      </g>
     </g>
    </g>
    <g id="xtick_6">
     <g id="line2d_6">
      <g>
       <use xlink:href="#mb79863c28a" x="291.186995" y="320.4" style="stroke: #000000; stroke-width: 0.8"/>
      </g>
     </g>
     <g id="text_6">
      <!-- 1250 -->
      <g transform="translate(278.461995 334.998438) scale(0.1 -0.1)">
       <use xlink:href="#DejaVuSans-31"/>
       <use xlink:href="#DejaVuSans-32" x="63.623047"/>
       <use xlink:href="#DejaVuSans-35" x="127.246094"/>
       <use xlink:href="#DejaVuSans-30" x="190.869141"/>
      </g>
     </g>
    </g>
    <g id="xtick_7">
     <g id="line2d_7">
      <g>
       <use xlink:href="#mb79863c28a" x="335.580757" y="320.4" style="stroke: #000000; stroke-width: 0.8"/>
      </g>
     </g>
     <g id="text_7">
      <!-- 1500 -->
      <g transform="translate(322.855757 334.998438) scale(0.1 -0.1)">
       <use xlink:href="#DejaVuSans-31"/>
       <use xlink:href="#DejaVuSans-35" x="63.623047"/>
       <use xlink:href="#DejaVuSans-30" x="127.246094"/>
       <use xlink:href="#DejaVuSans-30" x="190.869141"/>
      </g>
     </g>
    </g>
    <g id="xtick_8">
     <g id="line2d_8">
      <g>
       <use xlink:href="#mb79863c28a" x="379.97452" y="320.4" style="stroke: #000000; stroke-width: 0.8"/>
      </g>
     </g>
     <g id="text_8">
      <!-- 1750 -->
      <g transform="translate(367.24952 334.998438) scale(0.1 -0.1)">
       <use xlink:href="#DejaVuSans-31"/>
       <use xlink:href="#DejaVuSans-37" x="63.623047"/>
       <use xlink:href="#DejaVuSans-35" x="127.246094"/>
       <use xlink:href="#DejaVuSans-30" x="190.869141"/>
      </g>
     </g>
    </g>
    <g id="text_9">
     <!-- Iterations -->
     <g transform="translate(197.586719 348.676562) scale(0.1 -0.1)">
      <defs>
       <path id="DejaVuSans-49" d="M 628 4666 
L 1259 4666 
L 1259 0 
L 628 0 
L 628 4666 
z
" transform="scale(0.015625)"/>
       <path id="DejaVuSans-74" d="M 1172 4494 
L 1172 3500 
L 2356 3500 
L 2356 3053 
L 1172 3053 
L 1172 1153 
Q 1172 725 1289 603 
Q 1406 481 1766 481 
L 2356 481 
L 2356 0 
L 1766 0 
Q 1100 0 847 248 
Q 594 497 594 1153 
L 594 3053 
L 172 3053 
L 172 3500 
L 594 3500 
L 594 4494 
L 1172 4494 
z
" transform="scale(0.015625)"/>
       <path id="DejaVuSans-65" d="M 3597 1894 
L 3597 1613 
L 953 1613 
Q 991 1019 1311 708 
Q 1631 397 2203 397 
Q 2534 397 2845 478 
Q 3156 559 3463 722 
L 3463 178 
Q 3153 47 2828 -22 
Q 2503 -91 2169 -91 
Q 1331 -91 842 396 
Q 353 884 353 1716 
Q 353 2575 817 3079 
Q 1281 3584 2069 3584 
Q 2775 3584 3186 3129 
Q 3597 2675 3597 1894 
z
M 3022 2063 
Q 3016 2534 2758 2815 
Q 2500 3097 2075 3097 
Q 1594 3097 1305 2825 
Q 1016 2553 972 2059 
L 3022 2063 
z
" transform="scale(0.015625)"/>
       <path id="DejaVuSans-72" d="M 2631 2963 
Q 2534 3019 2420 3045 
Q 2306 3072 2169 3072 
Q 1681 3072 1420 2755 
Q 1159 2438 1159 1844 
L 1159 0 
L 581 0 
L 581 3500 
L 1159 3500 
L 1159 2956 
Q 1341 3275 1631 3429 
Q 1922 3584 2338 3584 
Q 2397 3584 2469 3576 
Q 2541 3569 2628 3553 
L 2631 2963 
z
" transform="scale(0.015625)"/>
       <path id="DejaVuSans-61" d="M 2194 1759 
Q 1497 1759 1228 1600 
Q 959 1441 959 1056 
Q 959 750 1161 570 
Q 1363 391 1709 391 
Q 2188 391 2477 730 
Q 2766 1069 2766 1631 
L 2766 1759 
L 2194 1759 
z
M 3341 1997 
L 3341 0 
L 2766 0 
L 2766 531 
Q 2569 213 2275 61 
Q 1981 -91 1556 -91 
Q 1019 -91 701 211 
Q 384 513 384 1019 
Q 384 1609 779 1909 
Q 1175 2209 1959 2209 
L 2766 2209 
L 2766 2266 
Q 2766 2663 2505 2880 
Q 2244 3097 1772 3097 
Q 1472 3097 1187 3025 
Q 903 2953 641 2809 
L 641 3341 
Q 956 3463 1253 3523 
Q 1550 3584 1831 3584 
Q 2591 3584 2966 3190 
Q 3341 2797 3341 1997 
z
" transform="scale(0.015625)"/>
       <path id="DejaVuSans-69" d="M 603 3500 
L 1178 3500 
L 1178 0 
L 603 0 
L 603 3500 
z
M 603 4863 
L 1178 4863 
L 1178 4134 
L 603 4134 
L 603 4863 
z
" transform="scale(0.015625)"/>
       <path id="DejaVuSans-6f" d="M 1959 3097 
Q 1497 3097 1228 2736 
Q 959 2375 959 1747 
Q 959 1119 1226 758 
Q 1494 397 1959 397 
Q 2419 397 2687 759 
Q 2956 1122 2956 1747 
Q 2956 2369 2687 2733 
Q 2419 3097 1959 3097 
z
M 1959 3584 
Q 2709 3584 3137 3096 
Q 3566 2609 3566 1747 
Q 3566 888 3137 398 
Q 2709 -91 1959 -91 
Q 1206 -91 779 398 
Q 353 888 353 1747 
Q 353 2609 779 3096 
Q 1206 3584 1959 3584 
z
" transform="scale(0.015625)"/>
       <path id="DejaVuSans-6e" d="M 3513 2113 
L 3513 0 
L 2938 0 
L 2938 2094 
Q 2938 2591 2744 2837 
Q 2550 3084 2163 3084 
Q 1697 3084 1428 2787 
Q 1159 2491 1159 1978 
L 1159 0 
L 581 0 
L 581 3500 
L 1159 3500 
L 1159 2956 
Q 1366 3272 1645 3428 
Q 1925 3584 2291 3584 
Q 2894 3584 3203 3211 
Q 3513 2838 3513 2113 
z
" transform="scale(0.015625)"/>
       <path id="DejaVuSans-73" d="M 2834 3397 
L 2834 2853 
Q 2591 2978 2328 3040 
Q 2066 3103 1784 3103 
Q 1356 3103 1142 2972 
Q 928 2841 928 2578 
Q 928 2378 1081 2264 
Q 1234 2150 1697 2047 
L 1894 2003 
Q 2506 1872 2764 1633 
Q 3022 1394 3022 966 
Q 3022 478 2636 193 
Q 2250 -91 1575 -91 
Q 1294 -91 989 -36 
Q 684 19 347 128 
L 347 722 
Q 666 556 975 473 
Q 1284 391 1588 391 
Q 1994 391 2212 530 
Q 2431 669 2431 922 
Q 2431 1156 2273 1281 
Q 2116 1406 1581 1522 
L 1381 1569 
Q 847 1681 609 1914 
Q 372 2147 372 2553 
Q 372 3047 722 3315 
Q 1072 3584 1716 3584 
Q 2034 3584 2315 3537 
Q 2597 3491 2834 3397 
z
" transform="scale(0.015625)"/>
      </defs>
      <use xlink:href="#DejaVuSans-49"/>
      <use xlink:href="#DejaVuSans-74" x="29.492188"/>
      <use xlink:href="#DejaVuSans-65" x="68.701172"/>
      <use xlink:href="#DejaVuSans-72" x="130.224609"/>
      <use xlink:href="#DejaVuSans-61" x="171.337891"/>
      <use xlink:href="#DejaVuSans-74" x="232.617188"/>
      <use xlink:href="#DejaVuSans-69" x="271.826172"/>
      <use xlink:href="#DejaVuSans-6f" x="299.609375"/>
      <use xlink:href="#DejaVuSans-6e" x="360.791016"/>
      <use xlink:href="#DejaVuSans-73" x="424.169922"/>
     </g>
    </g>
   </g>
   <g id="matplotlib.axis_2">
    <g id="ytick_1">
     <g id="line2d_9">
      <defs>
       <path id="m4055f507e6" d="M 0 0 
L -3.5 0 
" style="stroke: #000000; stroke-width: 0.8"/>
      </defs>
      <g>
       <use xlink:href="#m4055f507e6" x="54" y="314.359375" style="stroke: #000000; stroke-width: 0.8"/>
      </g>
     </g>
     <g id="text_10">
      <!-- 0 -->
      <g transform="translate(40.6375 318.158593) scale(0.1 -0.1)">
       <use xlink:href="#DejaVuSans-30"/>
      </g>
     </g>
    </g>
    <g id="ytick_2">
     <g id="line2d_10">
      <g>
       <use xlink:href="#m4055f507e6" x="54" y="283.26229" style="stroke: #000000; stroke-width: 0.8"/>
      </g>
     </g>
     <g id="text_11">
      <!-- 500 -->
      <g transform="translate(27.9125 287.061508) scale(0.1 -0.1)">
       <use xlink:href="#DejaVuSans-35"/>
       <use xlink:href="#DejaVuSans-30" x="63.623047"/>
       <use xlink:href="#DejaVuSans-30" x="127.246094"/>
      </g>
     </g>
    </g>
    <g id="ytick_3">
     <g id="line2d_11">
      <g>
       <use xlink:href="#m4055f507e6" x="54" y="252.165204" style="stroke: #000000; stroke-width: 0.8"/>
      </g>
     </g>
     <g id="text_12">
      <!-- 1000 -->
      <g transform="translate(21.55 255.964423) scale(0.1 -0.1)">
       <use xlink:href="#DejaVuSans-31"/>
       <use xlink:href="#DejaVuSans-30" x="63.623047"/>
       <use xlink:href="#DejaVuSans-30" x="127.246094"/>
       <use xlink:href="#DejaVuSans-30" x="190.869141"/>
      </g>
     </g>
    </g>
    <g id="ytick_4">
     <g id="line2d_12">
      <g>
       <use xlink:href="#m4055f507e6" x="54" y="221.068119" style="stroke: #000000; stroke-width: 0.8"/>
      </g>
     </g>
     <g id="text_13">
      <!-- 1500 -->
      <g transform="translate(21.55 224.867338) scale(0.1 -0.1)">
       <use xlink:href="#DejaVuSans-31"/>
       <use xlink:href="#DejaVuSans-35" x="63.623047"/>
       <use xlink:href="#DejaVuSans-30" x="127.246094"/>
       <use xlink:href="#DejaVuSans-30" x="190.869141"/>
      </g>
     </g>
    </g>
    <g id="ytick_5">
     <g id="line2d_13">
      <g>
       <use xlink:href="#m4055f507e6" x="54" y="189.971034" style="stroke: #000000; stroke-width: 0.8"/>
      </g>
     </g>
     <g id="text_14">
      <!-- 2000 -->
      <g transform="translate(21.55 193.770253) scale(0.1 -0.1)">
       <use xlink:href="#DejaVuSans-32"/>
       <use xlink:href="#DejaVuSans-30" x="63.623047"/>
       <use xlink:href="#DejaVuSans-30" x="127.246094"/>
       <use xlink:href="#DejaVuSans-30" x="190.869141"/>
      </g>
     </g>
    </g>
    <g id="ytick_6">
     <g id="line2d_14">
      <g>
       <use xlink:href="#m4055f507e6" x="54" y="158.873949" style="stroke: #000000; stroke-width: 0.8"/>
      </g>
     </g>
     <g id="text_15">
      <!-- 2500 -->
      <g transform="translate(21.55 162.673168) scale(0.1 -0.1)">
       <use xlink:href="#DejaVuSans-32"/>
       <use xlink:href="#DejaVuSans-35" x="63.623047"/>
       <use xlink:href="#DejaVuSans-30" x="127.246094"/>
       <use xlink:href="#DejaVuSans-30" x="190.869141"/>
      </g>
     </g>
    </g>
    <g id="ytick_7">
     <g id="line2d_15">
      <g>
       <use xlink:href="#m4055f507e6" x="54" y="127.776864" style="stroke: #000000; stroke-width: 0.8"/>
      </g>
     </g>
     <g id="text_16">
      <!-- 3000 -->
      <g transform="translate(21.55 131.576083) scale(0.1 -0.1)">
       <defs>
        <path id="DejaVuSans-33" d="M 2597 2516 
Q 3050 2419 3304 2112 
Q 3559 1806 3559 1356 
Q 3559 666 3084 287 
Q 2609 -91 1734 -91 
Q 1441 -91 1130 -33 
Q 819 25 488 141 
L 488 750 
Q 750 597 1062 519 
Q 1375 441 1716 441 
Q 2309 441 2620 675 
Q 2931 909 2931 1356 
Q 2931 1769 2642 2001 
Q 2353 2234 1838 2234 
L 1294 2234 
L 1294 2753 
L 1863 2753 
Q 2328 2753 2575 2939 
Q 2822 3125 2822 3475 
Q 2822 3834 2567 4026 
Q 2313 4219 1838 4219 
Q 1578 4219 1281 4162 
Q 984 4106 628 3988 
L 628 4550 
Q 988 4650 1302 4700 
Q 1616 4750 1894 4750 
Q 2613 4750 3031 4423 
Q 3450 4097 3450 3541 
Q 3450 3153 3228 2886 
Q 3006 2619 2597 2516 
z
" transform="scale(0.015625)"/>
       </defs>
       <use xlink:href="#DejaVuSans-33"/>
       <use xlink:href="#DejaVuSans-30" x="63.623047"/>
       <use xlink:href="#DejaVuSans-30" x="127.246094"/>
       <use xlink:href="#DejaVuSans-30" x="190.869141"/>
      </g>
     </g>
    </g>
    <g id="ytick_8">
     <g id="line2d_16">
      <g>
       <use xlink:href="#m4055f507e6" x="54" y="96.679779" style="stroke: #000000; stroke-width: 0.8"/>
      </g>
     </g>
     <g id="text_17">
      <!-- 3500 -->
      <g transform="translate(21.55 100.478998) scale(0.1 -0.1)">
       <use xlink:href="#DejaVuSans-33"/>
       <use xlink:href="#DejaVuSans-35" x="63.623047"/>
       <use xlink:href="#DejaVuSans-30" x="127.246094"/>
       <use xlink:href="#DejaVuSans-30" x="190.869141"/>
      </g>
     </g>
    </g>
    <g id="ytick_9">
     <g id="line2d_17">
      <g>
       <use xlink:href="#m4055f507e6" x="54" y="65.582694" style="stroke: #000000; stroke-width: 0.8"/>
      </g>
     </g>
     <g id="text_18">
      <!-- 4000 -->
      <g transform="translate(21.55 69.381912) scale(0.1 -0.1)">
       <defs>
        <path id="DejaVuSans-34" d="M 2419 4116 
L 825 1625 
L 2419 1625 
L 2419 4116 
z
M 2253 4666 
L 3047 4666 
L 3047 1625 
L 3713 1625 
L 3713 1100 
L 3047 1100 
L 3047 0 
L 2419 0 
L 2419 1100 
L 313 1100 
L 313 1709 
L 2253 4666 
z
" transform="scale(0.015625)"/>
       </defs>
       <use xlink:href="#DejaVuSans-34"/>
       <use xlink:href="#DejaVuSans-30" x="63.623047"/>
       <use xlink:href="#DejaVuSans-30" x="127.246094"/>
       <use xlink:href="#DejaVuSans-30" x="190.869141"/>
      </g>
     </g>
    </g>
    <g id="text_19">
     <!-- Loss -->
     <g transform="translate(15.470312 192.767187) rotate(-90) scale(0.1 -0.1)">
      <defs>
       <path id="DejaVuSans-4c" d="M 628 4666 
L 1259 4666 
L 1259 531 
L 3531 531 
L 3531 0 
L 628 0 
L 628 4666 
z
" transform="scale(0.015625)"/>
      </defs>
      <use xlink:href="#DejaVuSans-4c"/>
      <use xlink:href="#DejaVuSans-6f" x="53.962891"/>
      <use xlink:href="#DejaVuSans-73" x="115.144531"/>
      <use xlink:href="#DejaVuSans-73" x="167.244141"/>
     </g>
    </g>
   </g>
   <g id="line2d_18">
    <path d="M 69.218182 55.80207 
L 69.573332 65.99423 
L 70.461207 80.925277 
L 70.993932 101.081654 
L 71.881808 137.798533 
L 72.414533 152.019589 
L 72.947258 160.549581 
L 73.479983 165.563872 
L 74.012708 168.566261 
L 74.545433 170.451064 
L 75.255734 172.111525 
L 76.143609 173.585429 
L 77.209059 175.001218 
L 78.452084 176.242099 
L 79.872685 177.312452 
L 82.18116 178.57877 
L 84.312061 179.454504 
L 86.442962 180.115286 
L 89.639313 180.885383 
L 93.190814 181.481996 
L 98.162915 182.066627 
L 104.200467 182.581591 
L 110.060443 182.905193 
L 122.845847 183.333704 
L 140.070627 183.621989 
L 172.744436 183.835773 
L 172.744436 183.835773 
" clip-path="url(#pe4e9fcc336)" style="fill: none; stroke: #f77189; stroke-width: 1.5; stroke-linecap: square"/>
   </g>
   <g id="line2d_19">
    <path d="M 69.218182 55.801172 
L 69.573332 65.958858 
L 69.928482 69.579797 
L 70.283632 70.820069 
L 70.638782 73.571517 
L 70.993932 79.07469 
L 72.769683 114.157907 
L 73.302408 118.992063 
L 74.012708 123.312337 
L 75.433309 130.378397 
L 80.227835 153.148603 
L 81.47086 157.807288 
L 83.069036 162.725392 
L 83.956911 164.920312 
L 85.555086 168.230849 
L 87.330837 171.112814 
L 89.106587 173.105559 
L 90.172038 174.025054 
L 92.125363 175.361046 
L 93.901114 176.247811 
L 95.499289 176.909147 
L 97.63019 177.559838 
L 100.648966 178.295985 
L 103.845317 178.864748 
L 107.751968 179.353274 
L 112.013769 179.702865 
L 121.780397 180.153864 
L 132.79005 180.396383 
L 147.528779 180.556051 
L 167.59476 180.67833 
L 167.59476 180.67833 
" clip-path="url(#pe4e9fcc336)" style="fill: none; stroke: #f77189; stroke-width: 1.5; stroke-linecap: square"/>
   </g>
   <g id="line2d_20">
    <path d="M 69.218182 55.8 
L 69.573332 65.986496 
L 70.461207 80.285657 
L 70.993932 100.259036 
L 72.059383 143.159305 
L 72.592108 155.496397 
L 73.124833 162.695292 
L 73.657558 166.876969 
L 74.190283 169.393076 
L 74.723008 170.994191 
L 75.433309 172.480658 
L 76.498759 174.165114 
L 77.564209 175.454829 
L 78.807235 176.608496 
L 80.227835 177.56642 
L 82.18116 178.622802 
L 84.134486 179.425377 
L 86.620537 180.187698 
L 89.994463 180.972679 
L 92.480513 181.390701 
L 99.05079 182.157634 
L 107.574393 182.786722 
L 116.63072 183.162161 
L 127.817948 183.433703 
L 146.285754 183.683803 
L 168.482635 183.816408 
L 168.482635 183.816408 
" clip-path="url(#pe4e9fcc336)" style="fill: none; stroke: #f77189; stroke-width: 1.5; stroke-linecap: square"/>
   </g>
   <g id="line2d_21">
    <path d="M 69.218182 55.802728 
L 69.573332 65.984918 
L 70.461207 80.296095 
L 70.993932 100.472112 
L 72.059383 143.972673 
L 72.592108 156.412183 
L 73.124833 163.49804 
L 73.657558 167.485876 
L 74.190283 169.863453 
L 74.723008 171.381187 
L 75.610884 173.146656 
L 76.498759 174.484302 
L 77.741784 175.932204 
L 78.629659 176.68933 
L 80.227835 177.761263 
L 82.18116 178.764122 
L 84.312061 179.589011 
L 87.508412 180.488128 
L 91.237488 181.246977 
L 96.209589 181.908935 
L 101.004116 182.373955 
L 106.686517 182.75856 
L 119.649496 183.258516 
L 133.8555 183.544664 
L 157.295407 183.763842 
L 191.567392 183.901433 
L 191.567392 183.901433 
" clip-path="url(#pe4e9fcc336)" style="fill: none; stroke: #f77189; stroke-width: 1.5; stroke-linecap: square"/>
   </g>
   <g id="line2d_22">
    <path d="M 69.218182 55.800405 
L 69.573332 66.055562 
L 70.283632 79.117121 
L 70.816357 98.542088 
L 71.881808 141.679793 
L 72.414533 154.429672 
L 72.947258 161.981402 
L 73.479983 166.425583 
L 74.012708 169.085428 
L 74.545433 170.796993 
L 75.255734 172.376623 
L 76.321184 174.097954 
L 77.386634 175.398443 
L 78.629659 176.571654 
L 79.872685 177.45272 
L 81.47086 178.357153 
L 83.424186 179.234668 
L 85.377511 179.91231 
L 88.751437 180.791771 
L 91.947788 181.373331 
L 96.742315 181.978078 
L 102.602291 182.513142 
L 110.415594 182.953853 
L 122.490697 183.345053 
L 142.911828 183.663997 
L 187.838315 183.89717 
L 204.88552 183.934946 
L 204.88552 183.934946 
" clip-path="url(#pe4e9fcc336)" style="fill: none; stroke: #f77189; stroke-width: 1.5; stroke-linecap: square"/>
   </g>
   <g id="line2d_23">
    <path d="M 69.218182 55.800786 
L 69.573332 66.068154 
L 70.283632 79.430247 
L 70.816357 99.084516 
L 72.236958 159.761446 
L 72.947258 179.125798 
L 73.657558 192.572068 
L 74.190283 199.047331 
L 74.900583 204.600772 
L 75.788459 209.307498 
L 76.853909 213.567862 
L 77.919359 216.831549 
L 78.98481 219.43539 
L 80.40541 222.28826 
L 82.003585 224.922253 
L 83.779336 227.286555 
L 85.377511 229.027194 
L 87.153262 230.676013 
L 89.284163 232.45142 
L 91.237488 233.78382 
L 93.723539 235.276033 
L 96.56474 236.552117 
L 99.76109 237.660723 
L 102.602291 238.4996 
L 108.107118 239.608325 
L 116.98587 240.815263 
L 126.752498 241.601096 
L 139.005177 242.185757 
L 155.342081 242.359395 
L 155.342081 242.359395 
" clip-path="url(#pe4e9fcc336)" style="fill: none; stroke: #d58c32; stroke-width: 1.5; stroke-linecap: square"/>
   </g>
   <g id="line2d_24">
    <path d="M 69.218182 55.801713 
L 69.573332 65.973061 
L 69.928482 70.078309 
L 70.283632 73.907313 
L 70.638782 81.888485 
L 71.171507 102.651675 
L 72.414533 159.636401 
L 72.947258 174.320717 
L 73.479983 183.576836 
L 74.190283 191.53739 
L 74.900583 197.047064 
L 75.788459 202.088468 
L 76.676334 205.997167 
L 77.741784 209.745096 
L 78.807235 212.736532 
L 80.05026 215.652116 
L 81.82601 219.275982 
L 83.956911 223.04295 
L 86.442962 226.482605 
L 88.396287 228.664424 
L 90.349613 230.505802 
L 94.611414 233.598317 
L 99.228365 235.897605 
L 102.602291 237.164419 
L 108.107118 238.745805 
L 111.658619 239.502404 
L 118.939196 240.670362 
L 128.883399 241.625119 
L 136.519126 242.029381 
L 143.622128 242.170763 
L 158.893582 242.292976 
L 158.893582 242.292976 
" clip-path="url(#pe4e9fcc336)" style="fill: none; stroke: #d58c32; stroke-width: 1.5; stroke-linecap: square"/>
   </g>
   <g id="line2d_25">
    <path d="M 69.218182 55.801654 
L 69.573332 66.030813 
L 70.638782 83.81701 
L 71.171507 104.518472 
L 72.592108 166.277771 
L 73.302408 184.969277 
L 73.835133 194.179313 
L 74.367858 200.541003 
L 75.078158 206.121466 
L 75.788459 209.932333 
L 76.676334 213.515157 
L 77.741784 216.977811 
L 78.98481 220.106386 
L 80.227835 222.687319 
L 81.648435 225.101746 
L 83.069036 227.105623 
L 85.022361 229.467825 
L 86.798112 231.21655 
L 89.461738 233.356112 
L 91.770213 234.813571 
L 94.788989 236.316393 
L 98.162915 237.661798 
L 100.471391 238.354412 
L 103.845317 239.15938 
L 107.929543 239.917121 
L 115.387695 240.815919 
L 123.733722 241.487202 
L 138.650027 242.214363 
L 151.08028 242.360358 
L 151.08028 242.360358 
" clip-path="url(#pe4e9fcc336)" style="fill: none; stroke: #d58c32; stroke-width: 1.5; stroke-linecap: square"/>
   </g>
   <g id="line2d_26">
    <path d="M 69.218182 55.801917 
L 69.573332 66.061041 
L 70.283632 78.320615 
L 70.638782 89.563799 
L 71.349082 121.824192 
L 72.236958 159.932922 
L 72.947258 180.811358 
L 73.479983 191.421944 
L 74.012708 198.489649 
L 74.545433 203.18389 
L 75.255734 207.518707 
L 76.143609 211.531542 
L 77.209059 215.33257 
L 78.274509 218.28765 
L 79.69511 221.393969 
L 81.11571 223.92194 
L 82.536311 226.049163 
L 84.312061 228.199562 
L 86.265387 230.2058 
L 87.685987 231.473036 
L 89.816888 233.119958 
L 92.658088 234.900981 
L 95.676864 236.389917 
L 97.98534 237.262493 
L 102.069566 238.53198 
L 104.555617 239.100453 
L 108.639843 239.798526 
L 113.079219 240.422818 
L 122.490697 241.311936 
L 130.836724 241.872105 
L 134.92095 242.076923 
L 140.603352 242.224885 
L 148.061504 242.325025 
L 161.379633 242.384806 
L 161.379633 242.384806 
" clip-path="url(#pe4e9fcc336)" style="fill: none; stroke: #d58c32; stroke-width: 1.5; stroke-linecap: square"/>
   </g>
   <g id="line2d_27">
    <path d="M 69.218182 55.801452 
L 69.573332 66.030211 
L 70.461207 81.442331 
L 70.993932 101.365044 
L 72.059383 145.167499 
L 72.592108 158.215334 
L 73.124833 166.300216 
L 73.835133 173.4727 
L 74.723008 180.008638 
L 75.433309 183.922053 
L 76.321184 187.472521 
L 77.741784 191.90931 
L 79.517535 196.886217 
L 84.844786 210.52511 
L 86.975687 216.666701 
L 89.106587 221.843397 
L 90.704763 225.237541 
L 92.125363 227.465028 
L 93.545964 229.223563 
L 97.097465 231.955261 
L 100.471391 234.023905 
L 102.069566 234.703172 
L 104.378042 235.491557 
L 107.219243 236.239415 
L 112.013769 237.182404 
L 120.892521 238.375538 
L 134.388225 239.574451 
L 148.239079 240.121862 
L 162.089933 240.230849 
L 165.108709 240.244464 
L 165.108709 240.244464 
" clip-path="url(#pe4e9fcc336)" style="fill: none; stroke: #d58c32; stroke-width: 1.5; stroke-linecap: square"/>
   </g>
   <g id="line2d_28">
    <path d="M 69.218182 55.801793 
L 69.573332 66.043425 
L 70.283632 78.044543 
L 70.816357 96.436025 
L 71.881808 139.248381 
L 72.414533 152.45388 
L 72.947258 160.705543 
L 73.479983 166.078987 
L 75.433309 182.268322 
L 75.966034 189.943333 
L 77.564209 215.7227 
L 78.096934 220.079392 
L 78.807235 224.008411 
L 79.69511 227.708965 
L 80.582985 230.256749 
L 81.648435 232.700935 
L 82.891461 234.912784 
L 84.667211 237.717227 
L 86.620537 240.485816 
L 89.639313 244.280603 
L 92.658088 247.590923 
L 95.676864 250.28726 
L 97.98534 251.911112 
L 99.228365 252.6558 
L 100.648966 253.307387 
L 103.135016 254.230861 
L 106.864093 255.273558 
L 110.060443 256.057884 
L 111.303469 256.421004 
L 115.032545 257.327205 
L 115.56527 257.460377 
L 117.34102 257.781949 
L 125.154323 258.69461 
L 128.883399 258.942856 
L 136.696701 259.262177 
L 149.482105 259.53457 
L 163.155383 259.6642 
L 170.613536 259.708053 
L 170.613536 259.708053 
" clip-path="url(#pe4e9fcc336)" style="fill: none; stroke: #a4a031; stroke-width: 1.5; stroke-linecap: square"/>
   </g>
   <g id="line2d_29">
    <path d="M 69.218182 55.8018 
L 69.573332 66.001919 
L 70.461207 78.744909 
L 70.816357 90.208643 
L 71.349082 115.80707 
L 72.414533 170.849124 
L 72.947258 189.113998 
L 73.479983 201.141136 
L 74.012708 209.116288 
L 74.723008 216.29389 
L 75.610884 222.629555 
L 76.498759 227.43157 
L 77.564209 231.985906 
L 78.629659 235.616183 
L 79.872685 239.144497 
L 81.47086 242.984788 
L 83.069036 246.168701 
L 84.667211 248.84162 
L 86.620537 251.528377 
L 88.396287 253.61006 
L 90.349613 255.579323 
L 92.125363 257.078189 
L 94.788989 258.978372 
L 97.097465 260.377112 
L 99.76109 261.730302 
L 103.845317 263.228248 
L 108.817418 264.540303 
L 112.368919 265.225735 
L 117.518596 265.965506 
L 123.023422 266.440558 
L 130.659149 266.711374 
L 140.780927 266.832838 
L 154.454206 266.894286 
L 154.454206 266.894286 
" clip-path="url(#pe4e9fcc336)" style="fill: none; stroke: #a4a031; stroke-width: 1.5; stroke-linecap: square"/>
   </g>
   <g id="line2d_30">
    <path d="M 69.218182 55.801441 
L 69.573332 65.974087 
L 69.928482 70.008117 
L 70.283632 73.472049 
L 70.638782 80.924455 
L 70.993932 93.559289 
L 71.704233 129.987249 
L 72.592108 173.498279 
L 73.124833 190.254416 
L 73.657558 200.761901 
L 74.190283 207.315479 
L 74.900583 212.991289 
L 75.788459 218.067651 
L 76.853909 222.914096 
L 78.096934 227.555596 
L 79.872685 233.203471 
L 81.47086 237.522685 
L 83.424186 242.150019 
L 85.555086 246.754436 
L 87.330837 250.038602 
L 89.639313 253.459899 
L 91.059913 255.214632 
L 92.658088 256.892182 
L 94.433839 258.430021 
L 96.032014 259.64008 
L 97.98534 260.810697 
L 99.583515 261.564963 
L 101.536841 262.402419 
L 105.976217 263.924748 
L 108.107118 264.520133 
L 112.013769 265.41355 
L 115.92042 266.034788 
L 118.761621 266.307495 
L 123.733722 266.587404 
L 132.257325 266.778204 
L 156.407532 266.918552 
L 182.866214 266.949393 
L 182.866214 266.949393 
" clip-path="url(#pe4e9fcc336)" style="fill: none; stroke: #a4a031; stroke-width: 1.5; stroke-linecap: square"/>
   </g>
   <g id="line2d_31">
    <path d="M 69.218182 55.801232 
L 69.573332 66.035923 
L 70.461207 80.605766 
L 70.993932 99.798759 
L 72.414533 159.715285 
L 73.124833 176.790522 
L 74.545433 202.391958 
L 75.255734 211.867849 
L 75.966034 218.230471 
L 76.853909 223.967738 
L 77.741784 228.406885 
L 78.807235 232.563391 
L 79.872685 235.924673 
L 81.11571 239.189857 
L 82.358736 241.929398 
L 83.779336 244.652853 
L 86.620537 249.133296 
L 88.218712 251.188732 
L 90.172038 253.316212 
L 92.480513 255.539267 
L 94.966564 257.437223 
L 97.452615 258.99449 
L 101.181691 260.790384 
L 103.135016 261.481081 
L 107.396818 262.766198 
L 112.191344 263.88305 
L 118.761621 264.908903 
L 124.088872 265.385026 
L 131.191874 265.679031 
L 142.379103 265.830581 
L 156.940257 265.894009 
L 156.940257 265.894009 
" clip-path="url(#pe4e9fcc336)" style="fill: none; stroke: #a4a031; stroke-width: 1.5; stroke-linecap: square"/>
   </g>
   <g id="line2d_32">
    <path d="M 69.218182 55.801795 
L 69.573332 66.024564 
L 70.461207 80.388889 
L 70.993932 99.228505 
L 72.592108 169.148195 
L 73.302408 188.678732 
L 74.012708 202.299199 
L 74.723008 211.519603 
L 75.433309 218.105545 
L 76.321184 224.259193 
L 77.209059 229.034854 
L 78.274509 233.479705 
L 79.517535 237.559385 
L 80.76056 240.840456 
L 82.003585 243.641169 
L 83.601761 246.608918 
L 85.555086 249.617955 
L 87.863562 252.565423 
L 89.639313 254.468375 
L 91.947788 256.574167 
L 93.901114 258.027443 
L 97.27504 260.08617 
L 99.228365 261.043675 
L 103.667742 262.693595 
L 106.331367 263.43778 
L 110.770744 264.426927 
L 115.21012 265.218879 
L 118.939196 265.718417 
L 124.444022 266.28541 
L 129.771274 266.56117 
L 139.005177 266.767474 
L 154.276631 266.878414 
L 154.276631 266.878414 
" clip-path="url(#pe4e9fcc336)" style="fill: none; stroke: #a4a031; stroke-width: 1.5; stroke-linecap: square"/>
   </g>
   <g id="line2d_33">
    <path d="M 69.218182 55.801728 
L 69.573332 65.966921 
L 69.928482 69.701609 
L 70.283632 71.84887 
L 70.638782 77.362427 
L 70.993932 88.192755 
L 71.526657 113.329068 
L 72.769683 176.204833 
L 73.302408 192.416356 
L 73.835133 202.873011 
L 74.545433 211.946298 
L 75.433309 220.022609 
L 76.676334 229.146529 
L 77.564209 234.403681 
L 78.452084 238.503444 
L 79.69511 243.112804 
L 81.11571 247.517948 
L 82.536311 251.257787 
L 84.312061 255.269196 
L 86.798112 260.37202 
L 88.396287 263.350247 
L 89.994463 265.979551 
L 92.480513 269.560182 
L 94.611414 271.949365 
L 96.56474 273.844002 
L 99.228365 276.084235 
L 100.648966 277.049239 
L 102.424716 278.064797 
L 104.733192 279.112669 
L 108.462268 280.510645 
L 114.14467 281.817741 
L 118.228896 282.400969 
L 123.200997 282.870442 
L 129.238549 283.128966 
L 136.519126 283.305858 
L 156.407532 283.532749 
L 181.268039 283.601335 
L 181.268039 283.601335 
" clip-path="url(#pe4e9fcc336)" style="fill: none; stroke: #50b131; stroke-width: 1.5; stroke-linecap: square"/>
   </g>
   <g id="line2d_34">
    <path d="M 69.218182 55.801043 
L 69.573332 66.062046 
L 70.461207 81.743575 
L 70.993932 101.188948 
L 72.592108 172.181716 
L 73.302408 190.530189 
L 74.012708 202.243492 
L 74.723008 209.83022 
L 75.610884 216.756865 
L 77.209059 227.143534 
L 78.98481 237.381709 
L 80.40541 244.21375 
L 82.18116 251.357088 
L 83.956911 257.561708 
L 85.555086 262.256667 
L 87.330837 266.614504 
L 89.639313 271.380408 
L 91.237488 274.015168 
L 93.190814 276.717584 
L 94.611414 278.467574 
L 96.209589 280.188515 
L 98.69564 282.320991 
L 99.938666 283.189909 
L 102.247141 284.558202 
L 104.378042 285.609761 
L 108.462268 287.297922 
L 113.256794 288.734709 
L 116.097995 289.312474 
L 120.182221 289.827149 
L 123.911297 290.081694 
L 134.21065 290.414439 
L 148.949379 290.557974 
L 181.623189 290.627535 
L 181.623189 290.627535 
" clip-path="url(#pe4e9fcc336)" style="fill: none; stroke: #50b131; stroke-width: 1.5; stroke-linecap: square"/>
   </g>
   <g id="line2d_35">
    <path d="M 69.218182 55.801575 
L 69.573332 65.959154 
L 69.928482 69.787661 
L 70.283632 72.540839 
L 70.638782 79.049958 
L 70.993932 90.514119 
L 73.479983 187.764482 
L 74.190283 203.882953 
L 74.900583 214.825063 
L 75.610884 222.550779 
L 76.498759 229.807531 
L 77.386634 235.37421 
L 78.274509 239.638991 
L 79.517535 244.245034 
L 80.938135 248.53203 
L 82.713886 252.875486 
L 84.489636 256.650441 
L 86.442962 260.416182 
L 89.106587 264.832755 
L 91.947788 269.398648 
L 93.545964 271.790028 
L 96.032014 275.025385 
L 97.807765 277.004506 
L 99.228365 278.324865 
L 101.714416 280.082816 
L 103.667742 281.020432 
L 105.976217 281.899417 
L 115.742845 284.144468 
L 118.584046 284.446951 
L 123.556147 284.760908 
L 125.331898 284.859578 
L 125.331898 284.859578 
" clip-path="url(#pe4e9fcc336)" style="fill: none; stroke: #50b131; stroke-width: 1.5; stroke-linecap: square"/>
   </g>
   <g id="line2d_36">
    <path d="M 69.218182 55.801666 
L 69.573332 65.992586 
L 69.928482 70.230438 
L 70.283632 74.137826 
L 70.638782 82.024778 
L 71.171507 103.179021 
L 72.769683 181.137969 
L 73.302408 195.662828 
L 73.835133 205.006291 
L 74.545433 213.030922 
L 75.610884 221.637962 
L 77.209059 232.548696 
L 78.629659 240.804059 
L 79.872685 246.839201 
L 81.293285 252.700496 
L 82.713886 257.676839 
L 84.312061 262.550115 
L 85.910237 266.589804 
L 87.330837 269.684087 
L 88.751437 272.4428 
L 90.349613 275.127567 
L 91.947788 277.39575 
L 93.545964 279.287616 
L 95.321714 281.035868 
L 97.27504 282.641902 
L 100.648966 284.760846 
L 102.779866 285.806145 
L 106.153792 287.216207 
L 108.284693 287.947348 
L 111.125894 288.684124 
L 113.967095 289.236056 
L 116.808295 289.592645 
L 120.537371 289.901956 
L 126.042198 290.175905 
L 137.762151 290.407563 
L 165.108709 290.536718 
L 174.697762 290.550462 
L 174.697762 290.550462 
" clip-path="url(#pe4e9fcc336)" style="fill: none; stroke: #50b131; stroke-width: 1.5; stroke-linecap: square"/>
   </g>
   <g id="line2d_37">
    <path d="M 69.218182 55.80199 
L 69.573332 66.036284 
L 70.638782 83.553311 
L 71.171507 103.848455 
L 72.414533 155.853901 
L 73.302408 181.972949 
L 74.012708 197.808959 
L 74.723008 208.751297 
L 75.433309 215.813587 
L 76.321184 221.988874 
L 79.162385 239.569226 
L 80.05026 243.429272 
L 80.938135 246.362656 
L 81.82601 248.604249 
L 82.891461 250.70883 
L 84.134486 252.698329 
L 85.910237 255.082928 
L 90.172038 260.49883 
L 94.433839 266.78837 
L 96.209589 268.85694 
L 97.98534 270.574682 
L 101.004116 273.199874 
L 104.022892 275.333447 
L 108.462268 277.595784 
L 111.481044 278.596837 
L 113.789519 279.15041 
L 116.808295 279.681995 
L 121.957972 280.269822 
L 133.50035 280.777009 
L 153.743906 281.085399 
L 179.847438 281.223537 
L 179.847438 281.223537 
" clip-path="url(#pe4e9fcc336)" style="fill: none; stroke: #50b131; stroke-width: 1.5; stroke-linecap: square"/>
   </g>
   <g id="line2d_38">
    <path d="M 69.218182 55.801914 
L 69.573332 65.990457 
L 69.928482 70.21124 
L 70.283632 74.331842 
L 70.638782 82.935569 
L 71.171507 105.463682 
L 72.592108 175.434958 
L 73.302408 196.235126 
L 74.012708 209.01729 
L 74.900583 219.641049 
L 77.209059 242.477946 
L 78.096934 249.400544 
L 78.98481 254.3359 
L 80.05026 258.855361 
L 81.11571 262.454081 
L 82.358736 265.870934 
L 83.779336 269.130952 
L 85.377511 272.101519 
L 87.863562 276.13378 
L 89.639313 278.544269 
L 91.770213 281.129672 
L 93.901114 283.435844 
L 96.032014 285.509022 
L 98.873215 287.936701 
L 101.359266 289.724139 
L 104.910767 291.758862 
L 111.125894 294.512336 
L 113.967095 295.220399 
L 116.63072 295.736398 
L 120.182221 296.209306 
L 124.266447 296.609101 
L 129.238549 296.90398 
L 134.92095 297.205848 
L 136.519126 297.700265 
L 140.070627 297.909121 
L 147.351204 298.124272 
L 159.248732 298.250714 
L 186.062565 298.368635 
L 186.062565 298.368635 
" clip-path="url(#pe4e9fcc336)" style="fill: none; stroke: #34ae91; stroke-width: 1.5; stroke-linecap: square"/>
   </g>
   <g id="line2d_39">
    <path d="M 69.218182 55.801504 
L 69.573332 66.051032 
L 70.283632 78.208212 
L 70.638782 89.442704 
L 72.592108 165.518137 
L 73.479983 186.621636 
L 74.190283 199.462128 
L 75.078158 210.643396 
L 77.741784 239.329039 
L 78.452084 244.297229 
L 79.33996 248.881044 
L 80.40541 253.07112 
L 81.47086 256.470652 
L 83.069036 260.621097 
L 85.199936 265.506716 
L 86.798112 268.643235 
L 88.751437 272.038568 
L 90.882338 275.26401 
L 93.190814 278.249247 
L 94.256264 279.395175 
L 96.91989 281.850949 
L 98.34049 282.985347 
L 100.648966 284.547748 
L 102.957441 285.838477 
L 104.733192 286.637836 
L 107.751968 287.752042 
L 110.770744 288.627298 
L 114.85497 289.485558 
L 117.696171 290.068924 
L 118.761621 290.386929 
L 120.537371 290.681108 
L 124.088872 291.118431 
L 129.948849 291.608773 
L 132.967625 291.948886 
L 134.21065 292.258459 
L 136.341551 292.445402 
L 145.220303 293.019741 
L 161.379633 293.705915 
L 174.520187 293.941866 
L 192.100117 294.077003 
L 230.101177 294.192868 
L 230.101177 294.192868 
" clip-path="url(#pe4e9fcc336)" style="fill: none; stroke: #34ae91; stroke-width: 1.5; stroke-linecap: square"/>
   </g>
   <g id="line2d_40">
    <path d="M 69.218182 55.801568 
L 69.573332 66.001027 
L 70.461207 79.760448 
L 70.993932 98.873239 
L 72.059383 141.452621 
L 72.769683 160.170515 
L 74.900583 207.8905 
L 75.788459 220.966314 
L 76.853909 232.95379 
L 77.741784 240.562381 
L 78.629659 246.166434 
L 79.872685 252.392763 
L 81.293285 258.392714 
L 82.358736 262.00613 
L 83.424186 265.031321 
L 84.844786 268.313777 
L 86.265387 271.154714 
L 88.218712 274.433398 
L 90.349613 277.388894 
L 92.125363 279.399432 
L 94.256264 281.437933 
L 98.873215 284.897043 
L 101.891991 286.607139 
L 105.976217 288.39065 
L 108.817418 289.416537 
L 110.593169 289.934318 
L 115.032545 291.03576 
L 119.294346 291.71104 
L 123.378572 292.233499 
L 135.453676 293.06811 
L 144.865153 293.378779 
L 164.398409 293.643882 
L 194.231017 293.754471 
L 200.090994 293.765097 
L 200.090994 293.765097 
" clip-path="url(#pe4e9fcc336)" style="fill: none; stroke: #34ae91; stroke-width: 1.5; stroke-linecap: square"/>
   </g>
   <g id="line2d_41">
    <path d="M 69.218182 55.801509 
L 69.573332 65.989878 
L 69.928482 70.27399 
L 70.283632 74.405661 
L 70.638782 82.737008 
L 71.171507 103.648884 
L 72.592108 165.093324 
L 73.302408 185.414728 
L 74.190283 203.731857 
L 75.078158 217.241393 
L 75.966034 227.212295 
L 76.853909 234.435465 
L 78.274509 243.777267 
L 79.872685 253.05435 
L 81.11571 259.037398 
L 82.18116 263.141257 
L 83.246611 266.505409 
L 84.667211 270.107538 
L 86.265387 273.411402 
L 87.863562 276.321549 
L 89.994463 279.633156 
L 92.480513 282.832096 
L 94.788989 285.357021 
L 97.097465 287.614594 
L 98.69564 288.88097 
L 101.891991 290.996606 
L 104.378042 292.268341 
L 108.994993 294.084687 
L 111.836194 294.875364 
L 115.92042 295.610535 
L 121.247672 296.236903 
L 126.397348 296.637766 
L 138.827602 297.298146 
L 145.753029 297.450624 
L 167.59476 297.645307 
L 182.511064 297.82277 
L 187.838315 297.890453 
L 229.035727 297.994378 
L 244.129606 298.013053 
L 244.129606 298.013053 
" clip-path="url(#pe4e9fcc336)" style="fill: none; stroke: #34ae91; stroke-width: 1.5; stroke-linecap: square"/>
   </g>
   <g id="line2d_42">
    <path d="M 69.218182 55.802644 
L 69.573332 65.983802 
L 69.928482 70.174879 
L 70.283632 73.997009 
L 70.638782 81.715323 
L 71.171507 101.515451 
L 72.592108 161.696329 
L 73.302408 183.14494 
L 74.012708 198.58601 
L 74.723008 209.350265 
L 75.610884 219.300163 
L 76.498759 226.773086 
L 77.386634 232.324071 
L 78.274509 236.62255 
L 79.517535 241.447423 
L 81.82601 249.326801 
L 83.779336 255.230238 
L 85.199936 258.930874 
L 86.975687 263.086041 
L 88.573862 266.226727 
L 90.172038 268.837265 
L 92.302938 271.82229 
L 93.901114 273.702058 
L 97.452615 277.518261 
L 99.938666 279.917509 
L 102.779866 282.269314 
L 104.910767 283.844538 
L 107.041668 285.128956 
L 109.172568 286.012227 
L 110.948319 286.579888 
L 113.079219 287.087435 
L 116.097995 287.576884 
L 120.359796 288.047428 
L 124.621598 288.321504 
L 129.771274 288.514376 
L 153.211181 288.806864 
L 187.66074 288.896136 
L 191.744967 288.899981 
L 191.744967 288.899981 
" clip-path="url(#pe4e9fcc336)" style="fill: none; stroke: #34ae91; stroke-width: 1.5; stroke-linecap: square"/>
   </g>
   <g id="line2d_43">
    <path d="M 69.218182 55.801612 
L 69.573332 65.974952 
L 70.461207 79.198297 
L 70.993932 98.928388 
L 72.236958 152.62054 
L 73.124833 177.783537 
L 74.012708 196.737441 
L 74.900583 210.489465 
L 76.498759 230.859411 
L 77.386634 239.172249 
L 78.807235 249.637597 
L 80.05026 257.355167 
L 81.11571 262.800277 
L 82.18116 267.209517 
L 83.424186 271.196714 
L 84.489636 273.981329 
L 85.910237 277.069387 
L 87.153262 279.329586 
L 89.106587 282.261384 
L 90.882338 284.502424 
L 93.013239 286.826935 
L 94.966564 288.696167 
L 97.097465 290.47578 
L 99.40594 292.032469 
L 101.359266 293.097282 
L 104.022892 294.27582 
L 106.508942 295.197599 
L 111.125894 296.553873 
L 115.21012 297.352888 
L 120.004646 298.086777 
L 126.752498 298.817684 
L 133.322775 299.279535 
L 139.537902 299.590834 
L 154.454206 300.064493 
L 170.08081 300.294916 
L 191.389816 300.416682 
L 200.268569 300.44647 
L 200.268569 300.44647 
" clip-path="url(#pe4e9fcc336)" style="fill: none; stroke: #37abb5; stroke-width: 1.5; stroke-linecap: square"/>
   </g>
   <g id="line2d_44">
    <path d="M 69.218182 55.801243 
L 69.573332 66.021704 
L 70.283632 76.923984 
L 70.638782 87.576798 
L 71.526657 126.602665 
L 72.236958 152.89477 
L 73.302408 181.178579 
L 74.367858 204.842274 
L 75.078158 216.262716 
L 76.143609 229.129796 
L 77.564209 243.33724 
L 78.629659 251.572665 
L 79.69511 258.169141 
L 80.76056 263.262343 
L 81.82601 267.26404 
L 83.069036 271.140294 
L 84.312061 274.210132 
L 85.732662 277.067816 
L 86.975687 279.058319 
L 88.573862 281.322783 
L 90.704763 283.876525 
L 92.658088 285.936909 
L 95.676864 288.802397 
L 98.162915 290.812529 
L 100.293816 292.277493 
L 102.602291 293.558067 
L 104.733192 294.539972 
L 108.817418 296.059402 
L 112.724069 297.130584 
L 116.453145 297.958881 
L 120.359796 298.527832 
L 128.173099 299.349278 
L 135.808826 299.945933 
L 148.949379 300.34556 
L 170.791111 300.635119 
L 209.324897 300.741502 
L 224.596351 300.757464 
L 224.596351 300.757464 
" clip-path="url(#pe4e9fcc336)" style="fill: none; stroke: #37abb5; stroke-width: 1.5; stroke-linecap: square"/>
   </g>
   <g id="line2d_45">
    <path d="M 69.218182 55.801381 
L 69.573332 65.99501 
L 70.461207 78.926828 
L 70.816357 90.665726 
L 71.704233 132.640313 
L 72.592108 169.013229 
L 73.302408 189.936009 
L 74.012708 205.085912 
L 74.723008 215.899903 
L 75.610884 225.956312 
L 76.498759 233.267954 
L 77.741784 240.981499 
L 80.05026 253.57839 
L 81.47086 260.647112 
L 82.713886 265.572169 
L 83.779336 268.971431 
L 85.377511 273.154585 
L 87.153262 276.97299 
L 89.461738 280.84672 
L 91.059913 283.083258 
L 93.013239 285.43349 
L 96.209589 288.723075 
L 98.873215 290.948705 
L 101.536841 292.816851 
L 104.200467 294.27502 
L 105.976217 295.080189 
L 110.238018 296.504357 
L 113.967095 297.404052 
L 118.406471 298.08196 
L 129.060974 299.216118 
L 136.341551 299.575912 
L 146.640904 299.851788 
L 163.510534 300.052197 
L 176.651087 300.309333 
L 180.380163 300.391657 
L 203.642495 300.509022 
L 239.69023 300.590287 
L 239.69023 300.590287 
" clip-path="url(#pe4e9fcc336)" style="fill: none; stroke: #37abb5; stroke-width: 1.5; stroke-linecap: square"/>
   </g>
   <g id="line2d_46">
    <path d="M 69.218182 55.801513 
L 69.573332 66.02515 
L 70.461207 80.239642 
L 70.993932 99.353701 
L 72.592108 166.632188 
L 73.479983 193.070485 
L 74.190283 207.571981 
L 74.900583 216.910579 
L 78.096934 250.68561 
L 78.807235 255.638848 
L 79.69511 260.216655 
L 80.76056 264.45456 
L 81.82601 267.794874 
L 83.069036 271.01062 
L 84.667211 274.682887 
L 86.620537 278.430157 
L 89.106587 282.60382 
L 91.415063 286.016347 
L 93.190814 288.161892 
L 94.966564 289.89757 
L 97.98534 292.413082 
L 100.116241 293.847418 
L 101.714416 294.730892 
L 103.845317 295.731521 
L 107.929543 297.247568 
L 111.125894 298.093822 
L 114.14467 298.777369 
L 117.873746 299.373057 
L 123.378572 299.936295 
L 133.50035 300.641847 
L 143.799703 301.071158 
L 157.472982 301.331873 
L 180.025013 301.503171 
L 210.390347 301.668529 
L 210.390347 301.668529 
" clip-path="url(#pe4e9fcc336)" style="fill: none; stroke: #37abb5; stroke-width: 1.5; stroke-linecap: square"/>
   </g>
   <g id="line2d_47">
    <path d="M 69.218182 55.801599 
L 69.573332 66.028834 
L 70.461207 79.513679 
L 70.816357 90.824074 
L 71.526657 124.628054 
L 72.414533 167.627506 
L 73.124833 191.489333 
L 73.835133 207.263654 
L 74.545433 218.190727 
L 75.433309 228.198516 
L 76.498759 237.746267 
L 77.919359 248.548165 
L 78.98481 255.060183 
L 80.05026 259.957366 
L 81.293285 264.550797 
L 82.713886 268.860526 
L 84.134486 272.397948 
L 86.087812 276.593632 
L 87.508412 279.208843 
L 89.106587 281.824133 
L 90.704763 284.110621 
L 92.302938 286.156945 
L 94.256264 288.316874 
L 96.91989 290.890145 
L 98.69564 292.370781 
L 100.648966 293.731932 
L 102.424716 294.761511 
L 104.378042 295.682373 
L 107.396818 296.794296 
L 110.948319 297.699447 
L 114.677395 298.335721 
L 118.406471 298.762634 
L 123.733722 299.202268 
L 131.547025 299.773899 
L 141.668802 300.036795 
L 161.734783 300.260749 
L 198.492819 300.753156 
L 200.268569 300.94272 
L 210.212772 301.129963 
L 234.718129 301.586308 
L 246.793232 301.753332 
L 291.71972 302.031367 
L 322.795354 302.110055 
L 373.581818 302.150388 
L 373.581818 302.150388 
" clip-path="url(#pe4e9fcc336)" style="fill: none; stroke: #37abb5; stroke-width: 1.5; stroke-linecap: square"/>
   </g>
   <g id="line2d_48">
    <path d="M 69.218182 55.801778 
L 69.573332 66.000787 
L 70.461207 80.335966 
L 70.993932 100.542608 
L 72.236958 155.342395 
L 72.947258 176.480844 
L 73.835133 195.992447 
L 74.545433 206.783627 
L 75.433309 215.977235 
L 77.031484 231.73123 
L 78.629659 248.15754 
L 79.517535 255.04532 
L 80.582985 261.480727 
L 81.648435 266.604898 
L 82.713886 270.71948 
L 83.956911 274.539375 
L 85.199936 277.669397 
L 87.153262 281.859341 
L 88.573862 284.220971 
L 90.349613 286.725623 
L 91.592638 288.186237 
L 93.013239 289.628576 
L 95.321714 291.551182 
L 97.097465 292.795482 
L 99.05079 293.951371 
L 102.424716 295.538689 
L 104.200467 296.161326 
L 107.219243 297.07458 
L 113.967095 298.54964 
L 118.051321 299.171761 
L 123.733722 299.806509 
L 131.547025 300.315608 
L 140.070627 300.665062 
L 147.351204 300.966976 
L 157.472982 301.248095 
L 194.053442 301.777911 
L 196.361918 301.884064 
L 197.427368 302.052522 
L 203.997645 302.157199 
L 238.092055 302.435413 
L 244.484757 302.461203 
L 244.484757 302.461203 
" clip-path="url(#pe4e9fcc336)" style="fill: none; stroke: #3ba3ec; stroke-width: 1.5; stroke-linecap: square"/>
   </g>
   <g id="line2d_49">
    <path d="M 69.218182 55.801756 
L 69.573332 65.994237 
L 70.461207 78.725946 
L 70.816357 89.758898 
L 71.526657 122.908121 
L 72.414533 163.872762 
L 73.124833 186.258646 
L 73.835133 201.929643 
L 74.900583 219.559455 
L 76.143609 237.161244 
L 77.031484 246.679497 
L 77.741784 252.245926 
L 78.629659 257.445179 
L 79.69511 262.196639 
L 80.76056 265.992962 
L 81.82601 268.985274 
L 83.069036 271.90816 
L 84.489636 274.764927 
L 86.265387 277.779122 
L 88.396287 280.935567 
L 90.172038 283.189043 
L 92.480513 285.750694 
L 96.742315 289.882737 
L 99.05079 291.69087 
L 101.004116 292.98154 
L 102.957441 294.124886 
L 105.798642 295.446434 
L 107.929543 296.254965 
L 112.191344 297.494775 
L 115.21012 298.096822 
L 121.780397 299.143555 
L 126.219773 299.614022 
L 133.8555 300.137563 
L 142.379103 300.478904 
L 155.697231 300.759701 
L 178.959563 301.016979 
L 217.315774 301.122006 
L 217.315774 301.122006 
" clip-path="url(#pe4e9fcc336)" style="fill: none; stroke: #3ba3ec; stroke-width: 1.5; stroke-linecap: square"/>
   </g>
   <g id="line2d_50">
    <path d="M 69.218182 55.80213 
L 69.573332 66.006173 
L 70.461207 79.215833 
L 70.993932 97.371412 
L 72.414533 154.366081 
L 73.479983 186.211602 
L 74.190283 203.136741 
L 74.723008 212.196511 
L 75.433309 220.256611 
L 77.031484 234.13177 
L 79.162385 251.181616 
L 80.227835 257.821764 
L 81.293285 263.014375 
L 82.358736 267.100242 
L 83.601761 270.955124 
L 85.022361 274.570453 
L 86.442962 277.388001 
L 88.218712 280.548704 
L 89.816888 283.071231 
L 93.901114 288.569222 
L 96.209589 290.982486 
L 98.69564 293.073256 
L 100.648966 294.422897 
L 103.312591 295.963572 
L 105.443492 296.943938 
L 108.462268 298.068517 
L 111.481044 298.967532 
L 115.032545 299.770414 
L 120.004646 300.617717 
L 123.023422 300.959242 
L 139.360327 302.372088 
L 146.108179 302.719109 
L 156.940257 303.089596 
L 178.426838 303.427213 
L 206.661271 303.553378 
L 214.829723 303.572828 
L 214.829723 303.572828 
" clip-path="url(#pe4e9fcc336)" style="fill: none; stroke: #3ba3ec; stroke-width: 1.5; stroke-linecap: square"/>
   </g>
   <g id="line2d_51">
    <path d="M 69.218182 55.801475 
L 69.573332 66.021169 
L 70.283632 77.026064 
L 70.638782 87.986324 
L 72.592108 164.346923 
L 74.012708 198.990423 
L 74.900583 216.348613 
L 75.966034 231.606876 
L 77.031484 243.931921 
L 77.919359 251.689075 
L 78.807235 257.360657 
L 79.69511 261.624279 
L 80.76056 265.696675 
L 82.003585 269.566721 
L 83.424186 273.340582 
L 84.844786 276.451956 
L 86.442962 279.501918 
L 88.396287 282.669185 
L 90.704763 285.859494 
L 93.723539 289.233612 
L 96.209589 291.578221 
L 97.807765 292.834658 
L 100.648966 294.59953 
L 102.602291 295.620276 
L 105.265917 296.717911 
L 107.041668 297.312236 
L 110.593169 298.284373 
L 114.322245 299.043867 
L 117.873746 299.586291 
L 123.733722 300.194303 
L 130.303999 300.662736 
L 133.50035 300.892671 
L 135.453676 301.343705 
L 139.360327 301.524316 
L 153.388756 301.907117 
L 173.987462 302.18853 
L 209.324897 302.496595 
L 266.681638 302.751739 
L 345.702535 302.921136 
L 369.320017 302.938591 
L 369.320017 302.938591 
" clip-path="url(#pe4e9fcc336)" style="fill: none; stroke: #3ba3ec; stroke-width: 1.5; stroke-linecap: square"/>
   </g>
   <g id="line2d_52">
    <path d="M 69.218182 55.801516 
L 69.573332 66.014317 
L 70.461207 79.742136 
L 70.816357 91.586446 
L 71.526657 126.118719 
L 72.414533 168.1944 
L 73.124833 190.944574 
L 73.835133 205.947367 
L 74.545433 216.365541 
L 75.966034 232.596568 
L 77.386634 246.921122 
L 78.274509 253.983104 
L 79.162385 259.407213 
L 80.05026 263.581127 
L 81.11571 267.432896 
L 82.358736 271.068098 
L 83.601761 273.988037 
L 85.199936 277.218744 
L 86.620537 279.676658 
L 88.218712 282.042078 
L 90.527188 285.037457 
L 92.480513 287.142034 
L 95.321714 289.797496 
L 97.27504 291.432911 
L 100.648966 293.878898 
L 102.602291 295.032326 
L 104.555617 296.016572 
L 106.508942 296.866696 
L 109.172568 297.869757 
L 112.191344 298.780662 
L 115.387695 299.612095 
L 120.359796 300.565654 
L 125.687048 301.247012 
L 131.7246 301.762951 
L 138.472451 302.152363 
L 149.30453 302.55177 
L 167.59476 302.908586 
L 192.100117 303.139559 
L 243.419306 303.286033 
L 278.934316 303.321453 
L 278.934316 303.321453 
" clip-path="url(#pe4e9fcc336)" style="fill: none; stroke: #3ba3ec; stroke-width: 1.5; stroke-linecap: square"/>
   </g>
   <g id="line2d_53">
    <path d="M 69.218182 55.801906 
L 69.573332 66.005009 
L 70.461207 80.360393 
L 70.993932 100.347252 
L 72.236958 153.345814 
L 73.124833 180.105533 
L 74.190283 206.733403 
L 75.078158 223.023232 
L 76.143609 237.957728 
L 77.031484 247.406138 
L 77.919359 254.408325 
L 78.98481 260.960674 
L 80.05026 266.205231 
L 81.293285 271.082422 
L 82.358736 274.389676 
L 83.601761 277.554028 
L 85.199936 280.878671 
L 86.975687 283.983915 
L 88.218712 285.783558 
L 89.816888 287.848418 
L 91.415063 289.616777 
L 93.368389 291.457671 
L 96.032014 293.548641 
L 98.69564 295.317369 
L 100.826541 296.464715 
L 104.910767 298.293528 
L 107.041668 299.097657 
L 110.238018 300.108973 
L 114.49982 301.213833 
L 120.537371 302.377073 
L 127.107648 303.257911 
L 139.182752 304.349433 
L 155.342081 305.282184 
L 168.127485 305.746615 
L 186.417715 306.033392 
L 241.643556 306.402331 
L 285.682168 306.486376 
L 285.682168 306.486376 
" clip-path="url(#pe4e9fcc336)" style="fill: none; stroke: #bb83f4; stroke-width: 1.5; stroke-linecap: square"/>
   </g>
   <g id="line2d_54">
    <path d="M 69.218182 55.801793 
L 69.573332 66.003558 
L 70.461207 79.912216 
L 70.993932 99.961039 
L 72.414533 163.639503 
L 73.302408 190.624862 
L 74.012708 206.094387 
L 74.723008 217.158497 
L 76.676334 242.111183 
L 77.564209 251.083129 
L 78.629659 259.47252 
L 79.517535 264.774965 
L 80.582985 269.829296 
L 81.648435 273.831362 
L 82.713886 276.854853 
L 83.956911 279.816867 
L 85.555086 282.949609 
L 86.975687 285.24832 
L 88.573862 287.494346 
L 90.172038 289.444374 
L 92.125363 291.547438 
L 94.433839 293.667484 
L 96.387165 295.186934 
L 98.69564 296.74471 
L 101.891991 298.453329 
L 104.910767 299.785539 
L 108.284693 300.94782 
L 115.032545 302.683124 
L 123.200997 304.006184 
L 132.257325 304.978585 
L 139.893052 305.443829 
L 148.416654 305.75076 
L 165.108709 306.073118 
L 198.315243 306.295801 
L 234.540554 306.37267 
L 234.540554 306.37267 
" clip-path="url(#pe4e9fcc336)" style="fill: none; stroke: #bb83f4; stroke-width: 1.5; stroke-linecap: square"/>
   </g>
   <g id="line2d_55">
    <path d="M 69.218182 55.801288 
L 69.573332 66.00762 
L 70.638782 83.268419 
L 71.171507 104.238449 
L 72.769683 179.467084 
L 73.479983 199.373156 
L 74.190283 212.273762 
L 75.078158 223.907112 
L 76.676334 242.009306 
L 77.564209 249.801952 
L 78.452084 255.864725 
L 79.33996 260.654484 
L 80.40541 265.237528 
L 81.47086 268.838524 
L 82.713886 272.28915 
L 84.134486 275.524888 
L 86.265387 279.804721 
L 88.751437 284.146661 
L 91.059913 287.573557 
L 93.545964 290.704247 
L 96.032014 293.301002 
L 99.228365 296.042542 
L 102.424716 298.036783 
L 104.378042 298.928796 
L 106.508942 299.693725 
L 109.705293 300.601584 
L 113.967095 301.529522 
L 117.873746 302.098003 
L 121.957972 302.484734 
L 129.771274 303.002977 
L 137.229426 303.271065 
L 153.033606 303.570461 
L 174.697762 303.767188 
L 227.792702 303.932371 
L 236.493879 303.941741 
L 236.493879 303.941741 
" clip-path="url(#pe4e9fcc336)" style="fill: none; stroke: #bb83f4; stroke-width: 1.5; stroke-linecap: square"/>
   </g>
   <g id="line2d_56">
    <path d="M 69.218182 55.801878 
L 69.573332 66.001226 
L 70.461207 80.269649 
L 70.993932 99.898201 
L 72.059383 142.714782 
L 72.769683 160.954099 
L 75.966034 226.759284 
L 77.564209 247.488426 
L 78.452084 256.590744 
L 79.33996 263.3035 
L 80.227835 268.334868 
L 81.293285 273.018778 
L 82.536311 277.437105 
L 83.779336 280.922502 
L 85.022361 283.802025 
L 86.265387 286.219018 
L 87.685987 288.496498 
L 89.284163 290.580697 
L 90.882338 292.271752 
L 92.658088 293.894883 
L 94.256264 295.132963 
L 96.56474 296.665568 
L 99.40594 298.160604 
L 102.779866 299.570273 
L 104.910767 300.257981 
L 110.238018 301.737157 
L 112.724069 302.209588 
L 120.359796 303.339826 
L 125.687048 303.842166 
L 135.986401 304.510644 
L 151.257855 305.065627 
L 162.267508 305.278042 
L 189.969216 305.613574 
L 213.764273 305.779728 
L 252.298059 305.91714 
L 254.784109 305.922356 
L 254.784109 305.922356 
" clip-path="url(#pe4e9fcc336)" style="fill: none; stroke: #bb83f4; stroke-width: 1.5; stroke-linecap: square"/>
   </g>
   <g id="line2d_57">
    <path d="M 69.218182 55.802327 
L 69.573332 65.985224 
L 69.928482 70.222657 
L 70.283632 74.437273 
L 70.638782 83.136225 
L 71.171507 104.822038 
L 72.236958 152.245752 
L 73.124833 179.832603 
L 74.190283 205.531421 
L 74.900583 218.327059 
L 75.788459 230.400876 
L 76.498759 237.704417 
L 77.386634 244.457116 
L 78.629659 251.931455 
L 80.227835 260.099623 
L 81.293285 264.512707 
L 82.713886 269.209176 
L 84.134486 273.11257 
L 85.555086 276.271009 
L 87.153262 279.267216 
L 90.172038 284.155636 
L 92.658088 287.597105 
L 95.676864 291.420772 
L 97.63019 293.491358 
L 99.40594 295.021275 
L 101.004116 296.073283 
L 104.910767 298.355562 
L 107.751968 299.521289 
L 110.238018 300.353862 
L 113.256794 301.178583 
L 115.21012 301.556092 
L 119.294346 302.202192 
L 124.266447 302.782699 
L 130.659149 303.260962 
L 139.893052 303.671742 
L 156.229957 304.056118 
L 191.744967 304.421791 
L 227.259977 304.65666 
L 253.185934 304.735423 
L 253.185934 304.735423 
" clip-path="url(#pe4e9fcc336)" style="fill: none; stroke: #bb83f4; stroke-width: 1.5; stroke-linecap: square"/>
   </g>
   <g id="line2d_58">
    <path d="M 69.218182 55.801042 
L 69.573332 66.035327 
L 70.283632 77.129932 
L 70.638782 87.923604 
L 71.349082 120.472729 
L 72.236958 159.64469 
L 72.947258 182.486831 
L 73.657558 199.37109 
L 74.367858 211.360303 
L 75.610884 227.292721 
L 77.564209 250.199134 
L 78.629659 260.290909 
L 79.517535 266.885259 
L 80.227835 270.789128 
L 81.11571 274.270228 
L 82.18116 277.530406 
L 83.246611 280.111511 
L 84.489636 282.591587 
L 85.910237 285.007817 
L 87.508412 287.255909 
L 89.284163 289.285115 
L 91.592638 291.47964 
L 93.901114 293.244781 
L 96.742315 295.138869 
L 99.583515 296.738025 
L 104.378042 298.976417 
L 107.041668 299.949401 
L 112.368919 301.435094 
L 116.097995 302.257197 
L 120.714946 303.034772 
L 126.752498 303.788562 
L 133.1452 304.36654 
L 141.846377 304.887638 
L 152.14573 305.303876 
L 167.94991 305.642561 
L 196.539493 305.95963 
L 226.727252 306.115575 
L 226.727252 306.115575 
" clip-path="url(#pe4e9fcc336)" style="fill: none; stroke: #f564d4; stroke-width: 1.5; stroke-linecap: square"/>
   </g>
   <g id="line2d_59">
    <path d="M 69.218182 55.802154 
L 69.573332 65.989562 
L 69.928482 70.287857 
L 70.283632 74.61196 
L 70.638782 83.394831 
L 71.171507 105.200366 
L 72.414533 161.387872 
L 73.302408 190.027477 
L 74.012708 207.070684 
L 74.723008 218.610148 
L 76.498759 240.125132 
L 77.741784 253.543313 
L 78.629659 260.929974 
L 79.33996 265.248406 
L 80.227835 269.306067 
L 81.648435 274.552663 
L 82.891461 278.321583 
L 84.312061 281.860103 
L 85.910237 285.182193 
L 87.508412 288.038878 
L 89.461738 291.043235 
L 91.770213 293.91624 
L 93.190814 295.381192 
L 94.788989 296.791279 
L 96.742315 298.222935 
L 99.05079 299.681049 
L 101.714416 300.96997 
L 104.555617 302.079492 
L 107.574393 303.004415 
L 111.481044 303.921278 
L 115.56527 304.649255 
L 122.845847 305.542516 
L 129.416124 306.098177 
L 142.379103 306.702645 
L 152.14573 306.950333 
L 180.557738 307.406764 
L 233.475103 307.76444 
L 253.363509 307.8 
L 253.363509 307.8 
" clip-path="url(#pe4e9fcc336)" style="fill: none; stroke: #f564d4; stroke-width: 1.5; stroke-linecap: square"/>
   </g>
   <g id="line2d_60">
    <path d="M 69.218182 55.802409 
L 69.573332 65.9941 
L 70.461207 80.300675 
L 70.993932 100.529146 
L 72.236958 153.176219 
L 73.124833 178.511028 
L 74.190283 202.910673 
L 74.900583 214.59448 
L 77.031484 242.486338 
L 77.919359 251.53792 
L 78.807235 258.277637 
L 79.872685 264.695426 
L 80.938135 269.899841 
L 82.003585 274.082593 
L 83.069036 277.428236 
L 84.312061 280.635238 
L 85.732662 283.773452 
L 86.975687 286.107605 
L 88.929012 289.209447 
L 90.882338 291.886913 
L 92.480513 293.686198 
L 94.256264 295.350841 
L 95.854439 296.641885 
L 98.34049 298.284425 
L 100.471391 299.438168 
L 104.022892 300.752039 
L 108.107118 301.789672 
L 111.658619 302.433881 
L 116.453145 303.058481 
L 123.911297 303.683696 
L 134.033075 304.233596 
L 145.930604 304.673482 
L 168.66021 305.225075 
L 197.960093 305.712022 
L 219.9794 305.933941 
L 292.78517 306.163411 
L 314.626901 306.180346 
L 314.626901 306.180346 
" clip-path="url(#pe4e9fcc336)" style="fill: none; stroke: #f564d4; stroke-width: 1.5; stroke-linecap: square"/>
   </g>
   <g id="line2d_61">
    <path d="M 69.218182 55.801621 
L 69.573332 66.016881 
L 70.461207 80.138515 
L 70.816357 92.437281 
L 71.526657 127.948284 
L 72.414533 170.314744 
L 73.124833 192.559152 
L 73.835133 206.498133 
L 74.545433 215.601535 
L 76.143609 231.459637 
L 77.564209 244.066101 
L 79.33996 257.74745 
L 80.40541 264.656712 
L 81.293285 268.978097 
L 82.358736 272.9984 
L 83.424186 276.323544 
L 84.844786 279.93881 
L 86.087812 282.64021 
L 87.330837 284.871712 
L 88.929012 287.351138 
L 90.527188 289.510168 
L 91.947788 291.082172 
L 94.256264 293.249662 
L 95.854439 294.484629 
L 97.98534 295.898946 
L 100.826541 297.434051 
L 103.490167 298.581323 
L 105.976217 299.481947 
L 109.527718 300.524961 
L 112.546494 301.220559 
L 117.873746 302.103037 
L 127.107648 303.293091 
L 134.033075 303.796806 
L 139.360327 304.042909 
L 151.257855 304.389431 
L 177.006237 304.698838 
L 221.932725 304.987569 
L 221.932725 304.987569 
" clip-path="url(#pe4e9fcc336)" style="fill: none; stroke: #f564d4; stroke-width: 1.5; stroke-linecap: square"/>
   </g>
   <g id="line2d_62">
    <path d="M 69.218182 55.801636 
L 69.573332 66.00596 
L 70.461207 80.277355 
L 70.993932 100.437922 
L 72.236958 155.345985 
L 73.124833 182.049243 
L 74.012708 201.881479 
L 75.078158 219.708083 
L 76.321184 236.995025 
L 77.386634 248.53047 
L 78.452084 257.460291 
L 79.69511 265.838612 
L 80.76056 271.72568 
L 81.648435 275.49108 
L 82.713886 278.972165 
L 83.956911 282.214026 
L 85.377511 285.21292 
L 86.620537 287.373742 
L 88.573862 290.272576 
L 89.816888 291.81805 
L 91.592638 293.689608 
L 93.723539 295.571049 
L 95.321714 296.722813 
L 97.98534 298.346658 
L 99.938666 299.327352 
L 102.247141 300.325008 
L 105.265917 301.381271 
L 108.462268 302.269051 
L 112.191344 303.108684 
L 116.097995 303.757851 
L 122.135547 304.478634 
L 129.416124 305.140108 
L 137.762151 305.60041 
L 149.482105 306.015444 
L 166.174159 306.398034 
L 199.558269 306.764009 
L 248.213833 306.962963 
L 317.823252 307.100589 
L 317.823252 307.100589 
" clip-path="url(#pe4e9fcc336)" style="fill: none; stroke: #f564d4; stroke-width: 1.5; stroke-linecap: square"/>
   </g>
   <g id="patch_3">
    <path d="M 54 320.4 
L 54 43.2 
" style="fill: none; stroke: #000000; stroke-width: 0.8; stroke-linejoin: miter; stroke-linecap: square"/>
   </g>
   <g id="patch_4">
    <path d="M 388.8 320.4 
L 388.8 43.2 
" style="fill: none; stroke: #000000; stroke-width: 0.8; stroke-linejoin: miter; stroke-linecap: square"/>
   </g>
   <g id="patch_5">
    <path d="M 54 320.4 
L 388.8 320.4 
" style="fill: none; stroke: #000000; stroke-width: 0.8; stroke-linejoin: miter; stroke-linecap: square"/>
   </g>
   <g id="patch_6">
    <path d="M 54 43.2 
L 388.8 43.2 
" style="fill: none; stroke: #000000; stroke-width: 0.8; stroke-linejoin: miter; stroke-linecap: square"/>
   </g>
   <g id="text_20">
    <g id="patch_7">
     <path d="M 198.54153 189.313065 
L 227.84153 189.313065 
L 227.84153 171.63494 
L 198.54153 171.63494 
z
" style="fill: #ffffff; opacity: 0.7; stroke: #000000; stroke-linejoin: miter"/>
    </g>
    <!-- K=2 -->
    <g style="fill: #f77189" transform="translate(202.54153 183.233378) scale(0.1 -0.1)">
     <defs>
      <path id="DejaVuSans-4b" d="M 628 4666 
L 1259 4666 
L 1259 2694 
L 3353 4666 
L 4166 4666 
L 1850 2491 
L 4331 0 
L 3500 0 
L 1259 2247 
L 1259 0 
L 628 0 
L 628 4666 
z
" transform="scale(0.015625)"/>
      <path id="DejaVuSans-3d" d="M 678 2906 
L 4684 2906 
L 4684 2381 
L 678 2381 
L 678 2906 
z
M 678 1631 
L 4684 1631 
L 4684 1100 
L 678 1100 
L 678 1631 
z
" transform="scale(0.015625)"/>
     </defs>
     <use xlink:href="#DejaVuSans-4b"/>
     <use xlink:href="#DejaVuSans-3d" x="65.576172"/>
     <use xlink:href="#DejaVuSans-32" x="149.365234"/>
    </g>
   </g>
   <g id="text_21">
    <g id="patch_8">
     <path d="M 175.847438 248.008087 
L 205.147438 248.008087 
L 205.147438 230.329962 
L 175.847438 230.329962 
z
" style="fill: #ffffff; opacity: 0.7; stroke: #000000; stroke-linejoin: miter"/>
    </g>
    <!-- K=3 -->
    <g style="fill: #d58c32" transform="translate(179.847438 241.9284) scale(0.1 -0.1)">
     <use xlink:href="#DejaVuSans-4b"/>
     <use xlink:href="#DejaVuSans-3d" x="65.576172"/>
     <use xlink:href="#DejaVuSans-33" x="149.365234"/>
    </g>
   </g>
   <g id="text_22">
    <g id="patch_9">
     <path d="M 181.31675 271.344518 
L 210.61675 271.344518 
L 210.61675 253.666393 
L 181.31675 253.666393 
z
" style="fill: #ffffff; opacity: 0.7; stroke: #000000; stroke-linejoin: miter"/>
    </g>
    <!-- K=4 -->
    <g style="fill: #a4a031" transform="translate(185.31675 265.264831) scale(0.1 -0.1)">
     <use xlink:href="#DejaVuSans-4b"/>
     <use xlink:href="#DejaVuSans-3d" x="65.576172"/>
     <use xlink:href="#DejaVuSans-34" x="149.365234"/>
    </g>
   </g>
   <g id="text_23">
    <g id="patch_10">
     <path d="M 186.040246 292.252177 
L 215.340246 292.252177 
L 215.340246 274.574052 
L 186.040246 274.574052 
z
" style="fill: #ffffff; opacity: 0.7; stroke: #000000; stroke-linejoin: miter"/>
    </g>
    <!-- K=5 -->
    <g style="fill: #50b131" transform="translate(190.040246 286.172489) scale(0.1 -0.1)">
     <use xlink:href="#DejaVuSans-4b"/>
     <use xlink:href="#DejaVuSans-3d" x="65.576172"/>
     <use xlink:href="#DejaVuSans-35" x="149.365234"/>
    </g>
   </g>
   <g id="text_24">
    <g id="patch_11">
     <path d="M 227.912443 300.727614 
L 257.212443 300.727614 
L 257.212443 283.049489 
L 227.912443 283.049489 
z
" style="fill: #ffffff; opacity: 0.7; stroke: #000000; stroke-linejoin: miter"/>
    </g>
    <!-- K=6 -->
    <g style="fill: #34ae91" transform="translate(231.912443 294.647927) scale(0.1 -0.1)">
     <defs>
      <path id="DejaVuSans-36" d="M 2113 2584 
Q 1688 2584 1439 2293 
Q 1191 2003 1191 1497 
Q 1191 994 1439 701 
Q 1688 409 2113 409 
Q 2538 409 2786 701 
Q 3034 994 3034 1497 
Q 3034 2003 2786 2293 
Q 2538 2584 2113 2584 
z
M 3366 4563 
L 3366 3988 
Q 3128 4100 2886 4159 
Q 2644 4219 2406 4219 
Q 1781 4219 1451 3797 
Q 1122 3375 1075 2522 
Q 1259 2794 1537 2939 
Q 1816 3084 2150 3084 
Q 2853 3084 3261 2657 
Q 3669 2231 3669 1497 
Q 3669 778 3244 343 
Q 2819 -91 2113 -91 
Q 1303 -91 875 529 
Q 447 1150 447 2328 
Q 447 3434 972 4092 
Q 1497 4750 2381 4750 
Q 2619 4750 2861 4703 
Q 3103 4656 3366 4563 
z
" transform="scale(0.015625)"/>
     </defs>
     <use xlink:href="#DejaVuSans-4b"/>
     <use xlink:href="#DejaVuSans-3d" x="65.576172"/>
     <use xlink:href="#DejaVuSans-36" x="149.365234"/>
    </g>
   </g>
   <g id="text_25">
    <g id="patch_12">
     <path d="M 267.192044 307.202315 
L 296.492044 307.202315 
L 296.492044 289.52419 
L 267.192044 289.52419 
z
" style="fill: #ffffff; opacity: 0.7; stroke: #000000; stroke-linejoin: miter"/>
    </g>
    <!-- K=7 -->
    <g style="fill: #37abb5" transform="translate(271.192044 301.122628) scale(0.1 -0.1)">
     <use xlink:href="#DejaVuSans-4b"/>
     <use xlink:href="#DejaVuSans-3d" x="65.576172"/>
     <use xlink:href="#DejaVuSans-37" x="149.365234"/>
    </g>
   </g>
   <g id="text_26">
    <g id="patch_13">
     <path d="M 282.463498 308.762904 
L 311.763498 308.762904 
L 311.763498 291.084779 
L 282.463498 291.084779 
z
" style="fill: #ffffff; opacity: 0.7; stroke: #000000; stroke-linejoin: miter"/>
    </g>
    <!-- K=8 -->
    <g style="fill: #3ba3ec" transform="translate(286.463498 302.683216) scale(0.1 -0.1)">
     <defs>
      <path id="DejaVuSans-38" d="M 2034 2216 
Q 1584 2216 1326 1975 
Q 1069 1734 1069 1313 
Q 1069 891 1326 650 
Q 1584 409 2034 409 
Q 2484 409 2743 651 
Q 3003 894 3003 1313 
Q 3003 1734 2745 1975 
Q 2488 2216 2034 2216 
z
M 1403 2484 
Q 997 2584 770 2862 
Q 544 3141 544 3541 
Q 544 4100 942 4425 
Q 1341 4750 2034 4750 
Q 2731 4750 3128 4425 
Q 3525 4100 3525 3541 
Q 3525 3141 3298 2862 
Q 3072 2584 2669 2484 
Q 3125 2378 3379 2068 
Q 3634 1759 3634 1313 
Q 3634 634 3220 271 
Q 2806 -91 2034 -91 
Q 1263 -91 848 271 
Q 434 634 434 1313 
Q 434 1759 690 2068 
Q 947 2378 1403 2484 
z
M 1172 3481 
Q 1172 3119 1398 2916 
Q 1625 2713 2034 2713 
Q 2441 2713 2670 2916 
Q 2900 3119 2900 3481 
Q 2900 3844 2670 4047 
Q 2441 4250 2034 4250 
Q 1625 4250 1398 4047 
Q 1172 3844 1172 3481 
z
" transform="scale(0.015625)"/>
     </defs>
     <use xlink:href="#DejaVuSans-4b"/>
     <use xlink:href="#DejaVuSans-3d" x="65.576172"/>
     <use xlink:href="#DejaVuSans-38" x="149.365234"/>
    </g>
   </g>
   <g id="text_27">
    <g id="patch_14">
     <path d="M 270.42391 311.571401 
L 299.72391 311.571401 
L 299.72391 293.893276 
L 270.42391 293.893276 
z
" style="fill: #ffffff; opacity: 0.7; stroke: #000000; stroke-linejoin: miter"/>
    </g>
    <!-- K=9 -->
    <g style="fill: #bb83f4" transform="translate(274.42391 305.491713) scale(0.1 -0.1)">
     <defs>
      <path id="DejaVuSans-39" d="M 703 97 
L 703 672 
Q 941 559 1184 500 
Q 1428 441 1663 441 
Q 2288 441 2617 861 
Q 2947 1281 2994 2138 
Q 2813 1869 2534 1725 
Q 2256 1581 1919 1581 
Q 1219 1581 811 2004 
Q 403 2428 403 3163 
Q 403 3881 828 4315 
Q 1253 4750 1959 4750 
Q 2769 4750 3195 4129 
Q 3622 3509 3622 2328 
Q 3622 1225 3098 567 
Q 2575 -91 1691 -91 
Q 1453 -91 1209 -44 
Q 966 3 703 97 
z
M 1959 2075 
Q 2384 2075 2632 2365 
Q 2881 2656 2881 3163 
Q 2881 3666 2632 3958 
Q 2384 4250 1959 4250 
Q 1534 4250 1286 3958 
Q 1038 3666 1038 3163 
Q 1038 2656 1286 2365 
Q 1534 2075 1959 2075 
z
" transform="scale(0.015625)"/>
     </defs>
     <use xlink:href="#DejaVuSans-4b"/>
     <use xlink:href="#DejaVuSans-3d" x="65.576172"/>
     <use xlink:href="#DejaVuSans-39" x="149.365234"/>
    </g>
   </g>
   <g id="text_28">
    <g id="patch_15">
     <path d="M 284.381309 312.516503 
L 320.043809 312.516503 
L 320.043809 294.838378 
L 284.381309 294.838378 
z
" style="fill: #ffffff; opacity: 0.7; stroke: #000000; stroke-linejoin: miter"/>
    </g>
    <!-- K=10 -->
    <g style="fill: #f564d4" transform="translate(288.381309 306.436816) scale(0.1 -0.1)">
     <use xlink:href="#DejaVuSans-4b"/>
     <use xlink:href="#DejaVuSans-3d" x="65.576172"/>
     <use xlink:href="#DejaVuSans-31" x="149.365234"/>
     <use xlink:href="#DejaVuSans-30" x="212.988281"/>
    </g>
   </g>
   <g id="text_29">
    <!-- Loss curve over 5 runs with SSE loss for different K -->
    <g transform="translate(68.481563 37.2) scale(0.12 -0.12)">
     <defs>
      <path id="DejaVuSans-20" transform="scale(0.015625)"/>
      <path id="DejaVuSans-63" d="M 3122 3366 
L 3122 2828 
Q 2878 2963 2633 3030 
Q 2388 3097 2138 3097 
Q 1578 3097 1268 2742 
Q 959 2388 959 1747 
Q 959 1106 1268 751 
Q 1578 397 2138 397 
Q 2388 397 2633 464 
Q 2878 531 3122 666 
L 3122 134 
Q 2881 22 2623 -34 
Q 2366 -91 2075 -91 
Q 1284 -91 818 406 
Q 353 903 353 1747 
Q 353 2603 823 3093 
Q 1294 3584 2113 3584 
Q 2378 3584 2631 3529 
Q 2884 3475 3122 3366 
z
" transform="scale(0.015625)"/>
      <path id="DejaVuSans-75" d="M 544 1381 
L 544 3500 
L 1119 3500 
L 1119 1403 
Q 1119 906 1312 657 
Q 1506 409 1894 409 
Q 2359 409 2629 706 
Q 2900 1003 2900 1516 
L 2900 3500 
L 3475 3500 
L 3475 0 
L 2900 0 
L 2900 538 
Q 2691 219 2414 64 
Q 2138 -91 1772 -91 
Q 1169 -91 856 284 
Q 544 659 544 1381 
z
M 1991 3584 
L 1991 3584 
z
" transform="scale(0.015625)"/>
      <path id="DejaVuSans-76" d="M 191 3500 
L 800 3500 
L 1894 563 
L 2988 3500 
L 3597 3500 
L 2284 0 
L 1503 0 
L 191 3500 
z
" transform="scale(0.015625)"/>
      <path id="DejaVuSans-77" d="M 269 3500 
L 844 3500 
L 1563 769 
L 2278 3500 
L 2956 3500 
L 3675 769 
L 4391 3500 
L 4966 3500 
L 4050 0 
L 3372 0 
L 2619 2869 
L 1863 0 
L 1184 0 
L 269 3500 
z
" transform="scale(0.015625)"/>
      <path id="DejaVuSans-68" d="M 3513 2113 
L 3513 0 
L 2938 0 
L 2938 2094 
Q 2938 2591 2744 2837 
Q 2550 3084 2163 3084 
Q 1697 3084 1428 2787 
Q 1159 2491 1159 1978 
L 1159 0 
L 581 0 
L 581 4863 
L 1159 4863 
L 1159 2956 
Q 1366 3272 1645 3428 
Q 1925 3584 2291 3584 
Q 2894 3584 3203 3211 
Q 3513 2838 3513 2113 
z
" transform="scale(0.015625)"/>
      <path id="DejaVuSans-53" d="M 3425 4513 
L 3425 3897 
Q 3066 4069 2747 4153 
Q 2428 4238 2131 4238 
Q 1616 4238 1336 4038 
Q 1056 3838 1056 3469 
Q 1056 3159 1242 3001 
Q 1428 2844 1947 2747 
L 2328 2669 
Q 3034 2534 3370 2195 
Q 3706 1856 3706 1288 
Q 3706 609 3251 259 
Q 2797 -91 1919 -91 
Q 1588 -91 1214 -16 
Q 841 59 441 206 
L 441 856 
Q 825 641 1194 531 
Q 1563 422 1919 422 
Q 2459 422 2753 634 
Q 3047 847 3047 1241 
Q 3047 1584 2836 1778 
Q 2625 1972 2144 2069 
L 1759 2144 
Q 1053 2284 737 2584 
Q 422 2884 422 3419 
Q 422 4038 858 4394 
Q 1294 4750 2059 4750 
Q 2388 4750 2728 4690 
Q 3069 4631 3425 4513 
z
" transform="scale(0.015625)"/>
      <path id="DejaVuSans-45" d="M 628 4666 
L 3578 4666 
L 3578 4134 
L 1259 4134 
L 1259 2753 
L 3481 2753 
L 3481 2222 
L 1259 2222 
L 1259 531 
L 3634 531 
L 3634 0 
L 628 0 
L 628 4666 
z
" transform="scale(0.015625)"/>
      <path id="DejaVuSans-6c" d="M 603 4863 
L 1178 4863 
L 1178 0 
L 603 0 
L 603 4863 
z
" transform="scale(0.015625)"/>
      <path id="DejaVuSans-66" d="M 2375 4863 
L 2375 4384 
L 1825 4384 
Q 1516 4384 1395 4259 
Q 1275 4134 1275 3809 
L 1275 3500 
L 2222 3500 
L 2222 3053 
L 1275 3053 
L 1275 0 
L 697 0 
L 697 3053 
L 147 3053 
L 147 3500 
L 697 3500 
L 697 3744 
Q 697 4328 969 4595 
Q 1241 4863 1831 4863 
L 2375 4863 
z
" transform="scale(0.015625)"/>
      <path id="DejaVuSans-64" d="M 2906 2969 
L 2906 4863 
L 3481 4863 
L 3481 0 
L 2906 0 
L 2906 525 
Q 2725 213 2448 61 
Q 2172 -91 1784 -91 
Q 1150 -91 751 415 
Q 353 922 353 1747 
Q 353 2572 751 3078 
Q 1150 3584 1784 3584 
Q 2172 3584 2448 3432 
Q 2725 3281 2906 2969 
z
M 947 1747 
Q 947 1113 1208 752 
Q 1469 391 1925 391 
Q 2381 391 2643 752 
Q 2906 1113 2906 1747 
Q 2906 2381 2643 2742 
Q 2381 3103 1925 3103 
Q 1469 3103 1208 2742 
Q 947 2381 947 1747 
z
" transform="scale(0.015625)"/>
     </defs>
     <use xlink:href="#DejaVuSans-4c"/>
     <use xlink:href="#DejaVuSans-6f" x="53.962891"/>
     <use xlink:href="#DejaVuSans-73" x="115.144531"/>
     <use xlink:href="#DejaVuSans-73" x="167.244141"/>
     <use xlink:href="#DejaVuSans-20" x="219.34375"/>
     <use xlink:href="#DejaVuSans-63" x="251.130859"/>
     <use xlink:href="#DejaVuSans-75" x="306.111328"/>
     <use xlink:href="#DejaVuSans-72" x="369.490234"/>
     <use xlink:href="#DejaVuSans-76" x="410.603516"/>
     <use xlink:href="#DejaVuSans-65" x="469.783203"/>
     <use xlink:href="#DejaVuSans-20" x="531.306641"/>
     <use xlink:href="#DejaVuSans-6f" x="563.09375"/>
     <use xlink:href="#DejaVuSans-76" x="624.275391"/>
     <use xlink:href="#DejaVuSans-65" x="683.455078"/>
     <use xlink:href="#DejaVuSans-72" x="744.978516"/>
     <use xlink:href="#DejaVuSans-20" x="786.091797"/>
     <use xlink:href="#DejaVuSans-35" x="817.878906"/>
     <use xlink:href="#DejaVuSans-20" x="881.501953"/>
     <use xlink:href="#DejaVuSans-72" x="913.289062"/>
     <use xlink:href="#DejaVuSans-75" x="954.402344"/>
     <use xlink:href="#DejaVuSans-6e" x="1017.78125"/>
     <use xlink:href="#DejaVuSans-73" x="1081.160156"/>
     <use xlink:href="#DejaVuSans-20" x="1133.259766"/>
     <use xlink:href="#DejaVuSans-77" x="1165.046875"/>
     <use xlink:href="#DejaVuSans-69" x="1246.833984"/>
     <use xlink:href="#DejaVuSans-74" x="1274.617188"/>
     <use xlink:href="#DejaVuSans-68" x="1313.826172"/>
     <use xlink:href="#DejaVuSans-20" x="1377.205078"/>
     <use xlink:href="#DejaVuSans-53" x="1408.992188"/>
     <use xlink:href="#DejaVuSans-53" x="1472.46875"/>
     <use xlink:href="#DejaVuSans-45" x="1535.945312"/>
     <use xlink:href="#DejaVuSans-20" x="1599.128906"/>
     <use xlink:href="#DejaVuSans-6c" x="1630.916016"/>
     <use xlink:href="#DejaVuSans-6f" x="1658.699219"/>
     <use xlink:href="#DejaVuSans-73" x="1719.880859"/>
     <use xlink:href="#DejaVuSans-73" x="1771.980469"/>
     <use xlink:href="#DejaVuSans-20" x="1824.080078"/>
     <use xlink:href="#DejaVuSans-66" x="1855.867188"/>
     <use xlink:href="#DejaVuSans-6f" x="1891.072266"/>
     <use xlink:href="#DejaVuSans-72" x="1952.253906"/>
     <use xlink:href="#DejaVuSans-20" x="1993.367188"/>
     <use xlink:href="#DejaVuSans-64" x="2025.154297"/>
     <use xlink:href="#DejaVuSans-69" x="2088.630859"/>
     <use xlink:href="#DejaVuSans-66" x="2116.414062"/>
     <use xlink:href="#DejaVuSans-66" x="2151.619141"/>
     <use xlink:href="#DejaVuSans-65" x="2186.824219"/>
     <use xlink:href="#DejaVuSans-72" x="2248.347656"/>
     <use xlink:href="#DejaVuSans-65" x="2287.210938"/>
     <use xlink:href="#DejaVuSans-6e" x="2348.734375"/>
     <use xlink:href="#DejaVuSans-74" x="2412.113281"/>
     <use xlink:href="#DejaVuSans-20" x="2451.322266"/>
     <use xlink:href="#DejaVuSans-4b" x="2483.109375"/>
    </g>
   </g>
   <g id="legend_1">
    <g id="patch_16">
     <path d="M 322.1375 183.303125 
L 381.8 183.303125 
Q 383.8 183.303125 383.8 181.303125 
L 383.8 50.2 
Q 383.8 48.2 381.8 48.2 
L 322.1375 48.2 
Q 320.1375 48.2 320.1375 50.2 
L 320.1375 181.303125 
Q 320.1375 183.303125 322.1375 183.303125 
z
" style="fill: #ffffff; opacity: 0.8; stroke: #cccccc; stroke-linejoin: miter"/>
    </g>
    <g id="line2d_63">
     <path d="M 324.1375 56.298437 
L 334.1375 56.298437 
L 344.1375 56.298437 
" style="fill: none; stroke: #f77189; stroke-width: 1.5; stroke-linecap: square"/>
    </g>
    <g id="text_30">
     <!-- K=2 -->
     <g transform="translate(352.1375 59.798437) scale(0.1 -0.1)">
      <use xlink:href="#DejaVuSans-4b"/>
      <use xlink:href="#DejaVuSans-3d" x="65.576172"/>
      <use xlink:href="#DejaVuSans-32" x="149.365234"/>
     </g>
    </g>
    <g id="line2d_64">
     <path d="M 324.1375 70.976562 
L 334.1375 70.976562 
L 344.1375 70.976562 
" style="fill: none; stroke: #d58c32; stroke-width: 1.5; stroke-linecap: square"/>
    </g>
    <g id="text_31">
     <!-- K=3 -->
     <g transform="translate(352.1375 74.476562) scale(0.1 -0.1)">
      <use xlink:href="#DejaVuSans-4b"/>
      <use xlink:href="#DejaVuSans-3d" x="65.576172"/>
      <use xlink:href="#DejaVuSans-33" x="149.365234"/>
     </g>
    </g>
    <g id="line2d_65">
     <path d="M 324.1375 85.654687 
L 334.1375 85.654687 
L 344.1375 85.654687 
" style="fill: none; stroke: #a4a031; stroke-width: 1.5; stroke-linecap: square"/>
    </g>
    <g id="text_32">
     <!-- K=4 -->
     <g transform="translate(352.1375 89.154687) scale(0.1 -0.1)">
      <use xlink:href="#DejaVuSans-4b"/>
      <use xlink:href="#DejaVuSans-3d" x="65.576172"/>
      <use xlink:href="#DejaVuSans-34" x="149.365234"/>
     </g>
    </g>
    <g id="line2d_66">
     <path d="M 324.1375 100.332812 
L 334.1375 100.332812 
L 344.1375 100.332812 
" style="fill: none; stroke: #50b131; stroke-width: 1.5; stroke-linecap: square"/>
    </g>
    <g id="text_33">
     <!-- K=5 -->
     <g transform="translate(352.1375 103.832812) scale(0.1 -0.1)">
      <use xlink:href="#DejaVuSans-4b"/>
      <use xlink:href="#DejaVuSans-3d" x="65.576172"/>
      <use xlink:href="#DejaVuSans-35" x="149.365234"/>
     </g>
    </g>
    <g id="line2d_67">
     <path d="M 324.1375 115.010937 
L 334.1375 115.010937 
L 344.1375 115.010937 
" style="fill: none; stroke: #34ae91; stroke-width: 1.5; stroke-linecap: square"/>
    </g>
    <g id="text_34">
     <!-- K=6 -->
     <g transform="translate(352.1375 118.510937) scale(0.1 -0.1)">
      <use xlink:href="#DejaVuSans-4b"/>
      <use xlink:href="#DejaVuSans-3d" x="65.576172"/>
      <use xlink:href="#DejaVuSans-36" x="149.365234"/>
     </g>
    </g>
    <g id="line2d_68">
     <path d="M 324.1375 129.689062 
L 334.1375 129.689062 
L 344.1375 129.689062 
" style="fill: none; stroke: #37abb5; stroke-width: 1.5; stroke-linecap: square"/>
    </g>
    <g id="text_35">
     <!-- K=7 -->
     <g transform="translate(352.1375 133.189062) scale(0.1 -0.1)">
      <use xlink:href="#DejaVuSans-4b"/>
      <use xlink:href="#DejaVuSans-3d" x="65.576172"/>
      <use xlink:href="#DejaVuSans-37" x="149.365234"/>
     </g>
    </g>
    <g id="line2d_69">
     <path d="M 324.1375 144.367187 
L 334.1375 144.367187 
L 344.1375 144.367187 
" style="fill: none; stroke: #3ba3ec; stroke-width: 1.5; stroke-linecap: square"/>
    </g>
    <g id="text_36">
     <!-- K=8 -->
     <g transform="translate(352.1375 147.867187) scale(0.1 -0.1)">
      <use xlink:href="#DejaVuSans-4b"/>
      <use xlink:href="#DejaVuSans-3d" x="65.576172"/>
      <use xlink:href="#DejaVuSans-38" x="149.365234"/>
     </g>
    </g>
    <g id="line2d_70">
     <path d="M 324.1375 159.045312 
L 334.1375 159.045312 
L 344.1375 159.045312 
" style="fill: none; stroke: #bb83f4; stroke-width: 1.5; stroke-linecap: square"/>
    </g>
    <g id="text_37">
     <!-- K=9 -->
     <g transform="translate(352.1375 162.545312) scale(0.1 -0.1)">
      <use xlink:href="#DejaVuSans-4b"/>
      <use xlink:href="#DejaVuSans-3d" x="65.576172"/>
      <use xlink:href="#DejaVuSans-39" x="149.365234"/>
     </g>
    </g>
    <g id="line2d_71">
     <path d="M 324.1375 173.723437 
L 334.1375 173.723437 
L 344.1375 173.723437 
" style="fill: none; stroke: #f564d4; stroke-width: 1.5; stroke-linecap: square"/>
    </g>
    <g id="text_38">
     <!-- K=10 -->
     <g transform="translate(352.1375 177.223437) scale(0.1 -0.1)">
      <use xlink:href="#DejaVuSans-4b"/>
      <use xlink:href="#DejaVuSans-3d" x="65.576172"/>
      <use xlink:href="#DejaVuSans-31" x="149.365234"/>
      <use xlink:href="#DejaVuSans-30" x="212.988281"/>
     </g>
    </g>
   </g>
  </g>
 </g>
 <defs>
  <clipPath id="pe4e9fcc336">
   <rect x="54" y="43.2" width="334.8" height="277.2"/>
  </clipPath>
 </defs>
</svg>
