<?xml version="1.0" encoding="utf-8" standalone="no"?>
<!DOCTYPE svg PUBLIC "-//W3C//DTD SVG 1.1//EN"
  "http://www.w3.org/Graphics/SVG/1.1/DTD/svg11.dtd">
<svg xmlns:xlink="http://www.w3.org/1999/xlink" width="460.8pt" height="345.6pt" viewBox="0 0 460.8 345.6" xmlns="http://www.w3.org/2000/svg" version="1.1">
 <metadata>
  <rdf:RDF xmlns:dc="http://purl.org/dc/elements/1.1/" xmlns:cc="http://creativecommons.org/ns#" xmlns:rdf="http://www.w3.org/1999/02/22-rdf-syntax-ns#">
   <cc:Work>
    <dc:type rdf:resource="http://purl.org/dc/dcmitype/StillImage"/>
    <dc:date>2024-06-23T22:51:05.482774</dc:date>
    <dc:format>image/svg+xml</dc:format>
    <dc:creator>
     <cc:Agent>
      <dc:title>Matplotlib v3.8.2, https://matplotlib.org/</dc:title>
     </cc:Agent>
    </dc:creator>
   </cc:Work>
  </rdf:RDF>
 </metadata>
 <defs>
  <style type="text/css">*{stroke-linejoin: round; stroke-linecap: butt}</style>
 </defs>
 <g id="figure_1">
  <g id="patch_1">
   <path d="M 0 345.6 
L 460.8 345.6 
L 460.8 0 
L 0 0 
z
" style="fill: #ffffff"/>
  </g>
  <g id="axes_1">
   <g id="patch_2">
    <path d="M 57.6 307.584 
L 414.72 307.584 
L 414.72 41.472 
L 57.6 41.472 
z
" style="fill: #ffffff"/>
   </g>
   <g id="matplotlib.axis_1">
    <g id="xtick_1">
     <g id="line2d_1">
      <defs>
       <path id="m5a5ad6ce34" d="M 0 0 
L 0 3.5 
" style="stroke: #000000; stroke-width: 0.8"/>
      </defs>
      <g>
       <use xlink:href="#m5a5ad6ce34" x="73.832727" y="307.584" style="stroke: #000000; stroke-width: 0.8"/>
      </g>
     </g>
     <g id="text_1">
      <!-- 0 -->
      <g transform="translate(70.651477 322.182437) scale(0.1 -0.1)">
       <defs>
        <path id="DejaVuSans-30" d="M 2034 4250 
Q 1547 4250 1301 3770 
Q 1056 3291 1056 2328 
Q 1056 1369 1301 889 
Q 1547 409 2034 409 
Q 2525 409 2770 889 
Q 3016 1369 3016 2328 
Q 3016 3291 2770 3770 
Q 2525 4250 2034 4250 
z
M 2034 4750 
Q 2819 4750 3233 4129 
Q 3647 3509 3647 2328 
Q 3647 1150 3233 529 
Q 2819 -91 2034 -91 
Q 1250 -91 836 529 
Q 422 1150 422 2328 
Q 422 3509 836 4129 
Q 1250 4750 2034 4750 
z
" transform="scale(0.015625)"/>
       </defs>
       <use xlink:href="#DejaVuSans-30"/>
      </g>
     </g>
    </g>
    <g id="xtick_2">
     <g id="line2d_2">
      <g>
       <use xlink:href="#m5a5ad6ce34" x="121.186074" y="307.584" style="stroke: #000000; stroke-width: 0.8"/>
      </g>
     </g>
     <g id="text_2">
      <!-- 250 -->
      <g transform="translate(111.642324 322.182437) scale(0.1 -0.1)">
       <defs>
        <path id="DejaVuSans-32" d="M 1228 531 
L 3431 531 
L 3431 0 
L 469 0 
L 469 531 
Q 828 903 1448 1529 
Q 2069 2156 2228 2338 
Q 2531 2678 2651 2914 
Q 2772 3150 2772 3378 
Q 2772 3750 2511 3984 
Q 2250 4219 1831 4219 
Q 1534 4219 1204 4116 
Q 875 4013 500 3803 
L 500 4441 
Q 881 4594 1212 4672 
Q 1544 4750 1819 4750 
Q 2544 4750 2975 4387 
Q 3406 4025 3406 3419 
Q 3406 3131 3298 2873 
Q 3191 2616 2906 2266 
Q 2828 2175 2409 1742 
Q 1991 1309 1228 531 
z
" transform="scale(0.015625)"/>
        <path id="DejaVuSans-35" d="M 691 4666 
L 3169 4666 
L 3169 4134 
L 1269 4134 
L 1269 2991 
Q 1406 3038 1543 3061 
Q 1681 3084 1819 3084 
Q 2600 3084 3056 2656 
Q 3513 2228 3513 1497 
Q 3513 744 3044 326 
Q 2575 -91 1722 -91 
Q 1428 -91 1123 -41 
Q 819 9 494 109 
L 494 744 
Q 775 591 1075 516 
Q 1375 441 1709 441 
Q 2250 441 2565 725 
Q 2881 1009 2881 1497 
Q 2881 1984 2565 2268 
Q 2250 2553 1709 2553 
Q 1456 2553 1204 2497 
Q 953 2441 691 2322 
L 691 4666 
z
" transform="scale(0.015625)"/>
       </defs>
       <use xlink:href="#DejaVuSans-32"/>
       <use xlink:href="#DejaVuSans-35" x="63.623047"/>
       <use xlink:href="#DejaVuSans-30" x="127.246094"/>
      </g>
     </g>
    </g>
    <g id="xtick_3">
     <g id="line2d_3">
      <g>
       <use xlink:href="#m5a5ad6ce34" x="168.539421" y="307.584" style="stroke: #000000; stroke-width: 0.8"/>
      </g>
     </g>
     <g id="text_3">
      <!-- 500 -->
      <g transform="translate(158.995671 322.182437) scale(0.1 -0.1)">
       <use xlink:href="#DejaVuSans-35"/>
       <use xlink:href="#DejaVuSans-30" x="63.623047"/>
       <use xlink:href="#DejaVuSans-30" x="127.246094"/>
      </g>
     </g>
    </g>
    <g id="xtick_4">
     <g id="line2d_4">
      <g>
       <use xlink:href="#m5a5ad6ce34" x="215.892768" y="307.584" style="stroke: #000000; stroke-width: 0.8"/>
      </g>
     </g>
     <g id="text_4">
      <!-- 750 -->
      <g transform="translate(206.349018 322.182437) scale(0.1 -0.1)">
       <defs>
        <path id="DejaVuSans-37" d="M 525 4666 
L 3525 4666 
L 3525 4397 
L 1831 0 
L 1172 0 
L 2766 4134 
L 525 4134 
L 525 4666 
z
" transform="scale(0.015625)"/>
       </defs>
       <use xlink:href="#DejaVuSans-37"/>
       <use xlink:href="#DejaVuSans-35" x="63.623047"/>
       <use xlink:href="#DejaVuSans-30" x="127.246094"/>
      </g>
     </g>
    </g>
    <g id="xtick_5">
     <g id="line2d_5">
      <g>
       <use xlink:href="#m5a5ad6ce34" x="263.246114" y="307.584" style="stroke: #000000; stroke-width: 0.8"/>
      </g>
     </g>
     <g id="text_5">
      <!-- 1000 -->
      <g transform="translate(250.521114 322.182437) scale(0.1 -0.1)">
       <defs>
        <path id="DejaVuSans-31" d="M 794 531 
L 1825 531 
L 1825 4091 
L 703 3866 
L 703 4441 
L 1819 4666 
L 2450 4666 
L 2450 531 
L 3481 531 
L 3481 0 
L 794 0 
L 794 531 
z
" transform="scale(0.015625)"/>
       </defs>
       <use xlink:href="#DejaVuSans-31"/>
       <use xlink:href="#DejaVuSans-30" x="63.623047"/>
       <use xlink:href="#DejaVuSans-30" x="127.246094"/>
       <use xlink:href="#DejaVuSans-30" x="190.869141"/>
      </g>
     </g>
    </g>
    <g id="xtick_6">
     <g id="line2d_6">
      <g>
       <use xlink:href="#m5a5ad6ce34" x="310.599461" y="307.584" style="stroke: #000000; stroke-width: 0.8"/>
      </g>
     </g>
     <g id="text_6">
      <!-- 1250 -->
      <g transform="translate(297.874461 322.182437) scale(0.1 -0.1)">
       <use xlink:href="#DejaVuSans-31"/>
       <use xlink:href="#DejaVuSans-32" x="63.623047"/>
       <use xlink:href="#DejaVuSans-35" x="127.246094"/>
       <use xlink:href="#DejaVuSans-30" x="190.869141"/>
      </g>
     </g>
    </g>
    <g id="xtick_7">
     <g id="line2d_7">
      <g>
       <use xlink:href="#m5a5ad6ce34" x="357.952808" y="307.584" style="stroke: #000000; stroke-width: 0.8"/>
      </g>
     </g>
     <g id="text_7">
      <!-- 1500 -->
      <g transform="translate(345.227808 322.182437) scale(0.1 -0.1)">
       <use xlink:href="#DejaVuSans-31"/>
       <use xlink:href="#DejaVuSans-35" x="63.623047"/>
       <use xlink:href="#DejaVuSans-30" x="127.246094"/>
       <use xlink:href="#DejaVuSans-30" x="190.869141"/>
      </g>
     </g>
    </g>
    <g id="xtick_8">
     <g id="line2d_8">
      <g>
       <use xlink:href="#m5a5ad6ce34" x="405.306155" y="307.584" style="stroke: #000000; stroke-width: 0.8"/>
      </g>
     </g>
     <g id="text_8">
      <!-- 1750 -->
      <g transform="translate(392.581155 322.182437) scale(0.1 -0.1)">
       <use xlink:href="#DejaVuSans-31"/>
       <use xlink:href="#DejaVuSans-37" x="63.623047"/>
       <use xlink:href="#DejaVuSans-35" x="127.246094"/>
       <use xlink:href="#DejaVuSans-30" x="190.869141"/>
      </g>
     </g>
    </g>
    <g id="text_9">
     <!-- Iterations -->
     <g transform="translate(212.346719 335.860562) scale(0.1 -0.1)">
      <defs>
       <path id="DejaVuSans-49" d="M 628 4666 
L 1259 4666 
L 1259 0 
L 628 0 
L 628 4666 
z
" transform="scale(0.015625)"/>
       <path id="DejaVuSans-74" d="M 1172 4494 
L 1172 3500 
L 2356 3500 
L 2356 3053 
L 1172 3053 
L 1172 1153 
Q 1172 725 1289 603 
Q 1406 481 1766 481 
L 2356 481 
L 2356 0 
L 1766 0 
Q 1100 0 847 248 
Q 594 497 594 1153 
L 594 3053 
L 172 3053 
L 172 3500 
L 594 3500 
L 594 4494 
L 1172 4494 
z
" transform="scale(0.015625)"/>
       <path id="DejaVuSans-65" d="M 3597 1894 
L 3597 1613 
L 953 1613 
Q 991 1019 1311 708 
Q 1631 397 2203 397 
Q 2534 397 2845 478 
Q 3156 559 3463 722 
L 3463 178 
Q 3153 47 2828 -22 
Q 2503 -91 2169 -91 
Q 1331 -91 842 396 
Q 353 884 353 1716 
Q 353 2575 817 3079 
Q 1281 3584 2069 3584 
Q 2775 3584 3186 3129 
Q 3597 2675 3597 1894 
z
M 3022 2063 
Q 3016 2534 2758 2815 
Q 2500 3097 2075 3097 
Q 1594 3097 1305 2825 
Q 1016 2553 972 2059 
L 3022 2063 
z
" transform="scale(0.015625)"/>
       <path id="DejaVuSans-72" d="M 2631 2963 
Q 2534 3019 2420 3045 
Q 2306 3072 2169 3072 
Q 1681 3072 1420 2755 
Q 1159 2438 1159 1844 
L 1159 0 
L 581 0 
L 581 3500 
L 1159 3500 
L 1159 2956 
Q 1341 3275 1631 3429 
Q 1922 3584 2338 3584 
Q 2397 3584 2469 3576 
Q 2541 3569 2628 3553 
L 2631 2963 
z
" transform="scale(0.015625)"/>
       <path id="DejaVuSans-61" d="M 2194 1759 
Q 1497 1759 1228 1600 
Q 959 1441 959 1056 
Q 959 750 1161 570 
Q 1363 391 1709 391 
Q 2188 391 2477 730 
Q 2766 1069 2766 1631 
L 2766 1759 
L 2194 1759 
z
M 3341 1997 
L 3341 0 
L 2766 0 
L 2766 531 
Q 2569 213 2275 61 
Q 1981 -91 1556 -91 
Q 1019 -91 701 211 
Q 384 513 384 1019 
Q 384 1609 779 1909 
Q 1175 2209 1959 2209 
L 2766 2209 
L 2766 2266 
Q 2766 2663 2505 2880 
Q 2244 3097 1772 3097 
Q 1472 3097 1187 3025 
Q 903 2953 641 2809 
L 641 3341 
Q 956 3463 1253 3523 
Q 1550 3584 1831 3584 
Q 2591 3584 2966 3190 
Q 3341 2797 3341 1997 
z
" transform="scale(0.015625)"/>
       <path id="DejaVuSans-69" d="M 603 3500 
L 1178 3500 
L 1178 0 
L 603 0 
L 603 3500 
z
M 603 4863 
L 1178 4863 
L 1178 4134 
L 603 4134 
L 603 4863 
z
" transform="scale(0.015625)"/>
       <path id="DejaVuSans-6f" d="M 1959 3097 
Q 1497 3097 1228 2736 
Q 959 2375 959 1747 
Q 959 1119 1226 758 
Q 1494 397 1959 397 
Q 2419 397 2687 759 
Q 2956 1122 2956 1747 
Q 2956 2369 2687 2733 
Q 2419 3097 1959 3097 
z
M 1959 3584 
Q 2709 3584 3137 3096 
Q 3566 2609 3566 1747 
Q 3566 888 3137 398 
Q 2709 -91 1959 -91 
Q 1206 -91 779 398 
Q 353 888 353 1747 
Q 353 2609 779 3096 
Q 1206 3584 1959 3584 
z
" transform="scale(0.015625)"/>
       <path id="DejaVuSans-6e" d="M 3513 2113 
L 3513 0 
L 2938 0 
L 2938 2094 
Q 2938 2591 2744 2837 
Q 2550 3084 2163 3084 
Q 1697 3084 1428 2787 
Q 1159 2491 1159 1978 
L 1159 0 
L 581 0 
L 581 3500 
L 1159 3500 
L 1159 2956 
Q 1366 3272 1645 3428 
Q 1925 3584 2291 3584 
Q 2894 3584 3203 3211 
Q 3513 2838 3513 2113 
z
" transform="scale(0.015625)"/>
       <path id="DejaVuSans-73" d="M 2834 3397 
L 2834 2853 
Q 2591 2978 2328 3040 
Q 2066 3103 1784 3103 
Q 1356 3103 1142 2972 
Q 928 2841 928 2578 
Q 928 2378 1081 2264 
Q 1234 2150 1697 2047 
L 1894 2003 
Q 2506 1872 2764 1633 
Q 3022 1394 3022 966 
Q 3022 478 2636 193 
Q 2250 -91 1575 -91 
Q 1294 -91 989 -36 
Q 684 19 347 128 
L 347 722 
Q 666 556 975 473 
Q 1284 391 1588 391 
Q 1994 391 2212 530 
Q 2431 669 2431 922 
Q 2431 1156 2273 1281 
Q 2116 1406 1581 1522 
L 1381 1569 
Q 847 1681 609 1914 
Q 372 2147 372 2553 
Q 372 3047 722 3315 
Q 1072 3584 1716 3584 
Q 2034 3584 2315 3537 
Q 2597 3491 2834 3397 
z
" transform="scale(0.015625)"/>
      </defs>
      <use xlink:href="#DejaVuSans-49"/>
      <use xlink:href="#DejaVuSans-74" x="29.492188"/>
      <use xlink:href="#DejaVuSans-65" x="68.701172"/>
      <use xlink:href="#DejaVuSans-72" x="130.224609"/>
      <use xlink:href="#DejaVuSans-61" x="171.337891"/>
      <use xlink:href="#DejaVuSans-74" x="232.617188"/>
      <use xlink:href="#DejaVuSans-69" x="271.826172"/>
      <use xlink:href="#DejaVuSans-6f" x="299.609375"/>
      <use xlink:href="#DejaVuSans-6e" x="360.791016"/>
      <use xlink:href="#DejaVuSans-73" x="424.169922"/>
     </g>
    </g>
   </g>
   <g id="matplotlib.axis_2">
    <g id="ytick_1">
     <g id="line2d_9">
      <defs>
       <path id="m6aeb43cd2c" d="M 0 0 
L -3.5 0 
" style="stroke: #000000; stroke-width: 0.8"/>
      </defs>
      <g>
       <use xlink:href="#m6aeb43cd2c" x="57.6" y="298.992071" style="stroke: #000000; stroke-width: 0.8"/>
      </g>
     </g>
     <g id="text_10">
      <!-- $\mathdefault{10^{2}}$ -->
      <g transform="translate(33 302.79129) scale(0.1 -0.1)">
       <use xlink:href="#DejaVuSans-31" transform="translate(0 0.765625)"/>
       <use xlink:href="#DejaVuSans-30" transform="translate(63.623047 0.765625)"/>
       <use xlink:href="#DejaVuSans-32" transform="translate(128.203125 39.046875) scale(0.7)"/>
      </g>
     </g>
    </g>
    <g id="ytick_2">
     <g id="line2d_10">
      <g>
       <use xlink:href="#m6aeb43cd2c" x="57.6" y="147.384422" style="stroke: #000000; stroke-width: 0.8"/>
      </g>
     </g>
     <g id="text_11">
      <!-- $\mathdefault{10^{3}}$ -->
      <g transform="translate(33 151.183641) scale(0.1 -0.1)">
       <defs>
        <path id="DejaVuSans-33" d="M 2597 2516 
Q 3050 2419 3304 2112 
Q 3559 1806 3559 1356 
Q 3559 666 3084 287 
Q 2609 -91 1734 -91 
Q 1441 -91 1130 -33 
Q 819 25 488 141 
L 488 750 
Q 750 597 1062 519 
Q 1375 441 1716 441 
Q 2309 441 2620 675 
Q 2931 909 2931 1356 
Q 2931 1769 2642 2001 
Q 2353 2234 1838 2234 
L 1294 2234 
L 1294 2753 
L 1863 2753 
Q 2328 2753 2575 2939 
Q 2822 3125 2822 3475 
Q 2822 3834 2567 4026 
Q 2313 4219 1838 4219 
Q 1578 4219 1281 4162 
Q 984 4106 628 3988 
L 628 4550 
Q 988 4650 1302 4700 
Q 1616 4750 1894 4750 
Q 2613 4750 3031 4423 
Q 3450 4097 3450 3541 
Q 3450 3153 3228 2886 
Q 3006 2619 2597 2516 
z
" transform="scale(0.015625)"/>
       </defs>
       <use xlink:href="#DejaVuSans-31" transform="translate(0 0.765625)"/>
       <use xlink:href="#DejaVuSans-30" transform="translate(63.623047 0.765625)"/>
       <use xlink:href="#DejaVuSans-33" transform="translate(128.203125 39.046875) scale(0.7)"/>
      </g>
     </g>
    </g>
    <g id="ytick_3">
     <g id="line2d_11">
      <defs>
       <path id="mdc8c4ef8f2" d="M 0 0 
L -2 0 
" style="stroke: #000000; stroke-width: 0.6"/>
      </defs>
      <g>
       <use xlink:href="#mdc8c4ef8f2" x="57.6" y="305.929257" style="stroke: #000000; stroke-width: 0.6"/>
      </g>
     </g>
    </g>
    <g id="ytick_4">
     <g id="line2d_12">
      <g>
       <use xlink:href="#mdc8c4ef8f2" x="57.6" y="253.353621" style="stroke: #000000; stroke-width: 0.6"/>
      </g>
     </g>
    </g>
    <g id="ytick_5">
     <g id="line2d_13">
      <g>
       <use xlink:href="#mdc8c4ef8f2" x="57.6" y="226.65684" style="stroke: #000000; stroke-width: 0.6"/>
      </g>
     </g>
    </g>
    <g id="ytick_6">
     <g id="line2d_14">
      <g>
       <use xlink:href="#mdc8c4ef8f2" x="57.6" y="207.715171" style="stroke: #000000; stroke-width: 0.6"/>
      </g>
     </g>
    </g>
    <g id="ytick_7">
     <g id="line2d_15">
      <g>
       <use xlink:href="#mdc8c4ef8f2" x="57.6" y="193.022872" style="stroke: #000000; stroke-width: 0.6"/>
      </g>
     </g>
    </g>
    <g id="ytick_8">
     <g id="line2d_16">
      <g>
       <use xlink:href="#mdc8c4ef8f2" x="57.6" y="181.01839" style="stroke: #000000; stroke-width: 0.6"/>
      </g>
     </g>
    </g>
    <g id="ytick_9">
     <g id="line2d_17">
      <g>
       <use xlink:href="#mdc8c4ef8f2" x="57.6" y="170.868744" style="stroke: #000000; stroke-width: 0.6"/>
      </g>
     </g>
    </g>
    <g id="ytick_10">
     <g id="line2d_18">
      <g>
       <use xlink:href="#mdc8c4ef8f2" x="57.6" y="162.076721" style="stroke: #000000; stroke-width: 0.6"/>
      </g>
     </g>
    </g>
    <g id="ytick_11">
     <g id="line2d_19">
      <g>
       <use xlink:href="#mdc8c4ef8f2" x="57.6" y="154.321608" style="stroke: #000000; stroke-width: 0.6"/>
      </g>
     </g>
    </g>
    <g id="ytick_12">
     <g id="line2d_20">
      <g>
       <use xlink:href="#mdc8c4ef8f2" x="57.6" y="101.745972" style="stroke: #000000; stroke-width: 0.6"/>
      </g>
     </g>
    </g>
    <g id="ytick_13">
     <g id="line2d_21">
      <g>
       <use xlink:href="#mdc8c4ef8f2" x="57.6" y="75.04919" style="stroke: #000000; stroke-width: 0.6"/>
      </g>
     </g>
    </g>
    <g id="ytick_14">
     <g id="line2d_22">
      <g>
       <use xlink:href="#mdc8c4ef8f2" x="57.6" y="56.107522" style="stroke: #000000; stroke-width: 0.6"/>
      </g>
     </g>
    </g>
    <g id="text_12">
     <!-- Loss (log scale) -->
     <g transform="translate(26.920312 213.081125) rotate(-90) scale(0.1 -0.1)">
      <defs>
       <path id="DejaVuSans-4c" d="M 628 4666 
L 1259 4666 
L 1259 531 
L 3531 531 
L 3531 0 
L 628 0 
L 628 4666 
z
" transform="scale(0.015625)"/>
       <path id="DejaVuSans-20" transform="scale(0.015625)"/>
       <path id="DejaVuSans-28" d="M 1984 4856 
Q 1566 4138 1362 3434 
Q 1159 2731 1159 2009 
Q 1159 1288 1364 580 
Q 1569 -128 1984 -844 
L 1484 -844 
Q 1016 -109 783 600 
Q 550 1309 550 2009 
Q 550 2706 781 3412 
Q 1013 4119 1484 4856 
L 1984 4856 
z
" transform="scale(0.015625)"/>
       <path id="DejaVuSans-6c" d="M 603 4863 
L 1178 4863 
L 1178 0 
L 603 0 
L 603 4863 
z
" transform="scale(0.015625)"/>
       <path id="DejaVuSans-67" d="M 2906 1791 
Q 2906 2416 2648 2759 
Q 2391 3103 1925 3103 
Q 1463 3103 1205 2759 
Q 947 2416 947 1791 
Q 947 1169 1205 825 
Q 1463 481 1925 481 
Q 2391 481 2648 825 
Q 2906 1169 2906 1791 
z
M 3481 434 
Q 3481 -459 3084 -895 
Q 2688 -1331 1869 -1331 
Q 1566 -1331 1297 -1286 
Q 1028 -1241 775 -1147 
L 775 -588 
Q 1028 -725 1275 -790 
Q 1522 -856 1778 -856 
Q 2344 -856 2625 -561 
Q 2906 -266 2906 331 
L 2906 616 
Q 2728 306 2450 153 
Q 2172 0 1784 0 
Q 1141 0 747 490 
Q 353 981 353 1791 
Q 353 2603 747 3093 
Q 1141 3584 1784 3584 
Q 2172 3584 2450 3431 
Q 2728 3278 2906 2969 
L 2906 3500 
L 3481 3500 
L 3481 434 
z
" transform="scale(0.015625)"/>
       <path id="DejaVuSans-63" d="M 3122 3366 
L 3122 2828 
Q 2878 2963 2633 3030 
Q 2388 3097 2138 3097 
Q 1578 3097 1268 2742 
Q 959 2388 959 1747 
Q 959 1106 1268 751 
Q 1578 397 2138 397 
Q 2388 397 2633 464 
Q 2878 531 3122 666 
L 3122 134 
Q 2881 22 2623 -34 
Q 2366 -91 2075 -91 
Q 1284 -91 818 406 
Q 353 903 353 1747 
Q 353 2603 823 3093 
Q 1294 3584 2113 3584 
Q 2378 3584 2631 3529 
Q 2884 3475 3122 3366 
z
" transform="scale(0.015625)"/>
       <path id="DejaVuSans-29" d="M 513 4856 
L 1013 4856 
Q 1481 4119 1714 3412 
Q 1947 2706 1947 2009 
Q 1947 1309 1714 600 
Q 1481 -109 1013 -844 
L 513 -844 
Q 928 -128 1133 580 
Q 1338 1288 1338 2009 
Q 1338 2731 1133 3434 
Q 928 4138 513 4856 
z
" transform="scale(0.015625)"/>
      </defs>
      <use xlink:href="#DejaVuSans-4c"/>
      <use xlink:href="#DejaVuSans-6f" x="53.962891"/>
      <use xlink:href="#DejaVuSans-73" x="115.144531"/>
      <use xlink:href="#DejaVuSans-73" x="167.244141"/>
      <use xlink:href="#DejaVuSans-20" x="219.34375"/>
      <use xlink:href="#DejaVuSans-28" x="251.130859"/>
      <use xlink:href="#DejaVuSans-6c" x="290.144531"/>
      <use xlink:href="#DejaVuSans-6f" x="317.927734"/>
      <use xlink:href="#DejaVuSans-67" x="379.109375"/>
      <use xlink:href="#DejaVuSans-20" x="442.585938"/>
      <use xlink:href="#DejaVuSans-73" x="474.373047"/>
      <use xlink:href="#DejaVuSans-63" x="526.472656"/>
      <use xlink:href="#DejaVuSans-61" x="581.453125"/>
      <use xlink:href="#DejaVuSans-6c" x="642.732422"/>
      <use xlink:href="#DejaVuSans-65" x="670.515625"/>
      <use xlink:href="#DejaVuSans-29" x="732.039062"/>
     </g>
    </g>
   </g>
   <g id="line2d_23">
    <path d="M 73.832727 53.568527 
L 74.211554 56.216531 
L 74.969208 59.028657 
L 75.348034 61.94933 
L 75.916275 68.736527 
L 76.863341 80.767324 
L 77.431582 85.591629 
L 77.999822 88.615311 
L 78.568062 90.470642 
L 79.136302 91.616813 
L 79.893956 92.566923 
L 80.841023 93.342174 
L 82.35633 94.263722 
L 84.06105 94.994189 
L 85.955184 95.569475 
L 88.417558 96.133102 
L 91.448172 96.626613 
L 96.37292 97.175721 
L 100.729428 97.481111 
L 109.063617 97.873835 
L 117.208393 98.104383 
L 135.960318 98.370597 
L 162.857019 98.522579 
L 184.260732 98.575951 
L 184.260732 98.575951 
" clip-path="url(#pb4128965d2)" style="fill: none; stroke: #f77189; stroke-width: 1.5; stroke-linecap: square"/>
   </g>
   <g id="line2d_24">
    <path d="M 73.832727 53.568298 
L 74.211554 56.207155 
L 74.590381 57.174004 
L 75.158621 57.792904 
L 75.537448 58.92122 
L 76.105688 61.949109 
L 77.242168 68.848883 
L 77.810408 71.028786 
L 78.378649 72.429464 
L 79.515129 74.453069 
L 82.92457 80.194349 
L 85.955184 85.256567 
L 87.470491 87.325152 
L 89.175212 89.306632 
L 91.069345 90.997696 
L 93.152893 92.451737 
L 95.615267 93.610515 
L 98.077641 94.390941 
L 102.244735 95.230067 
L 106.790657 95.785178 
L 111.525991 96.170556 
L 118.15546 96.478389 
L 128.383783 96.722185 
L 149.408669 96.908078 
L 178.767744 97.002145 
L 178.767744 97.002145 
" clip-path="url(#pb4128965d2)" style="fill: none; stroke: #f77189; stroke-width: 1.5; stroke-linecap: square"/>
   </g>
   <g id="line2d_25">
    <path d="M 73.832727 53.568 
L 74.211554 56.214481 
L 75.158621 60.118608 
L 75.537448 63.710831 
L 77.431582 85.638717 
L 77.999822 88.692088 
L 78.568062 90.532989 
L 79.136302 91.665977 
L 79.893956 92.589852 
L 81.030436 93.501657 
L 82.545743 94.389098 
L 84.250464 95.092915 
L 86.523424 95.734563 
L 89.554038 96.355362 
L 92.963479 96.829467 
L 97.509401 97.272915 
L 105.085936 97.710618 
L 115.314259 98.06218 
L 134.066184 98.354082 
L 167.781767 98.538209 
L 179.714811 98.566183 
L 179.714811 98.566183 
" clip-path="url(#pb4128965d2)" style="fill: none; stroke: #f77189; stroke-width: 1.5; stroke-linecap: square"/>
   </g>
   <g id="line2d_26">
    <path d="M 73.832727 53.568695 
L 74.211554 56.214063 
L 74.969208 58.882487 
L 75.348034 61.752177 
L 75.916275 68.586017 
L 77.052755 82.945546 
L 77.620995 87.211369 
L 78.189235 89.735504 
L 78.757475 91.220003 
L 79.325715 92.143663 
L 80.083369 92.927455 
L 81.219849 93.792344 
L 82.735156 94.616431 
L 84.06105 95.130479 
L 86.144597 95.728342 
L 88.606971 96.249582 
L 92.584653 96.82414 
L 97.698814 97.309772 
L 105.464763 97.747062 
L 115.124846 98.065392 
L 130.088503 98.315873 
L 155.65931 98.498722 
L 204.338551 98.609081 
L 204.338551 98.609081 
" clip-path="url(#pb4128965d2)" style="fill: none; stroke: #f77189; stroke-width: 1.5; stroke-linecap: square"/>
   </g>
   <g id="line2d_27">
    <path d="M 73.832727 53.568103 
L 74.211554 56.232793 
L 74.969208 59.790729 
L 75.348034 63.248219 
L 76.295101 75.614703 
L 77.052755 83.75053 
L 77.620995 87.487947 
L 78.189235 89.786576 
L 78.757475 91.188114 
L 79.325715 92.077538 
L 80.083369 92.874414 
L 81.219849 93.718856 
L 82.545743 94.451667 
L 84.250464 95.144788 
L 86.523424 95.779478 
L 89.743452 96.427172 
L 93.721133 96.956971 
L 98.645881 97.383918 
L 106.41183 97.792031 
L 115.882499 98.092834 
L 130.088503 98.3223 
L 153.95459 98.495855 
L 206.800925 98.613853 
L 218.544555 98.625998 
L 218.544555 98.625998 
" clip-path="url(#pb4128965d2)" style="fill: none; stroke: #f77189; stroke-width: 1.5; stroke-linecap: square"/>
   </g>
   <g id="line2d_28">
    <path d="M 73.832727 53.5682 
L 74.211554 56.236132 
L 74.969208 59.878429 
L 75.348034 63.366255 
L 75.916275 70.935572 
L 77.242168 89.796365 
L 78.189235 99.974146 
L 78.946889 105.677316 
L 79.704542 109.283742 
L 80.462196 111.811974 
L 81.598676 114.752543 
L 82.735156 117.089821 
L 84.06105 119.272189 
L 85.765771 121.554463 
L 87.659905 123.653718 
L 89.743452 125.544439 
L 91.826999 127.088922 
L 95.425853 129.363017 
L 98.267054 130.808869 
L 100.161188 131.638886 
L 103.381216 132.75429 
L 105.464763 133.341719 
L 111.715405 134.739543 
L 115.314259 135.275881 
L 125.353169 136.392447 
L 131.03557 136.796687 
L 145.052161 137.503071 
L 151.492216 137.640012 
L 165.12998 137.743424 
L 165.69822 137.744799 
L 165.69822 137.744799 
" clip-path="url(#pb4128965d2)" style="fill: none; stroke: #d58c32; stroke-width: 1.5; stroke-linecap: square"/>
   </g>
   <g id="line2d_29">
    <path d="M 73.832727 53.568436 
L 74.211554 56.21092 
L 74.590381 57.308234 
L 74.969208 58.34846 
L 75.348034 60.571017 
L 75.726861 64.314259 
L 76.295101 72.406629 
L 77.431582 89.833268 
L 77.999822 95.634168 
L 78.568062 99.628812 
L 79.325715 103.416237 
L 80.272782 106.848694 
L 81.409263 109.949424 
L 82.545743 112.413443 
L 83.682223 114.456071 
L 85.386944 116.972017 
L 87.659905 119.890313 
L 90.122279 122.651443 
L 92.584653 124.943949 
L 94.478786 126.417688 
L 96.562334 127.814522 
L 98.456468 128.898542 
L 101.108255 130.259636 
L 106.790657 132.382825 
L 110.578924 133.441245 
L 117.01898 134.833346 
L 126.679062 136.197435 
L 133.308531 136.808707 
L 139.748586 137.201595 
L 147.135708 137.480518 
L 161.909952 137.652565 
L 169.486488 137.684088 
L 169.486488 137.684088 
" clip-path="url(#pb4128965d2)" style="fill: none; stroke: #d58c32; stroke-width: 1.5; stroke-linecap: square"/>
   </g>
   <g id="line2d_30">
    <path d="M 73.832727 53.568421 
L 74.211554 56.22623 
L 75.158621 59.761452 
L 75.537448 62.842253 
L 76.105688 69.974419 
L 77.999822 97.198329 
L 78.757475 104.01209 
L 79.515129 108.55086 
L 80.272782 111.557086 
L 81.219849 114.244072 
L 82.545743 117.146516 
L 83.682223 119.125038 
L 85.19753 121.353355 
L 86.902251 123.391547 
L 88.606971 125.092878 
L 90.879932 127.047269 
L 92.774066 128.389947 
L 95.425853 129.987015 
L 98.267054 131.342894 
L 100.540015 132.235167 
L 104.328283 133.47355 
L 106.98007 134.141048 
L 112.283645 135.138415 
L 117.01898 135.768346 
L 124.406102 136.454078 
L 131.224984 136.90705 
L 143.34744 137.503897 
L 155.469897 137.709723 
L 161.152299 137.74568 
L 161.152299 137.74568 
" clip-path="url(#pb4128965d2)" style="fill: none; stroke: #d58c32; stroke-width: 1.5; stroke-linecap: square"/>
   </g>
   <g id="line2d_31">
    <path d="M 73.832727 53.568488 
L 74.211554 56.234246 
L 74.969208 59.568171 
L 75.348034 62.78158 
L 75.916275 70.096508 
L 77.620995 94.90474 
L 78.378649 102.518495 
L 78.946889 106.416958 
L 79.704542 109.874596 
L 80.651609 112.836029 
L 81.78809 115.578095 
L 82.92457 117.815089 
L 84.250464 119.876824 
L 85.765771 121.850272 
L 87.659905 123.950919 
L 89.932865 125.923591 
L 92.395239 127.747151 
L 94.478786 129.040236 
L 98.267054 131.008165 
L 100.729428 132.019829 
L 103.191802 132.856541 
L 105.84359 133.585294 
L 109.631857 134.476383 
L 113.230712 135.079807 
L 121.375487 136.059126 
L 134.066184 137.005554 
L 141.832133 137.410282 
L 154.901657 137.684722 
L 172.138275 137.768041 
L 172.138275 137.768041 
" clip-path="url(#pb4128965d2)" style="fill: none; stroke: #d58c32; stroke-width: 1.5; stroke-linecap: square"/>
   </g>
   <g id="line2d_32">
    <path d="M 73.832727 53.56837 
L 74.211554 56.226071 
L 74.969208 59.173458 
L 75.348034 62.075733 
L 75.916275 68.840917 
L 77.052755 83.495548 
L 77.620995 88.097461 
L 78.378649 92.035869 
L 79.325715 95.515584 
L 80.272782 98.180151 
L 81.219849 100.113314 
L 82.735156 102.493071 
L 85.008117 105.763196 
L 88.796385 110.837345 
L 90.311692 113.300888 
L 93.910546 119.50856 
L 96.183507 122.97878 
L 97.509401 124.572284 
L 98.835294 125.897636 
L 99.782361 126.710808 
L 104.707109 129.456207 
L 106.41183 130.257008 
L 109.631857 131.298667 
L 112.662472 132.047758 
L 120.049594 133.2412 
L 124.974342 133.808926 
L 135.202665 134.689656 
L 144.294507 135.305698 
L 152.060456 135.612868 
L 162.288779 135.773052 
L 176.115956 135.838604 
L 176.115956 135.838604 
" clip-path="url(#pb4128965d2)" style="fill: none; stroke: #d58c32; stroke-width: 1.5; stroke-linecap: square"/>
   </g>
   <g id="line2d_33">
    <path d="M 73.832727 53.568456 
L 74.211554 56.229574 
L 74.969208 59.491206 
L 75.348034 62.713454 
L 76.105688 72.224683 
L 76.863341 81.170094 
L 77.431582 85.698094 
L 77.999822 88.70911 
L 78.757475 91.397333 
L 79.893956 95.061117 
L 80.462196 97.789963 
L 81.030436 101.731311 
L 81.977503 110.726072 
L 82.735156 117.019116 
L 83.303397 119.993496 
L 84.250464 123.416018 
L 85.008117 125.549746 
L 85.955184 127.514742 
L 87.281078 129.739118 
L 89.175212 132.224164 
L 93.152893 136.89455 
L 95.994094 139.905433 
L 100.350601 144.052119 
L 102.812975 145.973646 
L 106.033003 148.007493 
L 108.495377 149.062419 
L 111.715405 150.134245 
L 114.367192 150.842956 
L 117.208393 151.563154 
L 118.534287 152.006954 
L 122.701381 153.089385 
L 123.269621 153.243309 
L 124.974342 153.583984 
L 130.46733 154.417735 
L 135.202665 154.835241 
L 141.263893 155.1747 
L 151.492216 155.523045 
L 169.675901 155.810488 
L 181.987771 155.897041 
L 181.987771 155.897041 
" clip-path="url(#pb4128965d2)" style="fill: none; stroke: #a4a031; stroke-width: 1.5; stroke-linecap: square"/>
   </g>
   <g id="line2d_34">
    <path d="M 73.832727 53.568458 
L 74.211554 56.21857 
L 75.158621 59.686633 
L 75.537448 62.970726 
L 76.105688 70.955177 
L 78.189235 105.961492 
L 78.946889 112.750579 
L 79.704542 117.401508 
L 80.651609 121.798984 
L 81.78809 125.97264 
L 83.113983 129.926245 
L 84.62929 133.617817 
L 86.334011 137.207724 
L 87.849318 140.030076 
L 89.743452 143.109263 
L 91.258759 145.250582 
L 93.342306 147.870742 
L 95.80468 150.520227 
L 97.319987 151.966659 
L 99.592948 153.890936 
L 101.676495 155.432189 
L 104.707109 157.395144 
L 107.358897 158.847354 
L 110.768338 160.280823 
L 115.882499 161.940346 
L 119.670767 162.871171 
L 128.383783 164.297626 
L 131.60381 164.575757 
L 138.233279 164.890531 
L 151.302803 165.105627 
L 164.751153 165.179428 
L 164.751153 165.179428 
" clip-path="url(#pb4128965d2)" style="fill: none; stroke: #a4a031; stroke-width: 1.5; stroke-linecap: square"/>
   </g>
   <g id="line2d_35">
    <path d="M 73.832727 53.568367 
L 74.211554 56.211191 
L 74.590381 57.289317 
L 74.969208 58.22938 
L 75.348034 60.298541 
L 75.726861 63.96238 
L 76.295101 72.41022 
L 77.999822 101.896145 
L 78.568062 107.720981 
L 79.136302 111.633484 
L 79.893956 115.220622 
L 80.841023 118.603335 
L 82.166916 122.520435 
L 83.871637 126.792111 
L 86.144597 131.90007 
L 88.796385 137.187712 
L 92.395239 143.926312 
L 93.721133 146.026994 
L 96.37292 149.766354 
L 98.267054 151.998612 
L 100.161188 153.864857 
L 102.812975 156.095746 
L 104.707109 157.358714 
L 106.222416 158.173083 
L 108.11655 159.141034 
L 112.473058 160.982697 
L 117.966046 162.768627 
L 121.186074 163.546797 
L 124.406102 164.110449 
L 128.952023 164.568909 
L 133.119117 164.805439 
L 141.07448 165.018598 
L 160.773472 165.172354 
L 195.057295 165.255915 
L 195.057295 165.255915 
" clip-path="url(#pb4128965d2)" style="fill: none; stroke: #a4a031; stroke-width: 1.5; stroke-linecap: square"/>
   </g>
   <g id="line2d_36">
    <path d="M 73.832727 53.568314 
L 74.211554 56.227585 
L 75.158621 60.208713 
L 75.537448 63.617559 
L 76.105688 71.128392 
L 77.242168 87.410915 
L 77.999822 95.114586 
L 80.272782 114.494919 
L 81.030436 118.714762 
L 81.977503 122.766588 
L 83.113983 126.671222 
L 84.439877 130.323454 
L 85.955184 133.76297 
L 87.659905 137.021929 
L 89.554038 140.153096 
L 92.774066 144.738959 
L 95.23644 147.61757 
L 98.456468 150.89043 
L 101.108255 153.081508 
L 104.707109 155.512729 
L 106.601243 156.528245 
L 109.253031 157.792186 
L 111.904818 158.791018 
L 114.367192 159.627954 
L 118.7237 160.907513 
L 121.754314 161.600025 
L 125.163755 162.249009 
L 130.656743 162.973325 
L 136.717972 163.385679 
L 142.021547 163.575501 
L 154.144003 163.740782 
L 167.40294 163.806287 
L 167.40294 163.806287 
" clip-path="url(#pb4128965d2)" style="fill: none; stroke: #a4a031; stroke-width: 1.5; stroke-linecap: square"/>
   </g>
   <g id="line2d_37">
    <path d="M 73.832727 53.568457 
L 74.211554 56.224573 
L 75.158621 60.147653 
L 75.537448 63.479581 
L 76.105688 70.96327 
L 77.999822 98.86435 
L 78.946889 108.618101 
L 79.704542 114.271579 
L 80.651609 119.577873 
L 81.78809 124.494438 
L 82.92457 128.415436 
L 84.250464 132.110712 
L 85.576357 135.183931 
L 87.470491 138.927512 
L 89.364625 142.032036 
L 91.637586 145.237275 
L 93.53172 147.592315 
L 95.994094 150.249462 
L 98.077641 152.225709 
L 100.161188 153.902798 
L 104.138869 156.591776 
L 106.033003 157.613115 
L 111.336578 159.881029 
L 117.397806 161.68362 
L 121.754314 162.648155 
L 125.163755 163.280665 
L 130.46733 164.07549 
L 134.445011 164.48282 
L 139.180346 164.747711 
L 146.188641 164.970008 
L 164.56174 165.157414 
L 164.56174 165.157414 
" clip-path="url(#pb4128965d2)" style="fill: none; stroke: #a4a031; stroke-width: 1.5; stroke-linecap: square"/>
   </g>
   <g id="line2d_38">
    <path d="M 73.832727 53.56844 
L 74.211554 56.209292 
L 74.590381 57.206778 
L 74.969208 57.7872 
L 75.348034 59.301428 
L 75.726861 62.381223 
L 76.295101 70.138527 
L 78.378649 105.246065 
L 79.136302 111.980681 
L 80.083369 117.893303 
L 81.78809 126.651259 
L 82.92457 131.591553 
L 84.06105 135.551255 
L 85.765771 140.594168 
L 87.659905 145.527518 
L 90.879932 152.950049 
L 94.09996 160.034392 
L 96.37292 164.649125 
L 99.403535 170.249426 
L 101.487082 173.428558 
L 105.84359 179.348301 
L 107.169483 180.826548 
L 108.68479 182.289728 
L 110.010684 183.479376 
L 112.473058 185.34749 
L 114.935432 187.011932 
L 117.58722 188.279387 
L 123.269621 190.518319 
L 126.110822 191.223984 
L 130.277917 192.052371 
L 135.013251 192.541176 
L 145.052161 193.091351 
L 150.734562 193.240704 
L 173.653582 193.644948 
L 193.352575 193.74468 
L 193.352575 193.74468 
" clip-path="url(#pb4128965d2)" style="fill: none; stroke: #50b131; stroke-width: 1.5; stroke-linecap: square"/>
   </g>
   <g id="line2d_39">
    <path d="M 73.832727 53.568266 
L 74.211554 56.234512 
L 75.158621 60.529987 
L 75.537448 64.002102 
L 76.105688 71.768821 
L 77.810408 97.826453 
L 78.568062 105.612345 
L 79.325715 111.069219 
L 80.272782 115.990923 
L 82.735156 126.776635 
L 85.386944 137.989426 
L 87.849318 147.22288 
L 90.501105 156.603291 
L 92.205826 162.021374 
L 95.047027 170.224064 
L 96.94116 175.005412 
L 99.214121 180.047196 
L 102.055322 185.811519 
L 104.138869 189.339848 
L 106.98007 193.360902 
L 109.063617 195.825542 
L 110.957751 197.818686 
L 114.367192 201.039581 
L 116.450739 202.758467 
L 119.29194 204.838633 
L 122.890795 206.888291 
L 125.353169 207.82212 
L 127.247302 208.390823 
L 131.03557 209.168362 
L 135.770905 209.704611 
L 143.34744 210.239643 
L 152.060456 210.520978 
L 163.235846 210.679403 
L 183.313665 210.792425 
L 193.731401 210.819834 
L 193.731401 210.819834 
" clip-path="url(#pb4128965d2)" style="fill: none; stroke: #50b131; stroke-width: 1.5; stroke-linecap: square"/>
   </g>
   <g id="line2d_40">
    <path d="M 73.832727 53.568401 
L 74.211554 56.207233 
L 74.590381 57.22994 
L 74.969208 57.975341 
L 75.348034 59.771934 
L 75.726861 63.060518 
L 76.295101 70.318571 
L 78.757475 105.322921 
L 79.515129 113.23741 
L 80.462196 120.510838 
L 81.409263 126.16663 
L 82.545743 131.648177 
L 83.49281 135.302897 
L 85.008117 140.042282 
L 86.523424 144.112431 
L 88.985798 149.839994 
L 93.721133 159.789084 
L 96.183507 164.619288 
L 97.698814 167.87449 
L 99.403535 171.5689 
L 101.487082 175.697051 
L 104.138869 180.607998 
L 105.27535 182.467943 
L 106.41183 184.064951 
L 108.11655 186.230954 
L 109.821271 187.83381 
L 112.662472 189.979611 
L 114.177779 190.809566 
L 117.966046 192.532084 
L 120.617834 193.760947 
L 121.375487 194.287743 
L 124.027275 195.076314 
L 129.89909 196.02001 
L 133.687358 196.494787 
L 133.687358 196.494787 
" clip-path="url(#pb4128965d2)" style="fill: none; stroke: #50b131; stroke-width: 1.5; stroke-linecap: square"/>
   </g>
   <g id="line2d_41">
    <path d="M 73.832727 53.568424 
L 74.211554 56.216095 
L 74.590381 57.349251 
L 74.969208 58.411611 
L 75.348034 60.60963 
L 75.726861 64.392944 
L 76.295101 72.969463 
L 77.999822 102.566573 
L 78.568062 108.633546 
L 79.325715 114.140869 
L 80.462196 120.157368 
L 83.682223 135.483602 
L 85.576357 143.521674 
L 87.659905 151.481464 
L 90.501105 161.25383 
L 92.584653 167.531243 
L 95.80468 176.298246 
L 97.698814 180.801219 
L 99.403535 184.394921 
L 101.676495 188.46994 
L 103.760042 191.722247 
L 107.54831 196.49216 
L 109.253031 198.273815 
L 112.473058 201.277971 
L 115.314259 203.654461 
L 119.29194 206.054718 
L 120.807247 206.764101 
L 125.542582 208.2292 
L 128.76261 208.869873 
L 132.361464 209.382782 
L 135.960318 209.689222 
L 142.21096 210.0484 
L 152.439283 210.345125 
L 186.344279 210.606346 
L 186.344279 210.606346 
" clip-path="url(#pb4128965d2)" style="fill: none; stroke: #50b131; stroke-width: 1.5; stroke-linecap: square"/>
   </g>
   <g id="line2d_42">
    <path d="M 73.832727 53.568507 
L 74.211554 56.227681 
L 75.158621 59.707105 
L 75.537448 62.740738 
L 76.105688 69.655549 
L 77.999822 95.367731 
L 79.136302 107.857829 
L 79.893956 113.818148 
L 80.651609 118.007245 
L 84.818704 136.730147 
L 85.765771 139.917826 
L 86.712838 142.448974 
L 87.849318 144.849884 
L 89.364625 147.38739 
L 91.258759 150.060896 
L 95.425853 155.600596 
L 96.94116 158.2111 
L 100.729428 165.032668 
L 102.623562 167.959861 
L 104.517696 170.493578 
L 108.11655 174.977243 
L 111.336578 178.406199 
L 112.851885 179.868223 
L 114.935432 181.524775 
L 118.344873 183.530058 
L 120.807247 184.637844 
L 123.269621 185.496753 
L 127.436716 186.506616 
L 131.224984 187.12168 
L 135.581491 187.560403 
L 142.400373 187.96045 
L 158.879338 188.477922 
L 170.812381 188.65141 
L 191.837267 188.841795 
L 191.837267 188.841795 
" clip-path="url(#pb4128965d2)" style="fill: none; stroke: #50b131; stroke-width: 1.5; stroke-linecap: square"/>
   </g>
   <g id="line2d_43">
    <path d="M 73.832727 53.568487 
L 74.211554 56.215531 
L 74.590381 57.344073 
L 74.969208 58.46481 
L 75.348034 60.868251 
L 75.726861 64.956809 
L 76.295101 73.884525 
L 77.810408 100.235219 
L 78.568062 109.25087 
L 79.325715 115.668272 
L 83.682223 146.742447 
L 84.818704 152.417629 
L 86.144597 157.887242 
L 87.659905 163.168759 
L 89.554038 168.87773 
L 92.016412 175.266727 
L 95.425853 183.305223 
L 99.782361 192.635787 
L 106.033003 204.765075 
L 109.253031 210.169678 
L 112.851885 215.303077 
L 116.450739 220.020989 
L 117.58722 221.58684 
L 118.534287 222.589996 
L 120.42842 224.151589 
L 123.080208 226.028726 
L 125.921409 227.522159 
L 129.89909 229.083076 
L 132.929704 230.044504 
L 135.770905 230.677793 
L 140.316826 231.38927 
L 143.34744 231.818272 
L 143.726267 232.015795 
L 144.105094 232.440646 
L 145.052161 233.793851 
L 145.620401 234.118838 
L 147.514535 234.629846 
L 151.681629 235.27444 
L 156.795791 235.787925 
L 163.804086 236.129776 
L 179.525397 236.545258 
L 192.784334 236.72865 
L 198.466736 236.814912 
L 198.466736 236.814912 
" clip-path="url(#pb4128965d2)" style="fill: none; stroke: #34ae91; stroke-width: 1.5; stroke-linecap: square"/>
   </g>
   <g id="line2d_44">
    <path d="M 73.832727 53.568383 
L 74.211554 56.231591 
L 74.969208 59.536823 
L 75.348034 62.746121 
L 75.916275 69.929338 
L 77.242168 87.803223 
L 78.757475 103.687013 
L 79.515129 109.842043 
L 81.78809 126.439571 
L 83.113983 136.257578 
L 84.06105 141.447461 
L 85.19753 146.262089 
L 86.712838 151.528679 
L 88.606971 157.006343 
L 92.016412 166.221198 
L 95.994094 175.86719 
L 98.456468 181.197208 
L 101.865909 187.713794 
L 104.707109 192.177204 
L 108.495377 197.237011 
L 110.578924 199.495521 
L 113.798952 202.400568 
L 116.261326 204.274621 
L 117.776633 205.283923 
L 121.943728 207.477062 
L 125.353169 209.109588 
L 126.300235 209.931264 
L 129.141436 211.184786 
L 132.361464 212.196074 
L 135.202665 212.860858 
L 141.07448 214.189144 
L 141.832133 214.591844 
L 142.7792 215.341185 
L 143.34744 215.580554 
L 152.628696 217.425416 
L 161.341712 218.754681 
L 169.486488 219.721137 
L 184.071319 220.640475 
L 192.594921 220.92747 
L 206.043271 221.177289 
L 230.288185 221.447987 
L 245.441256 221.538606 
L 245.441256 221.538606 
" clip-path="url(#pb4128965d2)" style="fill: none; stroke: #34ae91; stroke-width: 1.5; stroke-linecap: square"/>
   </g>
   <g id="line2d_45">
    <path d="M 73.832727 53.568399 
L 74.211554 56.218333 
L 75.158621 59.971038 
L 75.537448 63.38262 
L 76.484515 75.507057 
L 77.242168 84.015148 
L 78.757475 99.298296 
L 80.272782 115.624192 
L 81.598676 126.771636 
L 82.735156 134.933699 
L 83.682223 140.361217 
L 85.386944 148.495624 
L 87.281078 156.606552 
L 88.985798 162.644595 
L 91.069345 168.81293 
L 92.774066 173.296204 
L 94.478786 177.432972 
L 96.37292 181.631768 
L 98.456468 185.653464 
L 100.918842 189.830714 
L 104.328283 194.992837 
L 108.68479 200.515582 
L 113.230712 205.070594 
L 115.503672 207.131439 
L 116.261326 207.710012 
L 117.776633 208.79708 
L 122.511968 211.861719 
L 124.406102 212.756005 
L 129.709676 214.870444 
L 132.361464 215.608015 
L 135.392078 216.356035 
L 137.665039 216.905586 
L 139.180346 217.187321 
L 142.968614 217.773809 
L 146.378055 218.190046 
L 150.545149 218.615801 
L 154.901657 218.95154 
L 170.812381 219.622052 
L 174.411236 219.742883 
L 186.533693 219.947829 
L 213.430394 220.156565 
L 213.430394 220.156565 
" clip-path="url(#pb4128965d2)" style="fill: none; stroke: #34ae91; stroke-width: 1.5; stroke-linecap: square"/>
   </g>
   <g id="line2d_46">
    <path d="M 73.832727 53.568384 
L 74.211554 56.215377 
L 74.590381 57.360998 
L 74.969208 58.485063 
L 75.348034 60.811782 
L 75.726861 64.63648 
L 76.484515 75.457232 
L 77.810408 94.774634 
L 78.946889 107.580253 
L 80.083369 118.040766 
L 81.030436 125.173422 
L 82.166916 131.909847 
L 86.712838 155.997177 
L 88.038731 161.73484 
L 89.364625 166.628803 
L 91.069345 172.100562 
L 93.721133 179.757809 
L 96.751747 187.583129 
L 99.403535 193.868117 
L 101.676495 198.885168 
L 104.328283 204.427938 
L 106.41183 208.103814 
L 110.768338 214.776417 
L 112.094231 216.38345 
L 114.367192 218.939466 
L 115.693086 220.464856 
L 116.450739 221.370588 
L 118.15546 222.986307 
L 119.481354 223.929133 
L 121.943728 225.408239 
L 127.436716 227.91894 
L 129.89909 228.74929 
L 134.634425 230.006843 
L 141.07448 231.497661 
L 141.453306 231.605198 
L 141.64272 231.566348 
L 142.21096 231.744949 
L 144.294507 232.099746 
L 148.651015 232.613703 
L 156.038137 233.170351 
L 161.720539 233.440747 
L 176.494783 233.856231 
L 193.163161 234.204775 
L 194.678468 234.60481 
L 196.951429 234.783102 
L 204.717378 234.94587 
L 235.781173 235.243406 
L 260.404914 235.366833 
L 260.404914 235.366833 
" clip-path="url(#pb4128965d2)" style="fill: none; stroke: #34ae91; stroke-width: 1.5; stroke-linecap: square"/>
   </g>
   <g id="line2d_47">
    <path d="M 73.832727 53.568673 
L 74.211554 56.213767 
L 74.590381 57.334268 
L 74.969208 58.373025 
L 75.348034 60.52199 
L 75.726861 64.106348 
L 76.484515 74.372228 
L 78.189235 98.22838 
L 79.136302 108.225781 
L 80.083369 115.660711 
L 81.219849 122.830191 
L 82.166916 127.538176 
L 83.303397 132.041008 
L 84.818704 136.916059 
L 90.501105 153.912264 
L 93.53172 162.004823 
L 95.425853 166.379983 
L 97.319987 170.238317 
L 100.161188 175.372857 
L 107.927137 188.418675 
L 113.609539 196.429303 
L 114.746019 197.642358 
L 116.829566 199.422305 
L 119.29194 201.014385 
L 120.807247 201.749517 
L 123.080208 202.601075 
L 124.974342 203.173628 
L 128.004956 203.949841 
L 131.224984 204.490286 
L 135.392078 204.969357 
L 142.968614 205.434962 
L 159.258165 205.892431 
L 180.851291 206.112199 
L 204.527964 206.193276 
L 204.527964 206.193276 
" clip-path="url(#pb4128965d2)" style="fill: none; stroke: #34ae91; stroke-width: 1.5; stroke-linecap: square"/>
   </g>
   <g id="line2d_48">
    <path d="M 73.832727 53.56841 
L 74.211554 56.211421 
L 75.158621 59.813454 
L 75.537448 63.295578 
L 76.295101 73.733675 
L 77.431582 89.122309 
L 78.757475 103.589822 
L 79.893956 113.615323 
L 82.735156 136.145841 
L 85.955184 156.501415 
L 87.470491 164.712024 
L 88.985798 171.435683 
L 90.311692 176.506189 
L 92.205826 182.89481 
L 93.721133 187.303609 
L 95.615267 192.429994 
L 98.077641 198.39761 
L 101.108255 205.262463 
L 103.949456 211.111247 
L 106.601243 215.791629 
L 108.11655 218.055369 
L 110.200098 220.837337 
L 113.041298 224.315442 
L 115.693086 227.129663 
L 117.208393 228.589929 
L 119.670767 230.613227 
L 125.731995 234.456444 
L 131.982637 237.456541 
L 133.876771 238.200843 
L 136.339145 239.054422 
L 141.64272 240.547998 
L 151.302803 242.47172 
L 157.742858 243.405296 
L 168.918248 244.528256 
L 181.798358 245.283777 
L 199.413803 245.759676 
L 213.619807 245.97971 
L 213.619807 245.97971 
" clip-path="url(#pb4128965d2)" style="fill: none; stroke: #37abb5; stroke-width: 1.5; stroke-linecap: square"/>
   </g>
   <g id="line2d_49">
    <path d="M 73.832727 53.568317 
L 74.211554 56.223815 
L 74.969208 59.179732 
L 75.348034 62.202147 
L 75.916275 69.211178 
L 77.242168 86.74871 
L 80.083369 117.38058 
L 81.977503 132.679456 
L 83.682223 145.475891 
L 85.19753 155.181364 
L 86.523424 162.208166 
L 88.228145 169.823468 
L 89.743452 175.55232 
L 91.448172 181.062416 
L 92.963479 185.182732 
L 94.478786 189.039297 
L 97.509401 196.045777 
L 105.654176 213.190383 
L 107.54831 216.482218 
L 110.957751 221.687473 
L 113.420125 224.925776 
L 115.882499 227.726514 
L 117.58722 229.435407 
L 121.186074 232.7537 
L 125.353169 235.877037 
L 130.656743 238.57712 
L 134.634425 240.303821 
L 138.990932 241.743372 
L 141.453306 242.805151 
L 145.241574 243.715037 
L 149.219255 244.402969 
L 152.439283 244.820658 
L 155.848724 245.192317 
L 159.258165 245.534166 
L 166.26646 246.06636 
L 183.503078 246.911454 
L 201.49735 247.215516 
L 214.566874 247.339381 
L 239.569441 247.468173 
L 239.569441 247.468173 
" clip-path="url(#pb4128965d2)" style="fill: none; stroke: #37abb5; stroke-width: 1.5; stroke-linecap: square"/>
   </g>
   <g id="line2d_50">
    <path d="M 73.832727 53.568352 
L 74.211554 56.216738 
L 75.158621 59.73749 
L 75.537448 63.105127 
L 76.105688 70.754173 
L 77.999822 99.312987 
L 78.946889 110.276171 
L 79.893956 118.662456 
L 81.030436 126.680661 
L 81.977503 131.861204 
L 86.144597 153.02275 
L 87.659905 160.735086 
L 89.175212 167.390477 
L 91.448172 175.80595 
L 92.963479 180.895201 
L 96.751747 191.667623 
L 99.214121 197.788361 
L 104.517696 209.772603 
L 108.874204 218.184363 
L 110.389511 220.692797 
L 113.420125 224.949544 
L 115.693086 227.595113 
L 118.534287 230.453287 
L 120.617834 232.261346 
L 123.459035 234.113306 
L 124.595515 234.751059 
L 128.573196 236.678922 
L 131.03557 237.62607 
L 132.17205 238.162876 
L 135.581491 239.762065 
L 137.665039 240.400324 
L 142.021547 241.42828 
L 149.029842 242.486171 
L 154.144003 243.040257 
L 158.689925 243.382906 
L 166.8347 243.870189 
L 186.912519 244.621613 
L 188.806653 245.410996 
L 190.8902 245.629509 
L 195.436122 245.839588 
L 209.452712 246.155016 
L 241.652988 246.582809 
L 255.669579 246.66386 
L 255.669579 246.66386 
" clip-path="url(#pb4128965d2)" style="fill: none; stroke: #37abb5; stroke-width: 1.5; stroke-linecap: square"/>
   </g>
   <g id="line2d_51">
    <path d="M 73.832727 53.568385 
L 74.211554 56.224729 
L 75.158621 60.105666 
L 75.537448 63.512985 
L 76.105688 70.830942 
L 78.568062 105.739163 
L 79.325715 113.476887 
L 80.272782 120.45993 
L 81.409263 129.194428 
L 84.06105 151.168509 
L 85.008117 156.51266 
L 86.334011 162.686395 
L 87.849318 168.527156 
L 90.879932 178.753693 
L 99.024708 203.358639 
L 100.918842 207.956069 
L 103.191802 213.074301 
L 105.27535 217.45857 
L 109.253031 224.53648 
L 110.768338 226.764197 
L 115.124846 232.353507 
L 116.640153 233.838643 
L 118.913113 236.066993 
L 121.943728 238.660507 
L 124.784928 240.544749 
L 126.489649 241.462798 
L 131.60381 243.608535 
L 133.119117 244.244135 
L 135.013251 244.957927 
L 138.422692 245.951038 
L 141.263893 246.640404 
L 144.673334 247.526746 
L 145.999228 247.849066 
L 157.553444 249.468588 
L 162.667606 249.94561 
L 171.191208 250.481242 
L 182.366598 250.904231 
L 200.550283 251.417802 
L 202.06559 251.674673 
L 202.63383 251.68963 
L 212.1045 251.917574 
L 224.41637 252.032984 
L 224.41637 252.032984 
" clip-path="url(#pb4128965d2)" style="fill: none; stroke: #37abb5; stroke-width: 1.5; stroke-linecap: square"/>
   </g>
   <g id="line2d_52">
    <path d="M 73.832727 53.568407 
L 74.211554 56.225706 
L 75.158621 59.901817 
L 75.537448 63.151752 
L 76.105688 70.807269 
L 78.378649 107.371113 
L 79.325715 117.060386 
L 80.462196 125.922792 
L 82.735156 141.174125 
L 84.250464 150.522837 
L 85.576357 157.064756 
L 87.281078 164.294482 
L 89.175212 171.362516 
L 92.205826 181.458359 
L 95.047027 190.046154 
L 97.319987 196.434148 
L 100.161188 203.774375 
L 103.949456 212.886172 
L 106.222416 217.839714 
L 108.305964 221.868918 
L 110.200098 224.895576 
L 112.283645 227.886823 
L 113.798952 229.799525 
L 115.503672 231.574754 
L 116.829566 232.864336 
L 118.15546 233.9738 
L 120.807247 235.829979 
L 122.511968 236.784674 
L 125.542582 238.169203 
L 129.33085 239.560328 
L 132.17205 240.406917 
L 132.740291 240.722331 
L 133.687358 241.396439 
L 135.581491 241.957377 
L 136.907385 242.248946 
L 138.612106 242.606124 
L 144.862747 243.553411 
L 155.09107 244.304908 
L 165.12998 244.799769 
L 169.486488 244.992 
L 187.859586 245.795229 
L 199.79263 246.453116 
L 211.157433 247.239097 
L 211.725673 247.447323 
L 212.862153 248.219012 
L 213.998634 248.420962 
L 218.733968 248.900666 
L 222.901063 249.204154 
L 239.569441 250.455401 
L 243.547122 250.9472 
L 245.251843 251.130568 
L 258.51078 252.255373 
L 274.610918 253.064452 
L 297.908764 253.750262 
L 319.312477 254.085082 
L 349.050379 254.39228 
L 390.153084 254.542174 
L 392.615458 254.549559 
L 398.487273 254.58165 
L 398.487273 254.58165 
" clip-path="url(#pb4128965d2)" style="fill: none; stroke: #37abb5; stroke-width: 1.5; stroke-linecap: square"/>
   </g>
   <g id="line2d_53">
    <path d="M 73.832727 53.568453 
L 74.211554 56.218269 
L 75.158621 60.132761 
L 75.537448 63.738877 
L 76.295101 74.404621 
L 77.431582 90.468703 
L 78.568062 103.15405 
L 79.325715 109.914723 
L 80.272782 116.077715 
L 81.598676 124.388564 
L 82.545743 131.822352 
L 84.818704 150.506336 
L 86.334011 160.392639 
L 87.849318 168.823617 
L 89.364625 175.922537 
L 91.069345 182.860943 
L 93.53172 192.045762 
L 95.615267 198.580796 
L 98.077641 205.369763 
L 99.214121 208.105033 
L 102.055322 214.215341 
L 104.138869 218.179833 
L 106.033003 221.337452 
L 108.495377 225.058226 
L 111.147165 228.301194 
L 113.420125 230.73661 
L 115.124846 232.367908 
L 116.640153 233.707946 
L 119.670767 236.186043 
L 122.322554 238.057014 
L 124.027275 239.131711 
L 125.921409 240.207744 
L 129.520263 242.018453 
L 133.308531 243.515168 
L 135.013251 244.051763 
L 138.801519 245.034013 
L 149.408669 247.022401 
L 152.628696 247.512842 
L 154.52283 247.869441 
L 156.795791 248.416145 
L 160.394645 248.999232 
L 167.024114 249.799855 
L 181.608945 251.105592 
L 185.586626 251.376097 
L 205.096205 252.518404 
L 208.695059 252.733227 
L 209.263299 252.982609 
L 210.399779 254.018051 
L 211.915086 254.214918 
L 214.945701 254.450415 
L 228.962291 255.192256 
L 258.889606 256.245412 
L 260.78374 256.279565 
L 260.78374 256.279565 
" clip-path="url(#pb4128965d2)" style="fill: none; stroke: #3ba3ec; stroke-width: 1.5; stroke-linecap: square"/>
   </g>
   <g id="line2d_54">
    <path d="M 73.832727 53.568447 
L 74.211554 56.216533 
L 75.158621 59.681334 
L 75.537448 62.838749 
L 76.105688 70.307144 
L 78.189235 102.119739 
L 79.325715 114.059836 
L 82.735156 146.159234 
L 83.682223 152.171372 
L 85.008117 158.965626 
L 86.334011 164.685125 
L 87.849318 170.087598 
L 89.932865 176.577815 
L 92.774066 184.343315 
L 95.994094 192.427815 
L 101.676495 205.35781 
L 104.896523 212.376109 
L 106.601243 215.661487 
L 109.821271 221.317021 
L 112.283645 224.965266 
L 115.314259 228.845603 
L 118.913113 232.625854 
L 120.807247 234.215435 
L 123.648448 236.193911 
L 125.731995 237.595693 
L 126.868476 238.441099 
L 128.573196 239.428192 
L 133.497944 241.744344 
L 135.392078 242.427305 
L 138.990932 243.593744 
L 142.400373 244.455132 
L 149.598082 245.786347 
L 153.196936 246.310769 
L 160.962885 247.08717 
L 179.904224 248.416796 
L 190.32196 248.724767 
L 214.945701 249.124426 
L 231.803492 249.25688 
L 231.803492 249.25688 
" clip-path="url(#pb4128965d2)" style="fill: none; stroke: #3ba3ec; stroke-width: 1.5; stroke-linecap: square"/>
   </g>
   <g id="line2d_55">
    <path d="M 73.832727 53.568542 
L 74.211554 56.219697 
L 75.158621 59.818364 
L 75.537448 63.027635 
L 76.295101 72.506443 
L 78.378649 99.785475 
L 79.515129 113.014017 
L 80.272782 118.909332 
L 84.06105 143.730406 
L 85.576357 153.662832 
L 86.902251 160.975764 
L 88.228145 167.13119 
L 89.932865 174.013006 
L 91.258759 178.648296 
L 95.80468 192.619578 
L 97.698814 198.131662 
L 100.729428 206.866065 
L 103.381216 213.63506 
L 105.27535 217.98101 
L 107.358897 222.293949 
L 110.389511 227.916382 
L 112.851885 231.766118 
L 113.988365 233.355495 
L 116.071913 236.054446 
L 119.102527 239.524541 
L 122.511968 242.699924 
L 125.921409 245.385765 
L 129.89909 247.856078 
L 133.308531 249.404995 
L 139.369759 251.929104 
L 144.483921 254.061625 
L 145.241574 254.488685 
L 147.703948 255.466538 
L 149.598082 256.077175 
L 152.81811 256.977384 
L 158.879338 258.378234 
L 168.539421 260.001022 
L 173.274755 260.583257 
L 184.071319 261.559355 
L 194.489055 262.00422 
L 210.589193 262.437959 
L 229.151705 262.737718 
L 229.151705 262.737718 
" clip-path="url(#pb4128965d2)" style="fill: none; stroke: #3ba3ec; stroke-width: 1.5; stroke-linecap: square"/>
   </g>
   <g id="line2d_56">
    <path d="M 73.832727 53.568376 
L 74.211554 56.223673 
L 74.969208 59.208046 
L 75.348034 62.321153 
L 75.916275 69.514755 
L 77.242168 87.303663 
L 81.219849 130.401313 
L 82.735156 143.972412 
L 83.682223 150.804549 
L 84.818704 157.284329 
L 86.144597 163.538745 
L 88.038731 171.231431 
L 89.932865 178.10974 
L 93.152893 188.463142 
L 95.23644 194.531106 
L 97.319987 200.231841 
L 99.782361 206.585916 
L 103.002389 214.394943 
L 104.707109 217.958498 
L 109.442444 226.372156 
L 111.715405 229.598173 
L 114.177779 232.602808 
L 117.208393 235.806378 
L 120.996661 238.980309 
L 123.080208 240.431569 
L 124.974342 241.599996 
L 127.436716 242.88909 
L 132.740291 245.089627 
L 135.202665 245.899712 
L 139.369759 247.092372 
L 142.021547 247.82631 
L 142.400373 248.125943 
L 142.7792 248.689451 
L 143.34744 249.647451 
L 143.91568 250.119711 
L 144.862747 250.495293 
L 146.756881 250.956173 
L 152.060456 251.822846 
L 161.341712 253.072019 
L 173.653582 254.071411 
L 178.01009 254.361433 
L 182.745425 254.637299 
L 198.656149 255.440941 
L 233.697626 256.77954 
L 299.613485 258.158353 
L 351.702166 258.770984 
L 393.941351 258.975802 
L 393.941351 258.975802 
" clip-path="url(#pb4128965d2)" style="fill: none; stroke: #3ba3ec; stroke-width: 1.5; stroke-linecap: square"/>
   </g>
   <g id="line2d_57">
    <path d="M 73.832727 53.568386 
L 74.211554 56.221857 
L 75.158621 59.965899 
L 75.537448 63.376693 
L 76.105688 71.280021 
L 78.189235 104.621867 
L 78.946889 112.597802 
L 80.083369 121.867009 
L 81.78809 135.743084 
L 83.49281 149.337643 
L 84.62929 156.648121 
L 85.765771 162.552763 
L 87.281078 169.048329 
L 88.606971 173.903917 
L 90.879932 181.329436 
L 92.774066 186.905925 
L 96.183507 195.948006 
L 98.267054 200.947823 
L 104.138869 213.880872 
L 106.790657 219.401488 
L 109.821271 225.010739 
L 112.662472 229.553556 
L 113.798952 231.18491 
L 116.450739 234.792157 
L 118.7237 237.522105 
L 120.239007 239.185492 
L 122.511968 241.641278 
L 126.489649 245.120109 
L 129.709676 247.453171 
L 132.17205 248.921627 
L 135.013251 250.321417 
L 141.263893 252.783143 
L 148.461602 254.779453 
L 154.52283 255.969786 
L 160.015818 256.879568 
L 166.455874 257.705082 
L 178.957157 258.817279 
L 190.8902 259.534741 
L 198.277323 259.900577 
L 209.073886 260.248137 
L 235.212933 260.751466 
L 276.694465 261.119773 
L 289.006335 261.187644 
L 297.529937 261.220901 
L 297.529937 261.220901 
" clip-path="url(#pb4128965d2)" style="fill: none; stroke: #3ba3ec; stroke-width: 1.5; stroke-linecap: square"/>
   </g>
   <g id="line2d_58">
    <path d="M 73.832727 53.568485 
L 74.211554 56.219389 
L 75.158621 60.139634 
L 75.537448 63.715716 
L 76.295101 74.079838 
L 77.620995 91.962555 
L 80.272782 124.098862 
L 81.977503 140.911973 
L 83.113983 149.803001 
L 84.62929 159.788201 
L 86.144597 168.355382 
L 87.470491 174.813733 
L 88.985798 181.200079 
L 91.069345 188.816609 
L 93.342306 196.365633 
L 96.94116 206.645688 
L 101.676495 217.87903 
L 105.085936 224.937721 
L 106.790657 228.12631 
L 110.010684 233.405552 
L 113.609539 239.108327 
L 117.01898 243.672845 
L 119.481354 246.668713 
L 122.133141 249.715217 
L 127.815543 255.20546 
L 131.224984 257.808397 
L 137.854452 262.221237 
L 143.726267 265.479534 
L 145.620401 266.388205 
L 151.871043 269.167852 
L 154.333417 270.262929 
L 159.826405 272.315662 
L 163.804086 273.545652 
L 171.001795 275.68865 
L 171.948862 275.979624 
L 173.653582 276.440348 
L 178.767744 277.459328 
L 184.071319 278.236697 
L 190.32196 278.985304 
L 209.452712 280.539455 
L 241.842402 282.26052 
L 254.911925 282.701415 
L 304.159406 283.467193 
L 304.727646 283.468889 
L 304.727646 283.468889 
" clip-path="url(#pb4128965d2)" style="fill: none; stroke: #bb83f4; stroke-width: 1.5; stroke-linecap: square"/>
   </g>
   <g id="line2d_59">
    <path d="M 73.832727 53.568457 
L 74.211554 56.219004 
L 75.158621 60.013647 
L 75.537448 63.566345 
L 76.105688 71.371959 
L 77.999822 99.644767 
L 78.946889 110.886646 
L 80.083369 121.257986 
L 81.409263 133.784744 
L 82.92457 147.886833 
L 84.250464 158.409597 
L 85.576357 167.115563 
L 87.091664 175.582592 
L 88.606971 182.302515 
L 90.122279 188.216197 
L 92.205826 195.515753 
L 94.6682 203.236551 
L 97.319987 210.837212 
L 102.055322 223.064301 
L 105.085936 230.052277 
L 107.927137 235.713922 
L 110.768338 241.011433 
L 112.473058 243.822511 
L 115.124846 247.923856 
L 116.450739 249.758223 
L 117.208393 250.795566 
L 118.344873 252.29034 
L 122.701381 257.519233 
L 124.216688 259.074873 
L 128.76261 263.332269 
L 131.60381 265.572681 
L 133.119117 266.77285 
L 135.770905 268.741243 
L 138.801519 270.717709 
L 142.7792 272.691185 
L 149.787495 275.465358 
L 154.712244 276.834601 
L 158.311098 277.58756 
L 165.508807 278.814685 
L 170.622968 279.488845 
L 176.87361 280.163146 
L 185.965452 280.840618 
L 193.731401 281.280965 
L 205.475031 281.741282 
L 227.068157 282.249425 
L 249.04011 282.527123 
L 250.176591 282.524762 
L 250.176591 282.524762 
" clip-path="url(#pb4128965d2)" style="fill: none; stroke: #bb83f4; stroke-width: 1.5; stroke-linecap: square"/>
   </g>
   <g id="line2d_60">
    <path d="M 73.832727 53.568328 
L 74.211554 56.220081 
L 75.158621 59.642513 
L 75.537448 62.663923 
L 76.105688 70.037852 
L 78.568062 109.097107 
L 79.515129 118.041094 
L 83.49281 150.193407 
L 84.818704 158.08798 
L 86.144597 164.672788 
L 87.849318 171.715648 
L 89.743452 178.393055 
L 96.562334 201.072331 
L 100.350601 212.736827 
L 101.676495 216.56173 
L 104.707109 225.021482 
L 106.222416 228.730217 
L 108.68479 234.372886 
L 110.768338 238.196274 
L 112.473058 240.854879 
L 115.124846 244.51144 
L 120.049594 250.006274 
L 125.163755 253.940731 
L 127.057889 255.024133 
L 129.33085 256.078259 
L 133.497944 257.86654 
L 140.885066 259.930263 
L 143.726267 260.478658 
L 152.24987 261.723933 
L 157.742858 262.239986 
L 167.971181 263.039729 
L 181.608945 263.736435 
L 198.087909 264.289365 
L 227.636398 264.810611 
L 252.260138 265.029013 
L 252.260138 265.029013 
" clip-path="url(#pb4128965d2)" style="fill: none; stroke: #bb83f4; stroke-width: 1.5; stroke-linecap: square"/>
   </g>
   <g id="line2d_61">
    <path d="M 73.832727 53.568478 
L 74.211554 56.218386 
L 75.158621 60.114105 
L 75.537448 63.64349 
L 77.810408 89.581947 
L 78.757475 98.503109 
L 79.893956 112.394047 
L 80.841023 122.937597 
L 84.818704 161.821168 
L 86.144597 170.870043 
L 87.849318 180.703745 
L 89.364625 188.246327 
L 91.069345 195.80539 
L 92.584653 201.753229 
L 94.478786 208.306967 
L 96.37292 214.020898 
L 100.350601 224.257431 
L 103.949456 232.060305 
L 106.790657 237.280595 
L 109.063617 241.059325 
L 111.336578 244.35674 
L 112.851885 246.420239 
L 114.746019 249.044022 
L 117.01898 251.773142 
L 122.511968 256.944588 
L 124.784928 258.84227 
L 128.76261 261.577391 
L 130.656743 262.675302 
L 134.255598 264.4865 
L 140.316826 267.146641 
L 143.158027 268.183274 
L 146.188641 269.021139 
L 150.923976 270.202571 
L 156.795791 271.613622 
L 159.447578 272.224818 
L 164.182913 272.982199 
L 171.570035 273.910913 
L 189.564307 275.704052 
L 209.642126 276.974162 
L 212.1045 277.100835 
L 222.71165 277.59991 
L 255.101339 278.646359 
L 264.950835 278.812843 
L 271.769717 278.913256 
L 271.769717 278.913256 
" clip-path="url(#pb4128965d2)" style="fill: none; stroke: #bb83f4; stroke-width: 1.5; stroke-linecap: square"/>
   </g>
   <g id="line2d_62">
    <path d="M 73.832727 53.568593 
L 74.211554 56.214144 
L 74.590381 57.347152 
L 74.969208 58.493737 
L 75.348034 60.925364 
L 75.916275 67.409607 
L 78.378649 101.284628 
L 79.893956 118.780952 
L 81.219849 130.771905 
L 82.166916 137.396496 
L 83.682223 146.099126 
L 86.523424 161.086394 
L 88.228145 168.471532 
L 90.122279 175.773551 
L 92.395239 183.311167 
L 96.37292 195.509711 
L 101.108255 209.984823 
L 102.812975 215.443193 
L 105.27535 222.502579 
L 107.358897 227.230225 
L 108.68479 230.063129 
L 111.336578 235.725636 
L 113.230712 239.056634 
L 115.124846 242.041206 
L 116.640153 244.331587 
L 118.913113 247.33898 
L 120.807247 249.538896 
L 121.375487 250.030825 
L 123.269621 251.796977 
L 124.974342 253.12831 
L 129.33085 256.210101 
L 134.066184 258.799797 
L 137.286212 260.098907 
L 139.748586 260.985175 
L 141.832133 261.609639 
L 146.567468 262.838254 
L 149.787495 263.441899 
L 157.742858 264.696559 
L 171.191208 266.122768 
L 176.30537 266.520053 
L 196.193775 267.683505 
L 196.951429 267.677452 
L 198.277323 267.784103 
L 204.338551 268.123725 
L 212.1045 268.487416 
L 217.976315 268.795965 
L 220.249275 268.925562 
L 223.84813 269.08723 
L 236.16 269.52451 
L 259.457847 270.053644 
L 270.064996 270.246692 
L 270.064996 270.246692 
" clip-path="url(#pb4128965d2)" style="fill: none; stroke: #bb83f4; stroke-width: 1.5; stroke-linecap: square"/>
   </g>
   <g id="line2d_63">
    <path d="M 73.832727 53.568265 
L 74.211554 56.227427 
L 74.969208 59.236868 
L 75.348034 62.302913 
L 75.916275 69.603098 
L 77.999822 100.311484 
L 78.946889 110.745447 
L 80.272782 122.007128 
L 81.598676 134.03301 
L 85.008117 166.698874 
L 85.955184 173.162766 
L 87.281078 180.126746 
L 88.606971 185.915166 
L 90.311692 192.303439 
L 92.016412 198.042383 
L 93.721133 203.138844 
L 95.994094 209.12418 
L 97.888227 213.650069 
L 101.297668 220.91455 
L 103.760042 225.792915 
L 107.737724 233.118861 
L 110.957751 238.749475 
L 113.798952 243.143107 
L 115.693086 245.675607 
L 117.58722 247.984676 
L 120.049594 251.059464 
L 123.080208 254.425114 
L 129.709676 260.247173 
L 133.876771 263.161935 
L 138.043865 265.691257 
L 140.127413 266.836945 
L 142.21096 267.855156 
L 148.272188 270.282086 
L 155.65931 272.705179 
L 157.932271 273.303963 
L 167.024114 275.102539 
L 172.138275 275.847807 
L 185.586626 277.433541 
L 194.489055 278.154417 
L 222.71165 279.81648 
L 241.842402 280.438667 
L 241.842402 280.438667 
" clip-path="url(#pb4128965d2)" style="fill: none; stroke: #f564d4; stroke-width: 1.5; stroke-linecap: square"/>
   </g>
   <g id="line2d_64">
    <path d="M 73.832727 53.568548 
L 74.211554 56.215294 
L 74.590381 57.364739 
L 74.969208 58.541695 
L 75.348034 60.999045 
L 75.916275 67.528596 
L 79.136302 113.581474 
L 79.893956 120.564326 
L 81.409263 133.891737 
L 84.06105 158.883964 
L 85.008117 165.336941 
L 86.523424 173.730172 
L 88.228145 182.418022 
L 90.122279 190.929371 
L 93.342306 204.003148 
L 96.562334 216.093113 
L 98.267054 221.916478 
L 101.297668 231.156621 
L 103.002389 235.732221 
L 106.41183 244.203452 
L 107.54831 246.567252 
L 111.147165 253.541423 
L 113.609539 257.700502 
L 119.102527 265.128204 
L 121.754314 268.197348 
L 125.542582 271.607971 
L 129.709676 275.035108 
L 133.687358 277.804724 
L 135.392078 278.758682 
L 139.937999 281.167862 
L 144.862747 283.07939 
L 149.029842 284.478723 
L 153.196936 285.651145 
L 156.985204 286.459026 
L 167.024114 288.236825 
L 179.904224 290.092165 
L 181.230118 290.408497 
L 189.943134 291.456587 
L 200.92911 292.280215 
L 207.937405 292.801765 
L 208.505645 293.043556 
L 209.263299 293.387783 
L 209.831539 293.388623 
L 210.399779 293.460633 
L 211.915086 293.656567 
L 215.135114 293.898828 
L 223.84813 294.365671 
L 229.909358 294.607456 
L 239.190614 294.885977 
L 262.299047 295.384533 
L 270.25441 295.488 
L 270.25441 295.488 
" clip-path="url(#pb4128965d2)" style="fill: none; stroke: #f564d4; stroke-width: 1.5; stroke-linecap: square"/>
   </g>
   <g id="line2d_65">
    <path d="M 73.832727 53.568613 
L 74.211554 56.216497 
L 75.158621 60.122833 
L 75.537448 63.744562 
L 76.295101 74.18264 
L 77.431582 89.307736 
L 79.515129 112.814085 
L 83.871637 152.776106 
L 85.386944 163.453399 
L 86.902251 172.834874 
L 88.417558 180.799122 
L 90.311692 189.341843 
L 92.584653 198.629706 
L 95.994094 211.013238 
L 98.077641 218.107774 
L 99.971775 223.813497 
L 103.191802 232.487479 
L 106.033003 239.052752 
L 108.305964 243.374355 
L 110.010684 246.13463 
L 112.094231 248.896473 
L 114.367192 251.631778 
L 116.640153 254.0016 
L 118.534287 255.683775 
L 121.375487 257.951363 
L 124.406102 259.772438 
L 129.33085 262.26815 
L 132.361464 263.489207 
L 137.286212 265.215493 
L 144.673334 267.378925 
L 154.333417 269.558852 
L 163.9935 271.278634 
L 172.327689 272.623995 
L 178.957157 273.562482 
L 199.22439 276.012596 
L 219.491622 278.106916 
L 234.45528 278.996566 
L 259.64726 279.840829 
L 276.126225 280.20086 
L 276.505051 280.326156 
L 276.883878 280.297264 
L 277.452118 280.343895 
L 279.346252 280.433617 
L 284.271 280.515295 
L 310.978288 280.812298 
L 335.602028 280.95803 
L 335.602028 280.95803 
" clip-path="url(#pb4128965d2)" style="fill: none; stroke: #f564d4; stroke-width: 1.5; stroke-linecap: square"/>
   </g>
   <g id="line2d_66">
    <path d="M 73.832727 53.568413 
L 74.211554 56.222536 
L 75.158621 60.077232 
L 75.537448 63.628645 
L 76.105688 71.82091 
L 77.999822 103.130391 
L 78.757475 111.132647 
L 79.515129 116.938285 
L 82.545743 137.961321 
L 84.818704 155.059463 
L 86.144597 164.683596 
L 87.281078 171.274607 
L 88.985798 179.761263 
L 91.069345 188.72619 
L 92.774066 195.166618 
L 95.23644 203.578261 
L 97.319987 210.016357 
L 99.403535 215.598318 
L 101.865909 221.637561 
L 104.328283 226.986585 
L 107.54831 233.074989 
L 109.631857 236.518581 
L 114.935432 244.107262 
L 119.102527 248.834346 
L 120.42842 250.074602 
L 124.595515 253.529097 
L 128.004956 256.204362 
L 129.141436 257.150805 
L 131.224984 258.576521 
L 132.550877 259.355017 
L 134.823838 260.609469 
L 135.960318 261.249536 
L 138.233279 262.234831 
L 144.105094 264.517602 
L 145.999228 265.060567 
L 148.840429 265.714824 
L 153.007523 266.676668 
L 157.364031 267.415956 
L 163.046433 268.113642 
L 179.904224 269.507047 
L 200.550283 270.629254 
L 201.686764 270.894885 
L 207.179752 271.204534 
L 217.029248 271.529398 
L 236.72824 271.994749 
L 236.72824 271.994749 
" clip-path="url(#pb4128965d2)" style="fill: none; stroke: #f564d4; stroke-width: 1.5; stroke-linecap: square"/>
   </g>
   <g id="line2d_67">
    <path d="M 73.832727 53.568417 
L 74.211554 56.219641 
L 75.158621 60.116273 
L 75.537448 63.709113 
L 76.295101 74.36623 
L 77.431582 90.621483 
L 78.757475 106.352025 
L 80.651609 125.431558 
L 82.545743 143.644723 
L 84.250464 157.784425 
L 86.334011 173.544048 
L 87.470491 180.521438 
L 88.985798 188.245637 
L 90.690519 195.73152 
L 92.395239 202.359945 
L 95.425853 213.006874 
L 97.698814 219.91566 
L 100.540015 227.680657 
L 102.623562 232.592535 
L 105.27535 238.274536 
L 109.631857 246.355292 
L 112.662472 251.112935 
L 116.450739 256.209833 
L 118.15546 258.283573 
L 119.86018 260.166354 
L 123.080208 263.206076 
L 124.406102 264.323578 
L 128.383783 267.235085 
L 135.202665 271.57196 
L 137.475625 272.816052 
L 139.937999 273.890493 
L 142.7792 275.008103 
L 143.726267 275.341394 
L 147.703948 276.679313 
L 153.575763 278.271737 
L 162.478192 280.280905 
L 166.645287 281.048395 
L 178.57833 282.911354 
L 189.943134 284.189747 
L 202.06559 285.24003 
L 206.611512 285.524967 
L 214.756287 285.918013 
L 233.697626 286.707148 
L 255.290752 287.261746 
L 289.763989 288.103866 
L 292.415776 288.174132 
L 300.371138 288.362651 
L 319.312477 288.634631 
L 339.011469 288.817032 
L 339.011469 288.817032 
" clip-path="url(#pb4128965d2)" style="fill: none; stroke: #f564d4; stroke-width: 1.5; stroke-linecap: square"/>
   </g>
   <g id="patch_3">
    <path d="M 57.6 307.584 
L 57.6 41.472 
" style="fill: none; stroke: #000000; stroke-width: 0.8; stroke-linejoin: miter; stroke-linecap: square"/>
   </g>
   <g id="patch_4">
    <path d="M 414.72 307.584 
L 414.72 41.472 
" style="fill: none; stroke: #000000; stroke-width: 0.8; stroke-linejoin: miter; stroke-linecap: square"/>
   </g>
   <g id="patch_5">
    <path d="M 57.6 307.584 
L 414.72 307.584 
" style="fill: none; stroke: #000000; stroke-width: 0.8; stroke-linejoin: miter; stroke-linecap: square"/>
   </g>
   <g id="patch_6">
    <path d="M 57.6 41.472 
L 414.72 41.472 
" style="fill: none; stroke: #000000; stroke-width: 0.8; stroke-linejoin: miter; stroke-linecap: square"/>
   </g>
   <g id="text_13">
    <g id="patch_7">
     <path d="M 212.044298 104.35246 
L 241.344298 104.35246 
L 241.344298 86.674335 
L 212.044298 86.674335 
z
" style="fill: #ffffff; opacity: 0.7; stroke: #000000; stroke-linejoin: miter"/>
    </g>
    <!-- K=2 -->
    <g style="fill: #f77189" transform="translate(216.044298 98.272773) scale(0.1 -0.1)">
     <defs>
      <path id="DejaVuSans-4b" d="M 628 4666 
L 1259 4666 
L 1259 2694 
L 3353 4666 
L 4166 4666 
L 1850 2491 
L 4331 0 
L 3500 0 
L 1259 2247 
L 1259 0 
L 628 0 
L 628 4666 
z
" transform="scale(0.015625)"/>
      <path id="DejaVuSans-3d" d="M 678 2906 
L 4684 2906 
L 4684 2381 
L 678 2381 
L 678 2906 
z
M 678 1631 
L 4684 1631 
L 4684 1100 
L 678 1100 
L 678 1631 
z
" transform="scale(0.015625)"/>
     </defs>
     <use xlink:href="#DejaVuSans-4b"/>
     <use xlink:href="#DejaVuSans-3d" x="65.576172"/>
     <use xlink:href="#DejaVuSans-32" x="149.365234"/>
    </g>
   </g>
   <g id="text_14">
    <g id="patch_8">
     <path d="M 187.837267 143.431526 
L 217.137267 143.431526 
L 217.137267 125.753401 
L 187.837267 125.753401 
z
" style="fill: #ffffff; opacity: 0.7; stroke: #000000; stroke-linejoin: miter"/>
    </g>
    <!-- K=3 -->
    <g style="fill: #d58c32" transform="translate(191.837267 137.351839) scale(0.1 -0.1)">
     <use xlink:href="#DejaVuSans-4b"/>
     <use xlink:href="#DejaVuSans-3d" x="65.576172"/>
     <use xlink:href="#DejaVuSans-33" x="149.365234"/>
    </g>
   </g>
   <g id="text_15">
    <g id="patch_9">
     <path d="M 193.6712 169.036709 
L 222.9712 169.036709 
L 222.9712 151.358584 
L 193.6712 151.358584 
z
" style="fill: #ffffff; opacity: 0.7; stroke: #000000; stroke-linejoin: miter"/>
    </g>
    <!-- K=4 -->
    <g style="fill: #a4a031" transform="translate(197.6712 162.957022) scale(0.1 -0.1)">
     <defs>
      <path id="DejaVuSans-34" d="M 2419 4116 
L 825 1625 
L 2419 1625 
L 2419 4116 
z
M 2253 4666 
L 3047 4666 
L 3047 1625 
L 3713 1625 
L 3713 1100 
L 3047 1100 
L 3047 0 
L 2419 0 
L 2419 1100 
L 313 1100 
L 313 1709 
L 2253 4666 
z
" transform="scale(0.015625)"/>
     </defs>
     <use xlink:href="#DejaVuSans-4b"/>
     <use xlink:href="#DejaVuSans-3d" x="65.576172"/>
     <use xlink:href="#DejaVuSans-34" x="149.365234"/>
    </g>
   </g>
   <g id="text_16">
    <g id="patch_10">
     <path d="M 198.709596 205.572051 
L 228.009596 205.572051 
L 228.009596 187.893926 
L 198.709596 187.893926 
z
" style="fill: #ffffff; opacity: 0.7; stroke: #000000; stroke-linejoin: miter"/>
    </g>
    <!-- K=5 -->
    <g style="fill: #50b131" transform="translate(202.709596 199.492364) scale(0.1 -0.1)">
     <use xlink:href="#DejaVuSans-4b"/>
     <use xlink:href="#DejaVuSans-3d" x="65.576172"/>
     <use xlink:href="#DejaVuSans-35" x="149.365234"/>
    </g>
   </g>
   <g id="text_17">
    <g id="patch_11">
     <path d="M 243.373273 229.121049 
L 272.673273 229.121049 
L 272.673273 211.442924 
L 243.373273 211.442924 
z
" style="fill: #ffffff; opacity: 0.7; stroke: #000000; stroke-linejoin: miter"/>
    </g>
    <!-- K=6 -->
    <g style="fill: #34ae91" transform="translate(247.373273 223.041362) scale(0.1 -0.1)">
     <defs>
      <path id="DejaVuSans-36" d="M 2113 2584 
Q 1688 2584 1439 2293 
Q 1191 2003 1191 1497 
Q 1191 994 1439 701 
Q 1688 409 2113 409 
Q 2538 409 2786 701 
Q 3034 994 3034 1497 
Q 3034 2003 2786 2293 
Q 2538 2584 2113 2584 
z
M 3366 4563 
L 3366 3988 
Q 3128 4100 2886 4159 
Q 2644 4219 2406 4219 
Q 1781 4219 1451 3797 
Q 1122 3375 1075 2522 
Q 1259 2794 1537 2939 
Q 1816 3084 2150 3084 
Q 2853 3084 3261 2657 
Q 3669 2231 3669 1497 
Q 3669 778 3244 343 
Q 2819 -91 2113 -91 
Q 1303 -91 875 529 
Q 447 1150 447 2328 
Q 447 3434 972 4092 
Q 1497 4750 2381 4750 
Q 2619 4750 2861 4703 
Q 3103 4656 3366 4563 
z
" transform="scale(0.015625)"/>
     </defs>
     <use xlink:href="#DejaVuSans-4b"/>
     <use xlink:href="#DejaVuSans-3d" x="65.576172"/>
     <use xlink:href="#DejaVuSans-36" x="149.365234"/>
    </g>
   </g>
   <g id="text_18">
    <g id="patch_12">
     <path d="M 285.271514 255.33966 
L 314.571514 255.33966 
L 314.571514 237.661535 
L 285.271514 237.661535 
z
" style="fill: #ffffff; opacity: 0.7; stroke: #000000; stroke-linejoin: miter"/>
    </g>
    <!-- K=7 -->
    <g style="fill: #37abb5" transform="translate(289.271514 249.259973) scale(0.1 -0.1)">
     <use xlink:href="#DejaVuSans-4b"/>
     <use xlink:href="#DejaVuSans-3d" x="65.576172"/>
     <use xlink:href="#DejaVuSans-37" x="149.365234"/>
    </g>
   </g>
   <g id="text_19">
    <g id="patch_13">
     <path d="M 301.561065 263.59944 
L 330.861065 263.59944 
L 330.861065 245.921315 
L 301.561065 245.921315 
z
" style="fill: #ffffff; opacity: 0.7; stroke: #000000; stroke-linejoin: miter"/>
    </g>
    <!-- K=8 -->
    <g style="fill: #3ba3ec" transform="translate(305.561065 257.519753) scale(0.1 -0.1)">
     <defs>
      <path id="DejaVuSans-38" d="M 2034 2216 
Q 1584 2216 1326 1975 
Q 1069 1734 1069 1313 
Q 1069 891 1326 650 
Q 1584 409 2034 409 
Q 2484 409 2743 651 
Q 3003 894 3003 1313 
Q 3003 1734 2745 1975 
Q 2488 2216 2034 2216 
z
M 1403 2484 
Q 997 2584 770 2862 
Q 544 3141 544 3541 
Q 544 4100 942 4425 
Q 1341 4750 2034 4750 
Q 2731 4750 3128 4425 
Q 3525 4100 3525 3541 
Q 3525 3141 3298 2862 
Q 3072 2584 2669 2484 
Q 3125 2378 3379 2068 
Q 3634 1759 3634 1313 
Q 3634 634 3220 271 
Q 2806 -91 2034 -91 
Q 1263 -91 848 271 
Q 434 634 434 1313 
Q 434 1759 690 2068 
Q 947 2378 1403 2484 
z
M 1172 3481 
Q 1172 3119 1398 2916 
Q 1625 2713 2034 2713 
Q 2441 2713 2670 2916 
Q 2900 3119 2900 3481 
Q 2900 3844 2670 4047 
Q 2441 4250 2034 4250 
Q 1625 4250 1398 4047 
Q 1172 3844 1172 3481 
z
" transform="scale(0.015625)"/>
     </defs>
     <use xlink:href="#DejaVuSans-4b"/>
     <use xlink:href="#DejaVuSans-3d" x="65.576172"/>
     <use xlink:href="#DejaVuSans-38" x="149.365234"/>
    </g>
   </g>
   <g id="text_20">
    <g id="patch_14">
     <path d="M 288.718837 281.715171 
L 318.018837 281.715171 
L 318.018837 264.037046 
L 288.718837 264.037046 
z
" style="fill: #ffffff; opacity: 0.7; stroke: #000000; stroke-linejoin: miter"/>
    </g>
    <!-- K=9 -->
    <g style="fill: #bb83f4" transform="translate(292.718837 275.635484) scale(0.1 -0.1)">
     <defs>
      <path id="DejaVuSans-39" d="M 703 97 
L 703 672 
Q 941 559 1184 500 
Q 1428 441 1663 441 
Q 2288 441 2617 861 
Q 2947 1281 2994 2138 
Q 2813 1869 2534 1725 
Q 2256 1581 1919 1581 
Q 1219 1581 811 2004 
Q 403 2428 403 3163 
Q 403 3881 828 4315 
Q 1253 4750 1959 4750 
Q 2769 4750 3195 4129 
Q 3622 3509 3622 2328 
Q 3622 1225 3098 567 
Q 2575 -91 1691 -91 
Q 1453 -91 1209 -44 
Q 966 3 703 97 
z
M 1959 2075 
Q 2384 2075 2632 2365 
Q 2881 2656 2881 3163 
Q 2881 3666 2632 3958 
Q 2384 4250 1959 4250 
Q 1534 4250 1286 3958 
Q 1038 3666 1038 3163 
Q 1038 2656 1286 2365 
Q 1534 2075 1959 2075 
z
" transform="scale(0.015625)"/>
     </defs>
     <use xlink:href="#DejaVuSans-4b"/>
     <use xlink:href="#DejaVuSans-3d" x="65.576172"/>
     <use xlink:href="#DejaVuSans-39" x="149.365234"/>
    </g>
   </g>
   <g id="text_21">
    <g id="patch_15">
     <path d="M 303.60673 289.135399 
L 339.26923 289.135399 
L 339.26923 271.457274 
L 303.60673 271.457274 
z
" style="fill: #ffffff; opacity: 0.7; stroke: #000000; stroke-linejoin: miter"/>
    </g>
    <!-- K=10 -->
    <g style="fill: #f564d4" transform="translate(307.60673 283.055712) scale(0.1 -0.1)">
     <use xlink:href="#DejaVuSans-4b"/>
     <use xlink:href="#DejaVuSans-3d" x="65.576172"/>
     <use xlink:href="#DejaVuSans-31" x="149.365234"/>
     <use xlink:href="#DejaVuSans-30" x="212.988281"/>
    </g>
   </g>
   <g id="text_22">
    <!-- Loss curve over 5 runs with SSE loss for different K -->
    <g transform="translate(83.241563 35.472) scale(0.12 -0.12)">
     <defs>
      <path id="DejaVuSans-75" d="M 544 1381 
L 544 3500 
L 1119 3500 
L 1119 1403 
Q 1119 906 1312 657 
Q 1506 409 1894 409 
Q 2359 409 2629 706 
Q 2900 1003 2900 1516 
L 2900 3500 
L 3475 3500 
L 3475 0 
L 2900 0 
L 2900 538 
Q 2691 219 2414 64 
Q 2138 -91 1772 -91 
Q 1169 -91 856 284 
Q 544 659 544 1381 
z
M 1991 3584 
L 1991 3584 
z
" transform="scale(0.015625)"/>
      <path id="DejaVuSans-76" d="M 191 3500 
L 800 3500 
L 1894 563 
L 2988 3500 
L 3597 3500 
L 2284 0 
L 1503 0 
L 191 3500 
z
" transform="scale(0.015625)"/>
      <path id="DejaVuSans-77" d="M 269 3500 
L 844 3500 
L 1563 769 
L 2278 3500 
L 2956 3500 
L 3675 769 
L 4391 3500 
L 4966 3500 
L 4050 0 
L 3372 0 
L 2619 2869 
L 1863 0 
L 1184 0 
L 269 3500 
z
" transform="scale(0.015625)"/>
      <path id="DejaVuSans-68" d="M 3513 2113 
L 3513 0 
L 2938 0 
L 2938 2094 
Q 2938 2591 2744 2837 
Q 2550 3084 2163 3084 
Q 1697 3084 1428 2787 
Q 1159 2491 1159 1978 
L 1159 0 
L 581 0 
L 581 4863 
L 1159 4863 
L 1159 2956 
Q 1366 3272 1645 3428 
Q 1925 3584 2291 3584 
Q 2894 3584 3203 3211 
Q 3513 2838 3513 2113 
z
" transform="scale(0.015625)"/>
      <path id="DejaVuSans-53" d="M 3425 4513 
L 3425 3897 
Q 3066 4069 2747 4153 
Q 2428 4238 2131 4238 
Q 1616 4238 1336 4038 
Q 1056 3838 1056 3469 
Q 1056 3159 1242 3001 
Q 1428 2844 1947 2747 
L 2328 2669 
Q 3034 2534 3370 2195 
Q 3706 1856 3706 1288 
Q 3706 609 3251 259 
Q 2797 -91 1919 -91 
Q 1588 -91 1214 -16 
Q 841 59 441 206 
L 441 856 
Q 825 641 1194 531 
Q 1563 422 1919 422 
Q 2459 422 2753 634 
Q 3047 847 3047 1241 
Q 3047 1584 2836 1778 
Q 2625 1972 2144 2069 
L 1759 2144 
Q 1053 2284 737 2584 
Q 422 2884 422 3419 
Q 422 4038 858 4394 
Q 1294 4750 2059 4750 
Q 2388 4750 2728 4690 
Q 3069 4631 3425 4513 
z
" transform="scale(0.015625)"/>
      <path id="DejaVuSans-45" d="M 628 4666 
L 3578 4666 
L 3578 4134 
L 1259 4134 
L 1259 2753 
L 3481 2753 
L 3481 2222 
L 1259 2222 
L 1259 531 
L 3634 531 
L 3634 0 
L 628 0 
L 628 4666 
z
" transform="scale(0.015625)"/>
      <path id="DejaVuSans-66" d="M 2375 4863 
L 2375 4384 
L 1825 4384 
Q 1516 4384 1395 4259 
Q 1275 4134 1275 3809 
L 1275 3500 
L 2222 3500 
L 2222 3053 
L 1275 3053 
L 1275 0 
L 697 0 
L 697 3053 
L 147 3053 
L 147 3500 
L 697 3500 
L 697 3744 
Q 697 4328 969 4595 
Q 1241 4863 1831 4863 
L 2375 4863 
z
" transform="scale(0.015625)"/>
      <path id="DejaVuSans-64" d="M 2906 2969 
L 2906 4863 
L 3481 4863 
L 3481 0 
L 2906 0 
L 2906 525 
Q 2725 213 2448 61 
Q 2172 -91 1784 -91 
Q 1150 -91 751 415 
Q 353 922 353 1747 
Q 353 2572 751 3078 
Q 1150 3584 1784 3584 
Q 2172 3584 2448 3432 
Q 2725 3281 2906 2969 
z
M 947 1747 
Q 947 1113 1208 752 
Q 1469 391 1925 391 
Q 2381 391 2643 752 
Q 2906 1113 2906 1747 
Q 2906 2381 2643 2742 
Q 2381 3103 1925 3103 
Q 1469 3103 1208 2742 
Q 947 2381 947 1747 
z
" transform="scale(0.015625)"/>
     </defs>
     <use xlink:href="#DejaVuSans-4c"/>
     <use xlink:href="#DejaVuSans-6f" x="53.962891"/>
     <use xlink:href="#DejaVuSans-73" x="115.144531"/>
     <use xlink:href="#DejaVuSans-73" x="167.244141"/>
     <use xlink:href="#DejaVuSans-20" x="219.34375"/>
     <use xlink:href="#DejaVuSans-63" x="251.130859"/>
     <use xlink:href="#DejaVuSans-75" x="306.111328"/>
     <use xlink:href="#DejaVuSans-72" x="369.490234"/>
     <use xlink:href="#DejaVuSans-76" x="410.603516"/>
     <use xlink:href="#DejaVuSans-65" x="469.783203"/>
     <use xlink:href="#DejaVuSans-20" x="531.306641"/>
     <use xlink:href="#DejaVuSans-6f" x="563.09375"/>
     <use xlink:href="#DejaVuSans-76" x="624.275391"/>
     <use xlink:href="#DejaVuSans-65" x="683.455078"/>
     <use xlink:href="#DejaVuSans-72" x="744.978516"/>
     <use xlink:href="#DejaVuSans-20" x="786.091797"/>
     <use xlink:href="#DejaVuSans-35" x="817.878906"/>
     <use xlink:href="#DejaVuSans-20" x="881.501953"/>
     <use xlink:href="#DejaVuSans-72" x="913.289062"/>
     <use xlink:href="#DejaVuSans-75" x="954.402344"/>
     <use xlink:href="#DejaVuSans-6e" x="1017.78125"/>
     <use xlink:href="#DejaVuSans-73" x="1081.160156"/>
     <use xlink:href="#DejaVuSans-20" x="1133.259766"/>
     <use xlink:href="#DejaVuSans-77" x="1165.046875"/>
     <use xlink:href="#DejaVuSans-69" x="1246.833984"/>
     <use xlink:href="#DejaVuSans-74" x="1274.617188"/>
     <use xlink:href="#DejaVuSans-68" x="1313.826172"/>
     <use xlink:href="#DejaVuSans-20" x="1377.205078"/>
     <use xlink:href="#DejaVuSans-53" x="1408.992188"/>
     <use xlink:href="#DejaVuSans-53" x="1472.46875"/>
     <use xlink:href="#DejaVuSans-45" x="1535.945312"/>
     <use xlink:href="#DejaVuSans-20" x="1599.128906"/>
     <use xlink:href="#DejaVuSans-6c" x="1630.916016"/>
     <use xlink:href="#DejaVuSans-6f" x="1658.699219"/>
     <use xlink:href="#DejaVuSans-73" x="1719.880859"/>
     <use xlink:href="#DejaVuSans-73" x="1771.980469"/>
     <use xlink:href="#DejaVuSans-20" x="1824.080078"/>
     <use xlink:href="#DejaVuSans-66" x="1855.867188"/>
     <use xlink:href="#DejaVuSans-6f" x="1891.072266"/>
     <use xlink:href="#DejaVuSans-72" x="1952.253906"/>
     <use xlink:href="#DejaVuSans-20" x="1993.367188"/>
     <use xlink:href="#DejaVuSans-64" x="2025.154297"/>
     <use xlink:href="#DejaVuSans-69" x="2088.630859"/>
     <use xlink:href="#DejaVuSans-66" x="2116.414062"/>
     <use xlink:href="#DejaVuSans-66" x="2151.619141"/>
     <use xlink:href="#DejaVuSans-65" x="2186.824219"/>
     <use xlink:href="#DejaVuSans-72" x="2248.347656"/>
     <use xlink:href="#DejaVuSans-65" x="2287.210938"/>
     <use xlink:href="#DejaVuSans-6e" x="2348.734375"/>
     <use xlink:href="#DejaVuSans-74" x="2412.113281"/>
     <use xlink:href="#DejaVuSans-20" x="2451.322266"/>
     <use xlink:href="#DejaVuSans-4b" x="2483.109375"/>
    </g>
   </g>
   <g id="legend_1">
    <g id="patch_16">
     <path d="M 348.0575 181.575125 
L 407.72 181.575125 
Q 409.72 181.575125 409.72 179.575125 
L 409.72 48.472 
Q 409.72 46.472 407.72 46.472 
L 348.0575 46.472 
Q 346.0575 46.472 346.0575 48.472 
L 346.0575 179.575125 
Q 346.0575 181.575125 348.0575 181.575125 
z
" style="fill: #ffffff; opacity: 0.8; stroke: #cccccc; stroke-linejoin: miter"/>
    </g>
    <g id="line2d_68">
     <path d="M 350.0575 54.570438 
L 360.0575 54.570438 
L 370.0575 54.570438 
" style="fill: none; stroke: #f77189; stroke-width: 1.5; stroke-linecap: square"/>
    </g>
    <g id="text_23">
     <!-- K=2 -->
     <g transform="translate(378.0575 58.070438) scale(0.1 -0.1)">
      <use xlink:href="#DejaVuSans-4b"/>
      <use xlink:href="#DejaVuSans-3d" x="65.576172"/>
      <use xlink:href="#DejaVuSans-32" x="149.365234"/>
     </g>
    </g>
    <g id="line2d_69">
     <path d="M 350.0575 69.248563 
L 360.0575 69.248563 
L 370.0575 69.248563 
" style="fill: none; stroke: #d58c32; stroke-width: 1.5; stroke-linecap: square"/>
    </g>
    <g id="text_24">
     <!-- K=3 -->
     <g transform="translate(378.0575 72.748563) scale(0.1 -0.1)">
      <use xlink:href="#DejaVuSans-4b"/>
      <use xlink:href="#DejaVuSans-3d" x="65.576172"/>
      <use xlink:href="#DejaVuSans-33" x="149.365234"/>
     </g>
    </g>
    <g id="line2d_70">
     <path d="M 350.0575 83.926688 
L 360.0575 83.926688 
L 370.0575 83.926688 
" style="fill: none; stroke: #a4a031; stroke-width: 1.5; stroke-linecap: square"/>
    </g>
    <g id="text_25">
     <!-- K=4 -->
     <g transform="translate(378.0575 87.426688) scale(0.1 -0.1)">
      <use xlink:href="#DejaVuSans-4b"/>
      <use xlink:href="#DejaVuSans-3d" x="65.576172"/>
      <use xlink:href="#DejaVuSans-34" x="149.365234"/>
     </g>
    </g>
    <g id="line2d_71">
     <path d="M 350.0575 98.604813 
L 360.0575 98.604813 
L 370.0575 98.604813 
" style="fill: none; stroke: #50b131; stroke-width: 1.5; stroke-linecap: square"/>
    </g>
    <g id="text_26">
     <!-- K=5 -->
     <g transform="translate(378.0575 102.104813) scale(0.1 -0.1)">
      <use xlink:href="#DejaVuSans-4b"/>
      <use xlink:href="#DejaVuSans-3d" x="65.576172"/>
      <use xlink:href="#DejaVuSans-35" x="149.365234"/>
     </g>
    </g>
    <g id="line2d_72">
     <path d="M 350.0575 113.282938 
L 360.0575 113.282938 
L 370.0575 113.282938 
" style="fill: none; stroke: #34ae91; stroke-width: 1.5; stroke-linecap: square"/>
    </g>
    <g id="text_27">
     <!-- K=6 -->
     <g transform="translate(378.0575 116.782938) scale(0.1 -0.1)">
      <use xlink:href="#DejaVuSans-4b"/>
      <use xlink:href="#DejaVuSans-3d" x="65.576172"/>
      <use xlink:href="#DejaVuSans-36" x="149.365234"/>
     </g>
    </g>
    <g id="line2d_73">
     <path d="M 350.0575 127.961063 
L 360.0575 127.961063 
L 370.0575 127.961063 
" style="fill: none; stroke: #37abb5; stroke-width: 1.5; stroke-linecap: square"/>
    </g>
    <g id="text_28">
     <!-- K=7 -->
     <g transform="translate(378.0575 131.461063) scale(0.1 -0.1)">
      <use xlink:href="#DejaVuSans-4b"/>
      <use xlink:href="#DejaVuSans-3d" x="65.576172"/>
      <use xlink:href="#DejaVuSans-37" x="149.365234"/>
     </g>
    </g>
    <g id="line2d_74">
     <path d="M 350.0575 142.639188 
L 360.0575 142.639188 
L 370.0575 142.639188 
" style="fill: none; stroke: #3ba3ec; stroke-width: 1.5; stroke-linecap: square"/>
    </g>
    <g id="text_29">
     <!-- K=8 -->
     <g transform="translate(378.0575 146.139188) scale(0.1 -0.1)">
      <use xlink:href="#DejaVuSans-4b"/>
      <use xlink:href="#DejaVuSans-3d" x="65.576172"/>
      <use xlink:href="#DejaVuSans-38" x="149.365234"/>
     </g>
    </g>
    <g id="line2d_75">
     <path d="M 350.0575 157.317313 
L 360.0575 157.317313 
L 370.0575 157.317313 
" style="fill: none; stroke: #bb83f4; stroke-width: 1.5; stroke-linecap: square"/>
    </g>
    <g id="text_30">
     <!-- K=9 -->
     <g transform="translate(378.0575 160.817313) scale(0.1 -0.1)">
      <use xlink:href="#DejaVuSans-4b"/>
      <use xlink:href="#DejaVuSans-3d" x="65.576172"/>
      <use xlink:href="#DejaVuSans-39" x="149.365234"/>
     </g>
    </g>
    <g id="line2d_76">
     <path d="M 350.0575 171.995438 
L 360.0575 171.995438 
L 370.0575 171.995438 
" style="fill: none; stroke: #f564d4; stroke-width: 1.5; stroke-linecap: square"/>
    </g>
    <g id="text_31">
     <!-- K=10 -->
     <g transform="translate(378.0575 175.495438) scale(0.1 -0.1)">
      <use xlink:href="#DejaVuSans-4b"/>
      <use xlink:href="#DejaVuSans-3d" x="65.576172"/>
      <use xlink:href="#DejaVuSans-31" x="149.365234"/>
      <use xlink:href="#DejaVuSans-30" x="212.988281"/>
     </g>
    </g>
   </g>
  </g>
 </g>
 <defs>
  <clipPath id="pb4128965d2">
   <rect x="57.6" y="41.472" width="357.12" height="266.112"/>
  </clipPath>
 </defs>
</svg>
