<?xml version="1.0" encoding="utf-8" standalone="no"?>
<!DOCTYPE svg PUBLIC "-//W3C//DTD SVG 1.1//EN"
  "http://www.w3.org/Graphics/SVG/1.1/DTD/svg11.dtd">
<svg xmlns:xlink="http://www.w3.org/1999/xlink" width="432pt" height="360pt" viewBox="0 0 432 360" xmlns="http://www.w3.org/2000/svg" version="1.1">
 <metadata>
  <rdf:RDF xmlns:dc="http://purl.org/dc/elements/1.1/" xmlns:cc="http://creativecommons.org/ns#" xmlns:rdf="http://www.w3.org/1999/02/22-rdf-syntax-ns#">
   <cc:Work>
    <dc:type rdf:resource="http://purl.org/dc/dcmitype/StillImage"/>
    <dc:date>2024-06-21T12:23:26.332712</dc:date>
    <dc:format>image/svg+xml</dc:format>
    <dc:creator>
     <cc:Agent>
      <dc:title>Matplotlib v3.7.2, https://matplotlib.org/</dc:title>
     </cc:Agent>
    </dc:creator>
   </cc:Work>
  </rdf:RDF>
 </metadata>
 <defs>
  <style type="text/css">*{stroke-linejoin: round; stroke-linecap: butt}</style>
 </defs>
 <g id="figure_1">
  <g id="patch_1">
   <path d="M 0 360 
L 432 360 
L 432 0 
L 0 0 
z
" style="fill: #ffffff"/>
  </g>
  <g id="axes_1">
   <g id="patch_2">
    <path d="M 54 320.4 
L 388.8 320.4 
L 388.8 43.2 
L 54 43.2 
z
" style="fill: #ffffff"/>
   </g>
   <g id="matplotlib.axis_1">
    <g id="xtick_1">
     <g id="line2d_1">
      <defs>
       <path id="m6c4023ff23" d="M 0 0 
L 0 3.5 
" style="stroke: #000000; stroke-width: 0.8"/>
      </defs>
      <g>
       <use xlink:href="#m6c4023ff23" x="69.218182" y="320.4" style="stroke: #000000; stroke-width: 0.8"/>
      </g>
     </g>
     <g id="text_1">
      <!-- 0 -->
      <g transform="translate(66.036932 334.998438) scale(0.1 -0.1)">
       <defs>
        <path id="DejaVuSans-30" d="M 2034 4250 
Q 1547 4250 1301 3770 
Q 1056 3291 1056 2328 
Q 1056 1369 1301 889 
Q 1547 409 2034 409 
Q 2525 409 2770 889 
Q 3016 1369 3016 2328 
Q 3016 3291 2770 3770 
Q 2525 4250 2034 4250 
z
M 2034 4750 
Q 2819 4750 3233 4129 
Q 3647 3509 3647 2328 
Q 3647 1150 3233 529 
Q 2819 -91 2034 -91 
Q 1250 -91 836 529 
Q 422 1150 422 2328 
Q 422 3509 836 4129 
Q 1250 4750 2034 4750 
z
" transform="scale(0.015625)"/>
       </defs>
       <use xlink:href="#DejaVuSans-30"/>
      </g>
     </g>
    </g>
    <g id="xtick_2">
     <g id="line2d_2">
      <g>
       <use xlink:href="#m6c4023ff23" x="112.237777" y="320.4" style="stroke: #000000; stroke-width: 0.8"/>
      </g>
     </g>
     <g id="text_2">
      <!-- 200 -->
      <g transform="translate(102.694027 334.998438) scale(0.1 -0.1)">
       <defs>
        <path id="DejaVuSans-32" d="M 1228 531 
L 3431 531 
L 3431 0 
L 469 0 
L 469 531 
Q 828 903 1448 1529 
Q 2069 2156 2228 2338 
Q 2531 2678 2651 2914 
Q 2772 3150 2772 3378 
Q 2772 3750 2511 3984 
Q 2250 4219 1831 4219 
Q 1534 4219 1204 4116 
Q 875 4013 500 3803 
L 500 4441 
Q 881 4594 1212 4672 
Q 1544 4750 1819 4750 
Q 2544 4750 2975 4387 
Q 3406 4025 3406 3419 
Q 3406 3131 3298 2873 
Q 3191 2616 2906 2266 
Q 2828 2175 2409 1742 
Q 1991 1309 1228 531 
z
" transform="scale(0.015625)"/>
       </defs>
       <use xlink:href="#DejaVuSans-32"/>
       <use xlink:href="#DejaVuSans-30" x="63.623047"/>
       <use xlink:href="#DejaVuSans-30" x="127.246094"/>
      </g>
     </g>
    </g>
    <g id="xtick_3">
     <g id="line2d_3">
      <g>
       <use xlink:href="#m6c4023ff23" x="155.257372" y="320.4" style="stroke: #000000; stroke-width: 0.8"/>
      </g>
     </g>
     <g id="text_3">
      <!-- 400 -->
      <g transform="translate(145.713622 334.998438) scale(0.1 -0.1)">
       <defs>
        <path id="DejaVuSans-34" d="M 2419 4116 
L 825 1625 
L 2419 1625 
L 2419 4116 
z
M 2253 4666 
L 3047 4666 
L 3047 1625 
L 3713 1625 
L 3713 1100 
L 3047 1100 
L 3047 0 
L 2419 0 
L 2419 1100 
L 313 1100 
L 313 1709 
L 2253 4666 
z
" transform="scale(0.015625)"/>
       </defs>
       <use xlink:href="#DejaVuSans-34"/>
       <use xlink:href="#DejaVuSans-30" x="63.623047"/>
       <use xlink:href="#DejaVuSans-30" x="127.246094"/>
      </g>
     </g>
    </g>
    <g id="xtick_4">
     <g id="line2d_4">
      <g>
       <use xlink:href="#m6c4023ff23" x="198.276968" y="320.4" style="stroke: #000000; stroke-width: 0.8"/>
      </g>
     </g>
     <g id="text_4">
      <!-- 600 -->
      <g transform="translate(188.733218 334.998438) scale(0.1 -0.1)">
       <defs>
        <path id="DejaVuSans-36" d="M 2113 2584 
Q 1688 2584 1439 2293 
Q 1191 2003 1191 1497 
Q 1191 994 1439 701 
Q 1688 409 2113 409 
Q 2538 409 2786 701 
Q 3034 994 3034 1497 
Q 3034 2003 2786 2293 
Q 2538 2584 2113 2584 
z
M 3366 4563 
L 3366 3988 
Q 3128 4100 2886 4159 
Q 2644 4219 2406 4219 
Q 1781 4219 1451 3797 
Q 1122 3375 1075 2522 
Q 1259 2794 1537 2939 
Q 1816 3084 2150 3084 
Q 2853 3084 3261 2657 
Q 3669 2231 3669 1497 
Q 3669 778 3244 343 
Q 2819 -91 2113 -91 
Q 1303 -91 875 529 
Q 447 1150 447 2328 
Q 447 3434 972 4092 
Q 1497 4750 2381 4750 
Q 2619 4750 2861 4703 
Q 3103 4656 3366 4563 
z
" transform="scale(0.015625)"/>
       </defs>
       <use xlink:href="#DejaVuSans-36"/>
       <use xlink:href="#DejaVuSans-30" x="63.623047"/>
       <use xlink:href="#DejaVuSans-30" x="127.246094"/>
      </g>
     </g>
    </g>
    <g id="xtick_5">
     <g id="line2d_5">
      <g>
       <use xlink:href="#m6c4023ff23" x="241.296563" y="320.4" style="stroke: #000000; stroke-width: 0.8"/>
      </g>
     </g>
     <g id="text_5">
      <!-- 800 -->
      <g transform="translate(231.752813 334.998438) scale(0.1 -0.1)">
       <defs>
        <path id="DejaVuSans-38" d="M 2034 2216 
Q 1584 2216 1326 1975 
Q 1069 1734 1069 1313 
Q 1069 891 1326 650 
Q 1584 409 2034 409 
Q 2484 409 2743 651 
Q 3003 894 3003 1313 
Q 3003 1734 2745 1975 
Q 2488 2216 2034 2216 
z
M 1403 2484 
Q 997 2584 770 2862 
Q 544 3141 544 3541 
Q 544 4100 942 4425 
Q 1341 4750 2034 4750 
Q 2731 4750 3128 4425 
Q 3525 4100 3525 3541 
Q 3525 3141 3298 2862 
Q 3072 2584 2669 2484 
Q 3125 2378 3379 2068 
Q 3634 1759 3634 1313 
Q 3634 634 3220 271 
Q 2806 -91 2034 -91 
Q 1263 -91 848 271 
Q 434 634 434 1313 
Q 434 1759 690 2068 
Q 947 2378 1403 2484 
z
M 1172 3481 
Q 1172 3119 1398 2916 
Q 1625 2713 2034 2713 
Q 2441 2713 2670 2916 
Q 2900 3119 2900 3481 
Q 2900 3844 2670 4047 
Q 2441 4250 2034 4250 
Q 1625 4250 1398 4047 
Q 1172 3844 1172 3481 
z
" transform="scale(0.015625)"/>
       </defs>
       <use xlink:href="#DejaVuSans-38"/>
       <use xlink:href="#DejaVuSans-30" x="63.623047"/>
       <use xlink:href="#DejaVuSans-30" x="127.246094"/>
      </g>
     </g>
    </g>
    <g id="xtick_6">
     <g id="line2d_6">
      <g>
       <use xlink:href="#m6c4023ff23" x="284.316158" y="320.4" style="stroke: #000000; stroke-width: 0.8"/>
      </g>
     </g>
     <g id="text_6">
      <!-- 1000 -->
      <g transform="translate(271.591158 334.998438) scale(0.1 -0.1)">
       <defs>
        <path id="DejaVuSans-31" d="M 794 531 
L 1825 531 
L 1825 4091 
L 703 3866 
L 703 4441 
L 1819 4666 
L 2450 4666 
L 2450 531 
L 3481 531 
L 3481 0 
L 794 0 
L 794 531 
z
" transform="scale(0.015625)"/>
       </defs>
       <use xlink:href="#DejaVuSans-31"/>
       <use xlink:href="#DejaVuSans-30" x="63.623047"/>
       <use xlink:href="#DejaVuSans-30" x="127.246094"/>
       <use xlink:href="#DejaVuSans-30" x="190.869141"/>
      </g>
     </g>
    </g>
    <g id="xtick_7">
     <g id="line2d_7">
      <g>
       <use xlink:href="#m6c4023ff23" x="327.335753" y="320.4" style="stroke: #000000; stroke-width: 0.8"/>
      </g>
     </g>
     <g id="text_7">
      <!-- 1200 -->
      <g transform="translate(314.610753 334.998438) scale(0.1 -0.1)">
       <use xlink:href="#DejaVuSans-31"/>
       <use xlink:href="#DejaVuSans-32" x="63.623047"/>
       <use xlink:href="#DejaVuSans-30" x="127.246094"/>
       <use xlink:href="#DejaVuSans-30" x="190.869141"/>
      </g>
     </g>
    </g>
    <g id="xtick_8">
     <g id="line2d_8">
      <g>
       <use xlink:href="#m6c4023ff23" x="370.355349" y="320.4" style="stroke: #000000; stroke-width: 0.8"/>
      </g>
     </g>
     <g id="text_8">
      <!-- 1400 -->
      <g transform="translate(357.630349 334.998438) scale(0.1 -0.1)">
       <use xlink:href="#DejaVuSans-31"/>
       <use xlink:href="#DejaVuSans-34" x="63.623047"/>
       <use xlink:href="#DejaVuSans-30" x="127.246094"/>
       <use xlink:href="#DejaVuSans-30" x="190.869141"/>
      </g>
     </g>
    </g>
    <g id="text_9">
     <!-- Iterations -->
     <g transform="translate(197.586719 348.676562) scale(0.1 -0.1)">
      <defs>
       <path id="DejaVuSans-49" d="M 628 4666 
L 1259 4666 
L 1259 0 
L 628 0 
L 628 4666 
z
" transform="scale(0.015625)"/>
       <path id="DejaVuSans-74" d="M 1172 4494 
L 1172 3500 
L 2356 3500 
L 2356 3053 
L 1172 3053 
L 1172 1153 
Q 1172 725 1289 603 
Q 1406 481 1766 481 
L 2356 481 
L 2356 0 
L 1766 0 
Q 1100 0 847 248 
Q 594 497 594 1153 
L 594 3053 
L 172 3053 
L 172 3500 
L 594 3500 
L 594 4494 
L 1172 4494 
z
" transform="scale(0.015625)"/>
       <path id="DejaVuSans-65" d="M 3597 1894 
L 3597 1613 
L 953 1613 
Q 991 1019 1311 708 
Q 1631 397 2203 397 
Q 2534 397 2845 478 
Q 3156 559 3463 722 
L 3463 178 
Q 3153 47 2828 -22 
Q 2503 -91 2169 -91 
Q 1331 -91 842 396 
Q 353 884 353 1716 
Q 353 2575 817 3079 
Q 1281 3584 2069 3584 
Q 2775 3584 3186 3129 
Q 3597 2675 3597 1894 
z
M 3022 2063 
Q 3016 2534 2758 2815 
Q 2500 3097 2075 3097 
Q 1594 3097 1305 2825 
Q 1016 2553 972 2059 
L 3022 2063 
z
" transform="scale(0.015625)"/>
       <path id="DejaVuSans-72" d="M 2631 2963 
Q 2534 3019 2420 3045 
Q 2306 3072 2169 3072 
Q 1681 3072 1420 2755 
Q 1159 2438 1159 1844 
L 1159 0 
L 581 0 
L 581 3500 
L 1159 3500 
L 1159 2956 
Q 1341 3275 1631 3429 
Q 1922 3584 2338 3584 
Q 2397 3584 2469 3576 
Q 2541 3569 2628 3553 
L 2631 2963 
z
" transform="scale(0.015625)"/>
       <path id="DejaVuSans-61" d="M 2194 1759 
Q 1497 1759 1228 1600 
Q 959 1441 959 1056 
Q 959 750 1161 570 
Q 1363 391 1709 391 
Q 2188 391 2477 730 
Q 2766 1069 2766 1631 
L 2766 1759 
L 2194 1759 
z
M 3341 1997 
L 3341 0 
L 2766 0 
L 2766 531 
Q 2569 213 2275 61 
Q 1981 -91 1556 -91 
Q 1019 -91 701 211 
Q 384 513 384 1019 
Q 384 1609 779 1909 
Q 1175 2209 1959 2209 
L 2766 2209 
L 2766 2266 
Q 2766 2663 2505 2880 
Q 2244 3097 1772 3097 
Q 1472 3097 1187 3025 
Q 903 2953 641 2809 
L 641 3341 
Q 956 3463 1253 3523 
Q 1550 3584 1831 3584 
Q 2591 3584 2966 3190 
Q 3341 2797 3341 1997 
z
" transform="scale(0.015625)"/>
       <path id="DejaVuSans-69" d="M 603 3500 
L 1178 3500 
L 1178 0 
L 603 0 
L 603 3500 
z
M 603 4863 
L 1178 4863 
L 1178 4134 
L 603 4134 
L 603 4863 
z
" transform="scale(0.015625)"/>
       <path id="DejaVuSans-6f" d="M 1959 3097 
Q 1497 3097 1228 2736 
Q 959 2375 959 1747 
Q 959 1119 1226 758 
Q 1494 397 1959 397 
Q 2419 397 2687 759 
Q 2956 1122 2956 1747 
Q 2956 2369 2687 2733 
Q 2419 3097 1959 3097 
z
M 1959 3584 
Q 2709 3584 3137 3096 
Q 3566 2609 3566 1747 
Q 3566 888 3137 398 
Q 2709 -91 1959 -91 
Q 1206 -91 779 398 
Q 353 888 353 1747 
Q 353 2609 779 3096 
Q 1206 3584 1959 3584 
z
" transform="scale(0.015625)"/>
       <path id="DejaVuSans-6e" d="M 3513 2113 
L 3513 0 
L 2938 0 
L 2938 2094 
Q 2938 2591 2744 2837 
Q 2550 3084 2163 3084 
Q 1697 3084 1428 2787 
Q 1159 2491 1159 1978 
L 1159 0 
L 581 0 
L 581 3500 
L 1159 3500 
L 1159 2956 
Q 1366 3272 1645 3428 
Q 1925 3584 2291 3584 
Q 2894 3584 3203 3211 
Q 3513 2838 3513 2113 
z
" transform="scale(0.015625)"/>
       <path id="DejaVuSans-73" d="M 2834 3397 
L 2834 2853 
Q 2591 2978 2328 3040 
Q 2066 3103 1784 3103 
Q 1356 3103 1142 2972 
Q 928 2841 928 2578 
Q 928 2378 1081 2264 
Q 1234 2150 1697 2047 
L 1894 2003 
Q 2506 1872 2764 1633 
Q 3022 1394 3022 966 
Q 3022 478 2636 193 
Q 2250 -91 1575 -91 
Q 1294 -91 989 -36 
Q 684 19 347 128 
L 347 722 
Q 666 556 975 473 
Q 1284 391 1588 391 
Q 1994 391 2212 530 
Q 2431 669 2431 922 
Q 2431 1156 2273 1281 
Q 2116 1406 1581 1522 
L 1381 1569 
Q 847 1681 609 1914 
Q 372 2147 372 2553 
Q 372 3047 722 3315 
Q 1072 3584 1716 3584 
Q 2034 3584 2315 3537 
Q 2597 3491 2834 3397 
z
" transform="scale(0.015625)"/>
      </defs>
      <use xlink:href="#DejaVuSans-49"/>
      <use xlink:href="#DejaVuSans-74" x="29.492188"/>
      <use xlink:href="#DejaVuSans-65" x="68.701172"/>
      <use xlink:href="#DejaVuSans-72" x="130.224609"/>
      <use xlink:href="#DejaVuSans-61" x="171.337891"/>
      <use xlink:href="#DejaVuSans-74" x="232.617188"/>
      <use xlink:href="#DejaVuSans-69" x="271.826172"/>
      <use xlink:href="#DejaVuSans-6f" x="299.609375"/>
      <use xlink:href="#DejaVuSans-6e" x="360.791016"/>
      <use xlink:href="#DejaVuSans-73" x="424.169922"/>
     </g>
    </g>
   </g>
   <g id="matplotlib.axis_2">
    <g id="ytick_1">
     <g id="line2d_9">
      <defs>
       <path id="m8143f9b414" d="M 0 0 
L -3.5 0 
" style="stroke: #000000; stroke-width: 0.8"/>
      </defs>
      <g>
       <use xlink:href="#m8143f9b414" x="54" y="296.457525" style="stroke: #000000; stroke-width: 0.8"/>
      </g>
     </g>
     <g id="text_10">
      <!-- $\mathdefault{10^{2}}$ -->
      <g transform="translate(29.4 300.256744) scale(0.1 -0.1)">
       <use xlink:href="#DejaVuSans-31" transform="translate(0 0.765625)"/>
       <use xlink:href="#DejaVuSans-30" transform="translate(63.623047 0.765625)"/>
       <use xlink:href="#DejaVuSans-32" transform="translate(128.203125 39.046875) scale(0.7)"/>
      </g>
     </g>
    </g>
    <g id="ytick_2">
     <g id="line2d_10">
      <g>
       <use xlink:href="#m8143f9b414" x="54" y="151.68703" style="stroke: #000000; stroke-width: 0.8"/>
      </g>
     </g>
     <g id="text_11">
      <!-- $\mathdefault{10^{3}}$ -->
      <g transform="translate(29.4 155.486249) scale(0.1 -0.1)">
       <defs>
        <path id="DejaVuSans-33" d="M 2597 2516 
Q 3050 2419 3304 2112 
Q 3559 1806 3559 1356 
Q 3559 666 3084 287 
Q 2609 -91 1734 -91 
Q 1441 -91 1130 -33 
Q 819 25 488 141 
L 488 750 
Q 750 597 1062 519 
Q 1375 441 1716 441 
Q 2309 441 2620 675 
Q 2931 909 2931 1356 
Q 2931 1769 2642 2001 
Q 2353 2234 1838 2234 
L 1294 2234 
L 1294 2753 
L 1863 2753 
Q 2328 2753 2575 2939 
Q 2822 3125 2822 3475 
Q 2822 3834 2567 4026 
Q 2313 4219 1838 4219 
Q 1578 4219 1281 4162 
Q 984 4106 628 3988 
L 628 4550 
Q 988 4650 1302 4700 
Q 1616 4750 1894 4750 
Q 2613 4750 3031 4423 
Q 3450 4097 3450 3541 
Q 3450 3153 3228 2886 
Q 3006 2619 2597 2516 
z
" transform="scale(0.015625)"/>
       </defs>
       <use xlink:href="#DejaVuSans-31" transform="translate(0 0.765625)"/>
       <use xlink:href="#DejaVuSans-30" transform="translate(63.623047 0.765625)"/>
       <use xlink:href="#DejaVuSans-33" transform="translate(128.203125 39.046875) scale(0.7)"/>
      </g>
     </g>
    </g>
    <g id="ytick_3">
     <g id="line2d_11">
      <defs>
       <path id="m5ba48ec232" d="M 0 0 
L -2 0 
" style="stroke: #000000; stroke-width: 0.6"/>
      </defs>
      <g>
       <use xlink:href="#m5ba48ec232" x="54" y="318.882759" style="stroke: #000000; stroke-width: 0.6"/>
      </g>
     </g>
    </g>
    <g id="ytick_4">
     <g id="line2d_12">
      <g>
       <use xlink:href="#m5ba48ec232" x="54" y="310.487236" style="stroke: #000000; stroke-width: 0.6"/>
      </g>
     </g>
    </g>
    <g id="ytick_5">
     <g id="line2d_13">
      <g>
       <use xlink:href="#m5ba48ec232" x="54" y="303.08186" style="stroke: #000000; stroke-width: 0.6"/>
      </g>
     </g>
    </g>
    <g id="ytick_6">
     <g id="line2d_14">
      <g>
       <use xlink:href="#m5ba48ec232" x="54" y="252.877264" style="stroke: #000000; stroke-width: 0.6"/>
      </g>
     </g>
    </g>
    <g id="ytick_7">
     <g id="line2d_15">
      <g>
       <use xlink:href="#m5ba48ec232" x="54" y="227.384445" style="stroke: #000000; stroke-width: 0.6"/>
      </g>
     </g>
    </g>
    <g id="ytick_8">
     <g id="line2d_16">
      <g>
       <use xlink:href="#m5ba48ec232" x="54" y="209.297002" style="stroke: #000000; stroke-width: 0.6"/>
      </g>
     </g>
    </g>
    <g id="ytick_9">
     <g id="line2d_17">
      <g>
       <use xlink:href="#m5ba48ec232" x="54" y="195.267291" style="stroke: #000000; stroke-width: 0.6"/>
      </g>
     </g>
    </g>
    <g id="ytick_10">
     <g id="line2d_18">
      <g>
       <use xlink:href="#m5ba48ec232" x="54" y="183.804183" style="stroke: #000000; stroke-width: 0.6"/>
      </g>
     </g>
    </g>
    <g id="ytick_11">
     <g id="line2d_19">
      <g>
       <use xlink:href="#m5ba48ec232" x="54" y="174.112263" style="stroke: #000000; stroke-width: 0.6"/>
      </g>
     </g>
    </g>
    <g id="ytick_12">
     <g id="line2d_20">
      <g>
       <use xlink:href="#m5ba48ec232" x="54" y="165.71674" style="stroke: #000000; stroke-width: 0.6"/>
      </g>
     </g>
    </g>
    <g id="ytick_13">
     <g id="line2d_21">
      <g>
       <use xlink:href="#m5ba48ec232" x="54" y="158.311364" style="stroke: #000000; stroke-width: 0.6"/>
      </g>
     </g>
    </g>
    <g id="ytick_14">
     <g id="line2d_22">
      <g>
       <use xlink:href="#m5ba48ec232" x="54" y="108.106768" style="stroke: #000000; stroke-width: 0.6"/>
      </g>
     </g>
    </g>
    <g id="ytick_15">
     <g id="line2d_23">
      <g>
       <use xlink:href="#m5ba48ec232" x="54" y="82.613949" style="stroke: #000000; stroke-width: 0.6"/>
      </g>
     </g>
    </g>
    <g id="ytick_16">
     <g id="line2d_24">
      <g>
       <use xlink:href="#m5ba48ec232" x="54" y="64.526507" style="stroke: #000000; stroke-width: 0.6"/>
      </g>
     </g>
    </g>
    <g id="ytick_17">
     <g id="line2d_25">
      <g>
       <use xlink:href="#m5ba48ec232" x="54" y="50.496796" style="stroke: #000000; stroke-width: 0.6"/>
      </g>
     </g>
    </g>
    <g id="text_12">
     <!-- Loss (log scale) -->
     <g transform="translate(23.320312 220.353125) rotate(-90) scale(0.1 -0.1)">
      <defs>
       <path id="DejaVuSans-4c" d="M 628 4666 
L 1259 4666 
L 1259 531 
L 3531 531 
L 3531 0 
L 628 0 
L 628 4666 
z
" transform="scale(0.015625)"/>
       <path id="DejaVuSans-20" transform="scale(0.015625)"/>
       <path id="DejaVuSans-28" d="M 1984 4856 
Q 1566 4138 1362 3434 
Q 1159 2731 1159 2009 
Q 1159 1288 1364 580 
Q 1569 -128 1984 -844 
L 1484 -844 
Q 1016 -109 783 600 
Q 550 1309 550 2009 
Q 550 2706 781 3412 
Q 1013 4119 1484 4856 
L 1984 4856 
z
" transform="scale(0.015625)"/>
       <path id="DejaVuSans-6c" d="M 603 4863 
L 1178 4863 
L 1178 0 
L 603 0 
L 603 4863 
z
" transform="scale(0.015625)"/>
       <path id="DejaVuSans-67" d="M 2906 1791 
Q 2906 2416 2648 2759 
Q 2391 3103 1925 3103 
Q 1463 3103 1205 2759 
Q 947 2416 947 1791 
Q 947 1169 1205 825 
Q 1463 481 1925 481 
Q 2391 481 2648 825 
Q 2906 1169 2906 1791 
z
M 3481 434 
Q 3481 -459 3084 -895 
Q 2688 -1331 1869 -1331 
Q 1566 -1331 1297 -1286 
Q 1028 -1241 775 -1147 
L 775 -588 
Q 1028 -725 1275 -790 
Q 1522 -856 1778 -856 
Q 2344 -856 2625 -561 
Q 2906 -266 2906 331 
L 2906 616 
Q 2728 306 2450 153 
Q 2172 0 1784 0 
Q 1141 0 747 490 
Q 353 981 353 1791 
Q 353 2603 747 3093 
Q 1141 3584 1784 3584 
Q 2172 3584 2450 3431 
Q 2728 3278 2906 2969 
L 2906 3500 
L 3481 3500 
L 3481 434 
z
" transform="scale(0.015625)"/>
       <path id="DejaVuSans-63" d="M 3122 3366 
L 3122 2828 
Q 2878 2963 2633 3030 
Q 2388 3097 2138 3097 
Q 1578 3097 1268 2742 
Q 959 2388 959 1747 
Q 959 1106 1268 751 
Q 1578 397 2138 397 
Q 2388 397 2633 464 
Q 2878 531 3122 666 
L 3122 134 
Q 2881 22 2623 -34 
Q 2366 -91 2075 -91 
Q 1284 -91 818 406 
Q 353 903 353 1747 
Q 353 2603 823 3093 
Q 1294 3584 2113 3584 
Q 2378 3584 2631 3529 
Q 2884 3475 3122 3366 
z
" transform="scale(0.015625)"/>
       <path id="DejaVuSans-29" d="M 513 4856 
L 1013 4856 
Q 1481 4119 1714 3412 
Q 1947 2706 1947 2009 
Q 1947 1309 1714 600 
Q 1481 -109 1013 -844 
L 513 -844 
Q 928 -128 1133 580 
Q 1338 1288 1338 2009 
Q 1338 2731 1133 3434 
Q 928 4138 513 4856 
z
" transform="scale(0.015625)"/>
      </defs>
      <use xlink:href="#DejaVuSans-4c"/>
      <use xlink:href="#DejaVuSans-6f" x="53.962891"/>
      <use xlink:href="#DejaVuSans-73" x="115.144531"/>
      <use xlink:href="#DejaVuSans-73" x="167.244141"/>
      <use xlink:href="#DejaVuSans-20" x="219.34375"/>
      <use xlink:href="#DejaVuSans-28" x="251.130859"/>
      <use xlink:href="#DejaVuSans-6c" x="290.144531"/>
      <use xlink:href="#DejaVuSans-6f" x="317.927734"/>
      <use xlink:href="#DejaVuSans-67" x="379.109375"/>
      <use xlink:href="#DejaVuSans-20" x="442.585938"/>
      <use xlink:href="#DejaVuSans-73" x="474.373047"/>
      <use xlink:href="#DejaVuSans-63" x="526.472656"/>
      <use xlink:href="#DejaVuSans-61" x="581.453125"/>
      <use xlink:href="#DejaVuSans-6c" x="642.732422"/>
      <use xlink:href="#DejaVuSans-65" x="670.515625"/>
      <use xlink:href="#DejaVuSans-29" x="732.039062"/>
     </g>
    </g>
   </g>
   <g id="line2d_26">
    <path d="M 69.218182 55.80026 
L 69.648378 58.627265 
L 70.50877 62.008305 
L 70.938966 65.301886 
L 71.58426 72.653872 
L 72.874847 88.184948 
L 73.520141 93.229501 
L 74.165435 96.418611 
L 74.810729 98.405116 
L 75.671121 100.126237 
L 76.531513 101.368754 
L 77.607003 102.520143 
L 79.112689 103.746009 
L 80.403277 104.508196 
L 82.12406 105.273334 
L 84.490138 106.021183 
L 87.716608 106.697614 
L 91.158175 107.140706 
L 96.105429 107.547082 
L 103.41876 107.88364 
L 112.022679 108.091597 
L 130.090909 108.325 
L 163.861291 108.471602 
L 188.597559 108.518705 
L 188.597559 108.518705 
" clip-path="url(#pfed92f78e0)" style="fill: none; stroke: #f77189; stroke-width: 1.5; stroke-linecap: square"/>
   </g>
   <g id="line2d_27">
    <path d="M 69.218182 55.800263 
L 69.648378 58.625212 
L 70.723868 62.775619 
L 71.154064 66.273712 
L 72.014456 76.233189 
L 72.874847 86.084516 
L 73.520141 91.468249 
L 74.165435 95.072129 
L 74.810729 97.379644 
L 75.456023 98.901898 
L 76.316415 100.347888 
L 77.391905 101.74423 
L 78.682493 102.985211 
L 79.973081 103.936318 
L 81.263668 104.639313 
L 83.19955 105.434652 
L 85.780726 106.187902 
L 88.577 106.737714 
L 92.233665 107.184261 
L 97.611115 107.595073 
L 104.279152 107.887114 
L 114.818953 108.130804 
L 132.672085 108.336036 
L 171.389721 108.485479 
L 223.658529 108.550526 
L 223.658529 108.550526 
" clip-path="url(#pfed92f78e0)" style="fill: none; stroke: #f77189; stroke-width: 1.5; stroke-linecap: square"/>
   </g>
   <g id="line2d_28">
    <path d="M 69.218182 55.800267 
L 69.648378 58.607407 
L 70.078574 59.827561 
L 70.50877 61.134122 
L 70.938966 63.783454 
L 71.369162 67.972632 
L 73.520141 92.481257 
L 74.165435 96.114106 
L 74.810729 98.31867 
L 75.456023 99.73858 
L 76.316415 101.077851 
L 77.391905 102.310427 
L 78.682493 103.425572 
L 80.188179 104.402431 
L 81.693864 105.089272 
L 83.629746 105.778077 
L 85.995824 106.367671 
L 88.792098 106.852882 
L 92.663861 107.277623 
L 98.686605 107.686889 
L 106.860328 107.981408 
L 123.207774 108.256286 
L 147.944041 108.421674 
L 212.473434 108.542952 
L 219.571667 108.547691 
L 219.571667 108.547691 
" clip-path="url(#pfed92f78e0)" style="fill: none; stroke: #f77189; stroke-width: 1.5; stroke-linecap: square"/>
   </g>
   <g id="line2d_29">
    <path d="M 69.218182 55.800435 
L 69.648378 58.621884 
L 70.50877 61.884887 
L 70.938966 65.129316 
L 71.58426 72.491196 
L 72.874847 88.226338 
L 73.520141 93.365148 
L 74.165435 96.608365 
L 74.810729 98.602473 
L 75.456023 99.936719 
L 76.316415 101.242422 
L 77.391905 102.429886 
L 78.682493 103.53666 
L 80.188179 104.486178 
L 81.908962 105.254533 
L 84.059942 105.954878 
L 87.071314 106.61808 
L 90.297783 107.068626 
L 95.245037 107.501252 
L 101.482878 107.822875 
L 112.452875 108.104223 
L 133.102281 108.34777 
L 172.680308 108.492376 
L 206.235593 108.538733 
L 206.235593 108.538733 
" clip-path="url(#pfed92f78e0)" style="fill: none; stroke: #f77189; stroke-width: 1.5; stroke-linecap: square"/>
   </g>
   <g id="line2d_30">
    <path d="M 69.218182 55.800316 
L 69.648378 58.607918 
L 70.078574 59.814808 
L 70.50877 61.094202 
L 70.938966 63.712308 
L 71.369162 67.874551 
L 73.520141 92.562281 
L 74.165435 96.210756 
L 74.810729 98.420791 
L 75.456023 99.839833 
L 76.316415 101.156025 
L 77.391905 102.384372 
L 78.467395 103.317486 
L 79.973081 104.330933 
L 81.478766 105.040571 
L 83.19955 105.679199 
L 85.35053 106.247681 
L 88.361902 106.799715 
L 92.018567 107.22798 
L 97.826213 107.64864 
L 105.139544 107.938602 
L 118.045422 108.193735 
L 136.543848 108.367158 
L 175.261484 108.495435 
L 209.67716 108.540455 
L 209.67716 108.540455 
" clip-path="url(#pfed92f78e0)" style="fill: none; stroke: #f77189; stroke-width: 1.5; stroke-linecap: square"/>
   </g>
   <g id="line2d_31">
    <path d="M 69.218182 55.800429 
L 69.648378 58.612795 
L 70.078574 59.80028 
L 70.50877 60.814396 
L 70.938966 62.865374 
L 71.369162 66.341415 
L 72.014456 73.82436 
L 73.520141 92.688732 
L 74.380533 100.196761 
L 75.240925 105.506444 
L 76.101317 109.277912 
L 76.961709 112.024687 
L 78.037199 114.611233 
L 79.542885 117.540791 
L 81.048571 120.037185 
L 82.984452 122.777467 
L 84.705236 124.905267 
L 86.641118 126.90721 
L 89.222294 129.18808 
L 91.373273 130.730325 
L 93.524253 131.952224 
L 96.105429 133.105752 
L 98.041311 133.76776 
L 102.558368 134.951729 
L 107.72072 135.891547 
L 125.573852 138.139383 
L 133.532477 138.91192 
L 142.351494 139.358449 
L 157.62345 139.599351 
L 179.563444 139.701026 
L 179.563444 139.701026 
" clip-path="url(#pfed92f78e0)" style="fill: none; stroke: #d58c32; stroke-width: 1.5; stroke-linecap: square"/>
   </g>
   <g id="line2d_32">
    <path d="M 69.218182 55.800441 
L 69.648378 58.621999 
L 70.50877 61.588353 
L 70.938966 64.544671 
L 71.369162 69.092745 
L 72.229553 81.664808 
L 73.305043 97.298421 
L 73.950337 104.232247 
L 74.595631 109.29284 
L 75.240925 112.890024 
L 75.886219 115.488312 
L 76.746611 117.999955 
L 77.822101 120.403671 
L 78.897591 122.377723 
L 80.188179 124.225398 
L 81.478766 125.69799 
L 83.19955 127.224049 
L 84.705236 128.331883 
L 87.071314 129.719542 
L 89.65249 130.916001 
L 91.588371 131.664182 
L 94.169547 132.530636 
L 96.535625 133.177294 
L 99.546996 133.793406 
L 104.49425 134.528623 
L 111.377385 135.328003 
L 133.962673 137.297023 
L 144.287376 138.303187 
L 149.879923 138.827577 
L 154.827176 139.11086 
L 165.151879 139.329566 
L 184.080501 139.465506 
L 184.295599 139.465559 
L 184.295599 139.465559 
" clip-path="url(#pfed92f78e0)" style="fill: none; stroke: #d58c32; stroke-width: 1.5; stroke-linecap: square"/>
   </g>
   <g id="line2d_33">
    <path d="M 69.218182 55.800369 
L 69.648378 58.612844 
L 70.078574 59.830556 
L 70.50877 60.941406 
L 70.938966 63.100181 
L 71.369162 66.565566 
L 72.229553 76.000066 
L 73.089945 85.144974 
L 73.735239 90.289681 
L 74.380533 93.935345 
L 75.025827 96.459198 
L 75.886219 98.848023 
L 77.607003 103.282117 
L 80.188179 110.458356 
L 81.478766 113.252099 
L 83.19955 116.442802 
L 84.705236 118.861162 
L 86.641118 121.492388 
L 88.792098 123.830141 
L 91.158175 126.010638 
L 93.524253 127.869754 
L 95.675233 129.347123 
L 98.901703 131.145349 
L 101.482878 132.189766 
L 103.848956 132.978705 
L 106.64523 133.743983 
L 109.871699 134.415513 
L 113.313267 134.937031 
L 117.830324 135.405888 
L 124.498362 135.926106 
L 132.672085 136.188267 
L 144.717571 136.358125 
L 163.215997 136.469369 
L 163.215997 136.469369 
" clip-path="url(#pfed92f78e0)" style="fill: none; stroke: #d58c32; stroke-width: 1.5; stroke-linecap: square"/>
   </g>
   <g id="line2d_34">
    <path d="M 69.218182 55.8005 
L 69.648378 58.604352 
L 70.078574 59.748249 
L 70.50877 60.759881 
L 70.938966 62.930653 
L 71.369162 66.568963 
L 72.229553 76.73269 
L 73.089945 86.634514 
L 73.735239 92.095961 
L 74.380533 95.851288 
L 75.240925 99.301269 
L 78.252297 109.462925 
L 79.327787 112.360495 
L 80.618375 115.208821 
L 82.12406 117.99302 
L 83.629746 120.406771 
L 85.780726 123.178459 
L 87.716608 125.39838 
L 90.082686 127.611848 
L 92.233665 129.271139 
L 94.169547 130.535005 
L 95.890331 131.440899 
L 98.901703 132.695451 
L 101.482878 133.528545 
L 105.354642 134.559873 
L 108.796209 135.262103 
L 113.313267 135.980727 
L 118.26052 136.615923 
L 127.724831 137.523696 
L 135.468358 138.004864 
L 143.85718 138.292923 
L 155.257372 138.463611 
L 170.529329 138.56282 
L 170.529329 138.56282 
" clip-path="url(#pfed92f78e0)" style="fill: none; stroke: #d58c32; stroke-width: 1.5; stroke-linecap: square"/>
   </g>
   <g id="line2d_35">
    <path d="M 69.218182 55.800482 
L 69.648378 58.610232 
L 70.078574 59.812295 
L 70.50877 60.945848 
L 70.938966 63.215563 
L 71.369162 66.904521 
L 72.229553 77.150962 
L 73.305043 89.54419 
L 73.950337 94.945061 
L 74.595631 98.936866 
L 75.456023 102.823465 
L 76.316415 105.737092 
L 77.176807 107.931111 
L 78.682493 110.961989 
L 81.263668 115.60587 
L 83.19955 118.719191 
L 85.565628 122.087886 
L 87.286412 124.159778 
L 89.437392 126.364574 
L 91.588371 128.226791 
L 93.739351 129.806283 
L 96.320527 131.358278 
L 98.256409 132.31668 
L 100.407388 133.151522 
L 103.633858 134.203707 
L 106.64523 134.92583 
L 111.592483 135.847432 
L 117.830324 136.766953 
L 130.736203 138.304013 
L 139.770318 138.91233 
L 145.577963 139.077386 
L 159.344234 139.24186 
L 159.77443 139.242108 
L 159.77443 139.242108 
" clip-path="url(#pfed92f78e0)" style="fill: none; stroke: #d58c32; stroke-width: 1.5; stroke-linecap: square"/>
   </g>
   <g id="line2d_36">
    <path d="M 69.218182 55.800329 
L 69.648378 58.615603 
L 70.078574 59.857464 
L 70.50877 61.100924 
L 70.938966 63.511695 
L 71.369162 67.512027 
L 72.014456 76.424382 
L 73.735239 103.393786 
L 74.380533 110.010344 
L 75.240925 116.334536 
L 76.531513 123.651688 
L 77.607003 128.659991 
L 78.682493 132.686207 
L 79.757983 135.930535 
L 81.048571 139.245059 
L 82.339158 141.881199 
L 83.844844 144.484031 
L 86.210922 147.666598 
L 88.792098 150.443539 
L 90.727979 152.180269 
L 92.663861 153.607703 
L 96.320527 155.866099 
L 99.331898 157.444092 
L 101.052682 158.224922 
L 104.49425 159.560361 
L 107.075426 160.49357 
L 110.947189 161.629328 
L 116.109541 163.036496 
L 130.736203 167.122872 
L 133.317379 167.765167 
L 136.113652 168.348444 
L 140.200514 168.899924 
L 143.642082 169.144061 
L 150.525217 169.356391 
L 178.272856 169.655613 
L 178.272856 169.655613 
" clip-path="url(#pfed92f78e0)" style="fill: none; stroke: #a4a031; stroke-width: 1.5; stroke-linecap: square"/>
   </g>
   <g id="line2d_37">
    <path d="M 69.218182 55.800636 
L 69.648378 58.611506 
L 70.078574 59.816032 
L 70.50877 60.873587 
L 70.938966 62.90184 
L 71.369162 66.187547 
L 72.229553 75.428852 
L 73.305043 86.833899 
L 74.165435 93.286584 
L 75.025827 97.905009 
L 76.746611 105.508942 
L 77.822101 109.511891 
L 78.897591 112.686718 
L 79.973081 115.144194 
L 83.19955 121.442952 
L 85.35053 125.317641 
L 91.588371 136.254735 
L 93.094057 138.938125 
L 95.029939 141.826303 
L 96.535625 143.670272 
L 97.826213 145.025039 
L 99.546996 146.610526 
L 101.913074 148.292297 
L 105.56974 150.326963 
L 107.290524 151.095042 
L 110.301895 152.128354 
L 113.958561 153.011278 
L 117.185031 153.562624 
L 123.207774 154.212958 
L 129.230517 154.565205 
L 135.683456 154.783521 
L 144.502473 155.118357 
L 146.008159 155.278629 
L 151.385609 155.409878 
L 164.076389 155.534267 
L 164.076389 155.534267 
" clip-path="url(#pfed92f78e0)" style="fill: none; stroke: #a4a031; stroke-width: 1.5; stroke-linecap: square"/>
   </g>
   <g id="line2d_38">
    <path d="M 69.218182 55.800275 
L 69.648378 58.626068 
L 70.50877 61.903607 
L 70.938966 64.972481 
L 71.58426 72.305417 
L 73.735239 101.341614 
L 74.810729 111.18498 
L 75.671121 117.42038 
L 76.531513 122.339503 
L 77.607003 127.243937 
L 78.682493 131.239724 
L 79.973081 135.010557 
L 81.048571 137.579037 
L 82.554256 140.474194 
L 84.059942 142.87275 
L 85.780726 145.117786 
L 87.286412 146.81796 
L 90.082686 149.608048 
L 92.018567 151.228397 
L 95.029939 153.485253 
L 98.686605 155.771321 
L 101.913074 157.512774 
L 105.56974 159.232928 
L 111.807581 161.479711 
L 121.056794 164.23773 
L 126.649341 165.870246 
L 132.026791 167.462174 
L 135.683456 168.240522 
L 139.125024 168.723872 
L 142.78169 169.000808 
L 153.966784 169.318585 
L 175.046386 169.510025 
L 209.892258 169.568192 
L 209.892258 169.568192 
" clip-path="url(#pfed92f78e0)" style="fill: none; stroke: #a4a031; stroke-width: 1.5; stroke-linecap: square"/>
   </g>
   <g id="line2d_39">
    <path d="M 69.218182 55.800342 
L 69.648378 58.615752 
L 70.078574 59.867425 
L 70.50877 61.097766 
L 70.938966 63.469002 
L 71.369162 67.337225 
L 72.014456 75.669725 
L 74.165435 106.808705 
L 74.810729 112.514954 
L 75.456023 116.492498 
L 76.101317 119.336848 
L 76.961709 122.140825 
L 78.252297 125.414447 
L 79.973081 129.137191 
L 81.908962 132.839275 
L 83.414648 135.249284 
L 85.35053 137.981417 
L 86.856216 139.897831 
L 92.018567 145.558128 
L 93.739351 147.036109 
L 98.256409 150.77021 
L 102.773466 154.280851 
L 105.354642 155.855994 
L 108.581111 157.734414 
L 111.592483 159.425644 
L 117.185031 162.139657 
L 122.347382 164.271562 
L 125.143656 165.272285 
L 129.875811 166.346559 
L 132.887183 166.736621 
L 137.40424 167.114564 
L 145.577963 167.499197 
L 158.483842 167.829989 
L 178.272856 167.997722 
L 178.272856 167.997722 
" clip-path="url(#pfed92f78e0)" style="fill: none; stroke: #a4a031; stroke-width: 1.5; stroke-linecap: square"/>
   </g>
   <g id="line2d_40">
    <path d="M 69.218182 55.800355 
L 69.648378 58.616677 
L 70.723868 62.741073 
L 71.154064 66.452402 
L 72.014456 77.147964 
L 72.874847 87.601321 
L 73.520141 93.320563 
L 74.380533 98.666839 
L 75.456023 104.991117 
L 76.531513 113.289695 
L 77.391905 119.658211 
L 78.252297 124.313619 
L 79.327787 128.749418 
L 80.403277 132.410167 
L 81.478766 135.245501 
L 82.554256 137.473044 
L 84.059942 140.078421 
L 85.565628 142.151341 
L 88.792098 145.897464 
L 90.512881 147.514273 
L 95.029939 151.371822 
L 97.396017 153.122918 
L 101.697976 155.759517 
L 104.279152 157.072721 
L 105.999936 157.833837 
L 110.947189 159.54955 
L 112.883071 160.038041 
L 117.185031 160.941696 
L 122.56248 161.836421 
L 132.026791 162.810111 
L 141.276004 163.368283 
L 152.246001 163.67293 
L 167.948153 163.882996 
L 192.899518 164.017821 
L 200.643045 164.138903 
L 205.160103 164.588563 
L 208.171474 164.6367 
L 217.205589 164.688039 
L 217.205589 164.688039 
" clip-path="url(#pfed92f78e0)" style="fill: none; stroke: #a4a031; stroke-width: 1.5; stroke-linecap: square"/>
   </g>
   <g id="line2d_41">
    <path d="M 69.218182 55.8 
L 69.648378 58.621424 
L 70.723868 62.927208 
L 71.154064 66.420624 
L 71.799358 74.357449 
L 73.520141 98.751288 
L 74.380533 106.784093 
L 75.240925 112.6 
L 76.316415 118.055944 
L 77.607003 124.502008 
L 80.618375 140.837001 
L 82.339158 148.367049 
L 83.844844 154.281953 
L 84.920334 157.767741 
L 86.210922 161.217054 
L 87.931706 165.18064 
L 89.65249 168.474262 
L 91.588371 171.73596 
L 93.309155 174.193787 
L 96.105429 177.875224 
L 102.988564 185.916652 
L 104.279152 187.387342 
L 106.215034 189.393073 
L 111.592483 194.77758 
L 112.667973 195.84294 
L 118.045422 200.967361 
L 119.33601 202.174373 
L 126.649341 208.231501 
L 128.370125 209.331612 
L 131.381497 210.832905 
L 132.672085 211.295774 
L 135.038163 211.930661 
L 141.7062 212.994982 
L 143.85718 213.324747 
L 144.502473 213.407233 
L 144.717571 213.323985 
L 147.083649 213.703006 
L 147.944041 213.767262 
L 151.170511 213.955779 
L 164.076389 214.414613 
L 167.087761 214.453026 
L 199.137359 214.720806 
L 206.235593 214.758168 
L 206.235593 214.758168 
" clip-path="url(#pfed92f78e0)" style="fill: none; stroke: #50b131; stroke-width: 1.5; stroke-linecap: square"/>
   </g>
   <g id="line2d_42">
    <path d="M 69.218182 55.800472 
L 69.648378 58.615469 
L 70.723868 62.542792 
L 71.154064 66.048726 
L 72.014456 76.278735 
L 73.089945 88.783493 
L 73.950337 95.714449 
L 74.810729 100.679555 
L 78.467395 119.990579 
L 81.263668 136.215446 
L 82.339158 140.454363 
L 83.629746 144.692794 
L 85.135432 148.964551 
L 86.856216 153.032687 
L 88.792098 157.055998 
L 90.512881 160.268324 
L 92.878959 164.18755 
L 96.965821 170.424482 
L 98.901703 172.898171 
L 102.773466 177.501817 
L 105.56974 180.150989 
L 106.860328 181.375795 
L 110.947189 185.285146 
L 112.022679 186.273827 
L 113.528365 188.033584 
L 115.894443 190.48049 
L 116.969933 191.708679 
L 118.690716 193.198457 
L 120.4115 194.898772 
L 121.702088 195.667792 
L 123.63797 196.553071 
L 126.649341 197.771831 
L 129.875811 198.766237 
L 133.747575 199.682703 
L 138.694828 200.489685 
L 148.804433 201.453048 
L 157.838548 201.869471 
L 170.529329 202.144156 
L 189.457951 202.324118 
L 189.457951 202.324118 
" clip-path="url(#pfed92f78e0)" style="fill: none; stroke: #50b131; stroke-width: 1.5; stroke-linecap: square"/>
   </g>
   <g id="line2d_43">
    <path d="M 69.218182 55.800515 
L 69.648378 58.622872 
L 70.50877 61.882044 
L 70.938966 65.140105 
L 71.58426 72.652464 
L 73.089945 91.797727 
L 74.165435 101.495071 
L 75.671121 113.205776 
L 77.176807 122.318623 
L 78.682493 132.384243 
L 79.757983 139.11298 
L 80.618375 143.153364 
L 81.693864 146.900425 
L 83.629746 152.462616 
L 85.35053 156.638197 
L 87.286412 160.761424 
L 89.007196 163.965283 
L 91.373273 167.824988 
L 94.384645 172.123266 
L 97.180919 175.945342 
L 101.26778 180.837655 
L 104.064054 183.877529 
L 106.430132 186.197578 
L 108.581111 187.90708 
L 112.022679 190.195685 
L 115.679345 191.995458 
L 119.33601 193.292113 
L 122.777578 194.186751 
L 125.573852 194.788763 
L 128.585223 195.219744 
L 133.317379 195.78221 
L 138.264632 196.318568 
L 139.125024 196.704687 
L 139.985416 197.036411 
L 141.921298 197.296399 
L 159.344234 198.162032 
L 175.69168 198.468872 
L 206.020495 198.690681 
L 212.473434 198.706375 
L 212.473434 198.706375 
" clip-path="url(#pfed92f78e0)" style="fill: none; stroke: #50b131; stroke-width: 1.5; stroke-linecap: square"/>
   </g>
   <g id="line2d_44">
    <path d="M 69.218182 55.800325 
L 69.648378 58.62515 
L 70.50877 62.125021 
L 70.938966 65.630788 
L 71.58426 73.494204 
L 72.874847 90.430782 
L 73.735239 98.42958 
L 75.456023 111.489439 
L 76.316415 116.488473 
L 77.607003 122.073336 
L 79.542885 130.861319 
L 80.618375 135.12663 
L 82.12406 139.842166 
L 83.629746 144.011813 
L 85.135432 147.379468 
L 86.641118 150.309112 
L 89.007196 154.465369 
L 92.233665 159.955648 
L 94.599743 163.079351 
L 96.750723 165.382043 
L 99.331898 167.814641 
L 102.34327 170.079174 
L 104.709348 171.681447 
L 107.72072 173.415328 
L 110.516993 174.680916 
L 114.173659 176.005759 
L 119.981304 177.713232 
L 125.358754 178.772572 
L 129.445615 179.298764 
L 133.747575 179.696666 
L 139.985416 180.13348 
L 150.740315 180.591132 
L 163.000899 180.849223 
L 178.272856 180.984751 
L 203.654417 181.093162 
L 211.613042 181.110515 
L 211.613042 181.110515 
" clip-path="url(#pfed92f78e0)" style="fill: none; stroke: #50b131; stroke-width: 1.5; stroke-linecap: square"/>
   </g>
   <g id="line2d_45">
    <path d="M 69.218182 55.800487 
L 69.648378 58.611173 
L 70.078574 59.811224 
L 70.50877 60.958628 
L 70.938966 63.326774 
L 71.369162 67.249899 
L 72.229553 78.405771 
L 73.520141 95.185189 
L 74.595631 105.762007 
L 75.456023 112.338295 
L 76.531513 118.710505 
L 77.607003 123.708028 
L 78.897591 128.516959 
L 80.188179 132.535121 
L 81.908962 136.94967 
L 83.629746 140.653552 
L 85.995824 145.026689 
L 89.437392 151.38635 
L 92.018567 157.052658 
L 95.460135 164.489584 
L 98.256409 169.748352 
L 100.19229 172.744419 
L 103.41876 177.772594 
L 105.56974 180.312769 
L 107.505622 182.247502 
L 112.883071 186.30029 
L 115.464247 187.767505 
L 118.475618 189.132598 
L 122.132284 190.537936 
L 127.939929 192.129511 
L 131.811693 192.910204 
L 135.898554 193.546517 
L 143.85718 194.501159 
L 148.804433 194.819451 
L 157.193254 195.321673 
L 159.344234 195.481588 
L 169.238741 195.832826 
L 183.650305 196.085013 
L 203.869515 196.363193 
L 204.729907 196.690907 
L 205.375201 196.865526 
L 205.805397 196.85761 
L 206.020495 196.782644 
L 206.665789 196.888808 
L 207.526181 196.95805 
L 208.816768 196.978428 
L 212.043238 197.023164 
L 212.043238 197.023164 
" clip-path="url(#pfed92f78e0)" style="fill: none; stroke: #50b131; stroke-width: 1.5; stroke-linecap: square"/>
   </g>
   <g id="line2d_46">
    <path d="M 69.218182 55.800359 
L 69.648378 58.619196 
L 70.50877 61.805245 
L 70.938966 65.069077 
L 71.58426 72.651604 
L 73.089945 92.112095 
L 73.950337 99.853945 
L 76.961709 123.277748 
L 78.252297 129.963481 
L 79.973081 137.897928 
L 81.478766 145.007836 
L 83.414648 154.511742 
L 84.27504 157.53268 
L 85.565628 161.173788 
L 87.50151 165.699527 
L 89.437392 169.765068 
L 94.384645 179.864088 
L 95.460135 181.706799 
L 98.256409 185.915818 
L 99.977192 187.92729 
L 103.41876 191.526469 
L 104.924446 192.875741 
L 110.732091 197.686767 
L 111.807581 198.959456 
L 113.098169 199.842944 
L 114.173659 200.504269 
L 116.539737 201.92517 
L 120.841696 203.989036 
L 126.219146 206.189831 
L 133.102281 208.627557 
L 142.136396 211.54193 
L 145.793061 212.621517 
L 147.083649 212.98229 
L 152.246001 214.186801 
L 156.978156 215.194285 
L 160.84992 215.872374 
L 166.657565 216.694679 
L 178.487954 217.684015 
L 182.789913 217.953827 
L 201.933633 218.605779 
L 217.635785 218.887517 
L 249.685384 219.107954 
L 249.685384 219.107954 
" clip-path="url(#pfed92f78e0)" style="fill: none; stroke: #34ae91; stroke-width: 1.5; stroke-linecap: square"/>
   </g>
   <g id="line2d_47">
    <path d="M 69.218182 55.800368 
L 69.648378 58.613731 
L 70.723868 62.434818 
L 71.154064 65.977248 
L 71.799358 74.009278 
L 73.520141 97.498568 
L 74.380533 106.12751 
L 75.240925 112.774776 
L 76.101317 117.486206 
L 78.037199 126.741912 
L 78.897591 132.824388 
L 81.048571 150.097643 
L 82.12406 156.196936 
L 82.984452 160.052224 
L 84.059942 163.778308 
L 85.35053 167.447304 
L 87.286412 172.135325 
L 89.65249 177.117668 
L 93.524253 184.364481 
L 96.750723 189.714638 
L 100.19229 194.939828 
L 102.558368 197.903112 
L 106.215034 201.746141 
L 108.581111 203.96762 
L 109.656601 204.842205 
L 111.377385 206.146558 
L 113.958561 207.836436 
L 117.185031 209.634774 
L 125.78895 213.6807 
L 133.962673 216.545451 
L 139.770318 218.099056 
L 145.362865 219.232286 
L 149.234629 219.808392 
L 153.321491 220.265727 
L 161.710312 220.918107 
L 171.604819 221.37203 
L 190.318342 221.827653 
L 221.292451 222.144798 
L 275.927337 222.328669 
L 275.927337 222.328669 
" clip-path="url(#pfed92f78e0)" style="fill: none; stroke: #34ae91; stroke-width: 1.5; stroke-linecap: square"/>
   </g>
   <g id="line2d_48">
    <path d="M 69.218182 55.800457 
L 69.648378 58.616354 
L 70.723868 62.513013 
L 71.154064 66.034792 
L 71.799358 73.95493 
L 73.735239 100.823522 
L 74.595631 109.72719 
L 75.456023 116.581635 
L 76.531513 122.956565 
L 78.252297 131.41931 
L 80.188179 139.66402 
L 81.693864 146.41629 
L 83.629746 155.348852 
L 84.705236 158.955392 
L 86.210922 163.159669 
L 87.931706 167.173159 
L 90.512881 172.3954 
L 94.169547 179.305686 
L 96.750723 183.884342 
L 98.256409 186.457913 
L 99.116801 187.913251 
L 100.622486 189.808191 
L 102.988564 192.721127 
L 104.709348 194.71804 
L 105.784838 195.827579 
L 107.075426 196.939046 
L 112.022679 200.488387 
L 114.603855 202.059606 
L 118.26052 203.755542 
L 122.992676 205.545966 
L 125.78895 206.329035 
L 132.887183 207.797775 
L 138.264632 208.624339 
L 142.566592 209.084088 
L 155.042274 210.138329 
L 155.687568 210.480124 
L 156.763058 211.538613 
L 156.978156 211.224143 
L 157.193254 211.655705 
L 157.408352 211.543449 
L 157.62345 211.777489 
L 157.838548 211.732217 
L 158.053646 211.893858 
L 158.268744 211.83091 
L 158.483842 212.01144 
L 158.69894 211.909603 
L 158.914038 212.085189 
L 159.129136 212.002276 
L 159.344234 212.119995 
L 159.77443 212.142161 
L 161.280116 212.301338 
L 163.861291 212.488418 
L 165.151879 212.686338 
L 166.657565 212.867266 
L 173.5407 213.148959 
L 188.167363 213.459607 
L 190.103244 213.590793 
L 191.60893 213.820707 
L 209.031866 214.099227 
L 240.005975 214.249032 
L 251.836364 214.280903 
L 251.836364 214.280903 
" clip-path="url(#pfed92f78e0)" style="fill: none; stroke: #34ae91; stroke-width: 1.5; stroke-linecap: square"/>
   </g>
   <g id="line2d_49">
    <path d="M 69.218182 55.800383 
L 69.648378 58.614102 
L 70.723868 62.498937 
L 71.154064 66.117755 
L 71.799358 74.414983 
L 73.735239 102.703641 
L 74.595631 111.246981 
L 75.456023 117.549928 
L 79.112689 140.956473 
L 80.618375 151.320147 
L 81.478766 156.020978 
L 82.769354 161.579278 
L 84.27504 167.098731 
L 85.780726 171.545063 
L 87.50151 175.871625 
L 89.007196 179.16387 
L 90.943077 182.912637 
L 93.739351 187.741219 
L 96.105429 191.225782 
L 100.837584 197.482359 
L 102.558368 199.539173 
L 106.215034 203.214156 
L 108.366013 205.147666 
L 110.086797 206.409684 
L 113.313267 208.483053 
L 116.324639 210.209555 
L 118.690716 211.321422 
L 122.992676 213.029352 
L 125.143656 213.747583 
L 130.951301 215.142231 
L 138.049534 216.348402 
L 140.415612 216.764202 
L 143.85718 217.849643 
L 146.223257 218.199944 
L 153.966784 218.972417 
L 162.785801 219.683796 
L 164.291487 219.743903 
L 166.012271 219.839468 
L 172.250112 220.077835 
L 178.272856 220.226757 
L 186.876775 220.37341 
L 202.363829 220.528431 
L 202.363829 220.528431 
" clip-path="url(#pfed92f78e0)" style="fill: none; stroke: #34ae91; stroke-width: 1.5; stroke-linecap: square"/>
   </g>
   <g id="line2d_50">
    <path d="M 69.218182 55.800222 
L 69.648378 58.623779 
L 70.50877 61.930638 
L 70.938966 65.170057 
L 71.58426 72.732158 
L 73.089945 92.728926 
L 74.165435 102.885734 
L 75.456023 113.095972 
L 76.746611 121.117471 
L 78.467395 132.059358 
L 80.618375 145.658293 
L 81.908962 152.534056 
L 83.19955 157.979966 
L 84.27504 161.520785 
L 85.565628 164.985348 
L 87.286412 169.020757 
L 89.007196 172.707693 
L 90.943077 176.341686 
L 93.524253 180.766378 
L 99.116801 188.906549 
L 101.482878 191.903001 
L 103.848956 194.753478 
L 106.64523 197.902427 
L 109.656601 200.749011 
L 112.237777 202.79143 
L 115.249149 204.698529 
L 122.56248 208.315158 
L 123.63797 209.05345 
L 126.434243 210.270156 
L 130.951301 211.861675 
L 133.317379 212.665054 
L 134.177771 213.197894 
L 135.253261 213.806724 
L 137.189142 214.799782 
L 138.264632 215.454449 
L 139.55522 216.018037 
L 143.85718 217.320067 
L 151.600707 219.260327 
L 161.495214 220.936442 
L 164.936781 221.273662 
L 180.854031 222.466429 
L 195.265596 222.980831 
L 203.869515 223.254143 
L 204.945005 223.403905 
L 205.160103 223.329713 
L 205.590299 223.393565 
L 210.322454 223.547132 
L 221.507549 223.705891 
L 276.572631 224.193034 
L 281.089688 224.203045 
L 281.089688 224.203045 
" clip-path="url(#pfed92f78e0)" style="fill: none; stroke: #34ae91; stroke-width: 1.5; stroke-linecap: square"/>
   </g>
   <g id="line2d_51">
    <path d="M 69.218182 55.800391 
L 69.648378 58.618593 
L 70.50877 61.706192 
L 70.938966 64.87716 
L 71.58426 72.35649 
L 73.089945 92.036517 
L 74.165435 102.607466 
L 75.456023 113.505501 
L 79.542885 143.824934 
L 81.048571 153.072204 
L 83.414648 168.830769 
L 84.27504 172.696254 
L 85.35053 176.406258 
L 86.641118 179.985578 
L 88.361902 184.071799 
L 89.65249 186.810228 
L 91.803469 190.745218 
L 94.384645 194.915465 
L 98.471507 200.525323 
L 109.441503 215.087562 
L 114.603855 221.22693 
L 116.539737 223.170477 
L 118.045422 224.549634 
L 119.981304 226.278022 
L 124.928558 230.321049 
L 128.155027 232.649771 
L 131.166399 234.583616 
L 138.264632 237.865057 
L 144.932669 240.529865 
L 147.728943 241.540608 
L 152.891295 242.892938 
L 156.332862 243.68586 
L 163.861291 245.313377 
L 170.959525 246.667355 
L 173.755798 247.113896 
L 177.84266 247.720024 
L 190.103244 249.087747 
L 204.729907 250.081779 
L 213.764022 250.556123 
L 223.443431 250.913647 
L 236.134211 251.297892 
L 256.998715 251.73536 
L 311.418503 252.180674 
L 311.418503 252.180674 
" clip-path="url(#pfed92f78e0)" style="fill: none; stroke: #37abb5; stroke-width: 1.5; stroke-linecap: square"/>
   </g>
   <g id="line2d_52">
    <path d="M 69.218182 55.800461 
L 69.648378 58.615103 
L 70.50877 61.46958 
L 70.938966 64.45148 
L 71.58426 71.826814 
L 73.520141 97.750781 
L 74.595631 108.139102 
L 75.671121 116.661474 
L 76.746611 123.38182 
L 80.618375 145.526792 
L 82.554256 157.583112 
L 83.629746 162.399748 
L 84.920334 166.99791 
L 86.641118 172.141458 
L 88.792098 177.651594 
L 90.943077 182.540707 
L 92.448763 185.543261 
L 94.169547 188.737472 
L 96.320527 192.377777 
L 99.331898 196.759128 
L 101.913074 200.025546 
L 103.41876 201.807663 
L 105.354642 203.921099 
L 107.290524 205.764893 
L 110.516993 208.4709 
L 112.237777 210.032166 
L 113.743463 211.525617 
L 114.388757 212.255317 
L 115.894443 214.662545 
L 116.539737 215.666302 
L 117.615226 216.740856 
L 119.33601 218.193366 
L 122.132284 221.065336 
L 122.992676 221.937203 
L 123.853068 222.707687 
L 124.928558 223.504637 
L 126.434243 224.988253 
L 128.800321 226.547846 
L 129.445615 227.169917 
L 130.521105 228.453356 
L 132.241889 229.973833 
L 133.962673 232.397365 
L 134.823065 232.974512 
L 139.125024 234.873511 
L 141.7062 235.788816 
L 147.513845 237.604487 
L 156.54796 239.480841 
L 161.710312 240.201394 
L 169.238741 241.110702 
L 173.970896 241.492089 
L 183.650305 242.129034 
L 191.60893 242.498748 
L 195.695792 242.648835 
L 215.699904 243.111104 
L 238.285191 243.435831 
L 287.32753 243.756133 
L 299.588114 243.794886 
L 299.588114 243.794886 
" clip-path="url(#pfed92f78e0)" style="fill: none; stroke: #37abb5; stroke-width: 1.5; stroke-linecap: square"/>
   </g>
   <g id="line2d_53">
    <path d="M 69.218182 55.800219 
L 69.648378 58.61644 
L 70.723868 62.551071 
L 71.154064 66.046933 
L 71.799358 74.055058 
L 73.520141 98.269616 
L 74.380533 106.809516 
L 75.240925 113.498716 
L 76.316415 120.023124 
L 77.822101 128.701521 
L 78.897591 136.351197 
L 80.618375 149.010734 
L 81.693864 155.080702 
L 82.554256 158.776461 
L 83.629746 162.371163 
L 85.35053 167.023455 
L 91.803469 183.363433 
L 95.029939 192.583167 
L 96.535625 196.812819 
L 99.116801 203.178288 
L 102.34327 210.109295 
L 104.49425 214.291237 
L 106.860328 218.104938 
L 110.301895 222.823168 
L 112.022679 224.776584 
L 113.528365 226.298149 
L 115.679345 228.147995 
L 121.271892 232.558994 
L 124.068166 234.318276 
L 133.317379 239.503043 
L 136.113652 240.894764 
L 137.619338 241.681111 
L 143.642082 244.343272 
L 145.793061 245.066765 
L 152.891295 247.038745 
L 156.54796 247.715933 
L 159.559332 248.198968 
L 165.366977 248.961692 
L 171.389721 249.46573 
L 181.284227 249.988534 
L 191.178734 250.240835 
L 208.386572 250.577624 
L 208.386572 250.577624 
" clip-path="url(#pfed92f78e0)" style="fill: none; stroke: #37abb5; stroke-width: 1.5; stroke-linecap: square"/>
   </g>
   <g id="line2d_54">
    <path d="M 69.218182 55.800266 
L 69.648378 58.613073 
L 70.723868 62.52191 
L 71.154064 66.123471 
L 71.799358 73.991654 
L 73.305043 93.343006 
L 74.380533 103.779545 
L 75.456023 112.189844 
L 77.822101 128.577555 
L 79.757983 145.454781 
L 80.833473 151.967545 
L 81.693864 155.864295 
L 82.984452 160.27903 
L 85.995824 170.015872 
L 87.716608 174.78454 
L 90.943077 182.650481 
L 92.233665 185.452268 
L 94.384645 189.66731 
L 97.180919 194.819873 
L 99.546996 198.915078 
L 104.709348 207.238986 
L 108.796209 213.114388 
L 111.162287 216.130864 
L 112.237777 217.363464 
L 117.400128 223.160101 
L 119.981304 225.652684 
L 122.56248 227.883578 
L 124.498362 229.252129 
L 128.370125 231.638202 
L 133.102281 234.20932 
L 134.177771 234.725674 
L 138.909926 236.77068 
L 149.879923 240.561805 
L 152.891295 241.392056 
L 154.612078 241.81471 
L 159.344234 242.8676 
L 163.215997 243.54228 
L 167.087761 244.143946 
L 175.261484 245.081409 
L 181.284227 245.587539 
L 189.888146 246.052026 
L 208.171474 246.6018 
L 238.285191 247.08234 
L 269.2593 247.379431 
L 269.2593 247.379431 
" clip-path="url(#pfed92f78e0)" style="fill: none; stroke: #37abb5; stroke-width: 1.5; stroke-linecap: square"/>
   </g>
   <g id="line2d_55">
    <path d="M 69.218182 55.800372 
L 69.648378 58.623442 
L 70.50877 61.628108 
L 70.938966 64.578648 
L 71.369162 69.100767 
L 72.229553 81.422348 
L 73.305043 96.669347 
L 74.165435 106.026959 
L 75.025827 113.052069 
L 76.101317 119.66486 
L 77.391905 127.658224 
L 81.478766 155.291343 
L 82.554256 159.996351 
L 84.27504 166.401837 
L 85.995824 171.668107 
L 87.286412 174.939053 
L 90.082686 181.27357 
L 92.018567 185.051752 
L 94.384645 189.276615 
L 96.320527 192.662576 
L 99.116801 197.255067 
L 101.26778 200.602651 
L 106.215034 207.725171 
L 108.581111 210.614371 
L 112.022679 214.235663 
L 113.528365 215.535364 
L 115.894443 217.505566 
L 119.33601 219.856432 
L 122.992676 222.099077 
L 124.283264 222.847371 
L 126.434243 224.209705 
L 128.585223 225.379432 
L 132.026791 226.841895 
L 134.177771 227.732427 
L 134.823065 228.248877 
L 135.898554 229.298747 
L 137.189142 229.927931 
L 138.694828 230.486442 
L 140.845808 231.206843 
L 143.85718 232.661891 
L 144.502473 233.395161 
L 145.362865 234.349423 
L 146.438355 235.561662 
L 148.159139 236.45613 
L 148.589335 236.929626 
L 149.449727 238.142174 
L 150.310119 238.784867 
L 150.955413 239.243148 
L 151.600707 240.030328 
L 152.246001 240.855247 
L 153.321491 241.221256 
L 155.042274 241.909718 
L 155.47247 242.221531 
L 156.54796 243.401122 
L 158.268744 243.888263 
L 160.634822 244.381935 
L 161.065018 244.644358 
L 161.495214 245.129644 
L 162.140508 245.91916 
L 163.431095 246.518272 
L 163.861291 246.557026 
L 165.366977 247.079234 
L 167.302859 247.414471 
L 168.808545 247.735277 
L 174.831288 248.644318 
L 181.284227 249.19448 
L 196.556184 250.04113 
L 217.850883 250.49437 
L 244.73813 250.747281 
L 251.836364 250.817055 
L 253.126951 250.957695 
L 253.987343 251.26943 
L 254.202441 251.172814 
L 254.632637 251.3077 
L 255.277931 251.432115 
L 260.225185 251.63546 
L 277.863219 251.79332 
L 302.16929 251.91982 
L 302.16929 251.91982 
" clip-path="url(#pfed92f78e0)" style="fill: none; stroke: #37abb5; stroke-width: 1.5; stroke-linecap: square"/>
   </g>
   <g id="line2d_56">
    <path d="M 69.218182 55.800424 
L 69.648378 58.607957 
L 70.078574 59.77395 
L 70.50877 60.844007 
L 70.938966 63.129411 
L 71.369162 67.021035 
L 72.014456 75.314179 
L 73.735239 99.029799 
L 74.810729 110.766309 
L 75.671121 118.290518 
L 79.973081 149.764826 
L 81.048571 154.92985 
L 82.339158 160.07306 
L 84.920334 169.173003 
L 89.222294 183.967235 
L 90.727979 187.883057 
L 93.954449 195.356904 
L 96.750723 201.176582 
L 98.256409 203.945251 
L 101.26778 208.942081 
L 102.988564 211.588605 
L 110.516993 221.863408 
L 113.958561 225.945442 
L 117.615226 229.646125 
L 119.981304 231.711466 
L 124.283264 235.104455 
L 126.434243 236.525675 
L 129.445615 238.172588 
L 134.177771 240.309691 
L 136.758946 241.219347 
L 141.491102 242.521625 
L 144.072278 243.079605 
L 152.246001 244.507893 
L 156.332862 245.021404 
L 162.570704 245.586493 
L 173.325602 246.249385 
L 179.99364 246.529885 
L 192.68442 246.918881 
L 217.205589 247.236908 
L 228.390684 247.313412 
L 228.390684 247.313412 
" clip-path="url(#pfed92f78e0)" style="fill: none; stroke: #3ba3ec; stroke-width: 1.5; stroke-linecap: square"/>
   </g>
   <g id="line2d_57">
    <path d="M 69.218182 55.800433 
L 69.648378 58.615402 
L 70.723868 62.262177 
L 71.154064 65.553758 
L 71.799358 73.367277 
L 74.165435 107.854313 
L 75.025827 116.14967 
L 76.101317 124.370833 
L 78.682493 141.758294 
L 79.973081 148.99529 
L 85.135432 175.237238 
L 86.641118 180.906326 
L 89.222294 188.931158 
L 93.954449 202.04594 
L 96.965821 209.413359 
L 99.331898 214.995396 
L 104.924446 227.809122 
L 107.290524 232.378044 
L 108.796209 235.098728 
L 111.592483 239.512392 
L 114.603855 243.835446 
L 117.185031 247.13451 
L 119.766206 250.235546 
L 123.422872 254.064425 
L 126.864439 257.219178 
L 130.306007 260.017186 
L 137.834436 265.196166 
L 141.491102 267.064854 
L 146.008159 268.962874 
L 150.955413 270.509086 
L 152.461099 270.8709 
L 160.84992 272.417631 
L 166.227369 273.01786 
L 170.314231 273.444317 
L 185.801285 274.379945 
L 206.020495 274.976554 
L 260.010087 275.545818 
L 260.010087 275.545818 
" clip-path="url(#pfed92f78e0)" style="fill: none; stroke: #3ba3ec; stroke-width: 1.5; stroke-linecap: square"/>
   </g>
   <g id="line2d_58">
    <path d="M 69.218182 55.800275 
L 69.648378 58.61983 
L 70.50877 61.642367 
L 70.938966 64.590863 
L 71.369162 69.102363 
L 72.229553 81.51485 
L 73.305043 96.492744 
L 74.165435 105.489156 
L 75.025827 112.330059 
L 75.886219 117.47319 
L 77.607003 127.265408 
L 79.973081 142.831275 
L 81.263668 153.39558 
L 82.339158 161.592542 
L 83.19955 166.439586 
L 84.490138 172.078176 
L 86.42602 179.690388 
L 89.867588 191.995929 
L 93.524253 203.791626 
L 95.029939 208.087311 
L 96.750723 212.612531 
L 98.256409 216.199058 
L 99.762094 219.169682 
L 102.558368 224.182785 
L 105.139544 227.992042 
L 107.505622 231.026093 
L 112.237777 236.621988 
L 115.249149 239.668953 
L 117.615226 241.782817 
L 119.766206 243.604291 
L 123.853068 246.703212 
L 130.090909 250.976387 
L 133.317379 253.020492 
L 134.823065 253.982984 
L 136.543848 255.018059 
L 145.577963 260.207203 
L 147.513845 261.386768 
L 152.676197 263.896062 
L 155.902666 265.287723 
L 156.763058 265.656958 
L 159.77443 267.023246 
L 165.582075 269.211648 
L 166.442467 269.632012 
L 171.174623 270.948208 
L 174.831288 271.785747 
L 178.057758 272.41754 
L 179.778542 272.850896 
L 180.423836 273.231322 
L 180.854031 273.671708 
L 181.714423 274.715831 
L 182.574815 275.286338 
L 184.725795 275.959295 
L 185.801285 276.292936 
L 186.661677 276.535535 
L 190.318342 277.268356 
L 191.60893 277.405403 
L 205.590299 278.583817 
L 218.711275 279.077963 
L 241.941857 279.540336 
L 246.88911 279.6428 
L 255.493029 279.734237 
L 255.493029 279.734237 
" clip-path="url(#pfed92f78e0)" style="fill: none; stroke: #3ba3ec; stroke-width: 1.5; stroke-linecap: square"/>
   </g>
   <g id="line2d_59">
    <path d="M 69.218182 55.800373 
L 69.648378 58.614247 
L 70.723868 62.313679 
L 71.154064 65.679326 
L 71.799358 73.562088 
L 73.950337 104.29412 
L 75.025827 115.014265 
L 75.886219 121.404372 
L 76.961709 127.559612 
L 78.467395 135.844252 
L 79.327787 141.971693 
L 81.908962 162.02159 
L 82.769354 167.060373 
L 84.059942 173.067839 
L 85.135432 177.278897 
L 86.641118 182.112513 
L 87.931706 185.552599 
L 90.297783 191.272908 
L 92.448763 196.030525 
L 97.611115 206.182384 
L 100.19229 210.880981 
L 102.34327 214.617482 
L 105.56974 219.572693 
L 111.162287 226.784862 
L 118.045422 234.479222 
L 122.992676 238.59896 
L 125.573852 240.39525 
L 127.294635 241.580681 
L 131.381497 244.069108 
L 133.317379 244.974479 
L 136.32875 246.192089 
L 142.351494 248.147889 
L 147.083649 249.383794 
L 150.095021 250.033514 
L 158.053646 251.339773 
L 168.593447 252.514268 
L 173.325602 252.924934 
L 174.401092 253.058353 
L 178.272856 253.367748 
L 179.348346 253.580539 
L 181.069129 254.162585 
L 182.359717 254.339704 
L 193.75991 254.933247 
L 212.473434 255.366367 
L 245.81362 255.771817 
L 258.289303 256.035788 
L 282.380276 256.803034 
L 300.878702 257.069891 
L 306.901446 257.139795 
L 326.260263 257.277451 
L 326.260263 257.277451 
" clip-path="url(#pfed92f78e0)" style="fill: none; stroke: #3ba3ec; stroke-width: 1.5; stroke-linecap: square"/>
   </g>
   <g id="line2d_60">
    <path d="M 69.218182 55.800484 
L 69.648378 58.619578 
L 70.50877 61.633801 
L 70.938966 64.707767 
L 71.58426 72.250136 
L 73.950337 104.833196 
L 74.810729 112.512456 
L 75.671121 118.129377 
L 78.682493 135.178385 
L 79.757983 143.960271 
L 82.12406 164.157351 
L 83.414648 172.89192 
L 84.490138 178.529392 
L 85.995824 184.978907 
L 87.50151 190.57539 
L 89.222294 196.271464 
L 90.943077 201.414355 
L 92.878959 206.904881 
L 95.890331 214.337083 
L 98.256409 219.566403 
L 100.622486 224.266864 
L 103.848956 229.604817 
L 107.075426 234.440099 
L 111.162287 240.127178 
L 113.743463 243.351299 
L 116.969933 247.067187 
L 118.905814 248.97952 
L 125.78895 254.52012 
L 131.596595 258.195876 
L 135.253261 260.242161 
L 141.7062 263.352779 
L 151.385609 267.335665 
L 157.838548 269.58626 
L 167.087761 272.565879 
L 169.668937 273.337148 
L 172.035014 273.981156 
L 174.185994 274.573431 
L 177.627562 275.467452 
L 180.638934 276.088406 
L 186.231481 277.472879 
L 187.952265 277.886299 
L 190.963636 278.323062 
L 200.643045 279.481429 
L 213.548924 280.467702 
L 214.409316 280.688508 
L 215.05461 281.152612 
L 215.484806 281.411059 
L 216.1301 281.417896 
L 216.990491 281.593432 
L 231.186958 282.546361 
L 244.092836 283.01371 
L 257.213813 283.34466 
L 302.16929 283.988612 
L 364.762801 284.379264 
L 364.762801 284.379264 
" clip-path="url(#pfed92f78e0)" style="fill: none; stroke: #3ba3ec; stroke-width: 1.5; stroke-linecap: square"/>
   </g>
   <g id="line2d_61">
    <path d="M 69.218182 55.800299 
L 69.648378 58.613096 
L 70.078574 59.855423 
L 70.50877 61.155066 
L 70.938966 63.681299 
L 71.369162 67.783225 
L 72.014456 76.408717 
L 73.305043 94.564974 
L 74.380533 106.019276 
L 75.886219 119.412182 
L 78.252297 138.781092 
L 80.403277 158.964613 
L 81.263668 164.936673 
L 82.339158 170.811509 
L 83.414648 175.613541 
L 84.705236 180.222093 
L 86.42602 185.491895 
L 87.931706 189.463356 
L 90.297783 194.992272 
L 92.018567 198.622193 
L 93.954449 202.453734 
L 96.535625 207.443281 
L 98.901703 212.051014 
L 101.26778 216.400732 
L 107.075426 226.589672 
L 113.528365 235.932641 
L 117.830324 241.034756 
L 123.422872 247.079517 
L 128.800321 252.263539 
L 130.951301 254.15189 
L 131.811693 254.847902 
L 132.672085 255.464617 
L 135.468358 257.48209 
L 141.276004 261.212118 
L 150.310119 266.310172 
L 157.838548 270.391696 
L 161.495214 271.969821 
L 164.291487 273.011082 
L 165.366977 273.368808 
L 172.035014 275.632631 
L 172.680308 276.053968 
L 173.325602 276.510319 
L 178.272856 278.237285 
L 180.854031 278.945189 
L 187.091873 280.358627 
L 193.75991 281.415659 
L 195.480694 281.725135 
L 196.341086 281.903458 
L 198.06187 282.154982 
L 200.427947 282.470109 
L 208.171474 283.224945 
L 225.379313 284.449122 
L 228.390684 284.637637 
L 230.541664 284.747884 
L 238.285191 285.11632 
L 244.953228 285.33274 
L 249.470286 285.543103 
L 250.545776 285.642222 
L 252.051462 285.710568 
L 254.632637 285.80777 
L 256.138323 285.908566 
L 258.074205 286.010866 
L 260.655381 286.111831 
L 273.561259 286.367849 
L 280.87459 286.618318 
L 306.686348 286.949875 
L 306.686348 286.949875 
" clip-path="url(#pfed92f78e0)" style="fill: none; stroke: #bb83f4; stroke-width: 1.5; stroke-linecap: square"/>
   </g>
   <g id="line2d_62">
    <path d="M 69.218182 55.800396 
L 69.648378 58.61614 
L 70.50877 61.495518 
L 70.938966 64.485191 
L 71.58426 71.797556 
L 73.520141 96.941571 
L 74.595631 107.246839 
L 75.671121 115.749291 
L 77.391905 128.900323 
L 78.897591 143.195878 
L 80.618375 159.080764 
L 81.693864 167.10743 
L 82.769354 173.501667 
L 84.27504 180.837398 
L 86.210922 189.165861 
L 88.577 198.158704 
L 90.512881 204.76597 
L 93.094057 212.864273 
L 94.814841 217.661672 
L 98.901703 228.234786 
L 103.203662 237.222915 
L 104.924446 240.278433 
L 109.011307 246.729729 
L 111.377385 250.223287 
L 116.324639 256.635698 
L 117.185031 257.766331 
L 119.551108 260.567088 
L 120.841696 261.871732 
L 122.777578 263.653245 
L 124.283264 264.852135 
L 126.649341 266.778524 
L 127.509733 267.566958 
L 129.445615 269.176109 
L 134.177771 272.329509 
L 137.40424 274.052729 
L 148.374237 278.685931 
L 149.019531 278.892969 
L 150.310119 279.309745 
L 155.47247 280.771419 
L 170.529329 284.039476 
L 186.446579 286.822184 
L 187.306971 286.966626 
L 188.812657 287.203257 
L 196.341086 288.222747 
L 198.492066 288.497599 
L 203.009123 289.1345 
L 205.805397 289.49265 
L 226.454802 291.707713 
L 234.843624 292.236112 
L 256.138323 293.415727 
L 279.153807 294.217287 
L 338.30575 295.241102 
L 372.29123 295.507553 
L 373.581818 295.512411 
L 373.581818 295.512411 
" clip-path="url(#pfed92f78e0)" style="fill: none; stroke: #bb83f4; stroke-width: 1.5; stroke-linecap: square"/>
   </g>
   <g id="line2d_63">
    <path d="M 69.218182 55.800229 
L 69.648378 58.6314 
L 70.293672 61.156159 
L 70.723868 64.038131 
L 71.154064 68.456727 
L 72.229553 83.324027 
L 73.089945 93.596368 
L 74.165435 103.150976 
L 75.671121 114.971456 
L 78.037199 130.564017 
L 80.403277 146.232121 
L 83.19955 167.179395 
L 84.705236 176.479931 
L 86.210922 184.420957 
L 87.931706 192.215624 
L 90.297783 201.593179 
L 92.018567 207.747945 
L 95.460135 218.765191 
L 98.041311 225.970051 
L 101.697976 234.611356 
L 103.41876 238.198858 
L 105.999936 242.847774 
L 110.086797 249.566189 
L 113.528365 254.126682 
L 117.185031 258.007206 
L 119.766206 260.229719 
L 122.777578 262.569007 
L 124.068166 263.51142 
L 126.004048 264.856526 
L 128.370125 266.3196 
L 132.456987 268.731272 
L 135.468358 270.314619 
L 137.189142 271.207691 
L 146.438355 275.706997 
L 151.815805 278.016885 
L 153.321491 278.789117 
L 155.257372 279.831323 
L 159.129136 281.727995 
L 164.076389 283.724787 
L 173.970896 286.330329 
L 178.487954 287.265128 
L 180.854031 287.763633 
L 184.940893 288.546876 
L 198.276968 290.318562 
L 202.363829 290.664623 
L 213.333826 291.333093 
L 239.145583 292.365921 
L 249.900482 292.612576 
L 249.900482 292.612576 
" clip-path="url(#pfed92f78e0)" style="fill: none; stroke: #bb83f4; stroke-width: 1.5; stroke-linecap: square"/>
   </g>
   <g id="line2d_64">
    <path d="M 69.218182 55.800418 
L 69.648378 58.611896 
L 70.723868 62.366129 
L 71.154064 65.875669 
L 71.799358 73.500904 
L 73.089945 89.264217 
L 73.950337 97.011734 
L 76.531513 118.735579 
L 80.833473 154.467209 
L 82.12406 163.325324 
L 83.414648 170.549223 
L 84.705236 176.553345 
L 86.42602 183.388629 
L 88.361902 189.839013 
L 90.512881 196.194404 
L 92.663861 201.647956 
L 94.384645 205.466305 
L 96.535625 209.800457 
L 98.041311 212.438522 
L 99.762094 215.066938 
L 102.558368 218.901746 
L 104.279152 220.89814 
L 107.075426 223.7941 
L 110.086797 226.425985 
L 113.743463 229.399093 
L 115.249149 230.473025 
L 117.615226 232.0866 
L 120.626598 233.954048 
L 123.853068 235.710098 
L 126.649341 237.094826 
L 132.026791 239.467515 
L 138.47973 241.966889 
L 140.63071 242.770117 
L 143.85718 244.0624 
L 151.385609 246.71386 
L 154.612078 247.874207 
L 157.62345 248.871717 
L 169.023643 252.501858 
L 170.959525 253.165132 
L 179.563444 255.552307 
L 188.812657 257.60914 
L 204.084613 260.063822 
L 212.043238 260.935756 
L 218.711275 261.707461 
L 222.152843 262.052976 
L 238.500289 263.152255 
L 242.372053 263.365114 
L 254.202441 263.881393 
L 292.274783 264.953909 
L 292.274783 264.953909 
" clip-path="url(#pfed92f78e0)" style="fill: none; stroke: #bb83f4; stroke-width: 1.5; stroke-linecap: square"/>
   </g>
   <g id="line2d_65">
    <path d="M 69.218182 55.800411 
L 69.648378 58.615424 
L 70.723868 62.736695 
L 71.154064 66.450109 
L 71.799358 74.667366 
L 73.520141 98.462738 
L 74.595631 109.381308 
L 75.671121 118.006904 
L 77.607003 130.984583 
L 81.478766 155.74891 
L 83.629746 166.103598 
L 85.135432 172.114428 
L 87.071314 178.875801 
L 95.029939 205.584134 
L 96.965821 211.911126 
L 98.686605 217.472046 
L 101.26778 225.336916 
L 102.988564 229.382842 
L 104.924446 233.632779 
L 109.871699 242.665478 
L 112.237777 246.500156 
L 114.818953 249.900641 
L 118.26052 254.348505 
L 119.33601 255.619552 
L 121.271892 257.663842 
L 125.78895 261.814613 
L 130.736203 265.782072 
L 138.909926 271.145789 
L 147.083649 275.506537 
L 149.449727 276.592348 
L 152.030903 277.823036 
L 156.117764 279.757334 
L 157.838548 280.56834 
L 159.77443 281.40015 
L 163.646193 283.035544 
L 166.227369 284.023469 
L 170.529329 285.470034 
L 179.133248 287.731377 
L 184.725795 288.726958 
L 192.469322 289.819101 
L 205.805397 290.982804 
L 212.473434 291.3466 
L 216.345198 291.629566 
L 227.74539 292.335235 
L 228.175586 292.578082 
L 229.251076 293.503138 
L 230.111468 293.630359 
L 231.186958 293.890948 
L 235.273819 294.25667 
L 240.436171 294.518499 
L 263.236556 295.157286 
L 277.217925 295.552003 
L 281.734982 295.597475 
L 281.734982 295.597475 
" clip-path="url(#pfed92f78e0)" style="fill: none; stroke: #bb83f4; stroke-width: 1.5; stroke-linecap: square"/>
   </g>
   <g id="line2d_66">
    <path d="M 69.218182 55.800325 
L 69.648378 58.619538 
L 70.50877 61.718503 
L 70.938966 64.879729 
L 71.58426 72.372209 
L 73.305043 94.793418 
L 74.380533 105.043171 
L 75.456023 113.631728 
L 77.822101 130.682999 
L 79.112689 143.483922 
L 80.403277 155.804803 
L 81.693864 165.57996 
L 82.554256 170.784751 
L 83.629746 175.74595 
L 85.135432 181.406305 
L 89.65249 197.185626 
L 91.373273 202.851399 
L 94.169547 210.771434 
L 95.890331 214.976405 
L 98.041311 219.528407 
L 101.913074 227.385808 
L 105.784838 233.913096 
L 107.075426 236.225282 
L 109.226405 240.169537 
L 111.377385 243.556488 
L 112.452875 245.228395 
L 115.034051 248.70958 
L 116.324639 250.342977 
L 122.347382 257.152549 
L 123.422872 258.144428 
L 124.498362 259.135087 
L 130.090909 263.379 
L 132.456987 264.952684 
L 133.747575 265.667059 
L 138.264632 267.958503 
L 139.985416 268.861875 
L 142.136396 269.864273 
L 144.932669 270.979314 
L 151.170511 273.058338 
L 154.181882 273.883124 
L 161.495214 275.492071 
L 171.174623 277.003305 
L 176.76717 277.62239 
L 181.499325 278.068834 
L 184.725795 278.422922 
L 188.382461 279.432911 
L 191.393832 279.776772 
L 196.341086 280.163338 
L 204.514809 280.652589 
L 235.704015 282.11468 
L 236.134211 282.289574 
L 236.564407 282.701255 
L 237.639897 284.246687 
L 238.285191 284.514448 
L 239.790877 285.051775 
L 241.726759 285.459059 
L 247.534404 286.274699 
L 249.900482 286.508272 
L 259.149695 287.352457 
L 262.376164 287.581644 
L 275.712239 288.354541 
L 292.274783 288.858783 
L 295.071057 288.978334 
L 301.0938 289.137617 
L 301.0938 289.137617 
" clip-path="url(#pfed92f78e0)" style="fill: none; stroke: #f564d4; stroke-width: 1.5; stroke-linecap: square"/>
   </g>
   <g id="line2d_67">
    <path d="M 69.218182 55.800256 
L 69.648378 58.623573 
L 70.50877 61.86606 
L 70.938966 65.032364 
L 71.58426 72.525832 
L 73.305043 95.206377 
L 74.380533 104.930414 
L 75.671121 114.788084 
L 78.037199 130.866774 
L 79.112689 141.059461 
L 81.048571 160.044768 
L 82.769354 174.1499 
L 83.844844 181.520166 
L 85.135432 188.860566 
L 86.42602 194.949635 
L 88.146804 202.146264 
L 90.297783 210.175612 
L 92.233665 216.696876 
L 94.814841 224.566539 
L 97.396017 231.390554 
L 99.331898 236.074268 
L 102.34327 242.654228 
L 106.215034 249.961345 
L 108.796209 254.108364 
L 110.947189 257.288947 
L 114.173659 261.365394 
L 116.324639 263.763026 
L 121.702088 269.074591 
L 123.853068 270.87085 
L 128.370125 274.50867 
L 130.951301 276.300975 
L 142.351494 282.878439 
L 144.932669 284.225249 
L 146.868551 285.186571 
L 149.019531 286.275555 
L 151.170511 287.361022 
L 157.193254 290.281798 
L 168.163251 295.044586 
L 172.250112 296.699559 
L 173.970896 297.479926 
L 175.261484 298.016936 
L 178.057758 299.121046 
L 183.865403 300.98537 
L 191.178734 302.569181 
L 192.254224 302.798172 
L 194.405204 303.189895 
L 197.416576 303.761519 
L 199.782653 304.137002 
L 200.643045 304.310869 
L 201.288339 304.434467 
L 208.60167 305.381336 
L 212.688532 305.873366 
L 213.118728 305.925844 
L 213.764022 305.97544 
L 214.409316 306.0378 
L 215.484806 306.143609 
L 236.349309 307.128219 
L 262.376164 307.8 
L 262.376164 307.8 
" clip-path="url(#pfed92f78e0)" style="fill: none; stroke: #f564d4; stroke-width: 1.5; stroke-linecap: square"/>
   </g>
   <g id="line2d_68">
    <path d="M 69.218182 55.800298 
L 69.648378 58.628709 
L 70.50877 62.148576 
L 70.938966 65.546318 
L 71.58426 73.335686 
L 73.089945 93.953919 
L 74.165435 104.562564 
L 75.240925 113.249433 
L 77.822101 131.813482 
L 79.542885 147.994615 
L 80.833473 159.79207 
L 81.908962 167.353294 
L 83.844844 179.029109 
L 85.35053 186.891813 
L 87.716608 197.893966 
L 90.297783 208.356895 
L 92.663861 216.973893 
L 93.954449 221.08159 
L 96.320527 227.947313 
L 99.116801 235.61722 
L 103.633858 245.438382 
L 107.505622 252.748749 
L 110.516993 257.54649 
L 111.377385 258.734002 
L 112.452875 260.164916 
L 118.045422 266.266006 
L 120.626598 268.54987 
L 123.207774 270.483512 
L 127.294635 273.145311 
L 130.306007 274.958583 
L 132.672085 276.223663 
L 144.502473 281.368973 
L 147.298747 282.266787 
L 149.449727 282.993515 
L 150.525217 283.390364 
L 153.751686 284.378385 
L 170.099133 288.841188 
L 179.778542 290.374764 
L 182.144619 290.772683 
L 184.725795 291.581421 
L 188.812657 292.167123 
L 198.707164 293.142973 
L 206.450691 293.652327 
L 212.043238 294.057366 
L 212.688532 294.334288 
L 213.333826 294.646962 
L 216.1301 295.14408 
L 221.507549 295.595534 
L 234.19833 296.177166 
L 237.424799 296.303643 
L 253.987343 296.76748 
L 285.17655 297.408703 
L 286.682236 297.925439 
L 287.542628 297.9559 
L 288.618118 298.018137 
L 292.059685 298.097147 
L 313.354385 298.321361 
L 322.173402 298.385121 
L 322.173402 298.385121 
" clip-path="url(#pfed92f78e0)" style="fill: none; stroke: #f564d4; stroke-width: 1.5; stroke-linecap: square"/>
   </g>
   <g id="line2d_69">
    <path d="M 69.218182 55.800256 
L 69.648378 58.6255 
L 70.50877 62.026813 
L 70.938966 65.335625 
L 71.58426 72.992021 
L 73.089945 92.864108 
L 73.950337 100.383823 
L 78.037199 132.203423 
L 81.693864 166.532347 
L 82.769354 173.111223 
L 84.490138 182.225087 
L 87.716608 198.364081 
L 89.65249 205.929934 
L 90.943077 210.304961 
L 92.663861 215.502114 
L 96.105429 224.501352 
L 100.407388 234.497898 
L 104.279152 242.083838 
L 105.999936 244.920284 
L 110.732091 252.317299 
L 115.034051 257.344018 
L 118.26052 260.608845 
L 124.498362 265.975164 
L 126.649341 267.542826 
L 129.660713 269.593273 
L 133.317379 271.765304 
L 140.200514 275.319989 
L 142.136396 276.161405 
L 143.426984 276.744848 
L 144.717571 277.278302 
L 148.804433 278.916175 
L 154.612078 281.159881 
L 160.204626 283.403257 
L 168.163251 286.3262 
L 172.46521 287.866936 
L 173.755798 288.323725 
L 176.336974 289.323792 
L 178.057758 290.10861 
L 180.638934 291.050818 
L 182.144619 291.586915 
L 188.167363 293.60035 
L 189.673049 294.533666 
L 190.963636 294.976598 
L 194.8354 296.127417 
L 197.846772 296.793884 
L 200.212849 297.709852 
L 201.503437 298.044413 
L 204.084613 298.54243 
L 207.741279 299.092134 
L 209.67716 299.32025 
L 226.239704 300.612512 
L 247.104208 301.682549 
L 270.980084 302.239697 
L 272.485769 302.255534 
L 272.485769 302.255534 
" clip-path="url(#pfed92f78e0)" style="fill: none; stroke: #f564d4; stroke-width: 1.5; stroke-linecap: square"/>
   </g>
   <g id="line2d_70">
    <path d="M 69.218182 55.800276 
L 69.648378 58.620855 
L 70.50877 61.686174 
L 70.938966 64.678754 
L 71.58426 72.003596 
L 73.520141 97.944609 
L 74.810729 110.296825 
L 76.101317 121.036251 
L 77.822101 134.881479 
L 79.757983 153.705366 
L 80.833473 163.06178 
L 81.908962 170.419479 
L 82.984452 176.136565 
L 84.27504 181.684021 
L 86.210922 188.672892 
L 90.943077 203.997023 
L 94.169547 213.893426 
L 95.675233 218.024853 
L 97.826213 223.384385 
L 101.697976 232.041963 
L 103.848956 236.166482 
L 108.581111 244.303581 
L 110.516993 247.091239 
L 116.109541 254.661507 
L 121.702088 260.548552 
L 127.294635 265.843955 
L 129.015419 267.313879 
L 132.241889 270.112147 
L 135.038163 272.428114 
L 138.909926 275.089259 
L 145.147767 278.938936 
L 147.944041 280.579996 
L 152.461099 283.279086 
L 153.536588 283.905846 
L 156.54796 285.533754 
L 160.634822 287.28597 
L 164.721683 288.687304 
L 169.668937 289.991723 
L 175.69168 291.460268 
L 184.295599 293.081143 
L 190.53344 294.038797 
L 192.039126 294.287425 
L 199.782653 294.953936 
L 207.956376 295.636164 
L 208.816768 295.73523 
L 212.688532 296.027514 
L 219.786765 296.34739 
L 244.092836 297.264932 
L 280.444394 297.900319 
L 280.444394 297.900319 
" clip-path="url(#pfed92f78e0)" style="fill: none; stroke: #f564d4; stroke-width: 1.5; stroke-linecap: square"/>
   </g>
   <g id="patch_3">
    <path d="M 54 320.4 
L 54 43.2 
" style="fill: none; stroke: #000000; stroke-width: 0.8; stroke-linejoin: miter; stroke-linecap: square"/>
   </g>
   <g id="patch_4">
    <path d="M 388.8 320.4 
L 388.8 43.2 
" style="fill: none; stroke: #000000; stroke-width: 0.8; stroke-linejoin: miter; stroke-linecap: square"/>
   </g>
   <g id="patch_5">
    <path d="M 54 320.4 
L 388.8 320.4 
" style="fill: none; stroke: #000000; stroke-width: 0.8; stroke-linejoin: miter; stroke-linecap: square"/>
   </g>
   <g id="patch_6">
    <path d="M 54 43.2 
L 388.8 43.2 
" style="fill: none; stroke: #000000; stroke-width: 0.8; stroke-linejoin: miter; stroke-linecap: square"/>
   </g>
   <g id="text_13">
    <g id="patch_7">
     <path d="M 231.574957 114.618908 
L 260.874957 114.618908 
L 260.874957 96.940783 
L 231.574957 96.940783 
z
" style="fill: #ffffff; opacity: 0.7; stroke: #000000; stroke-linejoin: miter"/>
    </g>
    <!-- K=2 -->
    <g style="fill: #f77189" transform="translate(235.574957 108.539221) scale(0.1 -0.1)">
     <defs>
      <path id="DejaVuSans-4b" d="M 628 4666 
L 1259 4666 
L 1259 2694 
L 3353 4666 
L 4166 4666 
L 1850 2491 
L 4331 0 
L 3500 0 
L 1259 2247 
L 1259 0 
L 628 0 
L 628 4666 
z
" transform="scale(0.015625)"/>
      <path id="DejaVuSans-3d" d="M 678 2906 
L 4684 2906 
L 4684 2381 
L 678 2381 
L 678 2906 
z
M 678 1631 
L 4684 1631 
L 4684 1100 
L 678 1100 
L 678 1631 
z
" transform="scale(0.015625)"/>
     </defs>
     <use xlink:href="#DejaVuSans-4b"/>
     <use xlink:href="#DejaVuSans-3d" x="65.576172"/>
     <use xlink:href="#DejaVuSans-32" x="149.365234"/>
    </g>
   </g>
   <g id="text_14">
    <g id="patch_8">
     <path d="M 193.502615 144.75685 
L 222.802615 144.75685 
L 222.802615 127.078725 
L 193.502615 127.078725 
z
" style="fill: #ffffff; opacity: 0.7; stroke: #000000; stroke-linejoin: miter"/>
    </g>
    <!-- K=3 -->
    <g style="fill: #d58c32" transform="translate(197.502615 138.677162) scale(0.1 -0.1)">
     <use xlink:href="#DejaVuSans-4b"/>
     <use xlink:href="#DejaVuSans-3d" x="65.576172"/>
     <use xlink:href="#DejaVuSans-33" x="149.365234"/>
    </g>
   </g>
   <g id="text_15">
    <g id="patch_9">
     <path d="M 211.570845 171.338784 
L 240.870845 171.338784 
L 240.870845 153.660659 
L 211.570845 153.660659 
z
" style="fill: #ffffff; opacity: 0.7; stroke: #000000; stroke-linejoin: miter"/>
    </g>
    <!-- K=4 -->
    <g style="fill: #a4a031" transform="translate(215.570845 165.259097) scale(0.1 -0.1)">
     <use xlink:href="#DejaVuSans-4b"/>
     <use xlink:href="#DejaVuSans-3d" x="65.576172"/>
     <use xlink:href="#DejaVuSans-34" x="149.365234"/>
    </g>
   </g>
   <g id="text_16">
    <g id="patch_10">
     <path d="M 228.391507 203.926254 
L 257.691507 203.926254 
L 257.691507 186.248129 
L 228.391507 186.248129 
z
" style="fill: #ffffff; opacity: 0.7; stroke: #000000; stroke-linejoin: miter"/>
    </g>
    <!-- K=5 -->
    <g style="fill: #50b131" transform="translate(232.391507 197.846567) scale(0.1 -0.1)">
     <defs>
      <path id="DejaVuSans-35" d="M 691 4666 
L 3169 4666 
L 3169 4134 
L 1269 4134 
L 1269 2991 
Q 1406 3038 1543 3061 
Q 1681 3084 1819 3084 
Q 2600 3084 3056 2656 
Q 3513 2228 3513 1497 
Q 3513 744 3044 326 
Q 2575 -91 1722 -91 
Q 1428 -91 1123 -41 
Q 819 9 494 109 
L 494 744 
Q 775 591 1075 516 
Q 1375 441 1709 441 
Q 2250 441 2565 725 
Q 2881 1009 2881 1497 
Q 2881 1984 2565 2268 
Q 2250 2553 1709 2553 
Q 1456 2553 1204 2497 
Q 953 2441 691 2322 
L 691 4666 
z
" transform="scale(0.015625)"/>
     </defs>
     <use xlink:href="#DejaVuSans-4b"/>
     <use xlink:href="#DejaVuSans-3d" x="65.576172"/>
     <use xlink:href="#DejaVuSans-35" x="149.365234"/>
    </g>
   </g>
   <g id="text_17">
    <g id="patch_11">
     <path d="M 274.207376 226.078136 
L 303.507376 226.078136 
L 303.507376 208.400011 
L 274.207376 208.400011 
z
" style="fill: #ffffff; opacity: 0.7; stroke: #000000; stroke-linejoin: miter"/>
    </g>
    <!-- K=6 -->
    <g style="fill: #34ae91" transform="translate(278.207376 219.998449) scale(0.1 -0.1)">
     <use xlink:href="#DejaVuSans-4b"/>
     <use xlink:href="#DejaVuSans-3d" x="65.576172"/>
     <use xlink:href="#DejaVuSans-36" x="149.365234"/>
    </g>
   </g>
   <g id="text_18">
    <g id="patch_12">
     <path d="M 300.191211 255.168617 
L 329.491211 255.168617 
L 329.491211 237.490492 
L 300.191211 237.490492 
z
" style="fill: #ffffff; opacity: 0.7; stroke: #000000; stroke-linejoin: miter"/>
    </g>
    <!-- K=7 -->
    <g style="fill: #37abb5" transform="translate(304.191211 249.08893) scale(0.1 -0.1)">
     <defs>
      <path id="DejaVuSans-37" d="M 525 4666 
L 3525 4666 
L 3525 4397 
L 1831 0 
L 1172 0 
L 2766 4134 
L 525 4134 
L 525 4666 
z
" transform="scale(0.015625)"/>
     </defs>
     <use xlink:href="#DejaVuSans-4b"/>
     <use xlink:href="#DejaVuSans-3d" x="65.576172"/>
     <use xlink:href="#DejaVuSans-37" x="149.365234"/>
    </g>
   </g>
   <g id="text_19">
    <g id="patch_13">
     <path d="M 309.010228 273.294108 
L 338.310228 273.294108 
L 338.310228 255.615983 
L 309.010228 255.615983 
z
" style="fill: #ffffff; opacity: 0.7; stroke: #000000; stroke-linejoin: miter"/>
    </g>
    <!-- K=8 -->
    <g style="fill: #3ba3ec" transform="translate(313.010228 267.214421) scale(0.1 -0.1)">
     <use xlink:href="#DejaVuSans-4b"/>
     <use xlink:href="#DejaVuSans-3d" x="65.576172"/>
     <use xlink:href="#DejaVuSans-38" x="149.365234"/>
    </g>
   </g>
   <g id="text_20">
    <g id="patch_14">
     <path d="M 322.862538 292.069938 
L 352.162538 292.069938 
L 352.162538 274.391813 
L 322.862538 274.391813 
z
" style="fill: #ffffff; opacity: 0.7; stroke: #000000; stroke-linejoin: miter"/>
    </g>
    <!-- K=9 -->
    <g style="fill: #bb83f4" transform="translate(326.862538 285.99025) scale(0.1 -0.1)">
     <defs>
      <path id="DejaVuSans-39" d="M 703 97 
L 703 672 
Q 941 559 1184 500 
Q 1428 441 1663 441 
Q 2288 441 2617 861 
Q 2947 1281 2994 2138 
Q 2813 1869 2534 1725 
Q 2256 1581 1919 1581 
Q 1219 1581 811 2004 
Q 403 2428 403 3163 
Q 403 3881 828 4315 
Q 1253 4750 1959 4750 
Q 2769 4750 3195 4129 
Q 3622 3509 3622 2328 
Q 3622 1225 3098 567 
Q 2575 -91 1691 -91 
Q 1453 -91 1209 -44 
Q 966 3 703 97 
z
M 1959 2075 
Q 2384 2075 2632 2365 
Q 2881 2656 2881 3163 
Q 2881 3666 2632 3958 
Q 2384 4250 1959 4250 
Q 1534 4250 1286 3958 
Q 1038 3666 1038 3163 
Q 1038 2656 1286 2365 
Q 1534 2075 1959 2075 
z
" transform="scale(0.015625)"/>
     </defs>
     <use xlink:href="#DejaVuSans-4b"/>
     <use xlink:href="#DejaVuSans-3d" x="65.576172"/>
     <use xlink:href="#DejaVuSans-39" x="149.365234"/>
    </g>
   </g>
   <g id="text_21">
    <g id="patch_15">
     <path d="M 309.741561 304.875891 
L 345.404061 304.875891 
L 345.404061 287.197766 
L 309.741561 287.197766 
z
" style="fill: #ffffff; opacity: 0.7; stroke: #000000; stroke-linejoin: miter"/>
    </g>
    <!-- K=10 -->
    <g style="fill: #f564d4" transform="translate(313.741561 298.796203) scale(0.1 -0.1)">
     <use xlink:href="#DejaVuSans-4b"/>
     <use xlink:href="#DejaVuSans-3d" x="65.576172"/>
     <use xlink:href="#DejaVuSans-31" x="149.365234"/>
     <use xlink:href="#DejaVuSans-30" x="212.988281"/>
    </g>
   </g>
   <g id="text_22">
    <!-- Loss curve over 5 runs with SSE loss for different K -->
    <g transform="translate(68.481563 37.2) scale(0.12 -0.12)">
     <defs>
      <path id="DejaVuSans-75" d="M 544 1381 
L 544 3500 
L 1119 3500 
L 1119 1403 
Q 1119 906 1312 657 
Q 1506 409 1894 409 
Q 2359 409 2629 706 
Q 2900 1003 2900 1516 
L 2900 3500 
L 3475 3500 
L 3475 0 
L 2900 0 
L 2900 538 
Q 2691 219 2414 64 
Q 2138 -91 1772 -91 
Q 1169 -91 856 284 
Q 544 659 544 1381 
z
M 1991 3584 
L 1991 3584 
z
" transform="scale(0.015625)"/>
      <path id="DejaVuSans-76" d="M 191 3500 
L 800 3500 
L 1894 563 
L 2988 3500 
L 3597 3500 
L 2284 0 
L 1503 0 
L 191 3500 
z
" transform="scale(0.015625)"/>
      <path id="DejaVuSans-77" d="M 269 3500 
L 844 3500 
L 1563 769 
L 2278 3500 
L 2956 3500 
L 3675 769 
L 4391 3500 
L 4966 3500 
L 4050 0 
L 3372 0 
L 2619 2869 
L 1863 0 
L 1184 0 
L 269 3500 
z
" transform="scale(0.015625)"/>
      <path id="DejaVuSans-68" d="M 3513 2113 
L 3513 0 
L 2938 0 
L 2938 2094 
Q 2938 2591 2744 2837 
Q 2550 3084 2163 3084 
Q 1697 3084 1428 2787 
Q 1159 2491 1159 1978 
L 1159 0 
L 581 0 
L 581 4863 
L 1159 4863 
L 1159 2956 
Q 1366 3272 1645 3428 
Q 1925 3584 2291 3584 
Q 2894 3584 3203 3211 
Q 3513 2838 3513 2113 
z
" transform="scale(0.015625)"/>
      <path id="DejaVuSans-53" d="M 3425 4513 
L 3425 3897 
Q 3066 4069 2747 4153 
Q 2428 4238 2131 4238 
Q 1616 4238 1336 4038 
Q 1056 3838 1056 3469 
Q 1056 3159 1242 3001 
Q 1428 2844 1947 2747 
L 2328 2669 
Q 3034 2534 3370 2195 
Q 3706 1856 3706 1288 
Q 3706 609 3251 259 
Q 2797 -91 1919 -91 
Q 1588 -91 1214 -16 
Q 841 59 441 206 
L 441 856 
Q 825 641 1194 531 
Q 1563 422 1919 422 
Q 2459 422 2753 634 
Q 3047 847 3047 1241 
Q 3047 1584 2836 1778 
Q 2625 1972 2144 2069 
L 1759 2144 
Q 1053 2284 737 2584 
Q 422 2884 422 3419 
Q 422 4038 858 4394 
Q 1294 4750 2059 4750 
Q 2388 4750 2728 4690 
Q 3069 4631 3425 4513 
z
" transform="scale(0.015625)"/>
      <path id="DejaVuSans-45" d="M 628 4666 
L 3578 4666 
L 3578 4134 
L 1259 4134 
L 1259 2753 
L 3481 2753 
L 3481 2222 
L 1259 2222 
L 1259 531 
L 3634 531 
L 3634 0 
L 628 0 
L 628 4666 
z
" transform="scale(0.015625)"/>
      <path id="DejaVuSans-66" d="M 2375 4863 
L 2375 4384 
L 1825 4384 
Q 1516 4384 1395 4259 
Q 1275 4134 1275 3809 
L 1275 3500 
L 2222 3500 
L 2222 3053 
L 1275 3053 
L 1275 0 
L 697 0 
L 697 3053 
L 147 3053 
L 147 3500 
L 697 3500 
L 697 3744 
Q 697 4328 969 4595 
Q 1241 4863 1831 4863 
L 2375 4863 
z
" transform="scale(0.015625)"/>
      <path id="DejaVuSans-64" d="M 2906 2969 
L 2906 4863 
L 3481 4863 
L 3481 0 
L 2906 0 
L 2906 525 
Q 2725 213 2448 61 
Q 2172 -91 1784 -91 
Q 1150 -91 751 415 
Q 353 922 353 1747 
Q 353 2572 751 3078 
Q 1150 3584 1784 3584 
Q 2172 3584 2448 3432 
Q 2725 3281 2906 2969 
z
M 947 1747 
Q 947 1113 1208 752 
Q 1469 391 1925 391 
Q 2381 391 2643 752 
Q 2906 1113 2906 1747 
Q 2906 2381 2643 2742 
Q 2381 3103 1925 3103 
Q 1469 3103 1208 2742 
Q 947 2381 947 1747 
z
" transform="scale(0.015625)"/>
     </defs>
     <use xlink:href="#DejaVuSans-4c"/>
     <use xlink:href="#DejaVuSans-6f" x="53.962891"/>
     <use xlink:href="#DejaVuSans-73" x="115.144531"/>
     <use xlink:href="#DejaVuSans-73" x="167.244141"/>
     <use xlink:href="#DejaVuSans-20" x="219.34375"/>
     <use xlink:href="#DejaVuSans-63" x="251.130859"/>
     <use xlink:href="#DejaVuSans-75" x="306.111328"/>
     <use xlink:href="#DejaVuSans-72" x="369.490234"/>
     <use xlink:href="#DejaVuSans-76" x="410.603516"/>
     <use xlink:href="#DejaVuSans-65" x="469.783203"/>
     <use xlink:href="#DejaVuSans-20" x="531.306641"/>
     <use xlink:href="#DejaVuSans-6f" x="563.09375"/>
     <use xlink:href="#DejaVuSans-76" x="624.275391"/>
     <use xlink:href="#DejaVuSans-65" x="683.455078"/>
     <use xlink:href="#DejaVuSans-72" x="744.978516"/>
     <use xlink:href="#DejaVuSans-20" x="786.091797"/>
     <use xlink:href="#DejaVuSans-35" x="817.878906"/>
     <use xlink:href="#DejaVuSans-20" x="881.501953"/>
     <use xlink:href="#DejaVuSans-72" x="913.289062"/>
     <use xlink:href="#DejaVuSans-75" x="954.402344"/>
     <use xlink:href="#DejaVuSans-6e" x="1017.78125"/>
     <use xlink:href="#DejaVuSans-73" x="1081.160156"/>
     <use xlink:href="#DejaVuSans-20" x="1133.259766"/>
     <use xlink:href="#DejaVuSans-77" x="1165.046875"/>
     <use xlink:href="#DejaVuSans-69" x="1246.833984"/>
     <use xlink:href="#DejaVuSans-74" x="1274.617188"/>
     <use xlink:href="#DejaVuSans-68" x="1313.826172"/>
     <use xlink:href="#DejaVuSans-20" x="1377.205078"/>
     <use xlink:href="#DejaVuSans-53" x="1408.992188"/>
     <use xlink:href="#DejaVuSans-53" x="1472.46875"/>
     <use xlink:href="#DejaVuSans-45" x="1535.945312"/>
     <use xlink:href="#DejaVuSans-20" x="1599.128906"/>
     <use xlink:href="#DejaVuSans-6c" x="1630.916016"/>
     <use xlink:href="#DejaVuSans-6f" x="1658.699219"/>
     <use xlink:href="#DejaVuSans-73" x="1719.880859"/>
     <use xlink:href="#DejaVuSans-73" x="1771.980469"/>
     <use xlink:href="#DejaVuSans-20" x="1824.080078"/>
     <use xlink:href="#DejaVuSans-66" x="1855.867188"/>
     <use xlink:href="#DejaVuSans-6f" x="1891.072266"/>
     <use xlink:href="#DejaVuSans-72" x="1952.253906"/>
     <use xlink:href="#DejaVuSans-20" x="1993.367188"/>
     <use xlink:href="#DejaVuSans-64" x="2025.154297"/>
     <use xlink:href="#DejaVuSans-69" x="2088.630859"/>
     <use xlink:href="#DejaVuSans-66" x="2116.414062"/>
     <use xlink:href="#DejaVuSans-66" x="2151.619141"/>
     <use xlink:href="#DejaVuSans-65" x="2186.824219"/>
     <use xlink:href="#DejaVuSans-72" x="2248.347656"/>
     <use xlink:href="#DejaVuSans-65" x="2287.210938"/>
     <use xlink:href="#DejaVuSans-6e" x="2348.734375"/>
     <use xlink:href="#DejaVuSans-74" x="2412.113281"/>
     <use xlink:href="#DejaVuSans-20" x="2451.322266"/>
     <use xlink:href="#DejaVuSans-4b" x="2483.109375"/>
    </g>
   </g>
   <g id="legend_1">
    <g id="patch_16">
     <path d="M 322.1375 183.303125 
L 381.8 183.303125 
Q 383.8 183.303125 383.8 181.303125 
L 383.8 50.2 
Q 383.8 48.2 381.8 48.2 
L 322.1375 48.2 
Q 320.1375 48.2 320.1375 50.2 
L 320.1375 181.303125 
Q 320.1375 183.303125 322.1375 183.303125 
z
" style="fill: #ffffff; opacity: 0.8; stroke: #cccccc; stroke-linejoin: miter"/>
    </g>
    <g id="line2d_71">
     <path d="M 324.1375 56.298437 
L 334.1375 56.298437 
L 344.1375 56.298437 
" style="fill: none; stroke: #f77189; stroke-width: 1.5; stroke-linecap: square"/>
    </g>
    <g id="text_23">
     <!-- K=2 -->
     <g transform="translate(352.1375 59.798437) scale(0.1 -0.1)">
      <use xlink:href="#DejaVuSans-4b"/>
      <use xlink:href="#DejaVuSans-3d" x="65.576172"/>
      <use xlink:href="#DejaVuSans-32" x="149.365234"/>
     </g>
    </g>
    <g id="line2d_72">
     <path d="M 324.1375 70.976562 
L 334.1375 70.976562 
L 344.1375 70.976562 
" style="fill: none; stroke: #d58c32; stroke-width: 1.5; stroke-linecap: square"/>
    </g>
    <g id="text_24">
     <!-- K=3 -->
     <g transform="translate(352.1375 74.476562) scale(0.1 -0.1)">
      <use xlink:href="#DejaVuSans-4b"/>
      <use xlink:href="#DejaVuSans-3d" x="65.576172"/>
      <use xlink:href="#DejaVuSans-33" x="149.365234"/>
     </g>
    </g>
    <g id="line2d_73">
     <path d="M 324.1375 85.654687 
L 334.1375 85.654687 
L 344.1375 85.654687 
" style="fill: none; stroke: #a4a031; stroke-width: 1.5; stroke-linecap: square"/>
    </g>
    <g id="text_25">
     <!-- K=4 -->
     <g transform="translate(352.1375 89.154687) scale(0.1 -0.1)">
      <use xlink:href="#DejaVuSans-4b"/>
      <use xlink:href="#DejaVuSans-3d" x="65.576172"/>
      <use xlink:href="#DejaVuSans-34" x="149.365234"/>
     </g>
    </g>
    <g id="line2d_74">
     <path d="M 324.1375 100.332812 
L 334.1375 100.332812 
L 344.1375 100.332812 
" style="fill: none; stroke: #50b131; stroke-width: 1.5; stroke-linecap: square"/>
    </g>
    <g id="text_26">
     <!-- K=5 -->
     <g transform="translate(352.1375 103.832812) scale(0.1 -0.1)">
      <use xlink:href="#DejaVuSans-4b"/>
      <use xlink:href="#DejaVuSans-3d" x="65.576172"/>
      <use xlink:href="#DejaVuSans-35" x="149.365234"/>
     </g>
    </g>
    <g id="line2d_75">
     <path d="M 324.1375 115.010937 
L 334.1375 115.010937 
L 344.1375 115.010937 
" style="fill: none; stroke: #34ae91; stroke-width: 1.5; stroke-linecap: square"/>
    </g>
    <g id="text_27">
     <!-- K=6 -->
     <g transform="translate(352.1375 118.510937) scale(0.1 -0.1)">
      <use xlink:href="#DejaVuSans-4b"/>
      <use xlink:href="#DejaVuSans-3d" x="65.576172"/>
      <use xlink:href="#DejaVuSans-36" x="149.365234"/>
     </g>
    </g>
    <g id="line2d_76">
     <path d="M 324.1375 129.689062 
L 334.1375 129.689062 
L 344.1375 129.689062 
" style="fill: none; stroke: #37abb5; stroke-width: 1.5; stroke-linecap: square"/>
    </g>
    <g id="text_28">
     <!-- K=7 -->
     <g transform="translate(352.1375 133.189062) scale(0.1 -0.1)">
      <use xlink:href="#DejaVuSans-4b"/>
      <use xlink:href="#DejaVuSans-3d" x="65.576172"/>
      <use xlink:href="#DejaVuSans-37" x="149.365234"/>
     </g>
    </g>
    <g id="line2d_77">
     <path d="M 324.1375 144.367187 
L 334.1375 144.367187 
L 344.1375 144.367187 
" style="fill: none; stroke: #3ba3ec; stroke-width: 1.5; stroke-linecap: square"/>
    </g>
    <g id="text_29">
     <!-- K=8 -->
     <g transform="translate(352.1375 147.867187) scale(0.1 -0.1)">
      <use xlink:href="#DejaVuSans-4b"/>
      <use xlink:href="#DejaVuSans-3d" x="65.576172"/>
      <use xlink:href="#DejaVuSans-38" x="149.365234"/>
     </g>
    </g>
    <g id="line2d_78">
     <path d="M 324.1375 159.045312 
L 334.1375 159.045312 
L 344.1375 159.045312 
" style="fill: none; stroke: #bb83f4; stroke-width: 1.5; stroke-linecap: square"/>
    </g>
    <g id="text_30">
     <!-- K=9 -->
     <g transform="translate(352.1375 162.545312) scale(0.1 -0.1)">
      <use xlink:href="#DejaVuSans-4b"/>
      <use xlink:href="#DejaVuSans-3d" x="65.576172"/>
      <use xlink:href="#DejaVuSans-39" x="149.365234"/>
     </g>
    </g>
    <g id="line2d_79">
     <path d="M 324.1375 173.723437 
L 334.1375 173.723437 
L 344.1375 173.723437 
" style="fill: none; stroke: #f564d4; stroke-width: 1.5; stroke-linecap: square"/>
    </g>
    <g id="text_31">
     <!-- K=10 -->
     <g transform="translate(352.1375 177.223437) scale(0.1 -0.1)">
      <use xlink:href="#DejaVuSans-4b"/>
      <use xlink:href="#DejaVuSans-3d" x="65.576172"/>
      <use xlink:href="#DejaVuSans-31" x="149.365234"/>
      <use xlink:href="#DejaVuSans-30" x="212.988281"/>
     </g>
    </g>
   </g>
  </g>
 </g>
 <defs>
  <clipPath id="pfed92f78e0">
   <rect x="54" y="43.2" width="334.8" height="277.2"/>
  </clipPath>
 </defs>
</svg>
