<?xml version="1.0" encoding="utf-8" standalone="no"?>
<!DOCTYPE svg PUBLIC "-//W3C//DTD SVG 1.1//EN"
  "http://www.w3.org/Graphics/SVG/1.1/DTD/svg11.dtd">
<svg xmlns:xlink="http://www.w3.org/1999/xlink" width="432pt" height="360pt" viewBox="0 0 432 360" xmlns="http://www.w3.org/2000/svg" version="1.1">
 <metadata>
  <rdf:RDF xmlns:dc="http://purl.org/dc/elements/1.1/" xmlns:cc="http://creativecommons.org/ns#" xmlns:rdf="http://www.w3.org/1999/02/22-rdf-syntax-ns#">
   <cc:Work>
    <dc:type rdf:resource="http://purl.org/dc/dcmitype/StillImage"/>
    <dc:date>2024-06-23T23:47:33.017069</dc:date>
    <dc:format>image/svg+xml</dc:format>
    <dc:creator>
     <cc:Agent>
      <dc:title>Matplotlib v3.8.2, https://matplotlib.org/</dc:title>
     </cc:Agent>
    </dc:creator>
   </cc:Work>
  </rdf:RDF>
 </metadata>
 <defs>
  <style type="text/css">*{stroke-linejoin: round; stroke-linecap: butt}</style>
 </defs>
 <g id="figure_1">
  <g id="patch_1">
   <path d="M 0 360 
L 432 360 
L 432 0 
L 0 0 
z
" style="fill: #ffffff"/>
  </g>
  <g id="axes_1">
   <g id="patch_2">
    <path d="M 54 320.4 
L 388.8 320.4 
L 388.8 43.2 
L 54 43.2 
z
" style="fill: #ffffff"/>
   </g>
   <g id="matplotlib.axis_1">
    <g id="xtick_1">
     <g id="line2d_1">
      <defs>
       <path id="m1315e1143c" d="M 0 0 
L 0 3.5 
" style="stroke: #000000; stroke-width: 0.8"/>
      </defs>
      <g>
       <use xlink:href="#m1315e1143c" x="69.218182" y="320.4" style="stroke: #000000; stroke-width: 0.8"/>
      </g>
     </g>
     <g id="text_1">
      <!-- 0 -->
      <g transform="translate(66.036932 334.998438) scale(0.1 -0.1)">
       <defs>
        <path id="DejaVuSans-30" d="M 2034 4250 
Q 1547 4250 1301 3770 
Q 1056 3291 1056 2328 
Q 1056 1369 1301 889 
Q 1547 409 2034 409 
Q 2525 409 2770 889 
Q 3016 1369 3016 2328 
Q 3016 3291 2770 3770 
Q 2525 4250 2034 4250 
z
M 2034 4750 
Q 2819 4750 3233 4129 
Q 3647 3509 3647 2328 
Q 3647 1150 3233 529 
Q 2819 -91 2034 -91 
Q 1250 -91 836 529 
Q 422 1150 422 2328 
Q 422 3509 836 4129 
Q 1250 4750 2034 4750 
z
" transform="scale(0.015625)"/>
       </defs>
       <use xlink:href="#DejaVuSans-30"/>
      </g>
     </g>
    </g>
    <g id="xtick_2">
     <g id="line2d_2">
      <g>
       <use xlink:href="#m1315e1143c" x="112.237777" y="320.4" style="stroke: #000000; stroke-width: 0.8"/>
      </g>
     </g>
     <g id="text_2">
      <!-- 200 -->
      <g transform="translate(102.694027 334.998438) scale(0.1 -0.1)">
       <defs>
        <path id="DejaVuSans-32" d="M 1228 531 
L 3431 531 
L 3431 0 
L 469 0 
L 469 531 
Q 828 903 1448 1529 
Q 2069 2156 2228 2338 
Q 2531 2678 2651 2914 
Q 2772 3150 2772 3378 
Q 2772 3750 2511 3984 
Q 2250 4219 1831 4219 
Q 1534 4219 1204 4116 
Q 875 4013 500 3803 
L 500 4441 
Q 881 4594 1212 4672 
Q 1544 4750 1819 4750 
Q 2544 4750 2975 4387 
Q 3406 4025 3406 3419 
Q 3406 3131 3298 2873 
Q 3191 2616 2906 2266 
Q 2828 2175 2409 1742 
Q 1991 1309 1228 531 
z
" transform="scale(0.015625)"/>
       </defs>
       <use xlink:href="#DejaVuSans-32"/>
       <use xlink:href="#DejaVuSans-30" x="63.623047"/>
       <use xlink:href="#DejaVuSans-30" x="127.246094"/>
      </g>
     </g>
    </g>
    <g id="xtick_3">
     <g id="line2d_3">
      <g>
       <use xlink:href="#m1315e1143c" x="155.257372" y="320.4" style="stroke: #000000; stroke-width: 0.8"/>
      </g>
     </g>
     <g id="text_3">
      <!-- 400 -->
      <g transform="translate(145.713622 334.998438) scale(0.1 -0.1)">
       <defs>
        <path id="DejaVuSans-34" d="M 2419 4116 
L 825 1625 
L 2419 1625 
L 2419 4116 
z
M 2253 4666 
L 3047 4666 
L 3047 1625 
L 3713 1625 
L 3713 1100 
L 3047 1100 
L 3047 0 
L 2419 0 
L 2419 1100 
L 313 1100 
L 313 1709 
L 2253 4666 
z
" transform="scale(0.015625)"/>
       </defs>
       <use xlink:href="#DejaVuSans-34"/>
       <use xlink:href="#DejaVuSans-30" x="63.623047"/>
       <use xlink:href="#DejaVuSans-30" x="127.246094"/>
      </g>
     </g>
    </g>
    <g id="xtick_4">
     <g id="line2d_4">
      <g>
       <use xlink:href="#m1315e1143c" x="198.276968" y="320.4" style="stroke: #000000; stroke-width: 0.8"/>
      </g>
     </g>
     <g id="text_4">
      <!-- 600 -->
      <g transform="translate(188.733218 334.998438) scale(0.1 -0.1)">
       <defs>
        <path id="DejaVuSans-36" d="M 2113 2584 
Q 1688 2584 1439 2293 
Q 1191 2003 1191 1497 
Q 1191 994 1439 701 
Q 1688 409 2113 409 
Q 2538 409 2786 701 
Q 3034 994 3034 1497 
Q 3034 2003 2786 2293 
Q 2538 2584 2113 2584 
z
M 3366 4563 
L 3366 3988 
Q 3128 4100 2886 4159 
Q 2644 4219 2406 4219 
Q 1781 4219 1451 3797 
Q 1122 3375 1075 2522 
Q 1259 2794 1537 2939 
Q 1816 3084 2150 3084 
Q 2853 3084 3261 2657 
Q 3669 2231 3669 1497 
Q 3669 778 3244 343 
Q 2819 -91 2113 -91 
Q 1303 -91 875 529 
Q 447 1150 447 2328 
Q 447 3434 972 4092 
Q 1497 4750 2381 4750 
Q 2619 4750 2861 4703 
Q 3103 4656 3366 4563 
z
" transform="scale(0.015625)"/>
       </defs>
       <use xlink:href="#DejaVuSans-36"/>
       <use xlink:href="#DejaVuSans-30" x="63.623047"/>
       <use xlink:href="#DejaVuSans-30" x="127.246094"/>
      </g>
     </g>
    </g>
    <g id="xtick_5">
     <g id="line2d_5">
      <g>
       <use xlink:href="#m1315e1143c" x="241.296563" y="320.4" style="stroke: #000000; stroke-width: 0.8"/>
      </g>
     </g>
     <g id="text_5">
      <!-- 800 -->
      <g transform="translate(231.752813 334.998438) scale(0.1 -0.1)">
       <defs>
        <path id="DejaVuSans-38" d="M 2034 2216 
Q 1584 2216 1326 1975 
Q 1069 1734 1069 1313 
Q 1069 891 1326 650 
Q 1584 409 2034 409 
Q 2484 409 2743 651 
Q 3003 894 3003 1313 
Q 3003 1734 2745 1975 
Q 2488 2216 2034 2216 
z
M 1403 2484 
Q 997 2584 770 2862 
Q 544 3141 544 3541 
Q 544 4100 942 4425 
Q 1341 4750 2034 4750 
Q 2731 4750 3128 4425 
Q 3525 4100 3525 3541 
Q 3525 3141 3298 2862 
Q 3072 2584 2669 2484 
Q 3125 2378 3379 2068 
Q 3634 1759 3634 1313 
Q 3634 634 3220 271 
Q 2806 -91 2034 -91 
Q 1263 -91 848 271 
Q 434 634 434 1313 
Q 434 1759 690 2068 
Q 947 2378 1403 2484 
z
M 1172 3481 
Q 1172 3119 1398 2916 
Q 1625 2713 2034 2713 
Q 2441 2713 2670 2916 
Q 2900 3119 2900 3481 
Q 2900 3844 2670 4047 
Q 2441 4250 2034 4250 
Q 1625 4250 1398 4047 
Q 1172 3844 1172 3481 
z
" transform="scale(0.015625)"/>
       </defs>
       <use xlink:href="#DejaVuSans-38"/>
       <use xlink:href="#DejaVuSans-30" x="63.623047"/>
       <use xlink:href="#DejaVuSans-30" x="127.246094"/>
      </g>
     </g>
    </g>
    <g id="xtick_6">
     <g id="line2d_6">
      <g>
       <use xlink:href="#m1315e1143c" x="284.316158" y="320.4" style="stroke: #000000; stroke-width: 0.8"/>
      </g>
     </g>
     <g id="text_6">
      <!-- 1000 -->
      <g transform="translate(271.591158 334.998438) scale(0.1 -0.1)">
       <defs>
        <path id="DejaVuSans-31" d="M 794 531 
L 1825 531 
L 1825 4091 
L 703 3866 
L 703 4441 
L 1819 4666 
L 2450 4666 
L 2450 531 
L 3481 531 
L 3481 0 
L 794 0 
L 794 531 
z
" transform="scale(0.015625)"/>
       </defs>
       <use xlink:href="#DejaVuSans-31"/>
       <use xlink:href="#DejaVuSans-30" x="63.623047"/>
       <use xlink:href="#DejaVuSans-30" x="127.246094"/>
       <use xlink:href="#DejaVuSans-30" x="190.869141"/>
      </g>
     </g>
    </g>
    <g id="xtick_7">
     <g id="line2d_7">
      <g>
       <use xlink:href="#m1315e1143c" x="327.335753" y="320.4" style="stroke: #000000; stroke-width: 0.8"/>
      </g>
     </g>
     <g id="text_7">
      <!-- 1200 -->
      <g transform="translate(314.610753 334.998438) scale(0.1 -0.1)">
       <use xlink:href="#DejaVuSans-31"/>
       <use xlink:href="#DejaVuSans-32" x="63.623047"/>
       <use xlink:href="#DejaVuSans-30" x="127.246094"/>
       <use xlink:href="#DejaVuSans-30" x="190.869141"/>
      </g>
     </g>
    </g>
    <g id="xtick_8">
     <g id="line2d_8">
      <g>
       <use xlink:href="#m1315e1143c" x="370.355349" y="320.4" style="stroke: #000000; stroke-width: 0.8"/>
      </g>
     </g>
     <g id="text_8">
      <!-- 1400 -->
      <g transform="translate(357.630349 334.998438) scale(0.1 -0.1)">
       <use xlink:href="#DejaVuSans-31"/>
       <use xlink:href="#DejaVuSans-34" x="63.623047"/>
       <use xlink:href="#DejaVuSans-30" x="127.246094"/>
       <use xlink:href="#DejaVuSans-30" x="190.869141"/>
      </g>
     </g>
    </g>
    <g id="text_9">
     <!-- Iterations -->
     <g transform="translate(197.586719 348.676562) scale(0.1 -0.1)">
      <defs>
       <path id="DejaVuSans-49" d="M 628 4666 
L 1259 4666 
L 1259 0 
L 628 0 
L 628 4666 
z
" transform="scale(0.015625)"/>
       <path id="DejaVuSans-74" d="M 1172 4494 
L 1172 3500 
L 2356 3500 
L 2356 3053 
L 1172 3053 
L 1172 1153 
Q 1172 725 1289 603 
Q 1406 481 1766 481 
L 2356 481 
L 2356 0 
L 1766 0 
Q 1100 0 847 248 
Q 594 497 594 1153 
L 594 3053 
L 172 3053 
L 172 3500 
L 594 3500 
L 594 4494 
L 1172 4494 
z
" transform="scale(0.015625)"/>
       <path id="DejaVuSans-65" d="M 3597 1894 
L 3597 1613 
L 953 1613 
Q 991 1019 1311 708 
Q 1631 397 2203 397 
Q 2534 397 2845 478 
Q 3156 559 3463 722 
L 3463 178 
Q 3153 47 2828 -22 
Q 2503 -91 2169 -91 
Q 1331 -91 842 396 
Q 353 884 353 1716 
Q 353 2575 817 3079 
Q 1281 3584 2069 3584 
Q 2775 3584 3186 3129 
Q 3597 2675 3597 1894 
z
M 3022 2063 
Q 3016 2534 2758 2815 
Q 2500 3097 2075 3097 
Q 1594 3097 1305 2825 
Q 1016 2553 972 2059 
L 3022 2063 
z
" transform="scale(0.015625)"/>
       <path id="DejaVuSans-72" d="M 2631 2963 
Q 2534 3019 2420 3045 
Q 2306 3072 2169 3072 
Q 1681 3072 1420 2755 
Q 1159 2438 1159 1844 
L 1159 0 
L 581 0 
L 581 3500 
L 1159 3500 
L 1159 2956 
Q 1341 3275 1631 3429 
Q 1922 3584 2338 3584 
Q 2397 3584 2469 3576 
Q 2541 3569 2628 3553 
L 2631 2963 
z
" transform="scale(0.015625)"/>
       <path id="DejaVuSans-61" d="M 2194 1759 
Q 1497 1759 1228 1600 
Q 959 1441 959 1056 
Q 959 750 1161 570 
Q 1363 391 1709 391 
Q 2188 391 2477 730 
Q 2766 1069 2766 1631 
L 2766 1759 
L 2194 1759 
z
M 3341 1997 
L 3341 0 
L 2766 0 
L 2766 531 
Q 2569 213 2275 61 
Q 1981 -91 1556 -91 
Q 1019 -91 701 211 
Q 384 513 384 1019 
Q 384 1609 779 1909 
Q 1175 2209 1959 2209 
L 2766 2209 
L 2766 2266 
Q 2766 2663 2505 2880 
Q 2244 3097 1772 3097 
Q 1472 3097 1187 3025 
Q 903 2953 641 2809 
L 641 3341 
Q 956 3463 1253 3523 
Q 1550 3584 1831 3584 
Q 2591 3584 2966 3190 
Q 3341 2797 3341 1997 
z
" transform="scale(0.015625)"/>
       <path id="DejaVuSans-69" d="M 603 3500 
L 1178 3500 
L 1178 0 
L 603 0 
L 603 3500 
z
M 603 4863 
L 1178 4863 
L 1178 4134 
L 603 4134 
L 603 4863 
z
" transform="scale(0.015625)"/>
       <path id="DejaVuSans-6f" d="M 1959 3097 
Q 1497 3097 1228 2736 
Q 959 2375 959 1747 
Q 959 1119 1226 758 
Q 1494 397 1959 397 
Q 2419 397 2687 759 
Q 2956 1122 2956 1747 
Q 2956 2369 2687 2733 
Q 2419 3097 1959 3097 
z
M 1959 3584 
Q 2709 3584 3137 3096 
Q 3566 2609 3566 1747 
Q 3566 888 3137 398 
Q 2709 -91 1959 -91 
Q 1206 -91 779 398 
Q 353 888 353 1747 
Q 353 2609 779 3096 
Q 1206 3584 1959 3584 
z
" transform="scale(0.015625)"/>
       <path id="DejaVuSans-6e" d="M 3513 2113 
L 3513 0 
L 2938 0 
L 2938 2094 
Q 2938 2591 2744 2837 
Q 2550 3084 2163 3084 
Q 1697 3084 1428 2787 
Q 1159 2491 1159 1978 
L 1159 0 
L 581 0 
L 581 3500 
L 1159 3500 
L 1159 2956 
Q 1366 3272 1645 3428 
Q 1925 3584 2291 3584 
Q 2894 3584 3203 3211 
Q 3513 2838 3513 2113 
z
" transform="scale(0.015625)"/>
       <path id="DejaVuSans-73" d="M 2834 3397 
L 2834 2853 
Q 2591 2978 2328 3040 
Q 2066 3103 1784 3103 
Q 1356 3103 1142 2972 
Q 928 2841 928 2578 
Q 928 2378 1081 2264 
Q 1234 2150 1697 2047 
L 1894 2003 
Q 2506 1872 2764 1633 
Q 3022 1394 3022 966 
Q 3022 478 2636 193 
Q 2250 -91 1575 -91 
Q 1294 -91 989 -36 
Q 684 19 347 128 
L 347 722 
Q 666 556 975 473 
Q 1284 391 1588 391 
Q 1994 391 2212 530 
Q 2431 669 2431 922 
Q 2431 1156 2273 1281 
Q 2116 1406 1581 1522 
L 1381 1569 
Q 847 1681 609 1914 
Q 372 2147 372 2553 
Q 372 3047 722 3315 
Q 1072 3584 1716 3584 
Q 2034 3584 2315 3537 
Q 2597 3491 2834 3397 
z
" transform="scale(0.015625)"/>
      </defs>
      <use xlink:href="#DejaVuSans-49"/>
      <use xlink:href="#DejaVuSans-74" x="29.492188"/>
      <use xlink:href="#DejaVuSans-65" x="68.701172"/>
      <use xlink:href="#DejaVuSans-72" x="130.224609"/>
      <use xlink:href="#DejaVuSans-61" x="171.337891"/>
      <use xlink:href="#DejaVuSans-74" x="232.617188"/>
      <use xlink:href="#DejaVuSans-69" x="271.826172"/>
      <use xlink:href="#DejaVuSans-6f" x="299.609375"/>
      <use xlink:href="#DejaVuSans-6e" x="360.791016"/>
      <use xlink:href="#DejaVuSans-73" x="424.169922"/>
     </g>
    </g>
   </g>
   <g id="matplotlib.axis_2">
    <g id="ytick_1">
     <g id="line2d_9">
      <defs>
       <path id="m031a69c7d2" d="M 0 0 
L -3.5 0 
" style="stroke: #000000; stroke-width: 0.8"/>
      </defs>
      <g>
       <use xlink:href="#m031a69c7d2" x="54" y="312.463128" style="stroke: #000000; stroke-width: 0.8"/>
      </g>
     </g>
     <g id="text_10">
      <!-- 0 -->
      <g transform="translate(40.6375 316.262346) scale(0.1 -0.1)">
       <use xlink:href="#DejaVuSans-30"/>
      </g>
     </g>
    </g>
    <g id="ytick_2">
     <g id="line2d_10">
      <g>
       <use xlink:href="#m031a69c7d2" x="54" y="256.612857" style="stroke: #000000; stroke-width: 0.8"/>
      </g>
     </g>
     <g id="text_11">
      <!-- 1000 -->
      <g transform="translate(21.55 260.412076) scale(0.1 -0.1)">
       <use xlink:href="#DejaVuSans-31"/>
       <use xlink:href="#DejaVuSans-30" x="63.623047"/>
       <use xlink:href="#DejaVuSans-30" x="127.246094"/>
       <use xlink:href="#DejaVuSans-30" x="190.869141"/>
      </g>
     </g>
    </g>
    <g id="ytick_3">
     <g id="line2d_11">
      <g>
       <use xlink:href="#m031a69c7d2" x="54" y="200.762587" style="stroke: #000000; stroke-width: 0.8"/>
      </g>
     </g>
     <g id="text_12">
      <!-- 2000 -->
      <g transform="translate(21.55 204.561806) scale(0.1 -0.1)">
       <use xlink:href="#DejaVuSans-32"/>
       <use xlink:href="#DejaVuSans-30" x="63.623047"/>
       <use xlink:href="#DejaVuSans-30" x="127.246094"/>
       <use xlink:href="#DejaVuSans-30" x="190.869141"/>
      </g>
     </g>
    </g>
    <g id="ytick_4">
     <g id="line2d_12">
      <g>
       <use xlink:href="#m031a69c7d2" x="54" y="144.912317" style="stroke: #000000; stroke-width: 0.8"/>
      </g>
     </g>
     <g id="text_13">
      <!-- 3000 -->
      <g transform="translate(21.55 148.711536) scale(0.1 -0.1)">
       <defs>
        <path id="DejaVuSans-33" d="M 2597 2516 
Q 3050 2419 3304 2112 
Q 3559 1806 3559 1356 
Q 3559 666 3084 287 
Q 2609 -91 1734 -91 
Q 1441 -91 1130 -33 
Q 819 25 488 141 
L 488 750 
Q 750 597 1062 519 
Q 1375 441 1716 441 
Q 2309 441 2620 675 
Q 2931 909 2931 1356 
Q 2931 1769 2642 2001 
Q 2353 2234 1838 2234 
L 1294 2234 
L 1294 2753 
L 1863 2753 
Q 2328 2753 2575 2939 
Q 2822 3125 2822 3475 
Q 2822 3834 2567 4026 
Q 2313 4219 1838 4219 
Q 1578 4219 1281 4162 
Q 984 4106 628 3988 
L 628 4550 
Q 988 4650 1302 4700 
Q 1616 4750 1894 4750 
Q 2613 4750 3031 4423 
Q 3450 4097 3450 3541 
Q 3450 3153 3228 2886 
Q 3006 2619 2597 2516 
z
" transform="scale(0.015625)"/>
       </defs>
       <use xlink:href="#DejaVuSans-33"/>
       <use xlink:href="#DejaVuSans-30" x="63.623047"/>
       <use xlink:href="#DejaVuSans-30" x="127.246094"/>
       <use xlink:href="#DejaVuSans-30" x="190.869141"/>
      </g>
     </g>
    </g>
    <g id="ytick_5">
     <g id="line2d_13">
      <g>
       <use xlink:href="#m031a69c7d2" x="54" y="89.062047" style="stroke: #000000; stroke-width: 0.8"/>
      </g>
     </g>
     <g id="text_14">
      <!-- 4000 -->
      <g transform="translate(21.55 92.861265) scale(0.1 -0.1)">
       <use xlink:href="#DejaVuSans-34"/>
       <use xlink:href="#DejaVuSans-30" x="63.623047"/>
       <use xlink:href="#DejaVuSans-30" x="127.246094"/>
       <use xlink:href="#DejaVuSans-30" x="190.869141"/>
      </g>
     </g>
    </g>
    <g id="text_15">
     <!-- Loss -->
     <g transform="translate(15.470312 192.767187) rotate(-90) scale(0.1 -0.1)">
      <defs>
       <path id="DejaVuSans-4c" d="M 628 4666 
L 1259 4666 
L 1259 531 
L 3531 531 
L 3531 0 
L 628 0 
L 628 4666 
z
" transform="scale(0.015625)"/>
      </defs>
      <use xlink:href="#DejaVuSans-4c"/>
      <use xlink:href="#DejaVuSans-6f" x="53.962891"/>
      <use xlink:href="#DejaVuSans-73" x="115.144531"/>
      <use xlink:href="#DejaVuSans-73" x="167.244141"/>
     </g>
    </g>
   </g>
   <g id="line2d_14">
    <path d="M 69.218182 55.80106 
L 69.648378 67.085935 
L 70.50877 79.932744 
L 70.938966 91.800213 
L 73.089945 163.732301 
L 73.735239 173.703767 
L 74.380533 179.565633 
L 75.025827 183.156555 
L 75.886219 186.337504 
L 76.746611 188.643138 
L 77.607003 190.383049 
L 78.897591 192.447385 
L 79.973081 193.748076 
L 81.263668 194.947161 
L 82.554256 195.896711 
L 84.27504 196.895571 
L 86.641118 197.877678 
L 88.577 198.462057 
L 91.803469 199.150629 
L 96.105429 199.763807 
L 101.482878 200.243296 
L 108.581111 200.610143 
L 120.626598 200.977768 
L 139.125024 201.254291 
L 165.151879 201.414291 
L 188.597559 201.492043 
L 188.597559 201.492043 
" clip-path="url(#pa07750ba44)" style="fill: none; stroke: #f77189; stroke-width: 1.5; stroke-linecap: square"/>
   </g>
   <g id="line2d_15">
    <path d="M 69.218182 55.801074 
L 69.648378 67.077921 
L 70.723868 82.753342 
L 71.369162 102.72951 
L 72.659749 148.206523 
L 73.305043 163.219215 
L 73.950337 172.758651 
L 74.595631 178.588276 
L 75.240925 182.228568 
L 76.101317 185.434574 
L 77.176807 188.377345 
L 78.037199 190.161465 
L 79.112689 191.949937 
L 80.403277 193.607441 
L 81.693864 194.803071 
L 82.984452 195.775621 
L 84.920334 196.910978 
L 87.071314 197.815915 
L 89.437392 198.525708 
L 92.233665 199.111573 
L 96.105429 199.680109 
L 100.407388 200.108131 
L 107.72072 200.545845 
L 120.626598 200.961136 
L 136.758946 201.217624 
L 161.92541 201.392316 
L 223.658529 201.548193 
L 223.658529 201.548193 
" clip-path="url(#pa07750ba44)" style="fill: none; stroke: #f77189; stroke-width: 1.5; stroke-linecap: square"/>
   </g>
   <g id="line2d_16">
    <path d="M 69.218182 55.801092 
L 69.648378 67.008423 
L 70.078574 71.725951 
L 70.50877 76.677071 
L 70.938966 86.406163 
L 71.58426 109.420607 
L 72.659749 149.60712 
L 73.305043 165.448814 
L 73.950337 175.084364 
L 74.595631 180.654974 
L 75.240925 184.01021 
L 76.101317 186.961361 
L 76.961709 189.089469 
L 78.037199 191.141537 
L 79.112689 192.721932 
L 80.403277 194.19874 
L 81.908962 195.436204 
L 83.414648 196.427002 
L 85.135432 197.278899 
L 87.286412 198.091004 
L 89.867588 198.763088 
L 93.094057 199.346121 
L 97.611115 199.913083 
L 102.988564 200.336545 
L 109.656601 200.648825 
L 120.841696 200.979517 
L 139.125024 201.250194 
L 174.61619 201.447826 
L 219.571667 201.543192 
L 219.571667 201.543192 
" clip-path="url(#pa07750ba44)" style="fill: none; stroke: #f77189; stroke-width: 1.5; stroke-linecap: square"/>
   </g>
   <g id="line2d_17">
    <path d="M 69.218182 55.801774 
L 69.648378 67.064935 
L 70.50877 79.475844 
L 70.938966 91.19372 
L 72.014456 132.643677 
L 72.659749 153.761148 
L 73.305043 167.892599 
L 73.950337 176.395309 
L 74.595631 181.358454 
L 75.240925 184.453161 
L 76.101317 187.300638 
L 76.961709 189.360585 
L 78.252297 191.709095 
L 79.327787 193.1765 
L 80.403277 194.346913 
L 82.12406 195.729192 
L 83.844844 196.764777 
L 85.780726 197.620571 
L 87.931706 198.340163 
L 90.512881 198.945617 
L 93.954449 199.510998 
L 97.826213 199.960304 
L 105.354642 200.481855 
L 114.173659 200.813457 
L 129.445615 201.143628 
L 152.891295 201.355548 
L 199.782653 201.517442 
L 206.235593 201.527388 
L 206.235593 201.527388 
" clip-path="url(#pa07750ba44)" style="fill: none; stroke: #f77189; stroke-width: 1.5; stroke-linecap: square"/>
   </g>
   <g id="line2d_18">
    <path d="M 69.218182 55.80129 
L 69.648378 67.010419 
L 70.078574 71.677115 
L 70.50877 76.527318 
L 70.938966 86.150213 
L 71.58426 109.082306 
L 72.659749 149.561806 
L 73.305043 165.600769 
L 73.950337 175.291855 
L 74.595631 180.862343 
L 75.240925 184.224785 
L 75.886219 186.501008 
L 76.746611 188.749522 
L 77.822101 190.903289 
L 78.897591 192.523568 
L 80.188179 194.073532 
L 81.478766 195.18015 
L 82.769354 196.099385 
L 84.27504 196.927286 
L 86.42602 197.830627 
L 88.577 198.472657 
L 91.158175 199.047625 
L 95.029939 199.637195 
L 99.762094 200.117006 
L 104.49425 200.430088 
L 113.313267 200.781605 
L 126.004048 201.081204 
L 146.008159 201.30792 
L 188.812657 201.490144 
L 209.67716 201.530425 
L 209.67716 201.530425 
" clip-path="url(#pa07750ba44)" style="fill: none; stroke: #f77189; stroke-width: 1.5; stroke-linecap: square"/>
   </g>
   <g id="line2d_19">
    <path d="M 69.218182 55.801752 
L 69.648378 67.029457 
L 70.078574 71.621468 
L 70.50877 75.474984 
L 70.938966 83.081031 
L 71.369162 95.41861 
L 73.520141 169.720028 
L 74.165435 182.436536 
L 74.810729 191.469242 
L 75.456023 198.000753 
L 76.101317 202.823989 
L 76.961709 207.510744 
L 77.822101 210.99056 
L 79.112689 215.0968 
L 80.403277 218.559072 
L 81.908962 221.928638 
L 83.629746 225.179947 
L 85.135432 227.597876 
L 86.856216 229.898473 
L 88.792098 232.132413 
L 90.297783 233.605038 
L 91.803469 234.850555 
L 93.739351 236.147666 
L 95.890331 237.302693 
L 97.611115 238.03703 
L 100.407388 238.985511 
L 102.558368 239.580484 
L 107.505622 240.627782 
L 117.830324 242.152782 
L 130.736203 243.791452 
L 133.747575 244.044309 
L 140.200514 244.443012 
L 148.804433 244.658441 
L 173.110504 244.866347 
L 179.563444 244.883092 
L 179.563444 244.883092 
" clip-path="url(#pa07750ba44)" style="fill: none; stroke: #d58c32; stroke-width: 1.5; stroke-linecap: square"/>
   </g>
   <g id="line2d_20">
    <path d="M 69.218182 55.801798 
L 69.648378 67.065383 
L 70.723868 83.093422 
L 71.154064 96.39647 
L 72.014456 132.951365 
L 72.874847 167.111558 
L 73.520141 185.056942 
L 74.165435 197.158899 
L 74.810729 205.157951 
L 75.456023 210.507819 
L 76.101317 214.250618 
L 76.961709 217.817858 
L 78.037199 221.232437 
L 79.112689 223.925425 
L 80.188179 226.022864 
L 81.263668 227.733603 
L 82.769354 229.592638 
L 84.705236 231.488194 
L 86.856216 233.117653 
L 89.222294 234.514404 
L 91.588371 235.668154 
L 93.739351 236.550676 
L 96.105429 237.359661 
L 98.256409 237.937981 
L 100.837584 238.481544 
L 106.215034 239.356017 
L 110.516993 239.924086 
L 122.56248 241.133496 
L 142.566592 243.164624 
L 151.385609 244.052285 
L 159.77443 244.404964 
L 176.121876 244.597076 
L 184.295599 244.629522 
L 184.295599 244.629522 
" clip-path="url(#pa07750ba44)" style="fill: none; stroke: #d58c32; stroke-width: 1.5; stroke-linecap: square"/>
   </g>
   <g id="line2d_21">
    <path d="M 69.218182 55.801506 
L 69.648378 67.029648 
L 70.078574 71.737416 
L 70.50877 75.95324 
L 70.938966 83.936088 
L 71.58426 103.446992 
L 72.874847 146.129834 
L 73.520141 160.499538 
L 74.165435 170.125509 
L 74.810729 176.425222 
L 75.456023 180.743382 
L 76.746611 187.29086 
L 80.618375 206.553646 
L 81.908962 210.912104 
L 83.414648 215.213111 
L 84.490138 217.859274 
L 86.42602 221.80415 
L 87.931706 224.258764 
L 89.65249 226.635812 
L 91.588371 228.924471 
L 93.309155 230.680674 
L 95.245037 232.448419 
L 97.826213 234.36207 
L 99.331898 235.266133 
L 102.34327 236.689304 
L 105.354642 237.77733 
L 109.226405 238.824761 
L 113.743463 239.623838 
L 118.905814 240.208603 
L 128.155027 240.861163 
L 138.264632 241.115178 
L 160.84992 241.301675 
L 163.215997 241.318675 
L 163.215997 241.318675 
" clip-path="url(#pa07750ba44)" style="fill: none; stroke: #d58c32; stroke-width: 1.5; stroke-linecap: square"/>
   </g>
   <g id="line2d_22">
    <path d="M 69.218182 55.802041 
L 69.648378 66.996495 
L 70.078574 71.422076 
L 70.50877 75.26941 
L 70.938966 83.319069 
L 71.58426 103.944073 
L 72.874847 149.599154 
L 73.520141 164.628728 
L 74.165435 174.336662 
L 74.810729 180.6765 
L 75.886219 188.441098 
L 77.822101 200.830165 
L 78.897591 206.248386 
L 79.973081 210.505071 
L 81.263668 214.653338 
L 82.769354 218.674953 
L 83.844844 221.038809 
L 85.780726 224.571441 
L 87.50151 227.323515 
L 89.437392 229.833985 
L 91.158175 231.676439 
L 93.309155 233.619847 
L 95.675233 235.263211 
L 97.611115 236.32126 
L 99.762094 237.277446 
L 103.203662 238.485254 
L 105.999936 239.299192 
L 110.301895 240.249105 
L 114.603855 240.955804 
L 121.702088 241.900869 
L 129.230517 242.633931 
L 136.113652 243.06795 
L 146.223257 243.402792 
L 162.785801 243.609764 
L 170.529329 243.648533 
L 170.529329 243.648533 
" clip-path="url(#pa07750ba44)" style="fill: none; stroke: #d58c32; stroke-width: 1.5; stroke-linecap: square"/>
   </g>
   <g id="line2d_23">
    <path d="M 69.218182 55.801968 
L 69.648378 67.01945 
L 70.078574 71.667489 
L 70.50877 75.96995 
L 70.938966 84.355088 
L 71.58426 105.09743 
L 72.874847 151.226434 
L 73.520141 167.050568 
L 74.165435 177.92637 
L 74.810729 185.452987 
L 75.671121 192.514428 
L 76.531513 197.588319 
L 77.391905 201.285031 
L 78.682493 205.721731 
L 80.403277 210.918394 
L 82.339158 216.087355 
L 84.059942 219.996317 
L 85.780726 223.432362 
L 87.286412 225.9326 
L 89.007196 228.355236 
L 90.727979 230.457123 
L 92.878959 232.626675 
L 94.814841 234.2201 
L 96.965821 235.706273 
L 99.762094 237.172929 
L 102.128172 238.177374 
L 104.924446 239.085567 
L 107.935818 239.845724 
L 113.098169 240.892944 
L 119.981304 241.970625 
L 127.724831 243.000812 
L 135.898554 243.823433 
L 139.985416 244.040998 
L 145.793061 244.214093 
L 159.77443 244.388012 
L 159.77443 244.388012 
" clip-path="url(#pa07750ba44)" style="fill: none; stroke: #d58c32; stroke-width: 1.5; stroke-linecap: square"/>
   </g>
   <g id="line2d_24">
    <path d="M 69.218182 55.801343 
L 69.648378 67.040418 
L 70.078574 71.840419 
L 70.50877 76.552541 
L 70.938966 85.42695 
L 71.369162 99.422304 
L 72.229553 137.702056 
L 73.089945 173.642926 
L 73.735239 192.067662 
L 74.380533 204.093807 
L 75.025827 212.244892 
L 75.886219 220.280489 
L 76.961709 228.135611 
L 77.822101 233.023981 
L 78.897591 237.749821 
L 79.973081 241.377464 
L 81.048571 244.391207 
L 82.12406 246.758276 
L 83.629746 249.512878 
L 85.35053 251.907825 
L 86.856216 253.629175 
L 88.146804 254.91874 
L 90.082686 256.551223 
L 91.588371 257.63323 
L 93.739351 258.895598 
L 97.396017 260.695572 
L 99.977192 261.753803 
L 104.49425 263.186569 
L 107.290524 263.966189 
L 114.603855 265.535984 
L 125.78895 267.723149 
L 136.113652 269.61451 
L 140.845808 270.025836 
L 146.438355 270.228269 
L 157.408352 270.360383 
L 178.272856 270.496162 
L 178.272856 270.496162 
" clip-path="url(#pa07750ba44)" style="fill: none; stroke: #a4a031; stroke-width: 1.5; stroke-linecap: square"/>
   </g>
   <g id="line2d_25">
    <path d="M 69.218182 55.802597 
L 69.648378 67.024424 
L 70.078574 71.681803 
L 70.50877 75.69799 
L 70.938966 83.214033 
L 71.58426 101.907019 
L 73.089945 150.70123 
L 73.735239 164.333603 
L 74.380533 173.917676 
L 75.240925 183.18291 
L 76.531513 194.386373 
L 77.607003 201.950406 
L 78.467395 206.652815 
L 79.327787 210.332953 
L 80.403277 213.950041 
L 82.984452 221.516454 
L 84.705236 225.969947 
L 87.071314 231.402533 
L 92.878959 243.684009 
L 94.599743 246.502924 
L 95.890331 248.221693 
L 97.396017 249.945657 
L 99.331898 251.746463 
L 101.052682 252.994082 
L 103.203662 254.231426 
L 105.999936 255.577608 
L 109.656601 256.832099 
L 112.452875 257.496358 
L 115.679345 258.057788 
L 120.626598 258.612425 
L 126.864439 259.018287 
L 136.758946 259.326643 
L 144.287376 259.548168 
L 146.223257 259.721963 
L 150.740315 259.816936 
L 164.076389 259.927909 
L 164.076389 259.927909 
" clip-path="url(#pa07750ba44)" style="fill: none; stroke: #a4a031; stroke-width: 1.5; stroke-linecap: square"/>
   </g>
   <g id="line2d_26">
    <path d="M 69.218182 55.801122 
L 69.648378 67.081264 
L 70.50877 79.545203 
L 70.938966 90.641082 
L 71.58426 115.060665 
L 72.874847 166.391046 
L 73.520141 183.470033 
L 74.380533 199.723184 
L 75.240925 211.538133 
L 76.101317 220.044546 
L 76.961709 226.30491 
L 78.037199 232.276547 
L 78.897591 235.992685 
L 79.973081 239.648646 
L 81.048571 242.563313 
L 82.339158 245.300082 
L 83.629746 247.546965 
L 84.920334 249.383275 
L 86.641118 251.458047 
L 89.437392 254.209639 
L 93.094057 256.953883 
L 96.105429 258.80976 
L 98.041311 259.81902 
L 101.913074 261.555362 
L 105.56974 262.929276 
L 111.592483 264.615202 
L 118.26052 266.142013 
L 132.241889 269.042167 
L 136.113652 269.590714 
L 140.63071 269.970868 
L 152.891295 270.259583 
L 171.174623 270.387387 
L 209.892258 270.437769 
L 209.892258 270.437769 
" clip-path="url(#pa07750ba44)" style="fill: none; stroke: #a4a031; stroke-width: 1.5; stroke-linecap: square"/>
   </g>
   <g id="line2d_27">
    <path d="M 69.218182 55.801398 
L 69.648378 67.040998 
L 70.078574 71.878537 
L 70.50877 76.540692 
L 70.938966 85.272731 
L 71.58426 107.084012 
L 73.520141 183.27214 
L 74.165435 198.432471 
L 74.810729 208.325952 
L 75.456023 214.70993 
L 76.101317 219.033704 
L 76.961709 223.108872 
L 78.037199 226.952023 
L 79.327787 230.797613 
L 81.048571 235.161087 
L 82.554256 238.382924 
L 84.27504 241.3702 
L 86.42602 244.549939 
L 88.361902 246.871709 
L 91.588371 250.476799 
L 92.878959 251.625254 
L 99.116801 256.396709 
L 103.633858 259.334424 
L 107.935818 261.451446 
L 115.464247 264.594563 
L 117.400128 265.237547 
L 120.196402 266.127429 
L 125.143656 267.465944 
L 130.306007 268.274391 
L 134.177771 268.596359 
L 142.351494 268.945824 
L 155.47247 269.228154 
L 178.272856 269.374822 
L 178.272856 269.374822 
" clip-path="url(#pa07750ba44)" style="fill: none; stroke: #a4a031; stroke-width: 1.5; stroke-linecap: square"/>
   </g>
   <g id="line2d_28">
    <path d="M 69.218182 55.801448 
L 69.648378 67.044612 
L 70.723868 82.62709 
L 71.154064 95.801412 
L 72.874847 157.689722 
L 73.520141 171.147315 
L 74.165435 180.177026 
L 76.101317 203.737958 
L 77.176807 217.35444 
L 77.822101 223.168281 
L 78.682493 228.693955 
L 79.757983 233.989161 
L 80.618375 237.330068 
L 81.478766 239.920232 
L 82.554256 242.445374 
L 83.844844 244.929374 
L 85.135432 246.895243 
L 86.856216 249.05367 
L 88.577 251.002767 
L 90.082686 252.413577 
L 93.094057 254.855291 
L 95.460135 256.638552 
L 97.396017 257.873905 
L 101.482878 260.026881 
L 106.215034 261.878831 
L 110.516993 263.084797 
L 115.249149 263.957285 
L 123.207774 264.990585 
L 131.811693 265.656354 
L 140.845808 266.070199 
L 153.321491 266.322603 
L 195.480694 266.56675 
L 200.858143 266.666721 
L 202.794025 266.881894 
L 206.450691 266.995324 
L 217.205589 267.045859 
L 217.205589 267.045859 
" clip-path="url(#pa07750ba44)" style="fill: none; stroke: #a4a031; stroke-width: 1.5; stroke-linecap: square"/>
   </g>
   <g id="line2d_29">
    <path d="M 69.218182 55.8 
L 69.648378 67.063137 
L 70.723868 83.306511 
L 71.154064 95.691879 
L 71.799358 121.399427 
L 72.874847 165.113058 
L 73.520141 182.84131 
L 74.165435 195.134874 
L 74.810729 203.934283 
L 75.671121 212.261687 
L 76.961709 221.648784 
L 79.973081 242.642351 
L 81.048571 248.153331 
L 82.339158 253.584457 
L 83.629746 258.197236 
L 84.705236 261.238294 
L 85.780726 263.634005 
L 87.286412 266.391565 
L 88.577 268.321443 
L 90.512881 270.738695 
L 92.233665 272.490069 
L 94.169547 274.140037 
L 97.180919 276.388771 
L 99.762094 278.122255 
L 102.128172 279.59287 
L 105.354642 281.361302 
L 108.150916 282.740977 
L 113.743463 285.23862 
L 118.045422 286.958315 
L 120.196402 287.7491 
L 122.56248 288.532683 
L 129.875811 290.438465 
L 133.532477 290.915896 
L 136.974044 291.170237 
L 142.136396 291.415985 
L 150.310119 291.704397 
L 193.114616 291.961588 
L 206.235593 291.9816 
L 206.235593 291.9816 
" clip-path="url(#pa07750ba44)" style="fill: none; stroke: #50b131; stroke-width: 1.5; stroke-linecap: square"/>
   </g>
   <g id="line2d_30">
    <path d="M 69.218182 55.801927 
L 69.648378 67.039894 
L 70.723868 81.901119 
L 71.154064 94.40586 
L 73.089945 160.572665 
L 73.735239 173.154734 
L 74.380533 182.013652 
L 75.456023 193.21046 
L 77.391905 211.023162 
L 80.833473 238.773012 
L 81.908962 243.972396 
L 82.984452 247.998883 
L 84.27504 251.926763 
L 85.35053 254.641269 
L 86.856216 257.795507 
L 88.361902 260.471783 
L 90.082686 263.129182 
L 91.588371 265.100271 
L 93.309155 267.172749 
L 96.320527 270.398614 
L 98.256409 272.097783 
L 101.26778 274.383734 
L 104.49425 276.408249 
L 107.72072 278.068612 
L 110.301895 279.420424 
L 118.26052 283.388934 
L 120.4115 284.373833 
L 122.347382 284.856083 
L 127.294635 285.716288 
L 135.253261 286.544306 
L 141.921298 286.910647 
L 153.536588 287.254552 
L 168.163251 287.41758 
L 189.457951 287.502795 
L 189.457951 287.502795 
" clip-path="url(#pa07750ba44)" style="fill: none; stroke: #50b131; stroke-width: 1.5; stroke-linecap: square"/>
   </g>
   <g id="line2d_31">
    <path d="M 69.218182 55.802102 
L 69.648378 67.068791 
L 70.50877 79.46531 
L 70.938966 91.231685 
L 71.799358 125.098952 
L 72.659749 156.267773 
L 73.305043 172.506346 
L 74.165435 188.376361 
L 75.240925 204.342035 
L 76.101317 213.853421 
L 78.252297 232.869318 
L 79.327787 241.482049 
L 80.188179 246.564691 
L 81.048571 250.124463 
L 82.12406 253.42976 
L 83.629746 257.297581 
L 85.135432 260.435061 
L 86.856216 263.457767 
L 88.577 265.967535 
L 90.512881 268.321767 
L 92.448763 270.359827 
L 93.954449 271.735242 
L 98.041311 275.125626 
L 103.41876 278.660557 
L 106.860328 280.399819 
L 109.441503 281.378206 
L 111.807581 282.141899 
L 117.615226 283.38902 
L 121.056794 283.867816 
L 125.78895 284.34186 
L 134.392869 284.806357 
L 138.694828 285.06986 
L 140.415612 285.341868 
L 145.362865 285.532685 
L 158.69894 285.78701 
L 181.929521 285.950787 
L 212.473434 286.024442 
L 212.473434 286.024442 
" clip-path="url(#pa07750ba44)" style="fill: none; stroke: #50b131; stroke-width: 1.5; stroke-linecap: square"/>
   </g>
   <g id="line2d_32">
    <path d="M 69.218182 55.801326 
L 69.648378 67.07768 
L 70.50877 80.364006 
L 70.938966 92.951534 
L 73.089945 169.660324 
L 73.950337 185.716857 
L 75.025827 201.338531 
L 75.886219 211.069566 
L 76.746611 217.725225 
L 79.327787 233.475199 
L 80.403277 238.893798 
L 81.478766 242.909634 
L 82.984452 247.654822 
L 84.059942 250.377465 
L 85.565628 253.493605 
L 87.071314 256.092187 
L 89.007196 259.027127 
L 91.803469 263.001848 
L 93.524253 264.85703 
L 95.029939 266.223828 
L 97.826213 268.28571 
L 99.977192 269.59655 
L 102.34327 270.777934 
L 104.924446 271.912448 
L 108.366013 273.141334 
L 110.301895 273.664964 
L 113.958561 274.488104 
L 121.056794 275.692641 
L 126.649341 276.26887 
L 134.823065 276.74128 
L 146.868551 277.118181 
L 160.84992 277.322507 
L 183.435207 277.432905 
L 211.613042 277.486092 
L 211.613042 277.486092 
" clip-path="url(#pa07750ba44)" style="fill: none; stroke: #50b131; stroke-width: 1.5; stroke-linecap: square"/>
   </g>
   <g id="line2d_33">
    <path d="M 69.218182 55.801988 
L 69.648378 67.023123 
L 70.078574 71.663388 
L 70.50877 76.018016 
L 70.938966 84.758212 
L 71.58426 106.80852 
L 72.874847 156.949892 
L 73.735239 180.319211 
L 74.595631 196.518221 
L 75.456023 208.032938 
L 76.316415 216.36387 
L 77.176807 222.687859 
L 78.037199 227.639749 
L 79.112689 232.65539 
L 80.188179 236.72461 
L 81.478766 240.693211 
L 82.769354 243.992055 
L 84.059942 246.767691 
L 86.42602 251.119767 
L 89.65249 256.74661 
L 93.524253 263.809587 
L 95.890331 267.50362 
L 98.041311 270.315294 
L 99.762094 272.101212 
L 101.482878 273.858007 
L 102.773466 275.036896 
L 104.064054 276.045073 
L 105.999936 277.292438 
L 108.150916 278.419216 
L 109.441503 278.972964 
L 112.237777 280.059637 
L 116.109541 281.129231 
L 118.690716 281.719522 
L 123.422872 282.544429 
L 128.370125 283.154625 
L 135.253261 283.72478 
L 146.868551 284.293144 
L 172.035014 284.817478 
L 197.416576 284.949162 
L 204.084613 285.045533 
L 205.805397 285.235476 
L 206.235593 285.235148 
L 207.956376 285.281159 
L 212.043238 285.307076 
L 212.043238 285.307076 
" clip-path="url(#pa07750ba44)" style="fill: none; stroke: #50b131; stroke-width: 1.5; stroke-linecap: square"/>
   </g>
   <g id="line2d_34">
    <path d="M 69.218182 55.801467 
L 69.648378 67.054442 
L 70.50877 79.180531 
L 70.938966 90.98162 
L 71.799358 125.189063 
L 72.659749 156.803136 
L 73.305043 173.243736 
L 74.165435 188.509426 
L 75.886219 213.730007 
L 76.746611 222.916465 
L 77.607003 229.400789 
L 78.897591 237.353857 
L 80.403277 245.025178 
L 83.19955 258.298398 
L 84.059942 261.017404 
L 85.135432 263.551849 
L 86.210922 265.603023 
L 88.146804 268.757174 
L 90.943077 272.601961 
L 93.524253 275.796709 
L 95.245037 277.633504 
L 98.256409 280.059738 
L 100.19229 281.196485 
L 103.203662 282.732288 
L 106.215034 283.928002 
L 111.592483 286.04136 
L 112.237777 286.241151 
L 113.098169 286.498085 
L 116.324639 287.291904 
L 118.905814 287.80869 
L 123.207774 288.544676 
L 140.415612 290.741326 
L 151.385609 291.728566 
L 162.140508 292.406412 
L 171.604819 292.748265 
L 191.60893 293.110049 
L 225.594411 293.307095 
L 249.685384 293.350682 
L 249.685384 293.350682 
" clip-path="url(#pa07750ba44)" style="fill: none; stroke: #34ae91; stroke-width: 1.5; stroke-linecap: square"/>
   </g>
   <g id="line2d_35">
    <path d="M 69.218182 55.801501 
L 69.648378 67.033112 
L 70.723868 81.504827 
L 71.154064 94.157821 
L 72.014456 129.666081 
L 72.874847 162.465843 
L 73.520141 180.232744 
L 74.380533 197.190294 
L 75.025827 206.31319 
L 75.671121 212.879289 
L 76.531513 219.166078 
L 78.037199 229.41434 
L 78.897591 237.072269 
L 80.403277 250.9211 
L 81.263668 256.379206 
L 82.12406 260.478712 
L 82.984452 263.570562 
L 84.059942 266.383925 
L 85.135432 268.607166 
L 86.856216 271.51263 
L 89.007196 274.400036 
L 90.727979 276.400138 
L 92.448763 278.201844 
L 94.169547 279.821237 
L 96.965821 282.122465 
L 99.977192 284.260413 
L 102.34327 285.583397 
L 105.999936 287.186094 
L 109.011307 288.292111 
L 114.818953 289.786696 
L 119.551108 290.650192 
L 126.004048 291.653526 
L 138.694828 292.964388 
L 143.426984 293.279223 
L 150.525217 293.613198 
L 164.076389 293.93341 
L 192.039126 294.165711 
L 275.927337 294.305077 
L 275.927337 294.305077 
" clip-path="url(#pa07750ba44)" style="fill: none; stroke: #34ae91; stroke-width: 1.5; stroke-linecap: square"/>
   </g>
   <g id="line2d_36">
    <path d="M 69.218182 55.801867 
L 69.648378 67.043348 
L 70.723868 81.791889 
L 71.154064 94.35753 
L 72.014456 129.446994 
L 72.874847 162.973537 
L 73.735239 187.043881 
L 74.595631 203.604655 
L 75.240925 212.447677 
L 76.101317 220.884395 
L 77.176807 228.787265 
L 78.467395 236.550288 
L 79.757983 242.884033 
L 83.19955 258.289448 
L 84.059942 261.054603 
L 85.135432 263.700453 
L 86.42602 266.31934 
L 88.146804 269.121335 
L 90.082686 271.760142 
L 93.524253 275.802914 
L 97.180919 279.361161 
L 99.762094 281.498249 
L 104.064054 283.930021 
L 105.784838 284.78574 
L 107.505622 285.407362 
L 113.313267 287.107549 
L 116.324639 287.719779 
L 120.841696 288.471031 
L 124.928558 288.962176 
L 129.660713 289.358138 
L 136.543848 289.80016 
L 144.287376 290.099804 
L 155.687568 290.539477 
L 156.763058 290.90548 
L 156.978156 290.797385 
L 157.193254 290.94559 
L 157.408352 290.907138 
L 157.838548 290.97176 
L 158.483842 291.066992 
L 159.129136 291.063874 
L 159.989528 291.124109 
L 163.000899 291.204354 
L 173.325602 291.448555 
L 220.432059 291.789482 
L 251.836364 291.825535 
L 251.836364 291.825535 
" clip-path="url(#pa07750ba44)" style="fill: none; stroke: #34ae91; stroke-width: 1.5; stroke-linecap: square"/>
   </g>
   <g id="line2d_37">
    <path d="M 69.218182 55.801563 
L 69.648378 67.03456 
L 70.723868 81.740242 
L 71.154064 94.645138 
L 72.014456 131.318742 
L 72.874847 166.420926 
L 73.520141 185.639193 
L 74.165435 199.339412 
L 74.810729 209.119633 
L 75.671121 218.375626 
L 76.961709 229.035677 
L 80.188179 253.772821 
L 81.048571 258.467642 
L 81.908962 261.949903 
L 83.19955 266.005948 
L 84.27504 268.754297 
L 85.565628 271.354705 
L 87.071314 273.814878 
L 88.577 275.858265 
L 90.297783 277.813412 
L 92.233665 279.716083 
L 93.954449 281.15267 
L 96.105429 282.684002 
L 99.977192 285.049882 
L 103.203662 286.654027 
L 105.139544 287.458059 
L 108.150916 288.529674 
L 110.516993 289.185076 
L 113.313267 289.831926 
L 117.400128 290.627376 
L 124.498362 291.588477 
L 129.230517 291.992057 
L 136.758946 292.436186 
L 141.491102 292.756899 
L 143.642082 292.954602 
L 153.751686 293.303203 
L 167.517957 293.591997 
L 185.371089 293.724786 
L 202.363829 293.777644 
L 202.363829 293.777644 
" clip-path="url(#pa07750ba44)" style="fill: none; stroke: #34ae91; stroke-width: 1.5; stroke-linecap: square"/>
   </g>
   <g id="line2d_38">
    <path d="M 69.218182 55.800906 
L 69.648378 67.072329 
L 70.50877 79.64532 
L 70.938966 91.337054 
L 71.799358 125.565951 
L 72.659749 157.929382 
L 73.305043 174.818046 
L 74.165435 191.090854 
L 75.240925 206.727609 
L 76.101317 215.921405 
L 78.037199 232.607772 
L 79.542885 244.206226 
L 80.833473 252.196734 
L 81.908962 257.360228 
L 82.984452 261.269505 
L 83.844844 263.677257 
L 84.920334 266.053629 
L 86.42602 268.722372 
L 88.361902 271.65417 
L 90.082686 273.787794 
L 92.878959 276.708333 
L 94.599743 278.234907 
L 96.965821 280.056722 
L 100.19229 282.23776 
L 102.988564 283.853396 
L 106.430132 285.591513 
L 109.656601 286.869586 
L 112.883071 287.86234 
L 116.969933 288.766993 
L 120.626598 289.386057 
L 122.777578 289.831431 
L 124.71346 290.208009 
L 134.177771 291.466966 
L 135.898554 291.754666 
L 137.189142 291.995152 
L 139.125024 292.342317 
L 145.362865 292.927075 
L 156.332862 293.679297 
L 162.140508 293.920155 
L 174.61619 294.248742 
L 187.952265 294.434566 
L 234.628526 294.731508 
L 281.089688 294.838417 
L 281.089688 294.838417 
" clip-path="url(#pa07750ba44)" style="fill: none; stroke: #34ae91; stroke-width: 1.5; stroke-linecap: square"/>
   </g>
   <g id="line2d_39">
    <path d="M 69.218182 55.801597 
L 69.648378 67.052091 
L 70.50877 78.812717 
L 70.938966 90.304524 
L 71.799358 124.261517 
L 72.659749 156.180015 
L 73.305043 173.411013 
L 74.165435 190.552485 
L 75.240925 207.17948 
L 76.316415 219.812664 
L 78.252297 239.974959 
L 79.112689 246.534272 
L 80.618375 255.321772 
L 82.769354 267.306773 
L 83.629746 270.668759 
L 84.490138 272.986262 
L 85.565628 275.15827 
L 86.856216 277.163665 
L 88.361902 279.095297 
L 89.65249 280.517434 
L 91.588371 282.282829 
L 94.169547 284.241469 
L 97.180919 286.080375 
L 104.064054 289.729559 
L 107.72072 291.402387 
L 114.173659 293.853168 
L 118.045422 294.935306 
L 121.702088 295.806462 
L 126.219146 296.709564 
L 131.811693 297.594195 
L 137.40424 298.191362 
L 146.868551 299.029467 
L 156.332862 299.534728 
L 172.035014 300.169384 
L 195.91089 300.676974 
L 217.420687 300.898188 
L 259.794989 301.093021 
L 311.418503 301.168629 
L 311.418503 301.168629 
" clip-path="url(#pa07750ba44)" style="fill: none; stroke: #37abb5; stroke-width: 1.5; stroke-linecap: square"/>
   </g>
   <g id="line2d_40">
    <path d="M 69.218182 55.801881 
L 69.648378 67.038466 
L 70.723868 82.670476 
L 71.154064 96.172068 
L 73.305043 175.650311 
L 74.165435 193.670844 
L 75.025827 207.08408 
L 75.886219 217.230379 
L 76.746611 224.855265 
L 78.037199 233.995097 
L 81.908962 258.57146 
L 82.769354 262.472892 
L 83.629746 265.36243 
L 84.705236 268.190751 
L 85.995824 270.930499 
L 87.286412 273.214979 
L 88.792098 275.507937 
L 90.512881 277.747325 
L 92.018567 279.431537 
L 94.384645 281.670885 
L 96.320527 283.224663 
L 99.116801 285.066262 
L 101.697976 286.461834 
L 104.279152 287.697132 
L 107.505622 288.903357 
L 114.603855 291.256835 
L 117.400128 292.557798 
L 127.294635 295.204792 
L 129.445615 295.650779 
L 130.951301 296.081959 
L 132.456987 296.467509 
L 133.962673 296.992075 
L 135.683456 297.234078 
L 142.351494 297.856433 
L 149.019531 298.297864 
L 160.419724 298.760762 
L 175.906778 299.108004 
L 202.794025 299.362964 
L 261.515773 299.520897 
L 299.588114 299.557128 
L 299.588114 299.557128 
" clip-path="url(#pa07750ba44)" style="fill: none; stroke: #37abb5; stroke-width: 1.5; stroke-linecap: square"/>
   </g>
   <g id="line2d_41">
    <path d="M 69.218182 55.800893 
L 69.648378 67.043686 
L 70.723868 81.931477 
L 71.154064 94.399643 
L 72.014456 129.983785 
L 72.874847 163.852083 
L 73.520141 181.844459 
L 74.165435 194.860754 
L 75.025827 207.430371 
L 75.886219 216.384649 
L 77.176807 226.796561 
L 78.897591 241.184831 
L 80.188179 251.447031 
L 81.048571 256.564931 
L 81.908962 260.392951 
L 82.769354 263.195728 
L 83.629746 265.341011 
L 84.920334 267.922925 
L 86.42602 270.495895 
L 89.222294 274.856694 
L 95.675233 284.170809 
L 97.396017 286.135599 
L 99.116801 287.839605 
L 101.482878 289.756045 
L 104.064054 291.586143 
L 106.64523 292.943362 
L 109.656601 294.221692 
L 112.452875 295.128541 
L 115.679345 295.910295 
L 121.917186 297.130208 
L 129.875811 298.249393 
L 141.7062 299.515382 
L 150.740315 300.104799 
L 160.419724 300.451705 
L 176.121876 300.724923 
L 208.386572 300.876955 
L 208.386572 300.876955 
" clip-path="url(#pa07750ba44)" style="fill: none; stroke: #37abb5; stroke-width: 1.5; stroke-linecap: square"/>
   </g>
   <g id="line2d_42">
    <path d="M 69.218182 55.801086 
L 69.648378 67.030542 
L 70.723868 81.824528 
L 71.154064 94.664938 
L 73.305043 171.19775 
L 74.165435 189.078435 
L 75.025827 202.501099 
L 75.886219 212.316293 
L 77.822101 231.803981 
L 79.112689 245.657531 
L 79.973081 252.203298 
L 80.833473 256.861485 
L 81.693864 260.202949 
L 82.769354 263.193128 
L 85.135432 269.011015 
L 86.856216 272.341676 
L 88.361902 274.769649 
L 90.297783 277.49607 
L 92.018567 279.590138 
L 94.169547 281.7432 
L 97.396017 284.513021 
L 99.331898 285.957844 
L 102.558368 288.162613 
L 108.581111 291.344548 
L 112.022679 292.745537 
L 115.034051 293.796158 
L 117.185031 294.478554 
L 120.4115 295.349847 
L 123.853068 296.090453 
L 130.090909 297.037484 
L 136.974044 297.849841 
L 141.921298 298.281784 
L 154.827176 299.155376 
L 165.151879 299.570182 
L 177.197366 299.861014 
L 204.514809 300.106149 
L 269.2593 300.272348 
L 269.2593 300.272348 
" clip-path="url(#pa07750ba44)" style="fill: none; stroke: #37abb5; stroke-width: 1.5; stroke-linecap: square"/>
   </g>
   <g id="line2d_43">
    <path d="M 69.218182 55.801519 
L 69.648378 67.071017 
L 70.723868 83.233904 
L 71.154064 96.483121 
L 72.229553 141.706527 
L 73.089945 172.486538 
L 73.735239 188.70604 
L 74.380533 200.552506 
L 75.025827 209.211791 
L 75.886219 217.665463 
L 79.757983 250.114311 
L 80.833473 256.704892 
L 81.693864 260.581903 
L 82.769354 264.187506 
L 84.059942 267.753848 
L 85.35053 270.578374 
L 86.641118 272.906006 
L 88.361902 275.394336 
L 90.082686 277.576684 
L 91.803469 279.39104 
L 93.524253 281.000825 
L 97.826213 284.483947 
L 100.19229 286.14904 
L 104.279152 288.589758 
L 106.64523 289.757307 
L 110.086797 291.163008 
L 112.883071 292.058467 
L 118.26052 293.374168 
L 127.939929 295.076004 
L 132.026791 295.562836 
L 134.823065 295.936833 
L 136.543848 296.303869 
L 144.932669 297.362312 
L 147.513845 297.859992 
L 148.804433 298.14252 
L 149.879923 298.423972 
L 151.815805 298.832467 
L 152.461099 298.960153 
L 155.47247 299.230089 
L 157.193254 299.523254 
L 162.570704 300.032259 
L 164.721683 300.195883 
L 190.318342 300.735355 
L 234.413428 300.896494 
L 254.632637 301.010714 
L 257.428911 301.05858 
L 283.455766 301.103285 
L 302.16929 301.121672 
L 302.16929 301.121672 
" clip-path="url(#pa07750ba44)" style="fill: none; stroke: #37abb5; stroke-width: 1.5; stroke-linecap: square"/>
   </g>
   <g id="line2d_44">
    <path d="M 69.218182 55.801732 
L 69.648378 67.010569 
L 70.078574 71.52059 
L 70.50877 75.58657 
L 70.938966 84.042306 
L 71.369162 97.752099 
L 73.520141 177.919066 
L 74.380533 197.571028 
L 75.240925 211.990602 
L 76.101317 222.115332 
L 78.467395 244.827214 
L 79.327787 251.22269 
L 80.188179 255.907694 
L 81.263668 260.192227 
L 82.339158 263.586762 
L 83.844844 267.589875 
L 86.641118 274.240884 
L 87.931706 276.793683 
L 89.437392 279.354436 
L 91.158175 281.566161 
L 93.524253 284.168367 
L 96.320527 286.693414 
L 98.256409 288.138152 
L 101.052682 289.871882 
L 103.41876 291.128148 
L 106.860328 292.732836 
L 111.162287 294.407332 
L 113.743463 295.253759 
L 116.969933 296.147334 
L 121.48699 297.121469 
L 125.573852 297.845753 
L 130.306007 298.44175 
L 136.32875 298.988027 
L 143.85718 299.401075 
L 158.053646 299.845965 
L 190.748538 300.175937 
L 228.390684 300.259541 
L 228.390684 300.259541 
" clip-path="url(#pa07750ba44)" style="fill: none; stroke: #3ba3ec; stroke-width: 1.5; stroke-linecap: square"/>
   </g>
   <g id="line2d_45">
    <path d="M 69.218182 55.801767 
L 69.648378 67.039634 
L 70.078574 71.942206 
L 70.50877 76.894202 
L 70.938966 86.133746 
L 71.58426 109.046232 
L 73.305043 179.12688 
L 73.950337 195.864239 
L 74.595631 207.917218 
L 75.456023 219.465117 
L 76.531513 230.254054 
L 77.822101 241.032739 
L 78.897591 248.389323 
L 79.973081 254.169856 
L 81.263668 259.810841 
L 84.27504 271.655516 
L 85.35053 274.590939 
L 86.641118 277.372315 
L 88.361902 280.276041 
L 89.65249 282.164673 
L 92.448763 285.71372 
L 95.245037 288.649775 
L 97.611115 290.690396 
L 100.19229 292.70797 
L 103.848956 295.202302 
L 106.430132 296.595048 
L 110.086797 298.136881 
L 112.883071 299.057005 
L 117.830324 300.373855 
L 123.207774 301.46541 
L 128.585223 302.268608 
L 135.468358 303.062095 
L 141.060906 303.522575 
L 149.879923 303.975924 
L 155.47247 304.159686 
L 169.453839 304.399677 
L 190.963636 304.551536 
L 208.60167 304.608223 
L 260.010087 304.674291 
L 260.010087 304.674291 
" clip-path="url(#pa07750ba44)" style="fill: none; stroke: #3ba3ec; stroke-width: 1.5; stroke-linecap: square"/>
   </g>
   <g id="line2d_46">
    <path d="M 69.218182 55.801124 
L 69.648378 67.056917 
L 70.723868 83.297764 
L 71.154064 96.497305 
L 72.229553 141.957567 
L 73.089945 172.322597 
L 73.735239 187.950808 
L 74.380533 199.489991 
L 75.025827 208.019257 
L 75.886219 216.222851 
L 79.327787 243.40037 
L 82.339158 264.753821 
L 83.19955 268.293655 
L 84.27504 271.5044 
L 85.780726 275.301241 
L 87.50151 278.835998 
L 89.65249 282.716183 
L 92.018567 286.183627 
L 93.739351 288.332154 
L 95.460135 290.117737 
L 97.180919 291.633919 
L 98.686605 292.729186 
L 100.837584 293.959284 
L 104.279152 295.557312 
L 107.075426 296.513349 
L 110.732091 297.600077 
L 115.894443 298.807315 
L 119.766206 299.517945 
L 126.434243 300.488075 
L 132.887183 301.274382 
L 144.717571 302.440944 
L 153.751686 303.157933 
L 166.657565 303.914962 
L 177.412464 304.263259 
L 180.638934 304.406137 
L 183.005011 304.656832 
L 191.393832 304.899819 
L 246.458914 305.1654 
L 255.493029 305.176256 
L 255.493029 305.176256 
" clip-path="url(#pa07750ba44)" style="fill: none; stroke: #3ba3ec; stroke-width: 1.5; stroke-linecap: square"/>
   </g>
   <g id="line2d_47">
    <path d="M 69.218182 55.801524 
L 69.648378 67.035126 
L 70.078574 71.906361 
L 70.50877 76.971173 
L 70.938966 86.449555 
L 71.58426 109.647113 
L 73.089945 171.163622 
L 73.735239 188.93433 
L 74.595631 205.937919 
L 75.456023 217.69235 
L 76.316415 225.735314 
L 77.391905 233.376819 
L 78.897591 243.834017 
L 81.048571 260.191571 
L 82.12406 266.105759 
L 82.984452 269.483475 
L 84.059942 272.713079 
L 85.135432 275.288225 
L 86.42602 277.691416 
L 87.716608 279.587918 
L 89.65249 281.980185 
L 92.018567 284.488292 
L 95.245037 287.319385 
L 96.535625 288.259482 
L 99.762094 290.398322 
L 102.128172 291.825904 
L 105.784838 293.576913 
L 110.732091 295.402624 
L 113.313267 296.190276 
L 118.045422 297.495965 
L 124.068166 298.613518 
L 130.090909 299.459155 
L 134.607967 299.905323 
L 140.63071 300.328812 
L 156.54796 300.980115 
L 181.069129 301.519106 
L 186.016383 301.591094 
L 238.715387 301.780284 
L 275.497141 301.938292 
L 303.890074 302.018932 
L 326.260263 302.048085 
L 326.260263 302.048085 
" clip-path="url(#pa07750ba44)" style="fill: none; stroke: #3ba3ec; stroke-width: 1.5; stroke-linecap: square"/>
   </g>
   <g id="line2d_48">
    <path d="M 69.218182 55.801975 
L 69.648378 67.055934 
L 70.50877 78.543539 
L 70.938966 89.705177 
L 71.58426 114.887023 
L 72.874847 167.299215 
L 73.520141 185.490042 
L 74.165435 198.746158 
L 74.810729 208.321813 
L 75.456023 215.296971 
L 76.316415 222.292898 
L 78.897591 241.688926 
L 81.263668 261.484074 
L 82.12406 266.660887 
L 83.19955 271.760907 
L 84.059942 274.782639 
L 85.135432 277.651815 
L 86.42602 280.4405 
L 87.931706 283.082283 
L 89.65249 285.568447 
L 91.803469 288.146125 
L 93.309155 289.656485 
L 95.890331 291.843967 
L 98.041311 293.351998 
L 100.407388 294.754011 
L 104.064054 296.375442 
L 107.72072 297.703587 
L 111.592483 298.902735 
L 115.249149 299.817724 
L 118.26052 300.463507 
L 122.347382 301.118942 
L 128.370125 301.879652 
L 138.264632 302.761517 
L 147.298747 303.351974 
L 179.778542 304.722803 
L 204.084613 305.175872 
L 258.934597 305.586822 
L 361.321234 305.693796 
L 364.762801 305.6952 
L 364.762801 305.6952 
" clip-path="url(#pa07750ba44)" style="fill: none; stroke: #3ba3ec; stroke-width: 1.5; stroke-linecap: square"/>
   </g>
   <g id="line2d_49">
    <path d="M 69.218182 55.80122 
L 69.648378 67.03063 
L 70.078574 71.832609 
L 70.50877 76.755602 
L 70.938966 86.038571 
L 71.58426 108.958224 
L 72.874847 161.15618 
L 73.520141 179.36895 
L 74.380533 196.991683 
L 75.456023 213.711867 
L 76.316415 223.941111 
L 79.542885 256.467848 
L 80.403277 262.717435 
L 81.263668 267.225109 
L 82.12406 270.547846 
L 83.19955 273.750927 
L 84.27504 276.163184 
L 85.565628 278.494655 
L 86.856216 280.458695 
L 88.361902 282.34621 
L 90.297783 284.415575 
L 92.018567 285.989019 
L 93.954449 287.554199 
L 99.331898 291.361086 
L 102.128172 292.994456 
L 104.924446 294.447815 
L 108.150916 295.934102 
L 113.313267 297.778889 
L 119.551108 299.383392 
L 126.434243 300.793567 
L 130.736203 301.484006 
L 134.823065 302.008542 
L 147.513845 303.218662 
L 164.506585 304.36017 
L 180.854031 305.08423 
L 196.771282 305.427868 
L 219.786765 305.671329 
L 281.95008 305.933515 
L 306.686348 305.966332 
L 306.686348 305.966332 
" clip-path="url(#pa07750ba44)" style="fill: none; stroke: #bb83f4; stroke-width: 1.5; stroke-linecap: square"/>
   </g>
   <g id="line2d_50">
    <path d="M 69.218182 55.801615 
L 69.648378 67.042513 
L 70.723868 82.787441 
L 71.154064 96.26553 
L 73.089945 168.475179 
L 73.950337 187.991549 
L 74.810729 202.488309 
L 75.671121 213.547557 
L 78.897591 248.537091 
L 79.973081 258.199914 
L 80.833473 264.162834 
L 81.693864 268.760344 
L 82.554256 272.242169 
L 83.629746 275.597856 
L 84.920334 278.919123 
L 86.210922 281.692183 
L 87.716608 284.399424 
L 89.222294 286.754207 
L 90.727979 288.720276 
L 92.448763 290.711945 
L 94.814841 292.905938 
L 98.041311 295.417725 
L 99.762094 296.421648 
L 102.128172 297.64529 
L 104.709348 298.740708 
L 109.656601 300.330444 
L 114.173659 301.461779 
L 123.422872 303.133532 
L 136.543848 304.4297 
L 143.642082 304.824082 
L 156.978156 305.337407 
L 181.929521 305.870273 
L 218.281079 306.368433 
L 273.346161 306.659834 
L 347.554963 306.776572 
L 373.581818 306.793512 
L 373.581818 306.793512 
" clip-path="url(#pa07750ba44)" style="fill: none; stroke: #bb83f4; stroke-width: 1.5; stroke-linecap: square"/>
   </g>
   <g id="line2d_51">
    <path d="M 69.218182 55.800933 
L 69.648378 67.102073 
L 70.50877 81.403733 
L 70.938966 94.45283 
L 73.089945 171.765865 
L 73.950337 188.102134 
L 75.025827 204.357201 
L 75.886219 214.644305 
L 77.176807 226.954495 
L 78.467395 237.627672 
L 81.908962 262.022568 
L 82.984452 267.802459 
L 84.059942 272.459255 
L 85.135432 276.218295 
L 86.210922 279.280088 
L 87.50151 282.289156 
L 89.007196 285.15317 
L 90.512881 287.536554 
L 92.018567 289.56577 
L 94.384645 292.230299 
L 96.105429 293.805776 
L 98.256409 295.469379 
L 101.913074 297.641148 
L 103.848956 298.533212 
L 107.72072 299.947446 
L 111.592483 301.085429 
L 115.034051 301.796146 
L 119.766206 302.52583 
L 126.219146 303.248772 
L 139.340122 304.271956 
L 158.053646 305.352255 
L 171.819916 305.85114 
L 190.748538 306.213338 
L 227.74539 306.468671 
L 249.900482 306.525893 
L 249.900482 306.525893 
" clip-path="url(#pa07750ba44)" style="fill: none; stroke: #bb83f4; stroke-width: 1.5; stroke-linecap: square"/>
   </g>
   <g id="line2d_52">
    <path d="M 69.218182 55.801708 
L 69.648378 67.025945 
L 70.078574 71.83397 
L 70.50877 76.960296 
L 70.938966 86.911534 
L 71.58426 110.107257 
L 72.659749 149.935737 
L 73.305043 166.730168 
L 74.165435 182.832446 
L 75.886219 209.408515 
L 77.176807 226.036918 
L 78.682493 242.557682 
L 79.757983 251.665368 
L 81.048571 260.361837 
L 81.908962 265.040584 
L 82.984452 269.583951 
L 84.059942 273.096202 
L 85.135432 275.913596 
L 86.42602 278.730749 
L 87.931706 281.346452 
L 89.437392 283.586463 
L 90.943077 285.438759 
L 93.094057 287.635284 
L 95.029939 289.225945 
L 97.180919 290.711507 
L 99.331898 291.877765 
L 102.34327 293.203533 
L 104.709348 294.023707 
L 108.581111 295.106527 
L 113.098169 296.107091 
L 118.045422 296.987177 
L 124.928558 297.91125 
L 131.811693 298.618564 
L 146.868551 299.836918 
L 165.366977 301.01659 
L 189.673049 302.124813 
L 224.949117 302.840987 
L 272.700867 303.174818 
L 292.274783 303.245142 
L 292.274783 303.245142 
" clip-path="url(#pa07750ba44)" style="fill: none; stroke: #bb83f4; stroke-width: 1.5; stroke-linecap: square"/>
   </g>
   <g id="line2d_53">
    <path d="M 69.218182 55.801679 
L 69.648378 67.03972 
L 70.723868 82.611086 
L 71.154064 95.793512 
L 73.520141 182.245054 
L 74.380533 199.496375 
L 75.240925 212.020905 
L 76.101317 221.508614 
L 77.391905 233.087537 
L 79.327787 247.917181 
L 80.403277 254.859085 
L 81.263668 259.172986 
L 82.554256 264.363274 
L 83.844844 268.703449 
L 85.135432 272.105713 
L 86.42602 274.943171 
L 88.361902 278.603044 
L 90.727979 282.653134 
L 92.878959 285.791824 
L 95.675233 289.598497 
L 96.965821 291.032828 
L 100.622486 294.654429 
L 101.913074 295.572855 
L 104.49425 297.071161 
L 106.215034 297.873712 
L 109.226405 299.087418 
L 112.452875 300.159324 
L 118.26052 301.551421 
L 120.841696 302.040102 
L 125.573852 302.745163 
L 132.241889 303.506971 
L 142.566592 304.382356 
L 149.449727 304.802864 
L 160.634822 305.408209 
L 173.970896 305.918154 
L 197.416576 306.303708 
L 281.734982 306.801177 
L 281.734982 306.801177 
" clip-path="url(#pa07750ba44)" style="fill: none; stroke: #bb83f4; stroke-width: 1.5; stroke-linecap: square"/>
   </g>
   <g id="line2d_54">
    <path d="M 69.218182 55.801328 
L 69.648378 67.055778 
L 70.50877 78.85846 
L 70.938966 90.313599 
L 71.799358 124.392644 
L 72.659749 156.868305 
L 73.305043 174.419285 
L 74.165435 191.564489 
L 75.025827 204.791374 
L 75.886219 214.836117 
L 78.467395 241.752709 
L 79.757983 255.062651 
L 80.618375 261.616292 
L 81.478766 266.615848 
L 82.339158 270.461843 
L 83.19955 273.241589 
L 84.27504 275.888104 
L 85.565628 278.448937 
L 88.577 283.704094 
L 90.512881 286.63213 
L 91.803469 288.204907 
L 93.739351 290.229135 
L 95.245037 291.567828 
L 97.180919 292.935649 
L 100.837584 295.174705 
L 102.558368 296.011404 
L 104.709348 296.94475 
L 111.162287 299.434537 
L 113.528365 300.128922 
L 118.905814 301.397251 
L 124.71346 302.378363 
L 129.445615 302.945445 
L 134.392869 303.39807 
L 144.287376 304.056095 
L 155.902666 304.516306 
L 170.744427 304.846455 
L 210.537552 305.316724 
L 236.564407 305.51214 
L 238.285191 305.709737 
L 243.662641 305.843428 
L 275.927337 306.110387 
L 301.0938 306.188508 
L 301.0938 306.188508 
" clip-path="url(#pa07750ba44)" style="fill: none; stroke: #f564d4; stroke-width: 1.5; stroke-linecap: square"/>
   </g>
   <g id="line2d_55">
    <path d="M 69.218182 55.801046 
L 69.648378 67.071527 
L 70.50877 79.406068 
L 70.938966 90.852254 
L 71.58426 115.751491 
L 72.659749 158.08153 
L 73.305043 175.323007 
L 74.165435 191.539809 
L 75.240925 207.048142 
L 76.101317 216.353439 
L 78.467395 239.313535 
L 80.188179 256.936026 
L 81.048571 263.564764 
L 82.12406 270.110503 
L 83.19955 275.286722 
L 84.059942 278.429431 
L 85.135432 281.542404 
L 86.210922 283.965459 
L 87.716608 286.737363 
L 89.222294 289.044977 
L 91.158175 291.432488 
L 93.309155 293.62271 
L 95.245037 295.269559 
L 97.396017 296.742337 
L 99.331898 297.870896 
L 102.128172 299.235005 
L 106.215034 300.762829 
L 109.871699 301.798819 
L 115.249149 302.895604 
L 119.981304 303.611068 
L 127.724831 304.482591 
L 135.253261 305.081952 
L 146.653453 305.771585 
L 177.627562 307.097898 
L 190.318342 307.378757 
L 204.084613 307.577591 
L 219.356569 307.692223 
L 262.376164 307.8 
L 262.376164 307.8 
" clip-path="url(#pa07750ba44)" style="fill: none; stroke: #f564d4; stroke-width: 1.5; stroke-linecap: square"/>
   </g>
   <g id="line2d_56">
    <path d="M 69.218182 55.801216 
L 69.648378 67.091572 
L 70.50877 80.450947 
L 70.938966 92.656423 
L 71.799358 127.57978 
L 72.659749 160.434144 
L 73.305043 177.692021 
L 74.165435 194.28508 
L 75.025827 206.910262 
L 75.886219 216.420461 
L 78.252297 240.423728 
L 79.757983 255.175548 
L 80.618375 261.96676 
L 81.478766 266.928741 
L 82.554256 271.638039 
L 83.844844 276.308801 
L 84.920334 279.455072 
L 86.42602 283.08858 
L 87.716608 285.6806 
L 89.437392 288.545604 
L 90.943077 290.666195 
L 92.233665 292.217661 
L 93.739351 293.752575 
L 96.105429 295.693196 
L 98.471507 297.370844 
L 99.762094 298.103452 
L 102.128172 299.284909 
L 105.784838 300.699763 
L 108.581111 301.569048 
L 113.098169 302.639443 
L 116.539737 303.221058 
L 121.917186 303.897318 
L 127.509733 304.38901 
L 134.392869 304.859915 
L 146.223257 305.427578 
L 172.895406 306.204718 
L 201.933633 306.596521 
L 270.119692 306.929087 
L 322.173402 307.046731 
L 322.173402 307.046731 
" clip-path="url(#pa07750ba44)" style="fill: none; stroke: #f564d4; stroke-width: 1.5; stroke-linecap: square"/>
   </g>
   <g id="line2d_57">
    <path d="M 69.218182 55.801044 
L 69.648378 67.079049 
L 70.50877 80.001182 
L 70.938966 91.918595 
L 71.799358 126.427754 
L 72.659749 158.6747 
L 73.305043 174.797719 
L 74.165435 189.421384 
L 75.671121 209.775499 
L 77.176807 226.575204 
L 79.757983 254.439466 
L 80.833473 263.364495 
L 81.693864 268.358772 
L 82.554256 271.958481 
L 83.844844 276.275044 
L 85.995824 282.231029 
L 87.071314 284.65317 
L 88.361902 286.953445 
L 90.082686 289.462541 
L 91.803469 291.420542 
L 93.309155 292.789129 
L 95.245037 294.334714 
L 98.901703 296.698758 
L 102.128172 298.327344 
L 104.279152 299.201077 
L 107.075426 300.134923 
L 110.516993 301.141965 
L 114.173659 301.905868 
L 118.26052 302.585572 
L 126.219146 303.575557 
L 134.607967 304.287324 
L 145.577963 304.930734 
L 178.703052 306.308754 
L 201.718535 307.021623 
L 215.05461 307.173589 
L 253.342049 307.33673 
L 272.485769 307.370105 
L 272.485769 307.370105 
" clip-path="url(#pa07750ba44)" style="fill: none; stroke: #f564d4; stroke-width: 1.5; stroke-linecap: square"/>
   </g>
   <g id="line2d_58">
    <path d="M 69.218182 55.801128 
L 69.648378 67.060919 
L 70.723868 83.535056 
L 71.154064 96.866337 
L 73.305043 176.208595 
L 74.165435 193.876276 
L 75.240925 210.885475 
L 76.316415 223.864995 
L 79.327787 254.652749 
L 80.188179 261.691783 
L 81.048571 267.043556 
L 81.908962 271.002949 
L 82.769354 273.970558 
L 83.844844 276.840403 
L 84.920334 279.093487 
L 86.641118 282.141955 
L 88.792098 285.368975 
L 90.943077 288.158174 
L 93.094057 290.623309 
L 94.814841 292.302941 
L 96.750723 293.852494 
L 98.686605 295.160278 
L 101.697976 296.904374 
L 104.279152 298.071178 
L 106.860328 299.076061 
L 109.656601 299.984654 
L 116.539737 301.685077 
L 121.917186 302.608975 
L 131.166399 303.843283 
L 141.921298 304.84569 
L 157.408352 305.85968 
L 167.948153 306.229947 
L 186.876775 306.611536 
L 226.6699 306.890066 
L 280.444394 307.004805 
L 280.444394 307.004805 
" clip-path="url(#pa07750ba44)" style="fill: none; stroke: #f564d4; stroke-width: 1.5; stroke-linecap: square"/>
   </g>
   <g id="patch_3">
    <path d="M 54 320.4 
L 54 43.2 
" style="fill: none; stroke: #000000; stroke-width: 0.8; stroke-linejoin: miter; stroke-linecap: square"/>
   </g>
   <g id="patch_4">
    <path d="M 388.8 320.4 
L 388.8 43.2 
" style="fill: none; stroke: #000000; stroke-width: 0.8; stroke-linejoin: miter; stroke-linecap: square"/>
   </g>
   <g id="patch_5">
    <path d="M 54 320.4 
L 388.8 320.4 
" style="fill: none; stroke: #000000; stroke-width: 0.8; stroke-linejoin: miter; stroke-linecap: square"/>
   </g>
   <g id="patch_6">
    <path d="M 54 43.2 
L 388.8 43.2 
" style="fill: none; stroke: #000000; stroke-width: 0.8; stroke-linejoin: miter; stroke-linecap: square"/>
   </g>
   <g id="text_16">
    <g id="patch_7">
     <path d="M 231.574957 207.607936 
L 260.874957 207.607936 
L 260.874957 189.929811 
L 231.574957 189.929811 
z
" style="fill: #ffffff; opacity: 0.7; stroke: #000000; stroke-linejoin: miter"/>
    </g>
    <!-- K=2 -->
    <g style="fill: #f77189" transform="translate(235.574957 201.528249) scale(0.1 -0.1)">
     <defs>
      <path id="DejaVuSans-4b" d="M 628 4666 
L 1259 4666 
L 1259 2694 
L 3353 4666 
L 4166 4666 
L 1850 2491 
L 4331 0 
L 3500 0 
L 1259 2247 
L 1259 0 
L 628 0 
L 628 4666 
z
" transform="scale(0.015625)"/>
      <path id="DejaVuSans-3d" d="M 678 2906 
L 4684 2906 
L 4684 2381 
L 678 2381 
L 678 2906 
z
M 678 1631 
L 4684 1631 
L 4684 1100 
L 678 1100 
L 678 1631 
z
" transform="scale(0.015625)"/>
     </defs>
     <use xlink:href="#DejaVuSans-4b"/>
     <use xlink:href="#DejaVuSans-3d" x="65.576172"/>
     <use xlink:href="#DejaVuSans-32" x="149.365234"/>
    </g>
   </g>
   <g id="text_17">
    <g id="patch_8">
     <path d="M 193.502615 249.853254 
L 222.802615 249.853254 
L 222.802615 232.175129 
L 193.502615 232.175129 
z
" style="fill: #ffffff; opacity: 0.7; stroke: #000000; stroke-linejoin: miter"/>
    </g>
    <!-- K=3 -->
    <g style="fill: #d58c32" transform="translate(197.502615 243.773567) scale(0.1 -0.1)">
     <use xlink:href="#DejaVuSans-4b"/>
     <use xlink:href="#DejaVuSans-3d" x="65.576172"/>
     <use xlink:href="#DejaVuSans-33" x="149.365234"/>
    </g>
   </g>
   <g id="text_18">
    <g id="patch_9">
     <path d="M 211.570845 273.536192 
L 240.870845 273.536192 
L 240.870845 255.858067 
L 211.570845 255.858067 
z
" style="fill: #ffffff; opacity: 0.7; stroke: #000000; stroke-linejoin: miter"/>
    </g>
    <!-- K=4 -->
    <g style="fill: #a4a031" transform="translate(215.570845 267.456504) scale(0.1 -0.1)">
     <use xlink:href="#DejaVuSans-4b"/>
     <use xlink:href="#DejaVuSans-3d" x="65.576172"/>
     <use xlink:href="#DejaVuSans-34" x="149.365234"/>
    </g>
   </g>
   <g id="text_19">
    <g id="patch_10">
     <path d="M 228.391507 291.740088 
L 257.691507 291.740088 
L 257.691507 274.061963 
L 228.391507 274.061963 
z
" style="fill: #ffffff; opacity: 0.7; stroke: #000000; stroke-linejoin: miter"/>
    </g>
    <!-- K=5 -->
    <g style="fill: #50b131" transform="translate(232.391507 285.660401) scale(0.1 -0.1)">
     <defs>
      <path id="DejaVuSans-35" d="M 691 4666 
L 3169 4666 
L 3169 4134 
L 1269 4134 
L 1269 2991 
Q 1406 3038 1543 3061 
Q 1681 3084 1819 3084 
Q 2600 3084 3056 2656 
Q 3513 2228 3513 1497 
Q 3513 744 3044 326 
Q 2575 -91 1722 -91 
Q 1428 -91 1123 -41 
Q 819 9 494 109 
L 494 744 
Q 775 591 1075 516 
Q 1375 441 1709 441 
Q 2250 441 2565 725 
Q 2881 1009 2881 1497 
Q 2881 1984 2565 2268 
Q 2250 2553 1709 2553 
Q 1456 2553 1204 2497 
Q 953 2441 691 2322 
L 691 4666 
z
" transform="scale(0.015625)"/>
     </defs>
     <use xlink:href="#DejaVuSans-4b"/>
     <use xlink:href="#DejaVuSans-3d" x="65.576172"/>
     <use xlink:href="#DejaVuSans-35" x="149.365234"/>
    </g>
   </g>
   <g id="text_20">
    <g id="patch_11">
     <path d="M 274.207376 299.699158 
L 303.507376 299.699158 
L 303.507376 282.021033 
L 274.207376 282.021033 
z
" style="fill: #ffffff; opacity: 0.7; stroke: #000000; stroke-linejoin: miter"/>
    </g>
    <!-- K=6 -->
    <g style="fill: #34ae91" transform="translate(278.207376 293.619471) scale(0.1 -0.1)">
     <use xlink:href="#DejaVuSans-4b"/>
     <use xlink:href="#DejaVuSans-3d" x="65.576172"/>
     <use xlink:href="#DejaVuSans-36" x="149.365234"/>
    </g>
   </g>
   <g id="text_21">
    <g id="patch_12">
     <path d="M 300.191211 306.679034 
L 329.491211 306.679034 
L 329.491211 289.000909 
L 300.191211 289.000909 
z
" style="fill: #ffffff; opacity: 0.7; stroke: #000000; stroke-linejoin: miter"/>
    </g>
    <!-- K=7 -->
    <g style="fill: #37abb5" transform="translate(304.191211 300.599346) scale(0.1 -0.1)">
     <defs>
      <path id="DejaVuSans-37" d="M 525 4666 
L 3525 4666 
L 3525 4397 
L 1831 0 
L 1172 0 
L 2766 4134 
L 525 4134 
L 525 4666 
z
" transform="scale(0.015625)"/>
     </defs>
     <use xlink:href="#DejaVuSans-4b"/>
     <use xlink:href="#DejaVuSans-3d" x="65.576172"/>
     <use xlink:href="#DejaVuSans-37" x="149.365234"/>
    </g>
   </g>
   <g id="text_22">
    <g id="patch_13">
     <path d="M 309.010228 309.650362 
L 338.310228 309.650362 
L 338.310228 291.972237 
L 309.010228 291.972237 
z
" style="fill: #ffffff; opacity: 0.7; stroke: #000000; stroke-linejoin: miter"/>
    </g>
    <!-- K=8 -->
    <g style="fill: #3ba3ec" transform="translate(313.010228 303.570675) scale(0.1 -0.1)">
     <use xlink:href="#DejaVuSans-4b"/>
     <use xlink:href="#DejaVuSans-3d" x="65.576172"/>
     <use xlink:href="#DejaVuSans-38" x="149.365234"/>
    </g>
   </g>
   <g id="text_23">
    <g id="patch_14">
     <path d="M 322.862538 311.946099 
L 352.162538 311.946099 
L 352.162538 294.267974 
L 322.862538 294.267974 
z
" style="fill: #ffffff; opacity: 0.7; stroke: #000000; stroke-linejoin: miter"/>
    </g>
    <!-- K=9 -->
    <g style="fill: #bb83f4" transform="translate(326.862538 305.866411) scale(0.1 -0.1)">
     <defs>
      <path id="DejaVuSans-39" d="M 703 97 
L 703 672 
Q 941 559 1184 500 
Q 1428 441 1663 441 
Q 2288 441 2617 861 
Q 2947 1281 2994 2138 
Q 2813 1869 2534 1725 
Q 2256 1581 1919 1581 
Q 1219 1581 811 2004 
Q 403 2428 403 3163 
Q 403 3881 828 4315 
Q 1253 4750 1959 4750 
Q 2769 4750 3195 4129 
Q 3622 3509 3622 2328 
Q 3622 1225 3098 567 
Q 2575 -91 1691 -91 
Q 1453 -91 1209 -44 
Q 966 3 703 97 
z
M 1959 2075 
Q 2384 2075 2632 2365 
Q 2881 2656 2881 3163 
Q 2881 3666 2632 3958 
Q 2384 4250 1959 4250 
Q 1534 4250 1286 3958 
Q 1038 3666 1038 3163 
Q 1038 2656 1286 2365 
Q 1534 2075 1959 2075 
z
" transform="scale(0.015625)"/>
     </defs>
     <use xlink:href="#DejaVuSans-4b"/>
     <use xlink:href="#DejaVuSans-3d" x="65.576172"/>
     <use xlink:href="#DejaVuSans-39" x="149.365234"/>
    </g>
   </g>
   <g id="text_24">
    <g id="patch_15">
     <path d="M 309.741561 313.161717 
L 345.404061 313.161717 
L 345.404061 295.483592 
L 309.741561 295.483592 
z
" style="fill: #ffffff; opacity: 0.7; stroke: #000000; stroke-linejoin: miter"/>
    </g>
    <!-- K=10 -->
    <g style="fill: #f564d4" transform="translate(313.741561 307.08203) scale(0.1 -0.1)">
     <use xlink:href="#DejaVuSans-4b"/>
     <use xlink:href="#DejaVuSans-3d" x="65.576172"/>
     <use xlink:href="#DejaVuSans-31" x="149.365234"/>
     <use xlink:href="#DejaVuSans-30" x="212.988281"/>
    </g>
   </g>
   <g id="text_25">
    <!-- Loss curve over 5 runs with SSE loss for different K -->
    <g transform="translate(68.481563 37.2) scale(0.12 -0.12)">
     <defs>
      <path id="DejaVuSans-20" transform="scale(0.015625)"/>
      <path id="DejaVuSans-63" d="M 3122 3366 
L 3122 2828 
Q 2878 2963 2633 3030 
Q 2388 3097 2138 3097 
Q 1578 3097 1268 2742 
Q 959 2388 959 1747 
Q 959 1106 1268 751 
Q 1578 397 2138 397 
Q 2388 397 2633 464 
Q 2878 531 3122 666 
L 3122 134 
Q 2881 22 2623 -34 
Q 2366 -91 2075 -91 
Q 1284 -91 818 406 
Q 353 903 353 1747 
Q 353 2603 823 3093 
Q 1294 3584 2113 3584 
Q 2378 3584 2631 3529 
Q 2884 3475 3122 3366 
z
" transform="scale(0.015625)"/>
      <path id="DejaVuSans-75" d="M 544 1381 
L 544 3500 
L 1119 3500 
L 1119 1403 
Q 1119 906 1312 657 
Q 1506 409 1894 409 
Q 2359 409 2629 706 
Q 2900 1003 2900 1516 
L 2900 3500 
L 3475 3500 
L 3475 0 
L 2900 0 
L 2900 538 
Q 2691 219 2414 64 
Q 2138 -91 1772 -91 
Q 1169 -91 856 284 
Q 544 659 544 1381 
z
M 1991 3584 
L 1991 3584 
z
" transform="scale(0.015625)"/>
      <path id="DejaVuSans-76" d="M 191 3500 
L 800 3500 
L 1894 563 
L 2988 3500 
L 3597 3500 
L 2284 0 
L 1503 0 
L 191 3500 
z
" transform="scale(0.015625)"/>
      <path id="DejaVuSans-77" d="M 269 3500 
L 844 3500 
L 1563 769 
L 2278 3500 
L 2956 3500 
L 3675 769 
L 4391 3500 
L 4966 3500 
L 4050 0 
L 3372 0 
L 2619 2869 
L 1863 0 
L 1184 0 
L 269 3500 
z
" transform="scale(0.015625)"/>
      <path id="DejaVuSans-68" d="M 3513 2113 
L 3513 0 
L 2938 0 
L 2938 2094 
Q 2938 2591 2744 2837 
Q 2550 3084 2163 3084 
Q 1697 3084 1428 2787 
Q 1159 2491 1159 1978 
L 1159 0 
L 581 0 
L 581 4863 
L 1159 4863 
L 1159 2956 
Q 1366 3272 1645 3428 
Q 1925 3584 2291 3584 
Q 2894 3584 3203 3211 
Q 3513 2838 3513 2113 
z
" transform="scale(0.015625)"/>
      <path id="DejaVuSans-53" d="M 3425 4513 
L 3425 3897 
Q 3066 4069 2747 4153 
Q 2428 4238 2131 4238 
Q 1616 4238 1336 4038 
Q 1056 3838 1056 3469 
Q 1056 3159 1242 3001 
Q 1428 2844 1947 2747 
L 2328 2669 
Q 3034 2534 3370 2195 
Q 3706 1856 3706 1288 
Q 3706 609 3251 259 
Q 2797 -91 1919 -91 
Q 1588 -91 1214 -16 
Q 841 59 441 206 
L 441 856 
Q 825 641 1194 531 
Q 1563 422 1919 422 
Q 2459 422 2753 634 
Q 3047 847 3047 1241 
Q 3047 1584 2836 1778 
Q 2625 1972 2144 2069 
L 1759 2144 
Q 1053 2284 737 2584 
Q 422 2884 422 3419 
Q 422 4038 858 4394 
Q 1294 4750 2059 4750 
Q 2388 4750 2728 4690 
Q 3069 4631 3425 4513 
z
" transform="scale(0.015625)"/>
      <path id="DejaVuSans-45" d="M 628 4666 
L 3578 4666 
L 3578 4134 
L 1259 4134 
L 1259 2753 
L 3481 2753 
L 3481 2222 
L 1259 2222 
L 1259 531 
L 3634 531 
L 3634 0 
L 628 0 
L 628 4666 
z
" transform="scale(0.015625)"/>
      <path id="DejaVuSans-6c" d="M 603 4863 
L 1178 4863 
L 1178 0 
L 603 0 
L 603 4863 
z
" transform="scale(0.015625)"/>
      <path id="DejaVuSans-66" d="M 2375 4863 
L 2375 4384 
L 1825 4384 
Q 1516 4384 1395 4259 
Q 1275 4134 1275 3809 
L 1275 3500 
L 2222 3500 
L 2222 3053 
L 1275 3053 
L 1275 0 
L 697 0 
L 697 3053 
L 147 3053 
L 147 3500 
L 697 3500 
L 697 3744 
Q 697 4328 969 4595 
Q 1241 4863 1831 4863 
L 2375 4863 
z
" transform="scale(0.015625)"/>
      <path id="DejaVuSans-64" d="M 2906 2969 
L 2906 4863 
L 3481 4863 
L 3481 0 
L 2906 0 
L 2906 525 
Q 2725 213 2448 61 
Q 2172 -91 1784 -91 
Q 1150 -91 751 415 
Q 353 922 353 1747 
Q 353 2572 751 3078 
Q 1150 3584 1784 3584 
Q 2172 3584 2448 3432 
Q 2725 3281 2906 2969 
z
M 947 1747 
Q 947 1113 1208 752 
Q 1469 391 1925 391 
Q 2381 391 2643 752 
Q 2906 1113 2906 1747 
Q 2906 2381 2643 2742 
Q 2381 3103 1925 3103 
Q 1469 3103 1208 2742 
Q 947 2381 947 1747 
z
" transform="scale(0.015625)"/>
     </defs>
     <use xlink:href="#DejaVuSans-4c"/>
     <use xlink:href="#DejaVuSans-6f" x="53.962891"/>
     <use xlink:href="#DejaVuSans-73" x="115.144531"/>
     <use xlink:href="#DejaVuSans-73" x="167.244141"/>
     <use xlink:href="#DejaVuSans-20" x="219.34375"/>
     <use xlink:href="#DejaVuSans-63" x="251.130859"/>
     <use xlink:href="#DejaVuSans-75" x="306.111328"/>
     <use xlink:href="#DejaVuSans-72" x="369.490234"/>
     <use xlink:href="#DejaVuSans-76" x="410.603516"/>
     <use xlink:href="#DejaVuSans-65" x="469.783203"/>
     <use xlink:href="#DejaVuSans-20" x="531.306641"/>
     <use xlink:href="#DejaVuSans-6f" x="563.09375"/>
     <use xlink:href="#DejaVuSans-76" x="624.275391"/>
     <use xlink:href="#DejaVuSans-65" x="683.455078"/>
     <use xlink:href="#DejaVuSans-72" x="744.978516"/>
     <use xlink:href="#DejaVuSans-20" x="786.091797"/>
     <use xlink:href="#DejaVuSans-35" x="817.878906"/>
     <use xlink:href="#DejaVuSans-20" x="881.501953"/>
     <use xlink:href="#DejaVuSans-72" x="913.289062"/>
     <use xlink:href="#DejaVuSans-75" x="954.402344"/>
     <use xlink:href="#DejaVuSans-6e" x="1017.78125"/>
     <use xlink:href="#DejaVuSans-73" x="1081.160156"/>
     <use xlink:href="#DejaVuSans-20" x="1133.259766"/>
     <use xlink:href="#DejaVuSans-77" x="1165.046875"/>
     <use xlink:href="#DejaVuSans-69" x="1246.833984"/>
     <use xlink:href="#DejaVuSans-74" x="1274.617188"/>
     <use xlink:href="#DejaVuSans-68" x="1313.826172"/>
     <use xlink:href="#DejaVuSans-20" x="1377.205078"/>
     <use xlink:href="#DejaVuSans-53" x="1408.992188"/>
     <use xlink:href="#DejaVuSans-53" x="1472.46875"/>
     <use xlink:href="#DejaVuSans-45" x="1535.945312"/>
     <use xlink:href="#DejaVuSans-20" x="1599.128906"/>
     <use xlink:href="#DejaVuSans-6c" x="1630.916016"/>
     <use xlink:href="#DejaVuSans-6f" x="1658.699219"/>
     <use xlink:href="#DejaVuSans-73" x="1719.880859"/>
     <use xlink:href="#DejaVuSans-73" x="1771.980469"/>
     <use xlink:href="#DejaVuSans-20" x="1824.080078"/>
     <use xlink:href="#DejaVuSans-66" x="1855.867188"/>
     <use xlink:href="#DejaVuSans-6f" x="1891.072266"/>
     <use xlink:href="#DejaVuSans-72" x="1952.253906"/>
     <use xlink:href="#DejaVuSans-20" x="1993.367188"/>
     <use xlink:href="#DejaVuSans-64" x="2025.154297"/>
     <use xlink:href="#DejaVuSans-69" x="2088.630859"/>
     <use xlink:href="#DejaVuSans-66" x="2116.414062"/>
     <use xlink:href="#DejaVuSans-66" x="2151.619141"/>
     <use xlink:href="#DejaVuSans-65" x="2186.824219"/>
     <use xlink:href="#DejaVuSans-72" x="2248.347656"/>
     <use xlink:href="#DejaVuSans-65" x="2287.210938"/>
     <use xlink:href="#DejaVuSans-6e" x="2348.734375"/>
     <use xlink:href="#DejaVuSans-74" x="2412.113281"/>
     <use xlink:href="#DejaVuSans-20" x="2451.322266"/>
     <use xlink:href="#DejaVuSans-4b" x="2483.109375"/>
    </g>
   </g>
   <g id="legend_1">
    <g id="patch_16">
     <path d="M 322.1375 183.303125 
L 381.8 183.303125 
Q 383.8 183.303125 383.8 181.303125 
L 383.8 50.2 
Q 383.8 48.2 381.8 48.2 
L 322.1375 48.2 
Q 320.1375 48.2 320.1375 50.2 
L 320.1375 181.303125 
Q 320.1375 183.303125 322.1375 183.303125 
z
" style="fill: #ffffff; opacity: 0.8; stroke: #cccccc; stroke-linejoin: miter"/>
    </g>
    <g id="line2d_59">
     <path d="M 324.1375 56.298437 
L 334.1375 56.298437 
L 344.1375 56.298437 
" style="fill: none; stroke: #f77189; stroke-width: 1.5; stroke-linecap: square"/>
    </g>
    <g id="text_26">
     <!-- K=2 -->
     <g transform="translate(352.1375 59.798437) scale(0.1 -0.1)">
      <use xlink:href="#DejaVuSans-4b"/>
      <use xlink:href="#DejaVuSans-3d" x="65.576172"/>
      <use xlink:href="#DejaVuSans-32" x="149.365234"/>
     </g>
    </g>
    <g id="line2d_60">
     <path d="M 324.1375 70.976562 
L 334.1375 70.976562 
L 344.1375 70.976562 
" style="fill: none; stroke: #d58c32; stroke-width: 1.5; stroke-linecap: square"/>
    </g>
    <g id="text_27">
     <!-- K=3 -->
     <g transform="translate(352.1375 74.476562) scale(0.1 -0.1)">
      <use xlink:href="#DejaVuSans-4b"/>
      <use xlink:href="#DejaVuSans-3d" x="65.576172"/>
      <use xlink:href="#DejaVuSans-33" x="149.365234"/>
     </g>
    </g>
    <g id="line2d_61">
     <path d="M 324.1375 85.654687 
L 334.1375 85.654687 
L 344.1375 85.654687 
" style="fill: none; stroke: #a4a031; stroke-width: 1.5; stroke-linecap: square"/>
    </g>
    <g id="text_28">
     <!-- K=4 -->
     <g transform="translate(352.1375 89.154687) scale(0.1 -0.1)">
      <use xlink:href="#DejaVuSans-4b"/>
      <use xlink:href="#DejaVuSans-3d" x="65.576172"/>
      <use xlink:href="#DejaVuSans-34" x="149.365234"/>
     </g>
    </g>
    <g id="line2d_62">
     <path d="M 324.1375 100.332812 
L 334.1375 100.332812 
L 344.1375 100.332812 
" style="fill: none; stroke: #50b131; stroke-width: 1.5; stroke-linecap: square"/>
    </g>
    <g id="text_29">
     <!-- K=5 -->
     <g transform="translate(352.1375 103.832812) scale(0.1 -0.1)">
      <use xlink:href="#DejaVuSans-4b"/>
      <use xlink:href="#DejaVuSans-3d" x="65.576172"/>
      <use xlink:href="#DejaVuSans-35" x="149.365234"/>
     </g>
    </g>
    <g id="line2d_63">
     <path d="M 324.1375 115.010937 
L 334.1375 115.010937 
L 344.1375 115.010937 
" style="fill: none; stroke: #34ae91; stroke-width: 1.5; stroke-linecap: square"/>
    </g>
    <g id="text_30">
     <!-- K=6 -->
     <g transform="translate(352.1375 118.510937) scale(0.1 -0.1)">
      <use xlink:href="#DejaVuSans-4b"/>
      <use xlink:href="#DejaVuSans-3d" x="65.576172"/>
      <use xlink:href="#DejaVuSans-36" x="149.365234"/>
     </g>
    </g>
    <g id="line2d_64">
     <path d="M 324.1375 129.689062 
L 334.1375 129.689062 
L 344.1375 129.689062 
" style="fill: none; stroke: #37abb5; stroke-width: 1.5; stroke-linecap: square"/>
    </g>
    <g id="text_31">
     <!-- K=7 -->
     <g transform="translate(352.1375 133.189062) scale(0.1 -0.1)">
      <use xlink:href="#DejaVuSans-4b"/>
      <use xlink:href="#DejaVuSans-3d" x="65.576172"/>
      <use xlink:href="#DejaVuSans-37" x="149.365234"/>
     </g>
    </g>
    <g id="line2d_65">
     <path d="M 324.1375 144.367187 
L 334.1375 144.367187 
L 344.1375 144.367187 
" style="fill: none; stroke: #3ba3ec; stroke-width: 1.5; stroke-linecap: square"/>
    </g>
    <g id="text_32">
     <!-- K=8 -->
     <g transform="translate(352.1375 147.867187) scale(0.1 -0.1)">
      <use xlink:href="#DejaVuSans-4b"/>
      <use xlink:href="#DejaVuSans-3d" x="65.576172"/>
      <use xlink:href="#DejaVuSans-38" x="149.365234"/>
     </g>
    </g>
    <g id="line2d_66">
     <path d="M 324.1375 159.045312 
L 334.1375 159.045312 
L 344.1375 159.045312 
" style="fill: none; stroke: #bb83f4; stroke-width: 1.5; stroke-linecap: square"/>
    </g>
    <g id="text_33">
     <!-- K=9 -->
     <g transform="translate(352.1375 162.545312) scale(0.1 -0.1)">
      <use xlink:href="#DejaVuSans-4b"/>
      <use xlink:href="#DejaVuSans-3d" x="65.576172"/>
      <use xlink:href="#DejaVuSans-39" x="149.365234"/>
     </g>
    </g>
    <g id="line2d_67">
     <path d="M 324.1375 173.723437 
L 334.1375 173.723437 
L 344.1375 173.723437 
" style="fill: none; stroke: #f564d4; stroke-width: 1.5; stroke-linecap: square"/>
    </g>
    <g id="text_34">
     <!-- K=10 -->
     <g transform="translate(352.1375 177.223437) scale(0.1 -0.1)">
      <use xlink:href="#DejaVuSans-4b"/>
      <use xlink:href="#DejaVuSans-3d" x="65.576172"/>
      <use xlink:href="#DejaVuSans-31" x="149.365234"/>
      <use xlink:href="#DejaVuSans-30" x="212.988281"/>
     </g>
    </g>
   </g>
  </g>
 </g>
 <defs>
  <clipPath id="pa07750ba44">
   <rect x="54" y="43.2" width="334.8" height="277.2"/>
  </clipPath>
 </defs>
</svg>
