<?xml version="1.0" encoding="utf-8" standalone="no"?>
<!DOCTYPE svg PUBLIC "-//W3C//DTD SVG 1.1//EN"
  "http://www.w3.org/Graphics/SVG/1.1/DTD/svg11.dtd">
<svg xmlns:xlink="http://www.w3.org/1999/xlink" width="864pt" height="288pt" viewBox="0 0 864 288" xmlns="http://www.w3.org/2000/svg" version="1.1">
 <metadata>
  <rdf:RDF xmlns:dc="http://purl.org/dc/elements/1.1/" xmlns:cc="http://creativecommons.org/ns#" xmlns:rdf="http://www.w3.org/1999/02/22-rdf-syntax-ns#">
   <cc:Work>
    <dc:type rdf:resource="http://purl.org/dc/dcmitype/StillImage"/>
    <dc:date>2024-06-25T15:45:21.317533</dc:date>
    <dc:format>image/svg+xml</dc:format>
    <dc:creator>
     <cc:Agent>
      <dc:title>Matplotlib v3.8.2, https://matplotlib.org/</dc:title>
     </cc:Agent>
    </dc:creator>
   </cc:Work>
  </rdf:RDF>
 </metadata>
 <defs>
  <style type="text/css">*{stroke-linejoin: round; stroke-linecap: butt}</style>
 </defs>
 <g id="figure_1">
  <g id="patch_1">
   <path d="M 0 288 
L 864 288 
L 864 0 
L 0 0 
z
" style="fill: #ffffff"/>
  </g>
  <g id="axes_1">
   <g id="patch_2">
    <path d="M 30.040865 254.64351 
L 282.206531 254.64351 
L 282.206531 18.118365 
L 30.040865 18.118365 
z
" style="fill: #ffffff"/>
   </g>
   <g id="matplotlib.axis_1">
    <g id="xtick_1">
     <g id="line2d_1">
      <defs>
       <path id="meb07aa2db9" d="M 0 0 
L 0 3.5 
" style="stroke: #000000; stroke-width: 0.8"/>
      </defs>
      <g>
       <use xlink:href="#meb07aa2db9" x="41.502941" y="254.64351" style="stroke: #000000; stroke-width: 0.8"/>
      </g>
     </g>
     <g id="text_1">
      <!-- 0 -->
      <g transform="translate(38.321691 269.241947) scale(0.1 -0.1)">
       <defs>
        <path id="DejaVuSans-30" d="M 2034 4250 
Q 1547 4250 1301 3770 
Q 1056 3291 1056 2328 
Q 1056 1369 1301 889 
Q 1547 409 2034 409 
Q 2525 409 2770 889 
Q 3016 1369 3016 2328 
Q 3016 3291 2770 3770 
Q 2525 4250 2034 4250 
z
M 2034 4750 
Q 2819 4750 3233 4129 
Q 3647 3509 3647 2328 
Q 3647 1150 3233 529 
Q 2819 -91 2034 -91 
Q 1250 -91 836 529 
Q 422 1150 422 2328 
Q 422 3509 836 4129 
Q 1250 4750 2034 4750 
z
" transform="scale(0.015625)"/>
       </defs>
       <use xlink:href="#DejaVuSans-30"/>
      </g>
     </g>
    </g>
    <g id="xtick_2">
     <g id="line2d_2">
      <g>
       <use xlink:href="#meb07aa2db9" x="79.837642" y="254.64351" style="stroke: #000000; stroke-width: 0.8"/>
      </g>
     </g>
     <g id="text_2">
      <!-- 50 -->
      <g transform="translate(73.475142 269.241947) scale(0.1 -0.1)">
       <defs>
        <path id="DejaVuSans-35" d="M 691 4666 
L 3169 4666 
L 3169 4134 
L 1269 4134 
L 1269 2991 
Q 1406 3038 1543 3061 
Q 1681 3084 1819 3084 
Q 2600 3084 3056 2656 
Q 3513 2228 3513 1497 
Q 3513 744 3044 326 
Q 2575 -91 1722 -91 
Q 1428 -91 1123 -41 
Q 819 9 494 109 
L 494 744 
Q 775 591 1075 516 
Q 1375 441 1709 441 
Q 2250 441 2565 725 
Q 2881 1009 2881 1497 
Q 2881 1984 2565 2268 
Q 2250 2553 1709 2553 
Q 1456 2553 1204 2497 
Q 953 2441 691 2322 
L 691 4666 
z
" transform="scale(0.015625)"/>
       </defs>
       <use xlink:href="#DejaVuSans-35"/>
       <use xlink:href="#DejaVuSans-30" x="63.623047"/>
      </g>
     </g>
    </g>
    <g id="xtick_3">
     <g id="line2d_3">
      <g>
       <use xlink:href="#meb07aa2db9" x="118.172344" y="254.64351" style="stroke: #000000; stroke-width: 0.8"/>
      </g>
     </g>
     <g id="text_3">
      <!-- 100 -->
      <g transform="translate(108.628594 269.241947) scale(0.1 -0.1)">
       <defs>
        <path id="DejaVuSans-31" d="M 794 531 
L 1825 531 
L 1825 4091 
L 703 3866 
L 703 4441 
L 1819 4666 
L 2450 4666 
L 2450 531 
L 3481 531 
L 3481 0 
L 794 0 
L 794 531 
z
" transform="scale(0.015625)"/>
       </defs>
       <use xlink:href="#DejaVuSans-31"/>
       <use xlink:href="#DejaVuSans-30" x="63.623047"/>
       <use xlink:href="#DejaVuSans-30" x="127.246094"/>
      </g>
     </g>
    </g>
    <g id="xtick_4">
     <g id="line2d_4">
      <g>
       <use xlink:href="#meb07aa2db9" x="156.507045" y="254.64351" style="stroke: #000000; stroke-width: 0.8"/>
      </g>
     </g>
     <g id="text_4">
      <!-- 150 -->
      <g transform="translate(146.963295 269.241947) scale(0.1 -0.1)">
       <use xlink:href="#DejaVuSans-31"/>
       <use xlink:href="#DejaVuSans-35" x="63.623047"/>
       <use xlink:href="#DejaVuSans-30" x="127.246094"/>
      </g>
     </g>
    </g>
    <g id="xtick_5">
     <g id="line2d_5">
      <g>
       <use xlink:href="#meb07aa2db9" x="194.841746" y="254.64351" style="stroke: #000000; stroke-width: 0.8"/>
      </g>
     </g>
     <g id="text_5">
      <!-- 200 -->
      <g transform="translate(185.297996 269.241947) scale(0.1 -0.1)">
       <defs>
        <path id="DejaVuSans-32" d="M 1228 531 
L 3431 531 
L 3431 0 
L 469 0 
L 469 531 
Q 828 903 1448 1529 
Q 2069 2156 2228 2338 
Q 2531 2678 2651 2914 
Q 2772 3150 2772 3378 
Q 2772 3750 2511 3984 
Q 2250 4219 1831 4219 
Q 1534 4219 1204 4116 
Q 875 4013 500 3803 
L 500 4441 
Q 881 4594 1212 4672 
Q 1544 4750 1819 4750 
Q 2544 4750 2975 4387 
Q 3406 4025 3406 3419 
Q 3406 3131 3298 2873 
Q 3191 2616 2906 2266 
Q 2828 2175 2409 1742 
Q 1991 1309 1228 531 
z
" transform="scale(0.015625)"/>
       </defs>
       <use xlink:href="#DejaVuSans-32"/>
       <use xlink:href="#DejaVuSans-30" x="63.623047"/>
       <use xlink:href="#DejaVuSans-30" x="127.246094"/>
      </g>
     </g>
    </g>
    <g id="xtick_6">
     <g id="line2d_6">
      <g>
       <use xlink:href="#meb07aa2db9" x="233.176448" y="254.64351" style="stroke: #000000; stroke-width: 0.8"/>
      </g>
     </g>
     <g id="text_6">
      <!-- 250 -->
      <g transform="translate(223.632698 269.241947) scale(0.1 -0.1)">
       <use xlink:href="#DejaVuSans-32"/>
       <use xlink:href="#DejaVuSans-35" x="63.623047"/>
       <use xlink:href="#DejaVuSans-30" x="127.246094"/>
      </g>
     </g>
    </g>
    <g id="xtick_7">
     <g id="line2d_7">
      <g>
       <use xlink:href="#meb07aa2db9" x="271.511149" y="254.64351" style="stroke: #000000; stroke-width: 0.8"/>
      </g>
     </g>
     <g id="text_7">
      <!-- 300 -->
      <g transform="translate(261.967399 269.241947) scale(0.1 -0.1)">
       <defs>
        <path id="DejaVuSans-33" d="M 2597 2516 
Q 3050 2419 3304 2112 
Q 3559 1806 3559 1356 
Q 3559 666 3084 287 
Q 2609 -91 1734 -91 
Q 1441 -91 1130 -33 
Q 819 25 488 141 
L 488 750 
Q 750 597 1062 519 
Q 1375 441 1716 441 
Q 2309 441 2620 675 
Q 2931 909 2931 1356 
Q 2931 1769 2642 2001 
Q 2353 2234 1838 2234 
L 1294 2234 
L 1294 2753 
L 1863 2753 
Q 2328 2753 2575 2939 
Q 2822 3125 2822 3475 
Q 2822 3834 2567 4026 
Q 2313 4219 1838 4219 
Q 1578 4219 1281 4162 
Q 984 4106 628 3988 
L 628 4550 
Q 988 4650 1302 4700 
Q 1616 4750 1894 4750 
Q 2613 4750 3031 4423 
Q 3450 4097 3450 3541 
Q 3450 3153 3228 2886 
Q 3006 2619 2597 2516 
z
" transform="scale(0.015625)"/>
       </defs>
       <use xlink:href="#DejaVuSans-33"/>
       <use xlink:href="#DejaVuSans-30" x="63.623047"/>
       <use xlink:href="#DejaVuSans-30" x="127.246094"/>
      </g>
     </g>
    </g>
    <g id="text_8">
     <!-- Sample index -->
     <g transform="translate(122.105729 282.920073) scale(0.1 -0.1)">
      <defs>
       <path id="DejaVuSans-53" d="M 3425 4513 
L 3425 3897 
Q 3066 4069 2747 4153 
Q 2428 4238 2131 4238 
Q 1616 4238 1336 4038 
Q 1056 3838 1056 3469 
Q 1056 3159 1242 3001 
Q 1428 2844 1947 2747 
L 2328 2669 
Q 3034 2534 3370 2195 
Q 3706 1856 3706 1288 
Q 3706 609 3251 259 
Q 2797 -91 1919 -91 
Q 1588 -91 1214 -16 
Q 841 59 441 206 
L 441 856 
Q 825 641 1194 531 
Q 1563 422 1919 422 
Q 2459 422 2753 634 
Q 3047 847 3047 1241 
Q 3047 1584 2836 1778 
Q 2625 1972 2144 2069 
L 1759 2144 
Q 1053 2284 737 2584 
Q 422 2884 422 3419 
Q 422 4038 858 4394 
Q 1294 4750 2059 4750 
Q 2388 4750 2728 4690 
Q 3069 4631 3425 4513 
z
" transform="scale(0.015625)"/>
       <path id="DejaVuSans-61" d="M 2194 1759 
Q 1497 1759 1228 1600 
Q 959 1441 959 1056 
Q 959 750 1161 570 
Q 1363 391 1709 391 
Q 2188 391 2477 730 
Q 2766 1069 2766 1631 
L 2766 1759 
L 2194 1759 
z
M 3341 1997 
L 3341 0 
L 2766 0 
L 2766 531 
Q 2569 213 2275 61 
Q 1981 -91 1556 -91 
Q 1019 -91 701 211 
Q 384 513 384 1019 
Q 384 1609 779 1909 
Q 1175 2209 1959 2209 
L 2766 2209 
L 2766 2266 
Q 2766 2663 2505 2880 
Q 2244 3097 1772 3097 
Q 1472 3097 1187 3025 
Q 903 2953 641 2809 
L 641 3341 
Q 956 3463 1253 3523 
Q 1550 3584 1831 3584 
Q 2591 3584 2966 3190 
Q 3341 2797 3341 1997 
z
" transform="scale(0.015625)"/>
       <path id="DejaVuSans-6d" d="M 3328 2828 
Q 3544 3216 3844 3400 
Q 4144 3584 4550 3584 
Q 5097 3584 5394 3201 
Q 5691 2819 5691 2113 
L 5691 0 
L 5113 0 
L 5113 2094 
Q 5113 2597 4934 2840 
Q 4756 3084 4391 3084 
Q 3944 3084 3684 2787 
Q 3425 2491 3425 1978 
L 3425 0 
L 2847 0 
L 2847 2094 
Q 2847 2600 2669 2842 
Q 2491 3084 2119 3084 
Q 1678 3084 1418 2786 
Q 1159 2488 1159 1978 
L 1159 0 
L 581 0 
L 581 3500 
L 1159 3500 
L 1159 2956 
Q 1356 3278 1631 3431 
Q 1906 3584 2284 3584 
Q 2666 3584 2933 3390 
Q 3200 3197 3328 2828 
z
" transform="scale(0.015625)"/>
       <path id="DejaVuSans-70" d="M 1159 525 
L 1159 -1331 
L 581 -1331 
L 581 3500 
L 1159 3500 
L 1159 2969 
Q 1341 3281 1617 3432 
Q 1894 3584 2278 3584 
Q 2916 3584 3314 3078 
Q 3713 2572 3713 1747 
Q 3713 922 3314 415 
Q 2916 -91 2278 -91 
Q 1894 -91 1617 61 
Q 1341 213 1159 525 
z
M 3116 1747 
Q 3116 2381 2855 2742 
Q 2594 3103 2138 3103 
Q 1681 3103 1420 2742 
Q 1159 2381 1159 1747 
Q 1159 1113 1420 752 
Q 1681 391 2138 391 
Q 2594 391 2855 752 
Q 3116 1113 3116 1747 
z
" transform="scale(0.015625)"/>
       <path id="DejaVuSans-6c" d="M 603 4863 
L 1178 4863 
L 1178 0 
L 603 0 
L 603 4863 
z
" transform="scale(0.015625)"/>
       <path id="DejaVuSans-65" d="M 3597 1894 
L 3597 1613 
L 953 1613 
Q 991 1019 1311 708 
Q 1631 397 2203 397 
Q 2534 397 2845 478 
Q 3156 559 3463 722 
L 3463 178 
Q 3153 47 2828 -22 
Q 2503 -91 2169 -91 
Q 1331 -91 842 396 
Q 353 884 353 1716 
Q 353 2575 817 3079 
Q 1281 3584 2069 3584 
Q 2775 3584 3186 3129 
Q 3597 2675 3597 1894 
z
M 3022 2063 
Q 3016 2534 2758 2815 
Q 2500 3097 2075 3097 
Q 1594 3097 1305 2825 
Q 1016 2553 972 2059 
L 3022 2063 
z
" transform="scale(0.015625)"/>
       <path id="DejaVuSans-20" transform="scale(0.015625)"/>
       <path id="DejaVuSans-69" d="M 603 3500 
L 1178 3500 
L 1178 0 
L 603 0 
L 603 3500 
z
M 603 4863 
L 1178 4863 
L 1178 4134 
L 603 4134 
L 603 4863 
z
" transform="scale(0.015625)"/>
       <path id="DejaVuSans-6e" d="M 3513 2113 
L 3513 0 
L 2938 0 
L 2938 2094 
Q 2938 2591 2744 2837 
Q 2550 3084 2163 3084 
Q 1697 3084 1428 2787 
Q 1159 2491 1159 1978 
L 1159 0 
L 581 0 
L 581 3500 
L 1159 3500 
L 1159 2956 
Q 1366 3272 1645 3428 
Q 1925 3584 2291 3584 
Q 2894 3584 3203 3211 
Q 3513 2838 3513 2113 
z
" transform="scale(0.015625)"/>
       <path id="DejaVuSans-64" d="M 2906 2969 
L 2906 4863 
L 3481 4863 
L 3481 0 
L 2906 0 
L 2906 525 
Q 2725 213 2448 61 
Q 2172 -91 1784 -91 
Q 1150 -91 751 415 
Q 353 922 353 1747 
Q 353 2572 751 3078 
Q 1150 3584 1784 3584 
Q 2172 3584 2448 3432 
Q 2725 3281 2906 2969 
z
M 947 1747 
Q 947 1113 1208 752 
Q 1469 391 1925 391 
Q 2381 391 2643 752 
Q 2906 1113 2906 1747 
Q 2906 2381 2643 2742 
Q 2381 3103 1925 3103 
Q 1469 3103 1208 2742 
Q 947 2381 947 1747 
z
" transform="scale(0.015625)"/>
       <path id="DejaVuSans-78" d="M 3513 3500 
L 2247 1797 
L 3578 0 
L 2900 0 
L 1881 1375 
L 863 0 
L 184 0 
L 1544 1831 
L 300 3500 
L 978 3500 
L 1906 2253 
L 2834 3500 
L 3513 3500 
z
" transform="scale(0.015625)"/>
      </defs>
      <use xlink:href="#DejaVuSans-53"/>
      <use xlink:href="#DejaVuSans-61" x="63.476562"/>
      <use xlink:href="#DejaVuSans-6d" x="124.755859"/>
      <use xlink:href="#DejaVuSans-70" x="222.167969"/>
      <use xlink:href="#DejaVuSans-6c" x="285.644531"/>
      <use xlink:href="#DejaVuSans-65" x="313.427734"/>
      <use xlink:href="#DejaVuSans-20" x="374.951172"/>
      <use xlink:href="#DejaVuSans-69" x="406.738281"/>
      <use xlink:href="#DejaVuSans-6e" x="434.521484"/>
      <use xlink:href="#DejaVuSans-64" x="497.900391"/>
      <use xlink:href="#DejaVuSans-65" x="561.376953"/>
      <use xlink:href="#DejaVuSans-78" x="621.150391"/>
     </g>
    </g>
   </g>
   <g id="matplotlib.axis_2">
    <g id="ytick_1">
     <g id="line2d_8">
      <defs>
       <path id="ma0afaa49c0" d="M 0 0 
L -3.5 0 
" style="stroke: #000000; stroke-width: 0.8"/>
      </defs>
      <g>
       <use xlink:href="#ma0afaa49c0" x="30.040865" y="170.899708" style="stroke: #000000; stroke-width: 0.8"/>
      </g>
     </g>
     <g id="text_9">
      <!-- 1 -->
      <g transform="translate(16.678365 174.698927) scale(0.1 -0.1)">
       <use xlink:href="#DejaVuSans-31"/>
      </g>
     </g>
    </g>
    <g id="ytick_2">
     <g id="line2d_9">
      <g>
       <use xlink:href="#ma0afaa49c0" x="30.040865" y="97.907048" style="stroke: #000000; stroke-width: 0.8"/>
      </g>
     </g>
     <g id="text_10">
      <!-- 2 -->
      <g transform="translate(16.678365 101.706267) scale(0.1 -0.1)">
       <use xlink:href="#DejaVuSans-32"/>
      </g>
     </g>
    </g>
    <g id="ytick_3">
     <g id="line2d_10">
      <g>
       <use xlink:href="#ma0afaa49c0" x="30.040865" y="24.914388" style="stroke: #000000; stroke-width: 0.8"/>
      </g>
     </g>
     <g id="text_11">
      <!-- 3 -->
      <g transform="translate(16.678365 28.713607) scale(0.1 -0.1)">
       <use xlink:href="#DejaVuSans-33"/>
      </g>
     </g>
    </g>
    <g id="text_12">
     <!-- Component -->
     <g transform="translate(10.598677 165.409844) rotate(-90) scale(0.1 -0.1)">
      <defs>
       <path id="DejaVuSans-43" d="M 4122 4306 
L 4122 3641 
Q 3803 3938 3442 4084 
Q 3081 4231 2675 4231 
Q 1875 4231 1450 3742 
Q 1025 3253 1025 2328 
Q 1025 1406 1450 917 
Q 1875 428 2675 428 
Q 3081 428 3442 575 
Q 3803 722 4122 1019 
L 4122 359 
Q 3791 134 3420 21 
Q 3050 -91 2638 -91 
Q 1578 -91 968 557 
Q 359 1206 359 2328 
Q 359 3453 968 4101 
Q 1578 4750 2638 4750 
Q 3056 4750 3426 4639 
Q 3797 4528 4122 4306 
z
" transform="scale(0.015625)"/>
       <path id="DejaVuSans-6f" d="M 1959 3097 
Q 1497 3097 1228 2736 
Q 959 2375 959 1747 
Q 959 1119 1226 758 
Q 1494 397 1959 397 
Q 2419 397 2687 759 
Q 2956 1122 2956 1747 
Q 2956 2369 2687 2733 
Q 2419 3097 1959 3097 
z
M 1959 3584 
Q 2709 3584 3137 3096 
Q 3566 2609 3566 1747 
Q 3566 888 3137 398 
Q 2709 -91 1959 -91 
Q 1206 -91 779 398 
Q 353 888 353 1747 
Q 353 2609 779 3096 
Q 1206 3584 1959 3584 
z
" transform="scale(0.015625)"/>
       <path id="DejaVuSans-74" d="M 1172 4494 
L 1172 3500 
L 2356 3500 
L 2356 3053 
L 1172 3053 
L 1172 1153 
Q 1172 725 1289 603 
Q 1406 481 1766 481 
L 2356 481 
L 2356 0 
L 1766 0 
Q 1100 0 847 248 
Q 594 497 594 1153 
L 594 3053 
L 172 3053 
L 172 3500 
L 594 3500 
L 594 4494 
L 1172 4494 
z
" transform="scale(0.015625)"/>
      </defs>
      <use xlink:href="#DejaVuSans-43"/>
      <use xlink:href="#DejaVuSans-6f" x="69.824219"/>
      <use xlink:href="#DejaVuSans-6d" x="131.005859"/>
      <use xlink:href="#DejaVuSans-70" x="228.417969"/>
      <use xlink:href="#DejaVuSans-6f" x="291.894531"/>
      <use xlink:href="#DejaVuSans-6e" x="353.076172"/>
      <use xlink:href="#DejaVuSans-65" x="416.455078"/>
      <use xlink:href="#DejaVuSans-6e" x="477.978516"/>
      <use xlink:href="#DejaVuSans-74" x="541.357422"/>
     </g>
    </g>
   </g>
   <g id="line2d_11">
    <path d="M 41.502941 243.89229 
L 49.936575 243.892018 
L 50.703269 227.720302 
L 51.469963 243.892229 
L 110.505403 243.891645 
L 111.272097 187.09785 
L 112.038791 243.889787 
L 146.540023 243.892367 
L 270.744455 243.892367 
L 270.744455 243.892367 
" clip-path="url(#p365a80e2a2)" style="fill: none; stroke: #1f77b4; stroke-width: 1.5; stroke-linecap: square"/>
   </g>
   <g id="line2d_12">
    <path d="M 41.502941 170.899705 
L 145.006635 170.899682 
L 145.773329 139.668455 
L 146.540023 170.89968 
L 193.308358 170.897967 
L 194.075052 129.169618 
L 194.841746 170.899707 
L 270.744455 170.899707 
L 270.744455 170.899707 
" clip-path="url(#p365a80e2a2)" style="fill: none; stroke: #ff7f0e; stroke-width: 1.5; stroke-linecap: square"/>
   </g>
   <g id="line2d_13">
    <path d="M 41.502941 97.907047 
L 218.609261 97.906935 
L 219.375955 93.966442 
L 220.142649 97.906945 
L 243.14347 97.907006 
L 243.910164 28.869508 
L 244.676858 97.905619 
L 270.744455 97.906901 
L 270.744455 97.906901 
" clip-path="url(#p365a80e2a2)" style="fill: none; stroke: #2ca02c; stroke-width: 1.5; stroke-linecap: square"/>
   </g>
   <g id="patch_3">
    <path d="M 30.040865 254.64351 
L 30.040865 18.118365 
" style="fill: none; stroke: #000000; stroke-width: 0.8; stroke-linejoin: miter; stroke-linecap: square"/>
   </g>
   <g id="patch_4">
    <path d="M 282.206531 254.64351 
L 282.206531 18.118365 
" style="fill: none; stroke: #000000; stroke-width: 0.8; stroke-linejoin: miter; stroke-linecap: square"/>
   </g>
   <g id="patch_5">
    <path d="M 30.040865 254.64351 
L 282.206531 254.64351 
" style="fill: none; stroke: #000000; stroke-width: 0.8; stroke-linejoin: miter; stroke-linecap: square"/>
   </g>
   <g id="patch_6">
    <path d="M 30.040865 18.118365 
L 282.206531 18.118365 
" style="fill: none; stroke: #000000; stroke-width: 0.8; stroke-linejoin: miter; stroke-linecap: square"/>
   </g>
   <g id="text_13">
    <!-- C (transposed) -->
    <g transform="translate(111.814635 12.118365) scale(0.12 -0.12)">
     <defs>
      <path id="DejaVuSans-28" d="M 1984 4856 
Q 1566 4138 1362 3434 
Q 1159 2731 1159 2009 
Q 1159 1288 1364 580 
Q 1569 -128 1984 -844 
L 1484 -844 
Q 1016 -109 783 600 
Q 550 1309 550 2009 
Q 550 2706 781 3412 
Q 1013 4119 1484 4856 
L 1984 4856 
z
" transform="scale(0.015625)"/>
      <path id="DejaVuSans-72" d="M 2631 2963 
Q 2534 3019 2420 3045 
Q 2306 3072 2169 3072 
Q 1681 3072 1420 2755 
Q 1159 2438 1159 1844 
L 1159 0 
L 581 0 
L 581 3500 
L 1159 3500 
L 1159 2956 
Q 1341 3275 1631 3429 
Q 1922 3584 2338 3584 
Q 2397 3584 2469 3576 
Q 2541 3569 2628 3553 
L 2631 2963 
z
" transform="scale(0.015625)"/>
      <path id="DejaVuSans-73" d="M 2834 3397 
L 2834 2853 
Q 2591 2978 2328 3040 
Q 2066 3103 1784 3103 
Q 1356 3103 1142 2972 
Q 928 2841 928 2578 
Q 928 2378 1081 2264 
Q 1234 2150 1697 2047 
L 1894 2003 
Q 2506 1872 2764 1633 
Q 3022 1394 3022 966 
Q 3022 478 2636 193 
Q 2250 -91 1575 -91 
Q 1294 -91 989 -36 
Q 684 19 347 128 
L 347 722 
Q 666 556 975 473 
Q 1284 391 1588 391 
Q 1994 391 2212 530 
Q 2431 669 2431 922 
Q 2431 1156 2273 1281 
Q 2116 1406 1581 1522 
L 1381 1569 
Q 847 1681 609 1914 
Q 372 2147 372 2553 
Q 372 3047 722 3315 
Q 1072 3584 1716 3584 
Q 2034 3584 2315 3537 
Q 2597 3491 2834 3397 
z
" transform="scale(0.015625)"/>
      <path id="DejaVuSans-29" d="M 513 4856 
L 1013 4856 
Q 1481 4119 1714 3412 
Q 1947 2706 1947 2009 
Q 1947 1309 1714 600 
Q 1481 -109 1013 -844 
L 513 -844 
Q 928 -128 1133 580 
Q 1338 1288 1338 2009 
Q 1338 2731 1133 3434 
Q 928 4138 513 4856 
z
" transform="scale(0.015625)"/>
     </defs>
     <use xlink:href="#DejaVuSans-43"/>
     <use xlink:href="#DejaVuSans-20" x="69.824219"/>
     <use xlink:href="#DejaVuSans-28" x="101.611328"/>
     <use xlink:href="#DejaVuSans-74" x="140.625"/>
     <use xlink:href="#DejaVuSans-72" x="179.833984"/>
     <use xlink:href="#DejaVuSans-61" x="220.947266"/>
     <use xlink:href="#DejaVuSans-6e" x="282.226562"/>
     <use xlink:href="#DejaVuSans-73" x="345.605469"/>
     <use xlink:href="#DejaVuSans-70" x="397.705078"/>
     <use xlink:href="#DejaVuSans-6f" x="461.181641"/>
     <use xlink:href="#DejaVuSans-73" x="522.363281"/>
     <use xlink:href="#DejaVuSans-65" x="574.462891"/>
     <use xlink:href="#DejaVuSans-64" x="635.986328"/>
     <use xlink:href="#DejaVuSans-29" x="699.462891"/>
    </g>
   </g>
  </g>
  <g id="axes_2">
   <g id="patch_7">
    <path d="M 323.627323 254.64351 
L 575.792989 254.64351 
L 575.792989 18.118365 
L 323.627323 18.118365 
z
" style="fill: #ffffff"/>
   </g>
   <g id="PathCollection_1">
    <defs>
     <path id="m20683d0f7b" d="M 0 3 
C 0.795609 3 1.55874 2.683901 2.12132 2.12132 
C 2.683901 1.55874 3 0.795609 3 0 
C 3 -0.795609 2.683901 -1.55874 2.12132 -2.12132 
C 1.55874 -2.683901 0.795609 -3 0 -3 
C -0.795609 -3 -1.55874 -2.683901 -2.12132 -2.12132 
C -2.683901 -1.55874 -3 -0.795609 -3 0 
C -3 0.795609 -2.683901 1.55874 -2.12132 2.12132 
C -1.55874 2.683901 -0.795609 3 0 3 
z
" style="stroke: #008080"/>
    </defs>
    <g clip-path="url(#pcc139cb68c)">
     <use xlink:href="#m20683d0f7b" x="485.901668" y="189.884945" style="fill: #008080; stroke: #008080"/>
     <use xlink:href="#m20683d0f7b" x="470.084476" y="151.992389" style="fill: #008080; stroke: #008080"/>
     <use xlink:href="#m20683d0f7b" x="487.986398" y="218.240198" style="fill: #008080; stroke: #008080"/>
     <use xlink:href="#m20683d0f7b" x="469.507438" y="201.23817" style="fill: #008080; stroke: #008080"/>
     <use xlink:href="#m20683d0f7b" x="448.292541" y="189.670005" style="fill: #008080; stroke: #008080"/>
     <use xlink:href="#m20683d0f7b" x="453.272709" y="168.185385" style="fill: #008080; stroke: #008080"/>
     <use xlink:href="#m20683d0f7b" x="465.699726" y="195.617653" style="fill: #008080; stroke: #008080"/>
     <use xlink:href="#m20683d0f7b" x="459.311444" y="191.253531" style="fill: #008080; stroke: #008080"/>
     <use xlink:href="#m20683d0f7b" x="480.464076" y="202.345694" style="fill: #008080; stroke: #008080"/>
     <use xlink:href="#m20683d0f7b" x="456.677062" y="215.704426" style="fill: #008080; stroke: #008080"/>
     <use xlink:href="#m20683d0f7b" x="398.951157" y="184.667304" style="fill: #008080; stroke: #008080"/>
     <use xlink:href="#m20683d0f7b" x="467.782298" y="213.400271" style="fill: #008080; stroke: #008080"/>
     <use xlink:href="#m20683d0f7b" x="496.08713" y="228.061311" style="fill: #008080; stroke: #008080"/>
     <use xlink:href="#m20683d0f7b" x="451.293128" y="201.975681" style="fill: #008080; stroke: #008080"/>
     <use xlink:href="#m20683d0f7b" x="481.243544" y="167.874847" style="fill: #008080; stroke: #008080"/>
     <use xlink:href="#m20683d0f7b" x="453.492326" y="190.337717" style="fill: #008080; stroke: #008080"/>
     <use xlink:href="#m20683d0f7b" x="432.490404" y="238.898176" style="fill: #008080; stroke: #008080"/>
     <use xlink:href="#m20683d0f7b" x="443.364119" y="194.90387" style="fill: #008080; stroke: #008080"/>
     <use xlink:href="#m20683d0f7b" x="475.151055" y="173.370754" style="fill: #008080; stroke: #008080"/>
     <use xlink:href="#m20683d0f7b" x="442.570259" y="204.345466" style="fill: #008080; stroke: #008080"/>
     <use xlink:href="#m20683d0f7b" x="429.252356" y="227.354244" style="fill: #008080; stroke: #008080"/>
     <use xlink:href="#m20683d0f7b" x="416.005126" y="157.964623" style="fill: #008080; stroke: #008080"/>
     <use xlink:href="#m20683d0f7b" x="440.106477" y="207.140398" style="fill: #008080; stroke: #008080"/>
     <use xlink:href="#m20683d0f7b" x="425.138664" y="182.117336" style="fill: #008080; stroke: #008080"/>
     <use xlink:href="#m20683d0f7b" x="417.865618" y="202.501774" style="fill: #008080; stroke: #008080"/>
     <use xlink:href="#m20683d0f7b" x="432.335703" y="190.1578" style="fill: #008080; stroke: #008080"/>
     <use xlink:href="#m20683d0f7b" x="440.083255" y="222.426357" style="fill: #008080; stroke: #008080"/>
     <use xlink:href="#m20683d0f7b" x="449.803871" y="189.304954" style="fill: #008080; stroke: #008080"/>
     <use xlink:href="#m20683d0f7b" x="451.711234" y="191.89585" style="fill: #008080; stroke: #008080"/>
     <use xlink:href="#m20683d0f7b" x="437.595472" y="205.589624" style="fill: #008080; stroke: #008080"/>
     <use xlink:href="#m20683d0f7b" x="436.827319" y="205.523997" style="fill: #008080; stroke: #008080"/>
     <use xlink:href="#m20683d0f7b" x="433.993734" y="233.658869" style="fill: #008080; stroke: #008080"/>
     <use xlink:href="#m20683d0f7b" x="453.945075" y="206.393279" style="fill: #008080; stroke: #008080"/>
     <use xlink:href="#m20683d0f7b" x="417.537306" y="188.595774" style="fill: #008080; stroke: #008080"/>
     <use xlink:href="#m20683d0f7b" x="432.097396" y="197.053075" style="fill: #008080; stroke: #008080"/>
     <use xlink:href="#m20683d0f7b" x="465.056271" y="195.467216" style="fill: #008080; stroke: #008080"/>
     <use xlink:href="#m20683d0f7b" x="473.320419" y="223.541963" style="fill: #008080; stroke: #008080"/>
     <use xlink:href="#m20683d0f7b" x="458.475148" y="212.219589" style="fill: #008080; stroke: #008080"/>
     <use xlink:href="#m20683d0f7b" x="432.832575" y="210.038336" style="fill: #008080; stroke: #008080"/>
     <use xlink:href="#m20683d0f7b" x="444.096446" y="196.966205" style="fill: #008080; stroke: #008080"/>
     <use xlink:href="#m20683d0f7b" x="426.903952" y="179.578394" style="fill: #008080; stroke: #008080"/>
     <use xlink:href="#m20683d0f7b" x="459.750507" y="229.746814" style="fill: #008080; stroke: #008080"/>
     <use xlink:href="#m20683d0f7b" x="480.346715" y="159.094485" style="fill: #008080; stroke: #008080"/>
     <use xlink:href="#m20683d0f7b" x="474.113558" y="201.82625" style="fill: #008080; stroke: #008080"/>
     <use xlink:href="#m20683d0f7b" x="428.805228" y="176.415935" style="fill: #008080; stroke: #008080"/>
     <use xlink:href="#m20683d0f7b" x="442.251018" y="172.9577" style="fill: #008080; stroke: #008080"/>
     <use xlink:href="#m20683d0f7b" x="454.566408" y="178.017751" style="fill: #008080; stroke: #008080"/>
     <use xlink:href="#m20683d0f7b" x="457.549151" y="183.577205" style="fill: #008080; stroke: #008080"/>
     <use xlink:href="#m20683d0f7b" x="450.582979" y="161.35928" style="fill: #008080; stroke: #008080"/>
     <use xlink:href="#m20683d0f7b" x="452.92766" y="189.847229" style="fill: #008080; stroke: #008080"/>
     <use xlink:href="#m20683d0f7b" x="488.300454" y="225.866755" style="fill: #008080; stroke: #008080"/>
     <use xlink:href="#m20683d0f7b" x="424.782373" y="178.166839" style="fill: #008080; stroke: #008080"/>
     <use xlink:href="#m20683d0f7b" x="426.743355" y="158.111896" style="fill: #008080; stroke: #008080"/>
     <use xlink:href="#m20683d0f7b" x="442.040703" y="213.509165" style="fill: #008080; stroke: #008080"/>
     <use xlink:href="#m20683d0f7b" x="489.1019" y="167.645194" style="fill: #008080; stroke: #008080"/>
     <use xlink:href="#m20683d0f7b" x="487.986418" y="179.470975" style="fill: #008080; stroke: #008080"/>
     <use xlink:href="#m20683d0f7b" x="433.025356" y="158.802669" style="fill: #008080; stroke: #008080"/>
     <use xlink:href="#m20683d0f7b" x="444.97358" y="181.603396" style="fill: #008080; stroke: #008080"/>
     <use xlink:href="#m20683d0f7b" x="469.450309" y="201.313367" style="fill: #008080; stroke: #008080"/>
     <use xlink:href="#m20683d0f7b" x="462.739805" y="179.138271" style="fill: #008080; stroke: #008080"/>
     <use xlink:href="#m20683d0f7b" x="457.953166" y="220.754165" style="fill: #008080; stroke: #008080"/>
     <use xlink:href="#m20683d0f7b" x="456.378377" y="170.818021" style="fill: #008080; stroke: #008080"/>
     <use xlink:href="#m20683d0f7b" x="436.382049" y="201.202708" style="fill: #008080; stroke: #008080"/>
     <use xlink:href="#m20683d0f7b" x="441.606971" y="160.054296" style="fill: #008080; stroke: #008080"/>
     <use xlink:href="#m20683d0f7b" x="463.912334" y="189.734575" style="fill: #008080; stroke: #008080"/>
     <use xlink:href="#m20683d0f7b" x="434.864444" y="187.02166" style="fill: #008080; stroke: #008080"/>
     <use xlink:href="#m20683d0f7b" x="436.789611" y="197.46715" style="fill: #008080; stroke: #008080"/>
     <use xlink:href="#m20683d0f7b" x="437.564777" y="184.197651" style="fill: #008080; stroke: #008080"/>
     <use xlink:href="#m20683d0f7b" x="461.98474" y="202.410343" style="fill: #008080; stroke: #008080"/>
     <use xlink:href="#m20683d0f7b" x="458.347555" y="220.623667" style="fill: #008080; stroke: #008080"/>
     <use xlink:href="#m20683d0f7b" x="420.335743" y="189.077281" style="fill: #008080; stroke: #008080"/>
     <use xlink:href="#m20683d0f7b" x="453.728504" y="185.04993" style="fill: #008080; stroke: #008080"/>
     <use xlink:href="#m20683d0f7b" x="498.370947" y="178.679773" style="fill: #008080; stroke: #008080"/>
     <use xlink:href="#m20683d0f7b" x="431.986139" y="175.128009" style="fill: #008080; stroke: #008080"/>
     <use xlink:href="#m20683d0f7b" x="423.86751" y="207.62437" style="fill: #008080; stroke: #008080"/>
     <use xlink:href="#m20683d0f7b" x="448.997026" y="162.852304" style="fill: #008080; stroke: #008080"/>
     <use xlink:href="#m20683d0f7b" x="435.371222" y="215.135088" style="fill: #008080; stroke: #008080"/>
     <use xlink:href="#m20683d0f7b" x="448.388541" y="211.780462" style="fill: #008080; stroke: #008080"/>
     <use xlink:href="#m20683d0f7b" x="473.063321" y="220.353379" style="fill: #008080; stroke: #008080"/>
     <use xlink:href="#m20683d0f7b" x="427.260073" y="207.135164" style="fill: #008080; stroke: #008080"/>
     <use xlink:href="#m20683d0f7b" x="440.340513" y="158.401928" style="fill: #008080; stroke: #008080"/>
     <use xlink:href="#m20683d0f7b" x="469.493992" y="196.320109" style="fill: #008080; stroke: #008080"/>
     <use xlink:href="#m20683d0f7b" x="425.689725" y="180.740726" style="fill: #008080; stroke: #008080"/>
     <use xlink:href="#m20683d0f7b" x="430.225935" y="229.922356" style="fill: #008080; stroke: #008080"/>
     <use xlink:href="#m20683d0f7b" x="474.299869" y="191.597963" style="fill: #008080; stroke: #008080"/>
     <use xlink:href="#m20683d0f7b" x="468.918719" y="191.561216" style="fill: #008080; stroke: #008080"/>
     <use xlink:href="#m20683d0f7b" x="467.629112" y="211.524117" style="fill: #008080; stroke: #008080"/>
     <use xlink:href="#m20683d0f7b" x="429.540579" y="184.091404" style="fill: #008080; stroke: #008080"/>
     <use xlink:href="#m20683d0f7b" x="434.189842" y="212.317158" style="fill: #008080; stroke: #008080"/>
     <use xlink:href="#m20683d0f7b" x="441.196513" y="197.762581" style="fill: #008080; stroke: #008080"/>
     <use xlink:href="#m20683d0f7b" x="443.241625" y="226.426522" style="fill: #008080; stroke: #008080"/>
     <use xlink:href="#m20683d0f7b" x="437.408233" y="243.892367" style="fill: #008080; stroke: #008080"/>
     <use xlink:href="#m20683d0f7b" x="462.964422" y="231.101631" style="fill: #008080; stroke: #008080"/>
     <use xlink:href="#m20683d0f7b" x="428.127864" y="197.048553" style="fill: #008080; stroke: #008080"/>
     <use xlink:href="#m20683d0f7b" x="435.475792" y="166.358601" style="fill: #008080; stroke: #008080"/>
     <use xlink:href="#m20683d0f7b" x="424.331776" y="192.625011" style="fill: #008080; stroke: #008080"/>
     <use xlink:href="#m20683d0f7b" x="449.580291" y="222.168242" style="fill: #008080; stroke: #008080"/>
     <use xlink:href="#m20683d0f7b" x="460.910928" y="201.653774" style="fill: #008080; stroke: #008080"/>
     <use xlink:href="#m20683d0f7b" x="465.916301" y="181.170117" style="fill: #008080; stroke: #008080"/>
     <use xlink:href="#m20683d0f7b" x="493.941714" y="170.609242" style="fill: #008080; stroke: #008080"/>
     <use xlink:href="#m20683d0f7b" x="510.491439" y="83.458935" style="fill: #008080; stroke: #008080"/>
     <use xlink:href="#m20683d0f7b" x="540.075702" y="65.042222" style="fill: #008080; stroke: #008080"/>
     <use xlink:href="#m20683d0f7b" x="530.820245" y="111.817107" style="fill: #008080; stroke: #008080"/>
     <use xlink:href="#m20683d0f7b" x="517.437255" y="93.723953" style="fill: #008080; stroke: #008080"/>
     <use xlink:href="#m20683d0f7b" x="523.565236" y="80.551663" style="fill: #008080; stroke: #008080"/>
     <use xlink:href="#m20683d0f7b" x="536.259329" y="72.001074" style="fill: #008080; stroke: #008080"/>
     <use xlink:href="#m20683d0f7b" x="533.76482" y="88.132676" style="fill: #008080; stroke: #008080"/>
     <use xlink:href="#m20683d0f7b" x="498.904909" y="86.972281" style="fill: #008080; stroke: #008080"/>
     <use xlink:href="#m20683d0f7b" x="517.584401" y="70.726139" style="fill: #008080; stroke: #008080"/>
     <use xlink:href="#m20683d0f7b" x="563.432459" y="79.401071" style="fill: #008080; stroke: #008080"/>
     <use xlink:href="#m20683d0f7b" x="498.673311" y="85.653408" style="fill: #008080; stroke: #008080"/>
     <use xlink:href="#m20683d0f7b" x="508.589822" y="68.619625" style="fill: #008080; stroke: #008080"/>
     <use xlink:href="#m20683d0f7b" x="486.893676" y="77.228901" style="fill: #008080; stroke: #008080"/>
     <use xlink:href="#m20683d0f7b" x="521.079446" y="73.751611" style="fill: #008080; stroke: #008080"/>
     <use xlink:href="#m20683d0f7b" x="505.896536" y="83.428933" style="fill: #008080; stroke: #008080"/>
     <use xlink:href="#m20683d0f7b" x="489.244884" y="88.686443" style="fill: #008080; stroke: #008080"/>
     <use xlink:href="#m20683d0f7b" x="506.993318" y="69.966567" style="fill: #008080; stroke: #008080"/>
     <use xlink:href="#m20683d0f7b" x="494.640284" y="62.449795" style="fill: #008080; stroke: #008080"/>
     <use xlink:href="#m20683d0f7b" x="548.02796" y="121.142956" style="fill: #008080; stroke: #008080"/>
     <use xlink:href="#m20683d0f7b" x="526.512585" y="64.596663" style="fill: #008080; stroke: #008080"/>
     <use xlink:href="#m20683d0f7b" x="505.088451" y="86.709241" style="fill: #008080; stroke: #008080"/>
     <use xlink:href="#m20683d0f7b" x="515.250835" y="84.661372" style="fill: #008080; stroke: #008080"/>
     <use xlink:href="#m20683d0f7b" x="511.703313" y="113.032638" style="fill: #008080; stroke: #008080"/>
     <use xlink:href="#m20683d0f7b" x="541.13658" y="56.306646" style="fill: #008080; stroke: #008080"/>
     <use xlink:href="#m20683d0f7b" x="501.545061" y="108.71833" style="fill: #008080; stroke: #008080"/>
     <use xlink:href="#m20683d0f7b" x="528.422097" y="90.384094" style="fill: #008080; stroke: #008080"/>
     <use xlink:href="#m20683d0f7b" x="520.786323" y="85.104734" style="fill: #008080; stroke: #008080"/>
     <use xlink:href="#m20683d0f7b" x="531.855649" y="64.229394" style="fill: #008080; stroke: #008080"/>
     <use xlink:href="#m20683d0f7b" x="503.312794" y="107.008486" style="fill: #008080; stroke: #008080"/>
     <use xlink:href="#m20683d0f7b" x="486.044897" y="65.966191" style="fill: #008080; stroke: #008080"/>
     <use xlink:href="#m20683d0f7b" x="493.982133" y="88.964275" style="fill: #008080; stroke: #008080"/>
     <use xlink:href="#m20683d0f7b" x="505.916718" y="79.613311" style="fill: #008080; stroke: #008080"/>
     <use xlink:href="#m20683d0f7b" x="478.928168" y="74.645074" style="fill: #008080; stroke: #008080"/>
     <use xlink:href="#m20683d0f7b" x="528.479019" y="76.710967" style="fill: #008080; stroke: #008080"/>
     <use xlink:href="#m20683d0f7b" x="511.665585" y="76.526148" style="fill: #008080; stroke: #008080"/>
     <use xlink:href="#m20683d0f7b" x="525.964494" y="135.60652" style="fill: #008080; stroke: #008080"/>
     <use xlink:href="#m20683d0f7b" x="557.321679" y="70.5009" style="fill: #008080; stroke: #008080"/>
     <use xlink:href="#m20683d0f7b" x="504.786905" y="86.579173" style="fill: #008080; stroke: #008080"/>
     <use xlink:href="#m20683d0f7b" x="527.871776" y="80.921247" style="fill: #008080; stroke: #008080"/>
     <use xlink:href="#m20683d0f7b" x="477.026743" y="36.032471" style="fill: #008080; stroke: #008080"/>
     <use xlink:href="#m20683d0f7b" x="515.700788" y="57.530372" style="fill: #008080; stroke: #008080"/>
     <use xlink:href="#m20683d0f7b" x="503.988482" y="46.904024" style="fill: #008080; stroke: #008080"/>
     <use xlink:href="#m20683d0f7b" x="523.694525" y="65.997801" style="fill: #008080; stroke: #008080"/>
     <use xlink:href="#m20683d0f7b" x="496.874531" y="53.599097" style="fill: #008080; stroke: #008080"/>
     <use xlink:href="#m20683d0f7b" x="531.820994" y="51.731969" style="fill: #008080; stroke: #008080"/>
     <use xlink:href="#m20683d0f7b" x="505.276761" y="88.43339" style="fill: #008080; stroke: #008080"/>
     <use xlink:href="#m20683d0f7b" x="564.330913" y="100.352189" style="fill: #008080; stroke: #008080"/>
     <use xlink:href="#m20683d0f7b" x="515.189019" y="55.127655" style="fill: #008080; stroke: #008080"/>
     <use xlink:href="#m20683d0f7b" x="519.895513" y="66.530764" style="fill: #008080; stroke: #008080"/>
     <use xlink:href="#m20683d0f7b" x="509.88182" y="70.913382" style="fill: #008080; stroke: #008080"/>
     <use xlink:href="#m20683d0f7b" x="491.612163" y="44.397659" style="fill: #008080; stroke: #008080"/>
     <use xlink:href="#m20683d0f7b" x="515.547244" y="92.533024" style="fill: #008080; stroke: #008080"/>
     <use xlink:href="#m20683d0f7b" x="531.348983" y="88.015352" style="fill: #008080; stroke: #008080"/>
     <use xlink:href="#m20683d0f7b" x="491.053615" y="106.254099" style="fill: #008080; stroke: #008080"/>
     <use xlink:href="#m20683d0f7b" x="531.900653" y="81.81609" style="fill: #008080; stroke: #008080"/>
     <use xlink:href="#m20683d0f7b" x="515.2343" y="56.345239" style="fill: #008080; stroke: #008080"/>
     <use xlink:href="#m20683d0f7b" x="495.231562" y="93.572585" style="fill: #008080; stroke: #008080"/>
     <use xlink:href="#m20683d0f7b" x="510.175262" y="76.588905" style="fill: #008080; stroke: #008080"/>
     <use xlink:href="#m20683d0f7b" x="517.077828" y="84.436914" style="fill: #008080; stroke: #008080"/>
     <use xlink:href="#m20683d0f7b" x="516.685981" y="80.740122" style="fill: #008080; stroke: #008080"/>
     <use xlink:href="#m20683d0f7b" x="503.4335" y="95.267089" style="fill: #008080; stroke: #008080"/>
     <use xlink:href="#m20683d0f7b" x="523.456308" y="96.871158" style="fill: #008080; stroke: #008080"/>
     <use xlink:href="#m20683d0f7b" x="494.616662" y="84.959891" style="fill: #008080; stroke: #008080"/>
     <use xlink:href="#m20683d0f7b" x="514.751606" y="32.075299" style="fill: #008080; stroke: #008080"/>
     <use xlink:href="#m20683d0f7b" x="503.733687" y="59.113647" style="fill: #008080; stroke: #008080"/>
     <use xlink:href="#m20683d0f7b" x="532.9765" y="103.006265" style="fill: #008080; stroke: #008080"/>
     <use xlink:href="#m20683d0f7b" x="533.501473" y="102.902013" style="fill: #008080; stroke: #008080"/>
     <use xlink:href="#m20683d0f7b" x="464.36823" y="66.049766" style="fill: #008080; stroke: #008080"/>
     <use xlink:href="#m20683d0f7b" x="482.561428" y="69.248452" style="fill: #008080; stroke: #008080"/>
     <use xlink:href="#m20683d0f7b" x="504.150396" y="44.368425" style="fill: #008080; stroke: #008080"/>
     <use xlink:href="#m20683d0f7b" x="539.448299" y="87.864378" style="fill: #008080; stroke: #008080"/>
     <use xlink:href="#m20683d0f7b" x="504.073321" y="103.52363" style="fill: #008080; stroke: #008080"/>
     <use xlink:href="#m20683d0f7b" x="509.046491" y="84.302455" style="fill: #008080; stroke: #008080"/>
     <use xlink:href="#m20683d0f7b" x="510.581838" y="75.30535" style="fill: #008080; stroke: #008080"/>
     <use xlink:href="#m20683d0f7b" x="529.579343" y="71.333356" style="fill: #008080; stroke: #008080"/>
     <use xlink:href="#m20683d0f7b" x="502.536419" y="108.128907" style="fill: #008080; stroke: #008080"/>
     <use xlink:href="#m20683d0f7b" x="545.410553" y="92.723872" style="fill: #008080; stroke: #008080"/>
     <use xlink:href="#m20683d0f7b" x="504.789221" y="89.260151" style="fill: #008080; stroke: #008080"/>
     <use xlink:href="#m20683d0f7b" x="480.805537" y="88.37054" style="fill: #008080; stroke: #008080"/>
     <use xlink:href="#m20683d0f7b" x="508.266358" y="65.76077" style="fill: #008080; stroke: #008080"/>
     <use xlink:href="#m20683d0f7b" x="531.994994" y="78.453558" style="fill: #008080; stroke: #008080"/>
     <use xlink:href="#m20683d0f7b" x="536.695779" y="71.532819" style="fill: #008080; stroke: #008080"/>
     <use xlink:href="#m20683d0f7b" x="517.611356" y="75.21839" style="fill: #008080; stroke: #008080"/>
     <use xlink:href="#m20683d0f7b" x="514.087218" y="86.659377" style="fill: #008080; stroke: #008080"/>
     <use xlink:href="#m20683d0f7b" x="512.534732" y="101.751913" style="fill: #008080; stroke: #008080"/>
     <use xlink:href="#m20683d0f7b" x="523.575652" y="98.975176" style="fill: #008080; stroke: #008080"/>
     <use xlink:href="#m20683d0f7b" x="534.878696" y="83.666425" style="fill: #008080; stroke: #008080"/>
     <use xlink:href="#m20683d0f7b" x="518.924102" y="68.365284" style="fill: #008080; stroke: #008080"/>
     <use xlink:href="#m20683d0f7b" x="530.884353" y="110.863324" style="fill: #008080; stroke: #008080"/>
     <use xlink:href="#m20683d0f7b" x="513.759919" y="60.412221" style="fill: #008080; stroke: #008080"/>
     <use xlink:href="#m20683d0f7b" x="483.725284" y="70.558804" style="fill: #008080; stroke: #008080"/>
     <use xlink:href="#m20683d0f7b" x="472.497389" y="99.580046" style="fill: #008080; stroke: #008080"/>
     <use xlink:href="#m20683d0f7b" x="518.705279" y="112.635569" style="fill: #008080; stroke: #008080"/>
     <use xlink:href="#m20683d0f7b" x="498.077821" y="108.829711" style="fill: #008080; stroke: #008080"/>
     <use xlink:href="#m20683d0f7b" x="551.122666" y="75.150466" style="fill: #008080; stroke: #008080"/>
     <use xlink:href="#m20683d0f7b" x="529.353133" y="83.115073" style="fill: #008080; stroke: #008080"/>
     <use xlink:href="#m20683d0f7b" x="510.808665" y="111.807188" style="fill: #008080; stroke: #008080"/>
     <use xlink:href="#m20683d0f7b" x="512.049251" y="94.206917" style="fill: #008080; stroke: #008080"/>
     <use xlink:href="#m20683d0f7b" x="535.20685" y="55.040979" style="fill: #008080; stroke: #008080"/>
     <use xlink:href="#m20683d0f7b" x="547.465902" y="60.980937" style="fill: #008080; stroke: #008080"/>
     <use xlink:href="#m20683d0f7b" x="370.758156" y="101.502533" style="fill: #008080; stroke: #008080"/>
     <use xlink:href="#m20683d0f7b" x="398.257313" y="71.196702" style="fill: #008080; stroke: #008080"/>
     <use xlink:href="#m20683d0f7b" x="347.19525" y="71.213397" style="fill: #008080; stroke: #008080"/>
     <use xlink:href="#m20683d0f7b" x="399.221204" y="77.318169" style="fill: #008080; stroke: #008080"/>
     <use xlink:href="#m20683d0f7b" x="379.088571" y="95.157069" style="fill: #008080; stroke: #008080"/>
     <use xlink:href="#m20683d0f7b" x="353.6808" y="62.056614" style="fill: #008080; stroke: #008080"/>
     <use xlink:href="#m20683d0f7b" x="376.589835" y="83.337223" style="fill: #008080; stroke: #008080"/>
     <use xlink:href="#m20683d0f7b" x="417.714903" y="64.440355" style="fill: #008080; stroke: #008080"/>
     <use xlink:href="#m20683d0f7b" x="390.284648" y="75.606764" style="fill: #008080; stroke: #008080"/>
     <use xlink:href="#m20683d0f7b" x="413.430334" y="43.132499" style="fill: #008080; stroke: #008080"/>
     <use xlink:href="#m20683d0f7b" x="401.537148" y="66.545773" style="fill: #008080; stroke: #008080"/>
     <use xlink:href="#m20683d0f7b" x="340.62791" y="75.984301" style="fill: #008080; stroke: #008080"/>
     <use xlink:href="#m20683d0f7b" x="380.195265" y="76.597106" style="fill: #008080; stroke: #008080"/>
     <use xlink:href="#m20683d0f7b" x="401.80988" y="134.928934" style="fill: #008080; stroke: #008080"/>
     <use xlink:href="#m20683d0f7b" x="371.349137" y="72.975056" style="fill: #008080; stroke: #008080"/>
     <use xlink:href="#m20683d0f7b" x="373.412938" y="107.69897" style="fill: #008080; stroke: #008080"/>
     <use xlink:href="#m20683d0f7b" x="400.317766" y="72.831625" style="fill: #008080; stroke: #008080"/>
     <use xlink:href="#m20683d0f7b" x="363.256544" y="72.0505" style="fill: #008080; stroke: #008080"/>
     <use xlink:href="#m20683d0f7b" x="399.36352" y="78.422232" style="fill: #008080; stroke: #008080"/>
     <use xlink:href="#m20683d0f7b" x="398.940133" y="76.920156" style="fill: #008080; stroke: #008080"/>
     <use xlink:href="#m20683d0f7b" x="374.855383" y="102.398488" style="fill: #008080; stroke: #008080"/>
     <use xlink:href="#m20683d0f7b" x="381.085028" y="74.531558" style="fill: #008080; stroke: #008080"/>
     <use xlink:href="#m20683d0f7b" x="400.456122" y="80.900734" style="fill: #008080; stroke: #008080"/>
     <use xlink:href="#m20683d0f7b" x="392.028688" y="98.388249" style="fill: #008080; stroke: #008080"/>
     <use xlink:href="#m20683d0f7b" x="367.05267" y="80.803608" style="fill: #008080; stroke: #008080"/>
     <use xlink:href="#m20683d0f7b" x="361.574271" y="61.645935" style="fill: #008080; stroke: #008080"/>
     <use xlink:href="#m20683d0f7b" x="392.14379" y="72.785845" style="fill: #008080; stroke: #008080"/>
     <use xlink:href="#m20683d0f7b" x="389.641722" y="36.926899" style="fill: #008080; stroke: #008080"/>
     <use xlink:href="#m20683d0f7b" x="373.37228" y="123.849055" style="fill: #008080; stroke: #008080"/>
     <use xlink:href="#m20683d0f7b" x="386.829928" y="79.572886" style="fill: #008080; stroke: #008080"/>
     <use xlink:href="#m20683d0f7b" x="372.392312" y="98.680931" style="fill: #008080; stroke: #008080"/>
     <use xlink:href="#m20683d0f7b" x="373.969964" y="74.798234" style="fill: #008080; stroke: #008080"/>
     <use xlink:href="#m20683d0f7b" x="372.688435" y="28.869508" style="fill: #008080; stroke: #008080"/>
     <use xlink:href="#m20683d0f7b" x="363.470045" y="94.857938" style="fill: #008080; stroke: #008080"/>
     <use xlink:href="#m20683d0f7b" x="336.720171" y="73.35424" style="fill: #008080; stroke: #008080"/>
     <use xlink:href="#m20683d0f7b" x="342.202882" y="89.636152" style="fill: #008080; stroke: #008080"/>
     <use xlink:href="#m20683d0f7b" x="377.263437" y="93.141322" style="fill: #008080; stroke: #008080"/>
     <use xlink:href="#m20683d0f7b" x="417.838801" y="58.061033" style="fill: #008080; stroke: #008080"/>
     <use xlink:href="#m20683d0f7b" x="409.384809" y="96.696257" style="fill: #008080; stroke: #008080"/>
     <use xlink:href="#m20683d0f7b" x="405.547044" y="68.320734" style="fill: #008080; stroke: #008080"/>
     <use xlink:href="#m20683d0f7b" x="398.352838" y="57.339624" style="fill: #008080; stroke: #008080"/>
     <use xlink:href="#m20683d0f7b" x="364.512175" y="87.265994" style="fill: #008080; stroke: #008080"/>
     <use xlink:href="#m20683d0f7b" x="400.189517" y="133.198553" style="fill: #008080; stroke: #008080"/>
     <use xlink:href="#m20683d0f7b" x="413.296057" y="67.144659" style="fill: #008080; stroke: #008080"/>
     <use xlink:href="#m20683d0f7b" x="381.895245" y="73.991914" style="fill: #008080; stroke: #008080"/>
     <use xlink:href="#m20683d0f7b" x="362.071622" y="85.734959" style="fill: #008080; stroke: #008080"/>
     <use xlink:href="#m20683d0f7b" x="404.976851" y="51.810693" style="fill: #008080; stroke: #008080"/>
     <use xlink:href="#m20683d0f7b" x="437.121029" y="80.052964" style="fill: #008080; stroke: #008080"/>
     <use xlink:href="#m20683d0f7b" x="369.551716" y="89.116971" style="fill: #008080; stroke: #008080"/>
     <use xlink:href="#m20683d0f7b" x="362.311169" y="80.133867" style="fill: #008080; stroke: #008080"/>
     <use xlink:href="#m20683d0f7b" x="390.524478" y="79.23608" style="fill: #008080; stroke: #008080"/>
     <use xlink:href="#m20683d0f7b" x="404.897545" y="83.352644" style="fill: #008080; stroke: #008080"/>
     <use xlink:href="#m20683d0f7b" x="375.817697" y="90.496913" style="fill: #008080; stroke: #008080"/>
     <use xlink:href="#m20683d0f7b" x="349.932522" y="110.804539" style="fill: #008080; stroke: #008080"/>
     <use xlink:href="#m20683d0f7b" x="359.066095" y="51.740577" style="fill: #008080; stroke: #008080"/>
     <use xlink:href="#m20683d0f7b" x="400.847416" y="50.226798" style="fill: #008080; stroke: #008080"/>
     <use xlink:href="#m20683d0f7b" x="355.983406" y="119.056398" style="fill: #008080; stroke: #008080"/>
     <use xlink:href="#m20683d0f7b" x="369.521437" y="74.911855" style="fill: #008080; stroke: #008080"/>
     <use xlink:href="#m20683d0f7b" x="392.860011" y="56.958105" style="fill: #008080; stroke: #008080"/>
     <use xlink:href="#m20683d0f7b" x="388.541519" y="42.657396" style="fill: #008080; stroke: #008080"/>
     <use xlink:href="#m20683d0f7b" x="378.332228" y="97.327418" style="fill: #008080; stroke: #008080"/>
     <use xlink:href="#m20683d0f7b" x="348.953987" y="96.831145" style="fill: #008080; stroke: #008080"/>
     <use xlink:href="#m20683d0f7b" x="387.69233" y="96.825976" style="fill: #008080; stroke: #008080"/>
     <use xlink:href="#m20683d0f7b" x="401.682918" y="49.457647" style="fill: #008080; stroke: #008080"/>
     <use xlink:href="#m20683d0f7b" x="335.089399" y="60.744196" style="fill: #008080; stroke: #008080"/>
     <use xlink:href="#m20683d0f7b" x="337.707413" y="70.266107" style="fill: #008080; stroke: #008080"/>
     <use xlink:href="#m20683d0f7b" x="407.48617" y="77.196086" style="fill: #008080; stroke: #008080"/>
     <use xlink:href="#m20683d0f7b" x="357.041273" y="90.582605" style="fill: #008080; stroke: #008080"/>
     <use xlink:href="#m20683d0f7b" x="377.545919" y="82.282792" style="fill: #008080; stroke: #008080"/>
     <use xlink:href="#m20683d0f7b" x="378.729188" y="80.793181" style="fill: #008080; stroke: #008080"/>
     <use xlink:href="#m20683d0f7b" x="387.115528" y="103.410333" style="fill: #008080; stroke: #008080"/>
     <use xlink:href="#m20683d0f7b" x="377.941203" y="47.276949" style="fill: #008080; stroke: #008080"/>
     <use xlink:href="#m20683d0f7b" x="375.068549" y="87.667792" style="fill: #008080; stroke: #008080"/>
     <use xlink:href="#m20683d0f7b" x="404.531991" y="131.213398" style="fill: #008080; stroke: #008080"/>
     <use xlink:href="#m20683d0f7b" x="406.610189" y="91.539268" style="fill: #008080; stroke: #008080"/>
     <use xlink:href="#m20683d0f7b" x="386.1175" y="76.548356" style="fill: #008080; stroke: #008080"/>
     <use xlink:href="#m20683d0f7b" x="401.798239" y="84.039768" style="fill: #008080; stroke: #008080"/>
     <use xlink:href="#m20683d0f7b" x="369.15951" y="51.81432" style="fill: #008080; stroke: #008080"/>
     <use xlink:href="#m20683d0f7b" x="335.198425" y="78.112594" style="fill: #008080; stroke: #008080"/>
     <use xlink:href="#m20683d0f7b" x="355.666911" y="94.208588" style="fill: #008080; stroke: #008080"/>
     <use xlink:href="#m20683d0f7b" x="423.324949" y="79.449205" style="fill: #008080; stroke: #008080"/>
     <use xlink:href="#m20683d0f7b" x="386.744721" y="115.205628" style="fill: #008080; stroke: #008080"/>
     <use xlink:href="#m20683d0f7b" x="368.131927" y="74.484943" style="fill: #008080; stroke: #008080"/>
     <use xlink:href="#m20683d0f7b" x="389.961032" y="65.832238" style="fill: #008080; stroke: #008080"/>
     <use xlink:href="#m20683d0f7b" x="382.989555" y="67.682515" style="fill: #008080; stroke: #008080"/>
     <use xlink:href="#m20683d0f7b" x="391.955501" y="116.197389" style="fill: #008080; stroke: #008080"/>
     <use xlink:href="#m20683d0f7b" x="383.561119" y="62.723494" style="fill: #008080; stroke: #008080"/>
     <use xlink:href="#m20683d0f7b" x="394.69668" y="86.021416" style="fill: #008080; stroke: #008080"/>
     <use xlink:href="#m20683d0f7b" x="366.589475" y="101.552246" style="fill: #008080; stroke: #008080"/>
     <use xlink:href="#m20683d0f7b" x="380.17619" y="55.206116" style="fill: #008080; stroke: #008080"/>
     <use xlink:href="#m20683d0f7b" x="343.504056" y="92.115416" style="fill: #008080; stroke: #008080"/>
     <use xlink:href="#m20683d0f7b" x="359.858762" y="62.372405" style="fill: #008080; stroke: #008080"/>
     <use xlink:href="#m20683d0f7b" x="371.651304" y="88.219517" style="fill: #008080; stroke: #008080"/>
     <use xlink:href="#m20683d0f7b" x="378.446149" y="69.362521" style="fill: #008080; stroke: #008080"/>
     <use xlink:href="#m20683d0f7b" x="374.912584" y="141.237702" style="fill: #008080; stroke: #008080"/>
     <use xlink:href="#m20683d0f7b" x="393.758745" y="69.493245" style="fill: #008080; stroke: #008080"/>
     <use xlink:href="#m20683d0f7b" x="378.393953" y="100.84667" style="fill: #008080; stroke: #008080"/>
     <use xlink:href="#m20683d0f7b" x="389.90106" y="70.724414" style="fill: #008080; stroke: #008080"/>
     <use xlink:href="#m20683d0f7b" x="373.348741" y="82.99272" style="fill: #008080; stroke: #008080"/>
     <use xlink:href="#m20683d0f7b" x="364.081288" y="82.207538" style="fill: #008080; stroke: #008080"/>
    </g>
   </g>
   <g id="matplotlib.axis_3">
    <g id="xtick_8">
     <g id="line2d_14">
      <g>
       <use xlink:href="#meb07aa2db9" x="360.297206" y="254.64351" style="stroke: #000000; stroke-width: 0.8"/>
      </g>
     </g>
     <g id="text_14">
      <!-- 2 -->
      <g transform="translate(352.926112 269.241947) scale(0.1 -0.1)">
       <defs>
        <path id="DejaVuSans-2212" d="M 678 2272 
L 4684 2272 
L 4684 1741 
L 678 1741 
L 678 2272 
z
" transform="scale(0.015625)"/>
       </defs>
       <use xlink:href="#DejaVuSans-2212"/>
       <use xlink:href="#DejaVuSans-32" x="83.789062"/>
      </g>
     </g>
    </g>
    <g id="xtick_9">
     <g id="line2d_15">
      <g>
       <use xlink:href="#meb07aa2db9" x="405.334351" y="254.64351" style="stroke: #000000; stroke-width: 0.8"/>
      </g>
     </g>
     <g id="text_15">
      <!-- 1 -->
      <g transform="translate(397.963257 269.241947) scale(0.1 -0.1)">
       <use xlink:href="#DejaVuSans-2212"/>
       <use xlink:href="#DejaVuSans-31" x="83.789062"/>
      </g>
     </g>
    </g>
    <g id="xtick_10">
     <g id="line2d_16">
      <g>
       <use xlink:href="#meb07aa2db9" x="450.371495" y="254.64351" style="stroke: #000000; stroke-width: 0.8"/>
      </g>
     </g>
     <g id="text_16">
      <!-- 0 -->
      <g transform="translate(447.190245 269.241947) scale(0.1 -0.1)">
       <use xlink:href="#DejaVuSans-30"/>
      </g>
     </g>
    </g>
    <g id="xtick_11">
     <g id="line2d_17">
      <g>
       <use xlink:href="#meb07aa2db9" x="495.40864" y="254.64351" style="stroke: #000000; stroke-width: 0.8"/>
      </g>
     </g>
     <g id="text_17">
      <!-- 1 -->
      <g transform="translate(492.22739 269.241947) scale(0.1 -0.1)">
       <use xlink:href="#DejaVuSans-31"/>
      </g>
     </g>
    </g>
    <g id="xtick_12">
     <g id="line2d_18">
      <g>
       <use xlink:href="#meb07aa2db9" x="540.445785" y="254.64351" style="stroke: #000000; stroke-width: 0.8"/>
      </g>
     </g>
     <g id="text_18">
      <!-- 2 -->
      <g transform="translate(537.264535 269.241947) scale(0.1 -0.1)">
       <use xlink:href="#DejaVuSans-32"/>
      </g>
     </g>
    </g>
    <g id="text_19">
     <!-- Feature 1 -->
     <g transform="translate(426.05 282.920073) scale(0.1 -0.1)">
      <defs>
       <path id="DejaVuSans-46" d="M 628 4666 
L 3309 4666 
L 3309 4134 
L 1259 4134 
L 1259 2759 
L 3109 2759 
L 3109 2228 
L 1259 2228 
L 1259 0 
L 628 0 
L 628 4666 
z
" transform="scale(0.015625)"/>
       <path id="DejaVuSans-75" d="M 544 1381 
L 544 3500 
L 1119 3500 
L 1119 1403 
Q 1119 906 1312 657 
Q 1506 409 1894 409 
Q 2359 409 2629 706 
Q 2900 1003 2900 1516 
L 2900 3500 
L 3475 3500 
L 3475 0 
L 2900 0 
L 2900 538 
Q 2691 219 2414 64 
Q 2138 -91 1772 -91 
Q 1169 -91 856 284 
Q 544 659 544 1381 
z
M 1991 3584 
L 1991 3584 
z
" transform="scale(0.015625)"/>
      </defs>
      <use xlink:href="#DejaVuSans-46"/>
      <use xlink:href="#DejaVuSans-65" x="52.019531"/>
      <use xlink:href="#DejaVuSans-61" x="113.542969"/>
      <use xlink:href="#DejaVuSans-74" x="174.822266"/>
      <use xlink:href="#DejaVuSans-75" x="214.03125"/>
      <use xlink:href="#DejaVuSans-72" x="277.410156"/>
      <use xlink:href="#DejaVuSans-65" x="316.273438"/>
      <use xlink:href="#DejaVuSans-20" x="377.796875"/>
      <use xlink:href="#DejaVuSans-31" x="409.583984"/>
     </g>
    </g>
   </g>
   <g id="matplotlib.axis_4">
    <g id="ytick_4">
     <g id="line2d_19">
      <g>
       <use xlink:href="#ma0afaa49c0" x="323.627323" y="244.153079" style="stroke: #000000; stroke-width: 0.8"/>
      </g>
     </g>
     <g id="text_20">
      <!-- 1 -->
      <g transform="translate(301.885136 247.952298) scale(0.1 -0.1)">
       <use xlink:href="#DejaVuSans-2212"/>
       <use xlink:href="#DejaVuSans-31" x="83.789062"/>
      </g>
     </g>
    </g>
    <g id="ytick_5">
     <g id="line2d_20">
      <g>
       <use xlink:href="#ma0afaa49c0" x="323.627323" y="198.122399" style="stroke: #000000; stroke-width: 0.8"/>
      </g>
     </g>
     <g id="text_21">
      <!-- 0 -->
      <g transform="translate(310.264823 201.921618) scale(0.1 -0.1)">
       <use xlink:href="#DejaVuSans-30"/>
      </g>
     </g>
    </g>
    <g id="ytick_6">
     <g id="line2d_21">
      <g>
       <use xlink:href="#ma0afaa49c0" x="323.627323" y="152.091719" style="stroke: #000000; stroke-width: 0.8"/>
      </g>
     </g>
     <g id="text_22">
      <!-- 1 -->
      <g transform="translate(310.264823 155.890938) scale(0.1 -0.1)">
       <use xlink:href="#DejaVuSans-31"/>
      </g>
     </g>
    </g>
    <g id="ytick_7">
     <g id="line2d_22">
      <g>
       <use xlink:href="#ma0afaa49c0" x="323.627323" y="106.061039" style="stroke: #000000; stroke-width: 0.8"/>
      </g>
     </g>
     <g id="text_23">
      <!-- 2 -->
      <g transform="translate(310.264823 109.860258) scale(0.1 -0.1)">
       <use xlink:href="#DejaVuSans-32"/>
      </g>
     </g>
    </g>
    <g id="ytick_8">
     <g id="line2d_23">
      <g>
       <use xlink:href="#ma0afaa49c0" x="323.627323" y="60.030359" style="stroke: #000000; stroke-width: 0.8"/>
      </g>
     </g>
     <g id="text_24">
      <!-- 3 -->
      <g transform="translate(310.264823 63.829577) scale(0.1 -0.1)">
       <use xlink:href="#DejaVuSans-33"/>
      </g>
     </g>
    </g>
    <g id="text_25">
     <!-- Feature 2 -->
     <g transform="translate(295.805448 160.041094) rotate(-90) scale(0.1 -0.1)">
      <use xlink:href="#DejaVuSans-46"/>
      <use xlink:href="#DejaVuSans-65" x="52.019531"/>
      <use xlink:href="#DejaVuSans-61" x="113.542969"/>
      <use xlink:href="#DejaVuSans-74" x="174.822266"/>
      <use xlink:href="#DejaVuSans-75" x="214.03125"/>
      <use xlink:href="#DejaVuSans-72" x="277.410156"/>
      <use xlink:href="#DejaVuSans-65" x="316.273438"/>
      <use xlink:href="#DejaVuSans-20" x="377.796875"/>
      <use xlink:href="#DejaVuSans-32" x="409.583984"/>
     </g>
    </g>
   </g>
   <g id="line2d_24">
    <path d="M 496.08713 228.061311 
L 564.330913 100.352189 
" clip-path="url(#pcc139cb68c)" style="fill: none; stroke: #000000; stroke-opacity: 0.5; stroke-width: 1.5; stroke-linecap: square"/>
   </g>
   <g id="line2d_25">
    <path d="M 496.08713 228.061311 
L 437.408233 243.892367 
" clip-path="url(#pcc139cb68c)" style="fill: none; stroke: #000000; stroke-opacity: 0.5; stroke-width: 1.5; stroke-linecap: square"/>
   </g>
   <g id="line2d_26">
    <path d="M 372.688435 28.869508 
L 335.089399 60.744196 
" clip-path="url(#pcc139cb68c)" style="fill: none; stroke: #000000; stroke-opacity: 0.5; stroke-width: 1.5; stroke-linecap: square"/>
   </g>
   <g id="line2d_27">
    <path d="M 372.688435 28.869508 
L 514.751606 32.075299 
" clip-path="url(#pcc139cb68c)" style="fill: none; stroke: #000000; stroke-opacity: 0.5; stroke-width: 1.5; stroke-linecap: square"/>
   </g>
   <g id="line2d_28">
    <path d="M 335.198425 78.112594 
L 335.089399 60.744196 
" clip-path="url(#pcc139cb68c)" style="fill: none; stroke: #000000; stroke-opacity: 0.5; stroke-width: 1.5; stroke-linecap: square"/>
   </g>
   <g id="line2d_29">
    <path d="M 335.198425 78.112594 
L 349.932522 110.804539 
" clip-path="url(#pcc139cb68c)" style="fill: none; stroke: #000000; stroke-opacity: 0.5; stroke-width: 1.5; stroke-linecap: square"/>
   </g>
   <g id="line2d_30">
    <path d="M 432.490404 238.898176 
L 437.408233 243.892367 
" clip-path="url(#pcc139cb68c)" style="fill: none; stroke: #000000; stroke-opacity: 0.5; stroke-width: 1.5; stroke-linecap: square"/>
   </g>
   <g id="line2d_31">
    <path d="M 432.490404 238.898176 
L 349.932522 110.804539 
" clip-path="url(#pcc139cb68c)" style="fill: none; stroke: #000000; stroke-opacity: 0.5; stroke-width: 1.5; stroke-linecap: square"/>
   </g>
   <g id="line2d_32">
    <path d="M 563.432459 79.401071 
L 564.330913 100.352189 
" clip-path="url(#pcc139cb68c)" style="fill: none; stroke: #000000; stroke-opacity: 0.5; stroke-width: 1.5; stroke-linecap: square"/>
   </g>
   <g id="line2d_33">
    <path d="M 563.432459 79.401071 
L 557.321679 70.5009 
" clip-path="url(#pcc139cb68c)" style="fill: none; stroke: #000000; stroke-opacity: 0.5; stroke-width: 1.5; stroke-linecap: square"/>
   </g>
   <g id="line2d_34">
    <path d="M 547.465902 60.980937 
L 514.751606 32.075299 
" clip-path="url(#pcc139cb68c)" style="fill: none; stroke: #000000; stroke-opacity: 0.5; stroke-width: 1.5; stroke-linecap: square"/>
   </g>
   <g id="line2d_35">
    <path d="M 547.465902 60.980937 
L 557.321679 70.5009 
" clip-path="url(#pcc139cb68c)" style="fill: none; stroke: #000000; stroke-opacity: 0.5; stroke-width: 1.5; stroke-linecap: square"/>
   </g>
   <g id="PathCollection_2">
    <defs>
     <path id="m608d7c8ba8" d="M 0 5.477226 
L 5.477226 0 
L 0 -5.477226 
L -5.477226 0 
z
" style="stroke: #1f77b4"/>
    </defs>
    <g clip-path="url(#pcc139cb68c)">
     <use xlink:href="#m608d7c8ba8" x="450.415479" y="240.375917" style="fill: #1f77b4; stroke: #1f77b4"/>
    </g>
   </g>
   <g id="PathCollection_3">
    <defs>
     <path id="m57baf9ea0a" d="M 0 5.477226 
L 5.477226 0 
L 0 -5.477226 
L -5.477226 0 
z
" style="stroke: #ff7f0e"/>
    </defs>
    <g clip-path="url(#pcc139cb68c)">
     <use xlink:href="#m57baf9ea0a" x="551.678383" y="65.055665" style="fill: #ff7f0e; stroke: #ff7f0e"/>
    </g>
   </g>
   <g id="PathCollection_4">
    <defs>
     <path id="mdcad7747b1" d="M 0 5.477226 
L 5.477226 0 
L 0 -5.477226 
L -5.477226 0 
z
" style="stroke: #2ca02c"/>
    </defs>
    <g clip-path="url(#pcc139cb68c)">
     <use xlink:href="#mdcad7747b1" x="337.124134" y="59.025882" style="fill: #2ca02c; stroke: #2ca02c"/>
    </g>
   </g>
   <g id="patch_8">
    <path d="M 323.627323 254.64351 
L 323.627323 18.118365 
" style="fill: none; stroke: #000000; stroke-width: 0.8; stroke-linejoin: miter; stroke-linecap: square"/>
   </g>
   <g id="patch_9">
    <path d="M 575.792989 254.64351 
L 575.792989 18.118365 
" style="fill: none; stroke: #000000; stroke-width: 0.8; stroke-linejoin: miter; stroke-linecap: square"/>
   </g>
   <g id="patch_10">
    <path d="M 323.627323 254.64351 
L 575.792989 254.64351 
" style="fill: none; stroke: #000000; stroke-width: 0.8; stroke-linejoin: miter; stroke-linecap: square"/>
   </g>
   <g id="patch_11">
    <path d="M 323.627323 18.118365 
L 575.792989 18.118365 
" style="fill: none; stroke: #000000; stroke-width: 0.8; stroke-linejoin: miter; stroke-linecap: square"/>
   </g>
   <g id="text_26">
    <!-- Archetypal Analysis on toy data -->
    <g transform="translate(354.513594 12.118365) scale(0.12 -0.12)">
     <defs>
      <path id="DejaVuSans-41" d="M 2188 4044 
L 1331 1722 
L 3047 1722 
L 2188 4044 
z
M 1831 4666 
L 2547 4666 
L 4325 0 
L 3669 0 
L 3244 1197 
L 1141 1197 
L 716 0 
L 50 0 
L 1831 4666 
z
" transform="scale(0.015625)"/>
      <path id="DejaVuSans-63" d="M 3122 3366 
L 3122 2828 
Q 2878 2963 2633 3030 
Q 2388 3097 2138 3097 
Q 1578 3097 1268 2742 
Q 959 2388 959 1747 
Q 959 1106 1268 751 
Q 1578 397 2138 397 
Q 2388 397 2633 464 
Q 2878 531 3122 666 
L 3122 134 
Q 2881 22 2623 -34 
Q 2366 -91 2075 -91 
Q 1284 -91 818 406 
Q 353 903 353 1747 
Q 353 2603 823 3093 
Q 1294 3584 2113 3584 
Q 2378 3584 2631 3529 
Q 2884 3475 3122 3366 
z
" transform="scale(0.015625)"/>
      <path id="DejaVuSans-68" d="M 3513 2113 
L 3513 0 
L 2938 0 
L 2938 2094 
Q 2938 2591 2744 2837 
Q 2550 3084 2163 3084 
Q 1697 3084 1428 2787 
Q 1159 2491 1159 1978 
L 1159 0 
L 581 0 
L 581 4863 
L 1159 4863 
L 1159 2956 
Q 1366 3272 1645 3428 
Q 1925 3584 2291 3584 
Q 2894 3584 3203 3211 
Q 3513 2838 3513 2113 
z
" transform="scale(0.015625)"/>
      <path id="DejaVuSans-79" d="M 2059 -325 
Q 1816 -950 1584 -1140 
Q 1353 -1331 966 -1331 
L 506 -1331 
L 506 -850 
L 844 -850 
Q 1081 -850 1212 -737 
Q 1344 -625 1503 -206 
L 1606 56 
L 191 3500 
L 800 3500 
L 1894 763 
L 2988 3500 
L 3597 3500 
L 2059 -325 
z
" transform="scale(0.015625)"/>
     </defs>
     <use xlink:href="#DejaVuSans-41"/>
     <use xlink:href="#DejaVuSans-72" x="68.408203"/>
     <use xlink:href="#DejaVuSans-63" x="107.271484"/>
     <use xlink:href="#DejaVuSans-68" x="162.251953"/>
     <use xlink:href="#DejaVuSans-65" x="225.630859"/>
     <use xlink:href="#DejaVuSans-74" x="287.154297"/>
     <use xlink:href="#DejaVuSans-79" x="326.363281"/>
     <use xlink:href="#DejaVuSans-70" x="385.542969"/>
     <use xlink:href="#DejaVuSans-61" x="449.019531"/>
     <use xlink:href="#DejaVuSans-6c" x="510.298828"/>
     <use xlink:href="#DejaVuSans-20" x="538.082031"/>
     <use xlink:href="#DejaVuSans-41" x="569.869141"/>
     <use xlink:href="#DejaVuSans-6e" x="638.277344"/>
     <use xlink:href="#DejaVuSans-61" x="701.65625"/>
     <use xlink:href="#DejaVuSans-6c" x="762.935547"/>
     <use xlink:href="#DejaVuSans-79" x="790.71875"/>
     <use xlink:href="#DejaVuSans-73" x="849.898438"/>
     <use xlink:href="#DejaVuSans-69" x="901.998047"/>
     <use xlink:href="#DejaVuSans-73" x="929.78125"/>
     <use xlink:href="#DejaVuSans-20" x="981.880859"/>
     <use xlink:href="#DejaVuSans-6f" x="1013.667969"/>
     <use xlink:href="#DejaVuSans-6e" x="1074.849609"/>
     <use xlink:href="#DejaVuSans-20" x="1138.228516"/>
     <use xlink:href="#DejaVuSans-74" x="1170.015625"/>
     <use xlink:href="#DejaVuSans-6f" x="1209.224609"/>
     <use xlink:href="#DejaVuSans-79" x="1270.40625"/>
     <use xlink:href="#DejaVuSans-20" x="1329.585938"/>
     <use xlink:href="#DejaVuSans-64" x="1361.373047"/>
     <use xlink:href="#DejaVuSans-61" x="1424.849609"/>
     <use xlink:href="#DejaVuSans-74" x="1486.128906"/>
     <use xlink:href="#DejaVuSans-61" x="1525.337891"/>
    </g>
   </g>
   <g id="legend_1">
    <g id="patch_12">
     <path d="M 330.627323 249.64351 
L 422.474198 249.64351 
Q 424.474198 249.64351 424.474198 247.64351 
L 424.474198 204.609135 
Q 424.474198 202.609135 422.474198 202.609135 
L 330.627323 202.609135 
Q 328.627323 202.609135 328.627323 204.609135 
L 328.627323 247.64351 
Q 328.627323 249.64351 330.627323 249.64351 
z
" style="fill: #ffffff; opacity: 0.8; stroke: #cccccc; stroke-linejoin: miter"/>
    </g>
    <g id="line2d_36">
     <path d="M 332.627323 210.707572 
L 342.627323 210.707572 
L 352.627323 210.707572 
" style="fill: none; stroke: #ffffff; stroke-width: 1.5; stroke-linecap: square"/>
     <defs>
      <path id="ma57bab5451" d="M 0 5 
C 1.326016 5 2.597899 4.473168 3.535534 3.535534 
C 4.473168 2.597899 5 1.326016 5 0 
C 5 -1.326016 4.473168 -2.597899 3.535534 -3.535534 
C 2.597899 -4.473168 1.326016 -5 0 -5 
C -1.326016 -5 -2.597899 -4.473168 -3.535534 -3.535534 
C -4.473168 -2.597899 -5 -1.326016 -5 0 
C -5 1.326016 -4.473168 2.597899 -3.535534 3.535534 
C -2.597899 4.473168 -1.326016 5 0 5 
z
" style="stroke: #ffffff"/>
     </defs>
     <g>
      <use xlink:href="#ma57bab5451" x="342.627323" y="210.707572" style="fill: #008080; stroke: #ffffff"/>
     </g>
    </g>
    <g id="text_27">
     <!-- Data -->
     <g transform="translate(360.627323 214.207572) scale(0.1 -0.1)">
      <defs>
       <path id="DejaVuSans-44" d="M 1259 4147 
L 1259 519 
L 2022 519 
Q 2988 519 3436 956 
Q 3884 1394 3884 2338 
Q 3884 3275 3436 3711 
Q 2988 4147 2022 4147 
L 1259 4147 
z
M 628 4666 
L 1925 4666 
Q 3281 4666 3915 4102 
Q 4550 3538 4550 2338 
Q 4550 1131 3912 565 
Q 3275 0 1925 0 
L 628 0 
L 628 4666 
z
" transform="scale(0.015625)"/>
      </defs>
      <use xlink:href="#DejaVuSans-44"/>
      <use xlink:href="#DejaVuSans-61" x="77.001953"/>
      <use xlink:href="#DejaVuSans-74" x="138.28125"/>
      <use xlink:href="#DejaVuSans-61" x="177.490234"/>
     </g>
    </g>
    <g id="line2d_37">
     <path d="M 332.627323 225.385697 
L 342.627323 225.385697 
L 352.627323 225.385697 
" style="fill: none; stroke: #000000; stroke-width: 2; stroke-linecap: square"/>
    </g>
    <g id="text_28">
     <!-- Convex Hull -->
     <g transform="translate(360.627323 228.885697) scale(0.1 -0.1)">
      <defs>
       <path id="DejaVuSans-76" d="M 191 3500 
L 800 3500 
L 1894 563 
L 2988 3500 
L 3597 3500 
L 2284 0 
L 1503 0 
L 191 3500 
z
" transform="scale(0.015625)"/>
       <path id="DejaVuSans-48" d="M 628 4666 
L 1259 4666 
L 1259 2753 
L 3553 2753 
L 3553 4666 
L 4184 4666 
L 4184 0 
L 3553 0 
L 3553 2222 
L 1259 2222 
L 1259 0 
L 628 0 
L 628 4666 
z
" transform="scale(0.015625)"/>
      </defs>
      <use xlink:href="#DejaVuSans-43"/>
      <use xlink:href="#DejaVuSans-6f" x="69.824219"/>
      <use xlink:href="#DejaVuSans-6e" x="131.005859"/>
      <use xlink:href="#DejaVuSans-76" x="194.384766"/>
      <use xlink:href="#DejaVuSans-65" x="253.564453"/>
      <use xlink:href="#DejaVuSans-78" x="313.337891"/>
      <use xlink:href="#DejaVuSans-20" x="372.517578"/>
      <use xlink:href="#DejaVuSans-48" x="404.304688"/>
      <use xlink:href="#DejaVuSans-75" x="479.5"/>
      <use xlink:href="#DejaVuSans-6c" x="542.878906"/>
      <use xlink:href="#DejaVuSans-6c" x="570.662109"/>
     </g>
    </g>
    <g id="line2d_38">
     <path d="M 332.627323 240.063823 
L 342.627323 240.063823 
L 352.627323 240.063823 
" style="fill: none; stroke: #ffffff; stroke-width: 1.5; stroke-linecap: square"/>
     <defs>
      <path id="m56bc8ee37a" d="M 0 7.071068 
L 7.071068 0 
L 0 -7.071068 
L -7.071068 0 
z
" style="stroke: #ffffff; stroke-linejoin: miter"/>
     </defs>
     <g>
      <use xlink:href="#m56bc8ee37a" x="342.627323" y="240.063823" style="fill: #ff0000; stroke: #ffffff; stroke-linejoin: miter"/>
     </g>
    </g>
    <g id="text_29">
     <!-- Archetypes -->
     <g transform="translate(360.627323 243.563823) scale(0.1 -0.1)">
      <use xlink:href="#DejaVuSans-41"/>
      <use xlink:href="#DejaVuSans-72" x="68.408203"/>
      <use xlink:href="#DejaVuSans-63" x="107.271484"/>
      <use xlink:href="#DejaVuSans-68" x="162.251953"/>
      <use xlink:href="#DejaVuSans-65" x="225.630859"/>
      <use xlink:href="#DejaVuSans-74" x="287.154297"/>
      <use xlink:href="#DejaVuSans-79" x="326.363281"/>
      <use xlink:href="#DejaVuSans-70" x="385.542969"/>
      <use xlink:href="#DejaVuSans-65" x="449.019531"/>
      <use xlink:href="#DejaVuSans-73" x="510.542969"/>
     </g>
    </g>
   </g>
  </g>
  <g id="axes_3">
   <g id="patch_13">
    <path d="M 608.834094 254.64351 
L 860.99976 254.64351 
L 860.99976 18.118365 
L 608.834094 18.118365 
z
" style="fill: #ffffff"/>
   </g>
   <g id="matplotlib.axis_5">
    <g id="xtick_13">
     <g id="line2d_39">
      <g>
       <use xlink:href="#meb07aa2db9" x="620.29617" y="254.64351" style="stroke: #000000; stroke-width: 0.8"/>
      </g>
     </g>
     <g id="text_30">
      <!-- 0 -->
      <g transform="translate(617.11492 269.241947) scale(0.1 -0.1)">
       <use xlink:href="#DejaVuSans-30"/>
      </g>
     </g>
    </g>
    <g id="xtick_14">
     <g id="line2d_40">
      <g>
       <use xlink:href="#meb07aa2db9" x="658.630871" y="254.64351" style="stroke: #000000; stroke-width: 0.8"/>
      </g>
     </g>
     <g id="text_31">
      <!-- 50 -->
      <g transform="translate(652.268371 269.241947) scale(0.1 -0.1)">
       <use xlink:href="#DejaVuSans-35"/>
       <use xlink:href="#DejaVuSans-30" x="63.623047"/>
      </g>
     </g>
    </g>
    <g id="xtick_15">
     <g id="line2d_41">
      <g>
       <use xlink:href="#meb07aa2db9" x="696.965573" y="254.64351" style="stroke: #000000; stroke-width: 0.8"/>
      </g>
     </g>
     <g id="text_32">
      <!-- 100 -->
      <g transform="translate(687.421823 269.241947) scale(0.1 -0.1)">
       <use xlink:href="#DejaVuSans-31"/>
       <use xlink:href="#DejaVuSans-30" x="63.623047"/>
       <use xlink:href="#DejaVuSans-30" x="127.246094"/>
      </g>
     </g>
    </g>
    <g id="xtick_16">
     <g id="line2d_42">
      <g>
       <use xlink:href="#meb07aa2db9" x="735.300274" y="254.64351" style="stroke: #000000; stroke-width: 0.8"/>
      </g>
     </g>
     <g id="text_33">
      <!-- 150 -->
      <g transform="translate(725.756524 269.241947) scale(0.1 -0.1)">
       <use xlink:href="#DejaVuSans-31"/>
       <use xlink:href="#DejaVuSans-35" x="63.623047"/>
       <use xlink:href="#DejaVuSans-30" x="127.246094"/>
      </g>
     </g>
    </g>
    <g id="xtick_17">
     <g id="line2d_43">
      <g>
       <use xlink:href="#meb07aa2db9" x="773.634976" y="254.64351" style="stroke: #000000; stroke-width: 0.8"/>
      </g>
     </g>
     <g id="text_34">
      <!-- 200 -->
      <g transform="translate(764.091226 269.241947) scale(0.1 -0.1)">
       <use xlink:href="#DejaVuSans-32"/>
       <use xlink:href="#DejaVuSans-30" x="63.623047"/>
       <use xlink:href="#DejaVuSans-30" x="127.246094"/>
      </g>
     </g>
    </g>
    <g id="xtick_18">
     <g id="line2d_44">
      <g>
       <use xlink:href="#meb07aa2db9" x="811.969677" y="254.64351" style="stroke: #000000; stroke-width: 0.8"/>
      </g>
     </g>
     <g id="text_35">
      <!-- 250 -->
      <g transform="translate(802.425927 269.241947) scale(0.1 -0.1)">
       <use xlink:href="#DejaVuSans-32"/>
       <use xlink:href="#DejaVuSans-35" x="63.623047"/>
       <use xlink:href="#DejaVuSans-30" x="127.246094"/>
      </g>
     </g>
    </g>
    <g id="xtick_19">
     <g id="line2d_45">
      <g>
       <use xlink:href="#meb07aa2db9" x="850.304378" y="254.64351" style="stroke: #000000; stroke-width: 0.8"/>
      </g>
     </g>
     <g id="text_36">
      <!-- 300 -->
      <g transform="translate(840.760628 269.241947) scale(0.1 -0.1)">
       <use xlink:href="#DejaVuSans-33"/>
       <use xlink:href="#DejaVuSans-30" x="63.623047"/>
       <use xlink:href="#DejaVuSans-30" x="127.246094"/>
      </g>
     </g>
    </g>
   </g>
   <g id="matplotlib.axis_6">
    <g id="ytick_9">
     <g id="line2d_46">
      <g>
       <use xlink:href="#ma0afaa49c0" x="608.834094" y="172.204292" style="stroke: #000000; stroke-width: 0.8"/>
      </g>
     </g>
     <g id="text_37">
      <!-- 1 -->
      <g transform="translate(595.471594 176.003511) scale(0.1 -0.1)">
       <use xlink:href="#DejaVuSans-31"/>
      </g>
     </g>
    </g>
    <g id="ytick_10">
     <g id="line2d_47">
      <g>
       <use xlink:href="#ma0afaa49c0" x="608.834094" y="100.515315" style="stroke: #000000; stroke-width: 0.8"/>
      </g>
     </g>
     <g id="text_38">
      <!-- 2 -->
      <g transform="translate(595.471594 104.314534) scale(0.1 -0.1)">
       <use xlink:href="#DejaVuSans-32"/>
      </g>
     </g>
    </g>
    <g id="ytick_11">
     <g id="line2d_48">
      <g>
       <use xlink:href="#ma0afaa49c0" x="608.834094" y="28.826338" style="stroke: #000000; stroke-width: 0.8"/>
      </g>
     </g>
     <g id="text_39">
      <!-- 3 -->
      <g transform="translate(595.471594 32.625557) scale(0.1 -0.1)">
       <use xlink:href="#DejaVuSans-33"/>
      </g>
     </g>
    </g>
    <g id="text_40">
     <!-- Component -->
     <g transform="translate(589.391907 165.409844) rotate(-90) scale(0.1 -0.1)">
      <use xlink:href="#DejaVuSans-43"/>
      <use xlink:href="#DejaVuSans-6f" x="69.824219"/>
      <use xlink:href="#DejaVuSans-6d" x="131.005859"/>
      <use xlink:href="#DejaVuSans-70" x="228.417969"/>
      <use xlink:href="#DejaVuSans-6f" x="291.894531"/>
      <use xlink:href="#DejaVuSans-6e" x="353.076172"/>
      <use xlink:href="#DejaVuSans-65" x="416.455078"/>
      <use xlink:href="#DejaVuSans-6e" x="477.978516"/>
      <use xlink:href="#DejaVuSans-74" x="541.357422"/>
     </g>
    </g>
   </g>
   <g id="line2d_49">
    <path d="M 620.29617 194.010597 
L 621.062864 207.992513 
L 621.829558 185.793422 
L 622.596252 188.169562 
L 623.362946 192.583946 
L 624.12964 201.285354 
L 624.896334 190.388346 
L 625.663028 192.072373 
L 626.429722 189.238784 
L 627.196416 182.203154 
L 627.96311 197.279292 
L 628.729804 183.569149 
L 629.496498 184.297205 
L 630.263192 187.666722 
L 631.029886 201.729191 
L 631.79658 192.374395 
L 632.563274 175.903524 
L 633.329968 190.42205 
L 634.096662 199.447127 
L 634.863356 186.613917 
L 635.63005 179.739399 
L 636.396744 204.975456 
L 637.163439 185.461519 
L 637.930133 195.360156 
L 638.696827 188.805956 
L 639.463521 192.206443 
L 640.230215 179.309951 
L 640.996909 192.748332 
L 641.763603 191.727309 
L 642.530297 186.056864 
L 643.296991 186.074647 
L 644.063685 177.100115 
L 644.830379 185.918866 
L 645.597073 192.783314 
L 646.363767 189.429613 
L 647.130461 190.441384 
L 647.897155 181.502583 
L 648.663849 183.625823 
L 649.430543 184.212813 
L 650.197237 189.600582 
L 650.963931 196.401746 
L 651.730625 177.143272 
L 652.497319 205.255001 
L 653.264013 188.24219 
L 654.030707 197.69606 
L 654.797401 199.240871 
L 655.564095 197.344781 
L 656.330789 195.140705 
L 657.097483 204.001587 
L 657.864177 192.565136 
L 658.630871 183.538066 
L 659.397565 196.945701 
L 660.164259 205.037585 
L 660.930953 182.920743 
L 661.697647 201.911079 
L 662.464341 197.558786 
L 663.231035 204.8315 
L 663.997729 195.792235 
L 664.764424 188.13962 
L 665.531118 196.9852 
L 666.297812 180.18582 
L 667.064506 200.261274 
L 667.8312 187.808356 
L 668.597894 204.427753 
L 669.364588 192.735545 
L 670.131282 193.496988 
L 670.897976 189.316048 
L 671.66467 194.664156 
L 673.198058 180.242781 
L 673.964752 192.505404 
L 674.731446 194.505066 
L 675.49814 199.690751 
L 676.264834 198.250219 
L 677.031528 186.26913 
L 677.798222 203.38315 
L 678.564916 182.188162 
L 679.33161 183.688275 
L 680.098304 182.422861 
L 680.864998 185.785808 
L 681.631692 205.078623 
L 682.398386 190.148162 
L 683.16508 195.920382 
L 683.931774 178.839869 
L 684.698468 192.103496 
L 685.465162 192.057328 
L 686.231856 184.117731 
L 686.99855 194.615717 
L 687.765244 183.311093 
L 688.531938 189.247126 
L 689.298632 177.736627 
L 690.065326 173.597894 
L 690.83202 177.316766 
L 692.365409 201.818676 
L 693.898797 179.521999 
L 695.432185 196.204116 
L 696.198879 201.313214 
L 696.965573 236.022712 
L 697.732267 243.74811 
L 698.498961 225.901648 
L 700.032349 237.340168 
L 700.799043 240.924084 
L 701.565737 234.405237 
L 702.332431 234.478475 
L 703.099125 241.225928 
L 703.865819 241.695625 
L 704.632513 235.006066 
L 705.399207 241.971914 
L 706.165901 238.262683 
L 706.932595 240.04801 
L 707.699289 235.982819 
L 708.465983 233.679584 
L 709.232677 241.411762 
L 709.999371 243.872387 
L 710.766065 226.220357 
L 711.532759 243.761927 
L 712.299453 234.653909 
L 713.066147 235.592717 
L 713.832841 224.137605 
L 714.599535 243.889415 
L 715.366229 225.758663 
L 716.132923 233.438867 
L 716.899617 235.47683 
L 717.666311 243.8307 
L 718.433005 226.466623 
L 719.1997 242.784734 
L 719.966394 233.621072 
L 720.733088 237.518234 
L 721.499782 239.212415 
L 722.266476 238.940923 
L 723.03317 238.825522 
L 723.799864 217.799095 
L 724.566558 243.285747 
L 725.333252 234.702747 
L 726.099946 237.240054 
L 726.86664 243.892367 
L 728.400028 243.891764 
L 729.166722 243.197705 
L 729.933416 243.891409 
L 730.70011 243.890737 
L 731.466804 233.962227 
L 732.233498 235.506829 
L 733.000192 243.890089 
L 733.766886 242.940314 
L 734.53358 241.06343 
L 735.300274 243.890949 
L 736.066968 232.428894 
L 736.833662 234.425041 
L 737.600356 226.631556 
L 738.36705 236.92553 
L 739.133744 243.888811 
L 739.900438 231.780953 
L 740.667132 238.78348 
L 741.433826 235.703661 
L 742.20052 237.186596 
L 742.967214 231.191892 
L 743.733908 230.772695 
L 744.500602 235.239337 
L 745.267296 243.892039 
L 746.03399 243.888414 
L 746.800685 228.971061 
L 747.567379 229.095934 
L 748.334073 242.500025 
L 749.100767 241.424552 
L 749.867461 243.891762 
L 750.634155 234.753485 
L 751.400849 227.877474 
L 752.167543 235.666976 
L 752.934237 239.304178 
L 753.700931 241.117165 
L 754.467625 226.007004 
L 755.234319 234.359053 
L 756.001013 233.624101 
L 756.767707 233.712319 
L 757.534401 243.118654 
L 758.301095 238.279555 
L 759.067789 241.117455 
L 759.834483 239.418664 
L 760.601177 234.775656 
L 761.367871 228.685676 
L 762.134565 229.927626 
L 763.667953 242.191094 
L 764.434647 226.203765 
L 765.201341 243.889151 
L 765.968035 240.910556 
L 766.734729 229.10384 
L 767.501423 224.376681 
L 768.268117 225.674724 
L 769.034811 240.734313 
L 769.801505 236.374054 
L 770.568199 224.620597 
L 771.334893 231.715988 
L 772.101587 243.889592 
L 772.868281 243.88347 
L 773.634976 227.182225 
L 774.40167 239.687064 
L 775.168364 239.103647 
L 775.935058 237.235264 
L 776.701752 229.829763 
L 777.468446 242.861351 
L 778.23514 234.557518 
L 779.001834 242.62606 
L 779.768528 237.822826 
L 780.535222 243.891798 
L 781.301916 241.595929 
L 782.06861 238.496609 
L 782.835304 237.310293 
L 783.601998 214.083459 
L 784.368692 238.667628 
L 785.135386 224.718843 
L 785.90208 239.05285 
L 786.668774 238.948154 
L 787.435468 236.792555 
L 788.202162 237.392173 
L 788.968856 226.867639 
L 789.73555 238.151424 
L 790.502244 235.807613 
L 791.268938 228.675655 
L 792.802326 243.115931 
L 793.56902 238.978873 
L 794.335714 243.891659 
L 795.102408 219.049559 
L 795.869102 236.18776 
L 796.635796 228.336051 
L 797.40249 237.963715 
L 798.169184 243.891777 
L 798.935878 229.773702 
L 799.702572 239.947719 
L 800.469266 234.368634 
L 801.235961 230.620077 
L 802.002655 243.888784 
L 802.769349 229.551636 
L 803.536043 240.926999 
L 804.302737 243.884138 
L 805.069431 232.840134 
L 805.836125 214.759537 
L 806.602819 241.487879 
L 807.369513 238.377735 
L 808.136207 233.428614 
L 808.902901 243.889226 
L 809.669595 236.552802 
L 810.436289 232.15232 
L 811.202983 235.684997 
L 811.969677 236.365235 
L 812.736371 234.871209 
L 813.503065 231.667927 
L 814.269759 227.005452 
L 815.036453 243.888473 
L 815.803147 243.891363 
L 816.569841 223.579084 
L 817.336535 237.867666 
L 818.103229 243.886219 
L 818.869923 243.890906 
L 819.636617 228.947882 
L 820.403311 231.110644 
L 821.170005 229.255354 
L 821.936699 243.890173 
L 822.703393 243.862118 
L 824.236781 237.377822 
L 825.003475 231.446029 
L 825.770169 234.992604 
L 826.536863 235.605355 
L 827.303557 226.599336 
L 828.070251 243.890555 
L 828.836946 232.797706 
L 829.60364 215.60812 
L 830.370334 231.596424 
L 831.137028 237.396826 
L 831.903722 234.559732 
L 832.670416 243.887092 
L 833.43711 238.889194 
L 834.203804 230.61919 
L 834.970498 236.650166 
L 835.737192 221.849027 
L 836.503886 238.023728 
L 837.27058 241.752018 
L 838.037274 240.928798 
L 838.803968 221.508834 
L 839.570662 242.930796 
L 840.337356 233.68213 
L 841.10405 227.114925 
L 841.870744 243.888136 
L 842.637438 233.433307 
L 843.404132 242.804113 
L 844.170826 232.53715 
L 844.93752 240.201441 
L 845.704214 213.881368 
L 846.470908 240.321932 
L 847.237602 227.532514 
L 848.004296 239.78294 
L 848.77099 234.659475 
L 849.537684 234.870623 
L 849.537684 234.870623 
" clip-path="url(#pc3d958dd35)" style="fill: none; stroke: #1f77b4; stroke-width: 1.5; stroke-linecap: square"/>
   </g>
   <g id="line2d_50">
    <path d="M 620.29617 150.400552 
L 621.062864 146.731569 
L 621.829558 158.616925 
L 622.596252 157.392476 
L 623.362946 162.15025 
L 624.12964 155.891274 
L 624.896334 157.493045 
L 625.663028 158.738298 
L 626.429722 155.172416 
L 627.196416 164.829977 
L 627.96311 172.203126 
L 628.729804 160.85044 
L 629.496498 160.112792 
L 630.263192 163.743889 
L 631.029886 146.31032 
L 631.79658 160.523409 
L 632.563274 172.202757 
L 633.329968 164.938535 
L 634.096662 149.551807 
L 634.863356 167.21459 
L 635.63005 172.201998 
L 636.396744 166.395568 
L 637.163439 168.646321 
L 637.930133 168.42077 
L 638.696827 172.201039 
L 639.463521 167.681234 
L 640.230215 171.902874 
L 640.996909 161.558242 
L 641.763603 161.460098 
L 642.530297 169.170878 
L 643.296991 169.418191 
L 644.063685 172.201262 
L 644.830379 163.78087 
L 645.597073 172.179632 
L 646.363767 169.227199 
L 647.130461 157.680136 
L 647.897155 162.907786 
L 648.663849 163.477948 
L 649.430543 171.736064 
L 650.197237 165.127444 
L 650.963931 167.280952 
L 651.730625 167.278114 
L 652.497319 144.747059 
L 653.264013 156.186364 
L 654.030707 165.962312 
L 654.797401 160.653514 
L 655.564095 157.539637 
L 656.330789 157.707115 
L 657.097483 155.355737 
L 657.864177 160.61142 
L 658.630871 160.871957 
L 659.397565 167.702637 
L 660.164259 162.774136 
L 660.930953 169.341539 
L 661.697647 143.588374 
L 662.464341 146.857389 
L 663.231035 160.783993 
L 663.997729 161.565095 
L 664.764424 157.42693 
L 665.531118 154.998878 
L 666.297812 165.468724 
L 667.064506 155.394373 
L 667.8312 168.651571 
L 668.597894 158.128863 
L 669.364588 156.85087 
L 670.131282 166.154785 
L 670.897976 167.719334 
L 671.66467 164.636354 
L 672.431364 160.200345 
L 673.198058 165.306881 
L 673.964752 171.532928 
L 674.731446 159.319247 
L 675.49814 144.719723 
L 676.264834 164.606718 
L 677.031528 172.198164 
L 677.798222 156.212204 
L 678.564916 171.960395 
L 680.098304 161.988994 
L 680.864998 172.196373 
L 681.631692 158.208176 
L 682.398386 156.352276 
L 683.16508 167.940888 
L 683.931774 172.201642 
L 684.698468 153.713675 
L 685.465162 155.536071 
L 686.231856 160.315387 
L 686.99855 167.342994 
L 687.765244 171.759168 
L 688.531938 166.283233 
L 689.298632 171.677844 
L 690.065326 172.200708 
L 690.83202 167.097453 
L 691.598714 170.576291 
L 692.365409 161.556321 
L 693.132103 170.927559 
L 693.898797 168.616898 
L 694.665491 160.404733 
L 695.432185 154.349925 
L 696.198879 143.101135 
L 696.965573 118.432315 
L 697.732267 104.468692 
L 698.498961 118.511916 
L 699.265655 118.250882 
L 700.032349 113.368453 
L 700.799043 107.234761 
L 701.565737 111.510238 
L 702.332431 123.11767 
L 703.865819 102.714433 
L 704.632513 122.917752 
L 705.399207 115.926546 
L 706.165901 125.13344 
L 706.932595 112.769291 
L 708.465983 126.766881 
L 709.232677 116.755248 
L 709.999371 119.59248 
L 710.766065 118.18938 
L 711.532759 108.993689 
L 712.299453 120.959721 
L 713.066147 117.069168 
L 713.832841 124.302325 
L 714.599535 104.114578 
L 715.366229 126.840523 
L 716.132923 113.805448 
L 716.899617 115.280809 
L 717.666311 107.175123 
L 718.433005 125.875991 
L 719.1997 123.025312 
L 719.966394 125.215478 
L 720.733088 119.17101 
L 721.499782 127.291066 
L 722.266476 110.881441 
L 723.03317 116.559848 
L 723.799864 126.61183 
L 724.566558 101.129107 
L 725.333252 121.035061 
L 726.099946 111.982351 
L 726.86664 125.696974 
L 727.633334 112.596874 
L 728.400028 116.600918 
L 729.166722 110.232514 
L 729.933416 118.91438 
L 730.70011 107.265811 
L 731.466804 121.262297 
L 732.233498 108.90322 
L 733.000192 112.788817 
L 733.766886 111.637751 
L 735.300274 120.755824 
L 736.066968 118.640588 
L 736.833662 112.306855 
L 737.600356 129.884616 
L 738.36705 110.802264 
L 739.133744 112.763474 
L 739.900438 125.770022 
L 740.667132 117.079723 
L 742.20052 115.748099 
L 742.967214 123.341069 
L 743.733908 116.872295 
L 744.500602 124.149353 
L 745.267296 113.14068 
L 746.03399 116.57828 
L 746.800685 115.449495 
L 747.567379 115.319071 
L 748.334073 130.285138 
L 749.100767 124.910702 
L 749.867461 116.569747 
L 750.634155 109.681208 
L 751.400849 124.876488 
L 752.167543 119.102864 
L 752.934237 116.669561 
L 753.700931 109.364857 
L 754.467625 126.378335 
L 755.234319 110.052967 
L 756.001013 121.603771 
L 756.767707 129.568039 
L 757.534401 115.42929 
L 758.301095 110.055836 
L 759.067789 106.986829 
L 759.834483 114.260336 
L 761.367871 121.623406 
L 762.134565 117.278568 
L 762.901259 110.182591 
L 763.667953 112.357916 
L 764.434647 118.212168 
L 765.201341 113.218832 
L 766.734729 134.78248 
L 767.501423 121.836642 
L 768.268117 128.042584 
L 769.034811 103.680133 
L 769.801505 111.944624 
L 770.568199 124.346266 
L 771.334893 120.185501 
L 772.101587 106.106098 
L 772.868281 101.960708 
L 773.634976 169.789199 
L 774.40167 153.99409 
L 775.168364 171.367763 
L 775.935058 154.970272 
L 776.701752 165.607924 
L 777.468446 167.216906 
L 778.23514 163.946581 
L 779.001834 145.94408 
L 779.768528 157.646397 
L 780.535222 146.869936 
L 781.301916 151.893989 
L 782.06861 172.191989 
L 782.835304 161.288373 
L 783.601998 166.329593 
L 784.368692 163.527608 
L 785.135386 170.202699 
L 785.90208 153.644124 
L 786.668774 166.083516 
L 787.435468 155.15601 
L 788.202162 154.981166 
L 788.968856 168.586073 
L 789.73555 160.546991 
L 790.502244 155.311438 
L 791.268938 161.893039 
L 792.035632 166.652039 
L 792.802326 164.445016 
L 793.56902 156.414958 
L 794.335714 154.868945 
L 795.102408 172.197209 
L 795.869102 159.663729 
L 796.635796 168.634011 
L 797.40249 163.023505 
L 798.169184 160.601834 
L 798.935878 170.856111 
L 799.702572 172.198563 
L 800.469266 172.200545 
L 801.235961 165.800278 
L 802.002655 145.264098 
L 802.769349 155.627908 
L 803.536043 150.907436 
L 804.302737 151.781093 
L 805.069431 168.888968 
L 805.836125 166.513061 
L 806.602819 148.021878 
L 807.369513 160.156816 
L 808.136207 169.393705 
L 808.902901 149.616054 
L 809.669595 142.520184 
L 810.436289 167.568258 
L 811.202983 168.122341 
L 811.969677 158.335828 
L 812.736371 154.321662 
L 813.503065 165.730314 
L 814.269759 172.202556 
L 815.036453 164.946661 
L 815.803147 151.005764 
L 816.569841 172.202186 
L 817.336535 164.560689 
L 818.103229 153.617355 
L 818.869923 155.185264 
L 819.636617 166.326234 
L 820.403311 172.200715 
L 821.170005 163.036103 
L 821.936699 150.73639 
L 822.703393 172.192274 
L 823.470087 172.194425 
L 824.236781 152.13329 
L 825.003475 172.091078 
L 825.770169 163.397392 
L 826.536863 162.678429 
L 827.303557 164.631106 
L 828.070251 158.68332 
L 828.836946 165.383909 
L 829.60364 164.614302 
L 830.370334 155.478484 
L 831.137028 159.2636 
L 831.903722 155.521556 
L 832.670416 161.576635 
L 833.43711 172.200007 
L 834.203804 172.196563 
L 834.970498 147.22444 
L 835.737192 167.263311 
L 836.503886 164.942568 
L 837.27058 155.678484 
L 838.037274 158.444234 
L 838.803968 165.701626 
L 839.570662 157.196157 
L 840.337356 158.358335 
L 841.10405 171.217414 
L 841.870744 157.867191 
L 842.637438 172.201389 
L 843.404132 165.182871 
L 844.170826 166.663484 
L 844.93752 160.346374 
L 845.704214 172.201002 
L 846.470908 155.165927 
L 847.237602 167.052939 
L 848.004296 156.739367 
L 848.77099 164.975731 
L 849.537684 167.960872 
L 849.537684 167.960872 
" clip-path="url(#pc3d958dd35)" style="fill: none; stroke: #ff7f0e; stroke-width: 1.5; stroke-linecap: square"/>
   </g>
   <g id="line2d_51">
    <path d="M 620.29617 100.512751 
L 621.062864 90.199817 
L 621.829558 100.513553 
L 622.596252 99.361863 
L 623.362946 90.189704 
L 624.12964 87.747272 
L 624.896334 97.042509 
L 625.663028 94.113229 
L 626.429722 100.512701 
L 627.196416 97.890769 
L 627.96311 75.441482 
L 628.729804 100.504312 
L 629.496498 100.513903 
L 630.263192 93.513289 
L 631.029886 96.884389 
L 631.79658 92.026096 
L 632.563274 96.817619 
L 633.329968 89.563315 
L 634.096662 95.924965 
L 634.863356 91.095393 
L 635.63005 92.982504 
L 636.396744 73.552876 
L 637.163439 90.81606 
L 637.930133 81.142974 
L 638.696827 83.916905 
L 639.463521 85.036223 
L 640.230215 93.711075 
L 640.996909 90.617326 
L 641.763603 91.736493 
L 642.530297 89.696158 
L 643.296991 89.431062 
L 644.063685 95.622523 
L 644.830379 95.224164 
L 645.597073 79.960954 
L 646.363767 86.267088 
L 647.130461 96.80238 
L 647.897155 100.513531 
L 648.663849 97.820129 
L 649.430543 88.975023 
L 650.197237 90.195874 
L 650.963931 81.241202 
L 651.730625 100.502514 
L 652.497319 94.92184 
L 653.264013 100.495346 
L 654.030707 81.265528 
L 654.797401 85.029515 
L 655.564095 90.039482 
L 656.330789 92.076081 
L 657.097483 85.566576 
L 657.864177 91.747344 
L 658.630871 100.513877 
L 659.397565 80.275562 
L 660.164259 77.112179 
L 660.930953 92.661618 
L 661.697647 99.424446 
L 662.464341 100.507725 
L 663.231035 79.308408 
L 663.997729 87.56657 
L 664.764424 99.357351 
L 665.531118 92.939822 
L 666.297812 99.269356 
L 667.064506 89.268253 
L 667.8312 88.463973 
L 668.597894 82.367284 
L 669.364588 95.337485 
L 670.131282 85.272128 
L 670.897976 87.888518 
L 671.66467 85.62339 
L 672.431364 97.11113 
L 673.198058 99.374238 
L 673.964752 80.885568 
L 675.49814 100.513427 
L 676.264834 82.066962 
L 677.031528 86.456606 
L 677.798222 85.328545 
L 678.564916 90.775342 
L 679.33161 94.42035 
L 680.098304 100.512045 
L 680.864998 86.941719 
L 681.631692 81.637101 
L 682.398386 98.423462 
L 683.16508 81.06263 
L 683.931774 93.882389 
L 684.698468 99.106729 
L 685.465162 97.330501 
L 686.231856 100.490782 
L 686.99855 82.965189 
L 687.765244 89.853639 
L 688.531938 89.393541 
L 689.298632 95.509429 
L 690.065326 99.125298 
L 690.83202 100.50968 
L 691.598714 84.961427 
L 692.365409 81.548903 
L 693.132103 82.87296 
L 693.898797 96.785003 
L 694.665491 96.614373 
L 695.432185 94.369859 
L 696.198879 100.509552 
L 696.965573 90.468872 
L 697.732267 96.707099 
L 698.498961 100.510336 
L 699.265655 94.702048 
L 700.032349 94.215279 
L 701.565737 99.008425 
L 702.332431 87.327755 
L 703.099125 90.382813 
L 703.865819 100.513842 
L 704.632513 87.000082 
L 705.399207 87.02544 
L 706.165901 81.527777 
L 706.932595 92.106599 
L 707.699289 88.95236 
L 708.465983 84.477435 
L 709.232677 86.75689 
L 709.999371 81.459033 
L 710.766065 100.514163 
L 711.532759 92.168285 
L 712.299453 89.310269 
L 713.066147 92.262015 
L 713.832841 96.48397 
L 714.599535 96.919907 
L 715.366229 92.324714 
L 716.132923 97.679585 
L 716.899617 94.166261 
L 717.666311 93.918078 
L 718.433005 92.581285 
L 719.1997 79.113855 
L 719.966394 86.087351 
L 720.733088 88.234656 
L 721.499782 78.420419 
L 722.266476 95.101536 
L 723.03317 89.53853 
L 723.799864 100.512976 
L 724.566558 100.509047 
L 725.333252 89.186091 
L 726.099946 95.701495 
L 726.86664 75.334559 
L 727.633334 88.43781 
L 728.400028 84.431217 
L 729.166722 91.493681 
L 729.933416 82.118112 
L 730.70011 93.767352 
L 731.466804 89.699377 
L 732.233498 100.513852 
L 733.000192 88.244994 
L 733.766886 90.345835 
L 734.53358 87.885838 
L 735.300274 80.277126 
L 736.066968 93.854418 
L 736.833662 98.192004 
L 737.600356 88.407729 
L 738.36705 97.196107 
L 739.133744 88.271616 
L 739.900438 87.372925 
L 740.667132 89.060697 
L 741.433826 92.820066 
L 742.20052 91.989205 
L 742.967214 90.390939 
L 743.733908 97.27891 
L 744.500602 85.53521 
L 745.267296 87.891181 
L 746.03399 84.457207 
L 746.800685 100.503345 
L 747.567379 100.508895 
L 748.334073 72.138737 
L 749.867461 84.462391 
L 750.634155 100.489207 
L 751.400849 92.169938 
L 752.167543 90.15406 
L 752.934237 88.950161 
L 753.700931 94.441878 
L 754.467625 92.538562 
L 755.234319 100.51188 
L 756.001013 89.696028 
L 756.767707 81.643542 
L 757.534401 86.375957 
L 758.301095 96.588509 
L 759.067789 96.819616 
L 759.834483 91.2449 
L 760.601177 92.258934 
L 761.367871 94.614818 
L 762.134565 97.717706 
L 762.901259 98.526464 
L 763.667953 90.37489 
L 764.434647 100.507966 
L 765.201341 87.815917 
L 765.968035 79.221927 
L 766.734729 81.03758 
L 767.501423 98.710577 
L 768.268117 91.206593 
L 769.034811 100.509454 
L 769.801505 96.605221 
L 770.568199 95.957037 
L 771.334893 93.022411 
L 772.101587 94.92821 
L 772.868281 99.079722 
L 773.634976 47.952476 
L 774.40167 51.242746 
L 775.168364 34.45249 
L 775.935058 52.718365 
L 776.701752 49.486213 
L 777.468446 34.845643 
L 779.001834 56.35376 
L 779.768528 49.454677 
L 780.535222 54.162167 
L 781.301916 51.433982 
L 782.06861 34.235302 
L 782.835304 46.325234 
L 783.601998 64.510848 
L 784.368692 42.728664 
L 785.135386 50.002359 
L 785.90208 52.226926 
L 786.668774 39.892231 
L 787.435468 52.975335 
L 788.202162 52.550561 
L 789.73555 46.225485 
L 790.502244 53.80485 
L 791.268938 54.355206 
L 792.035632 42.802754 
L 792.802326 37.362953 
L 793.56902 49.530068 
L 794.335714 46.163296 
L 795.102408 53.677131 
L 795.869102 49.072411 
L 796.635796 47.953838 
L 798.169184 40.430288 
L 798.935878 44.294087 
L 799.702572 32.777618 
L 800.469266 38.354722 
L 801.235961 48.503545 
L 802.002655 55.771018 
L 802.769349 59.744356 
L 803.536043 53.089465 
L 804.302737 49.258669 
L 805.069431 43.194798 
L 805.836125 63.651302 
L 807.369513 46.389348 
L 808.136207 42.101581 
L 808.902901 51.41862 
L 809.669595 65.850914 
L 810.436289 45.203322 
L 811.202983 41.116562 
L 811.969677 50.222837 
L 812.736371 55.731029 
L 813.503065 47.52566 
L 814.269759 45.715892 
L 815.036453 36.088766 
L 815.803147 50.026773 
L 816.569841 49.14263 
L 817.336535 42.495546 
L 818.103229 47.420326 
L 818.869923 45.84773 
L 819.636617 49.649785 
L 820.403311 41.612541 
L 821.170005 52.632443 
L 821.936699 50.297337 
L 822.703393 28.869508 
L 823.470087 32.09256 
L 824.236781 55.412789 
L 825.003475 41.386793 
L 825.770169 46.533904 
L 826.536863 46.640116 
L 827.303557 53.693458 
L 828.070251 42.350025 
L 828.836946 46.742285 
L 829.60364 64.701478 
L 830.370334 57.848992 
L 831.137028 48.263474 
L 831.903722 54.842612 
L 832.670416 39.460173 
L 833.43711 33.8347 
L 834.203804 42.108146 
L 834.970498 61.049294 
L 835.737192 55.811562 
L 836.503886 41.957604 
L 837.27058 47.493399 
L 838.037274 45.550868 
L 838.803968 57.71344 
L 839.570662 44.796947 
L 840.337356 52.883435 
L 841.10405 46.591561 
L 842.637438 39.289204 
L 843.404132 36.936916 
L 844.170826 45.723266 
L 844.93752 44.376085 
L 845.704214 58.84153 
L 846.470908 49.436041 
L 847.237602 50.338447 
L 848.004296 48.401593 
L 849.537684 42.092405 
L 849.537684 42.092405 
" clip-path="url(#pc3d958dd35)" style="fill: none; stroke: #2ca02c; stroke-width: 1.5; stroke-linecap: square"/>
   </g>
   <g id="patch_14">
    <path d="M 608.834094 254.64351 
L 608.834094 18.118365 
" style="fill: none; stroke: #000000; stroke-width: 0.8; stroke-linejoin: miter; stroke-linecap: square"/>
   </g>
   <g id="patch_15">
    <path d="M 860.99976 254.64351 
L 860.99976 18.118365 
" style="fill: none; stroke: #000000; stroke-width: 0.8; stroke-linejoin: miter; stroke-linecap: square"/>
   </g>
   <g id="patch_16">
    <path d="M 608.834094 254.64351 
L 860.99976 254.64351 
" style="fill: none; stroke: #000000; stroke-width: 0.8; stroke-linejoin: miter; stroke-linecap: square"/>
   </g>
   <g id="patch_17">
    <path d="M 608.834094 18.118365 
L 860.99976 18.118365 
" style="fill: none; stroke: #000000; stroke-width: 0.8; stroke-linejoin: miter; stroke-linecap: square"/>
   </g>
   <g id="text_41">
    <!-- S -->
    <g transform="translate(731.107865 12.118365) scale(0.12 -0.12)">
     <use xlink:href="#DejaVuSans-53"/>
    </g>
   </g>
  </g>
 </g>
 <defs>
  <clipPath id="p365a80e2a2">
   <rect x="30.040865" y="18.118365" width="252.165666" height="236.525145"/>
  </clipPath>
  <clipPath id="pcc139cb68c">
   <rect x="323.627323" y="18.118365" width="252.165666" height="236.525145"/>
  </clipPath>
  <clipPath id="pc3d958dd35">
   <rect x="608.834094" y="18.118365" width="252.165666" height="236.525145"/>
  </clipPath>
 </defs>
</svg>
